M48
;GenerationSoftware,Autodesk,EAGLE,9.6.0*%
;CreationDate,2020-03-22T09:13:08Z*%
FMAT,2
ICI,OFF
METRIC,TZ,000.000
T3C1.016
T2C2.000
T1C3.000
%
G90
M71
T1
X3000Y11500
X3000Y3000
X97000Y11500
X97000Y3000
T2
X10250Y11949
X10250Y7250
X10250Y2551
X36750Y2551
X36750Y7250
X36750Y11949
X63250Y11949
X63250Y7250
X63250Y2551
X89750Y2551
X89750Y7250
X89750Y11949
T3
X19690Y2000
X22230Y2000
X24770Y2000
X27310Y2000
X72690Y2000
X75230Y2000
X77770Y2000
X80310Y2000
X48730Y12500
X51270Y12500
M30