G04 EAGLE Gerber RS-274X export*
G75*
%MOMM*%
%FSLAX34Y34*%
%LPD*%
%IN*%
%IPPOS*%
%AMOC8*
5,1,8,0,0,1.08239X$1,22.5*%
G01*
%ADD10C,0.254000*%


D10*
X0Y0D02*
X1000000Y0D01*
X1000000Y145000D01*
X0Y145000D01*
X0Y0D01*
X250000Y114464D02*
X249924Y113396D01*
X249771Y112335D01*
X249543Y111288D01*
X249241Y110260D01*
X248867Y109256D01*
X248422Y108281D01*
X247908Y107341D01*
X247329Y106440D01*
X246687Y105582D01*
X245985Y104772D01*
X245228Y104015D01*
X244418Y103313D01*
X243560Y102671D01*
X242659Y102092D01*
X241719Y101578D01*
X240744Y101133D01*
X239740Y100759D01*
X238712Y100457D01*
X237665Y100229D01*
X236604Y100076D01*
X235536Y100000D01*
X234464Y100000D01*
X233396Y100076D01*
X232335Y100229D01*
X231288Y100457D01*
X230260Y100759D01*
X229256Y101133D01*
X228281Y101578D01*
X227341Y102092D01*
X226440Y102671D01*
X225582Y103313D01*
X224772Y104015D01*
X224015Y104772D01*
X223313Y105582D01*
X222671Y106440D01*
X222092Y107341D01*
X221578Y108281D01*
X221133Y109256D01*
X220759Y110260D01*
X220457Y111288D01*
X220229Y112335D01*
X220076Y113396D01*
X220000Y114464D01*
X220000Y115536D01*
X220076Y116604D01*
X220229Y117665D01*
X220457Y118712D01*
X220759Y119740D01*
X221133Y120744D01*
X221578Y121719D01*
X222092Y122659D01*
X222671Y123560D01*
X223313Y124418D01*
X224015Y125228D01*
X224772Y125985D01*
X225582Y126687D01*
X226440Y127329D01*
X227341Y127908D01*
X228281Y128422D01*
X229256Y128867D01*
X230260Y129241D01*
X231288Y129543D01*
X232335Y129771D01*
X233396Y129924D01*
X234464Y130000D01*
X235536Y130000D01*
X236604Y129924D01*
X237665Y129771D01*
X238712Y129543D01*
X239740Y129241D01*
X240744Y128867D01*
X241719Y128422D01*
X242659Y127908D01*
X243560Y127329D01*
X244418Y126687D01*
X245228Y125985D01*
X245985Y125228D01*
X246687Y124418D01*
X247329Y123560D01*
X247908Y122659D01*
X248422Y121719D01*
X248867Y120744D01*
X249241Y119740D01*
X249543Y118712D01*
X249771Y117665D01*
X249924Y116604D01*
X250000Y115536D01*
X250000Y114464D01*
X780000Y29464D02*
X779924Y28396D01*
X779771Y27335D01*
X779543Y26288D01*
X779241Y25260D01*
X778867Y24256D01*
X778422Y23281D01*
X777908Y22341D01*
X777329Y21440D01*
X776687Y20582D01*
X775985Y19772D01*
X775228Y19015D01*
X774418Y18313D01*
X773560Y17671D01*
X772659Y17092D01*
X771719Y16578D01*
X770744Y16133D01*
X769740Y15759D01*
X768712Y15457D01*
X767665Y15229D01*
X766604Y15076D01*
X765536Y15000D01*
X764464Y15000D01*
X763396Y15076D01*
X762335Y15229D01*
X761288Y15457D01*
X760260Y15759D01*
X759256Y16133D01*
X758281Y16578D01*
X757341Y17092D01*
X756440Y17671D01*
X755582Y18313D01*
X754772Y19015D01*
X754015Y19772D01*
X753313Y20582D01*
X752671Y21440D01*
X752092Y22341D01*
X751578Y23281D01*
X751133Y24256D01*
X750759Y25260D01*
X750457Y26288D01*
X750229Y27335D01*
X750076Y28396D01*
X750000Y29464D01*
X750000Y30536D01*
X750076Y31604D01*
X750229Y32665D01*
X750457Y33712D01*
X750759Y34740D01*
X751133Y35744D01*
X751578Y36719D01*
X752092Y37659D01*
X752671Y38560D01*
X753313Y39418D01*
X754015Y40228D01*
X754772Y40985D01*
X755582Y41687D01*
X756440Y42329D01*
X757341Y42908D01*
X758281Y43422D01*
X759256Y43867D01*
X760260Y44241D01*
X761288Y44543D01*
X762335Y44771D01*
X763396Y44924D01*
X764464Y45000D01*
X765536Y45000D01*
X766604Y44924D01*
X767665Y44771D01*
X768712Y44543D01*
X769740Y44241D01*
X770744Y43867D01*
X771719Y43422D01*
X772659Y42908D01*
X773560Y42329D01*
X774418Y41687D01*
X775228Y40985D01*
X775985Y40228D01*
X776687Y39418D01*
X777329Y38560D01*
X777908Y37659D01*
X778422Y36719D01*
X778867Y35744D01*
X779241Y34740D01*
X779543Y33712D01*
X779771Y32665D01*
X779924Y31604D01*
X780000Y30536D01*
X780000Y29464D01*
X780000Y114464D02*
X779924Y113396D01*
X779771Y112335D01*
X779543Y111288D01*
X779241Y110260D01*
X778867Y109256D01*
X778422Y108281D01*
X777908Y107341D01*
X777329Y106440D01*
X776687Y105582D01*
X775985Y104772D01*
X775228Y104015D01*
X774418Y103313D01*
X773560Y102671D01*
X772659Y102092D01*
X771719Y101578D01*
X770744Y101133D01*
X769740Y100759D01*
X768712Y100457D01*
X767665Y100229D01*
X766604Y100076D01*
X765536Y100000D01*
X764464Y100000D01*
X763396Y100076D01*
X762335Y100229D01*
X761288Y100457D01*
X760260Y100759D01*
X759256Y101133D01*
X758281Y101578D01*
X757341Y102092D01*
X756440Y102671D01*
X755582Y103313D01*
X754772Y104015D01*
X754015Y104772D01*
X753313Y105582D01*
X752671Y106440D01*
X752092Y107341D01*
X751578Y108281D01*
X751133Y109256D01*
X750759Y110260D01*
X750457Y111288D01*
X750229Y112335D01*
X750076Y113396D01*
X750000Y114464D01*
X750000Y115536D01*
X750076Y116604D01*
X750229Y117665D01*
X750457Y118712D01*
X750759Y119740D01*
X751133Y120744D01*
X751578Y121719D01*
X752092Y122659D01*
X752671Y123560D01*
X753313Y124418D01*
X754015Y125228D01*
X754772Y125985D01*
X755582Y126687D01*
X756440Y127329D01*
X757341Y127908D01*
X758281Y128422D01*
X759256Y128867D01*
X760260Y129241D01*
X761288Y129543D01*
X762335Y129771D01*
X763396Y129924D01*
X764464Y130000D01*
X765536Y130000D01*
X766604Y129924D01*
X767665Y129771D01*
X768712Y129543D01*
X769740Y129241D01*
X770744Y128867D01*
X771719Y128422D01*
X772659Y127908D01*
X773560Y127329D01*
X774418Y126687D01*
X775228Y125985D01*
X775985Y125228D01*
X776687Y124418D01*
X777329Y123560D01*
X777908Y122659D01*
X778422Y121719D01*
X778867Y120744D01*
X779241Y119740D01*
X779543Y118712D01*
X779771Y117665D01*
X779924Y116604D01*
X780000Y115536D01*
X780000Y114464D01*
X250000Y29464D02*
X249924Y28396D01*
X249771Y27335D01*
X249543Y26288D01*
X249241Y25260D01*
X248867Y24256D01*
X248422Y23281D01*
X247908Y22341D01*
X247329Y21440D01*
X246687Y20582D01*
X245985Y19772D01*
X245228Y19015D01*
X244418Y18313D01*
X243560Y17671D01*
X242659Y17092D01*
X241719Y16578D01*
X240744Y16133D01*
X239740Y15759D01*
X238712Y15457D01*
X237665Y15229D01*
X236604Y15076D01*
X235536Y15000D01*
X234464Y15000D01*
X233396Y15076D01*
X232335Y15229D01*
X231288Y15457D01*
X230260Y15759D01*
X229256Y16133D01*
X228281Y16578D01*
X227341Y17092D01*
X226440Y17671D01*
X225582Y18313D01*
X224772Y19015D01*
X224015Y19772D01*
X223313Y20582D01*
X222671Y21440D01*
X222092Y22341D01*
X221578Y23281D01*
X221133Y24256D01*
X220759Y25260D01*
X220457Y26288D01*
X220229Y27335D01*
X220076Y28396D01*
X220000Y29464D01*
X220000Y30536D01*
X220076Y31604D01*
X220229Y32665D01*
X220457Y33712D01*
X220759Y34740D01*
X221133Y35744D01*
X221578Y36719D01*
X222092Y37659D01*
X222671Y38560D01*
X223313Y39418D01*
X224015Y40228D01*
X224772Y40985D01*
X225582Y41687D01*
X226440Y42329D01*
X227341Y42908D01*
X228281Y43422D01*
X229256Y43867D01*
X230260Y44241D01*
X231288Y44543D01*
X232335Y44771D01*
X233396Y44924D01*
X234464Y45000D01*
X235536Y45000D01*
X236604Y44924D01*
X237665Y44771D01*
X238712Y44543D01*
X239740Y44241D01*
X240744Y43867D01*
X241719Y43422D01*
X242659Y42908D01*
X243560Y42329D01*
X244418Y41687D01*
X245228Y40985D01*
X245985Y40228D01*
X246687Y39418D01*
X247329Y38560D01*
X247908Y37659D01*
X248422Y36719D01*
X248867Y35744D01*
X249241Y34740D01*
X249543Y33712D01*
X249771Y32665D01*
X249924Y31604D01*
X250000Y30536D01*
X250000Y29464D01*
X376517Y27148D02*
X376448Y26364D01*
X376312Y25589D01*
X376108Y24828D01*
X375839Y24088D01*
X375506Y23374D01*
X375112Y22693D01*
X374660Y22048D01*
X374154Y21444D01*
X373598Y20888D01*
X372994Y20382D01*
X372349Y19930D01*
X371668Y19536D01*
X370954Y19203D01*
X370214Y18934D01*
X369454Y18730D01*
X368678Y18594D01*
X367894Y18525D01*
X367106Y18525D01*
X366322Y18594D01*
X365547Y18730D01*
X364786Y18934D01*
X364046Y19203D01*
X363332Y19536D01*
X362651Y19930D01*
X362006Y20382D01*
X361402Y20888D01*
X360846Y21444D01*
X360340Y22048D01*
X359888Y22693D01*
X359494Y23374D01*
X359161Y24088D01*
X358892Y24828D01*
X358688Y25589D01*
X358552Y26364D01*
X358483Y27148D01*
X358483Y27936D01*
X358552Y28720D01*
X358688Y29496D01*
X358892Y30256D01*
X359161Y30996D01*
X359494Y31710D01*
X359888Y32391D01*
X360340Y33036D01*
X360846Y33640D01*
X361402Y34196D01*
X362006Y34702D01*
X362651Y35154D01*
X363332Y35548D01*
X364046Y35881D01*
X364786Y36150D01*
X365547Y36354D01*
X366322Y36490D01*
X367106Y36559D01*
X367894Y36559D01*
X368678Y36490D01*
X369454Y36354D01*
X370214Y36150D01*
X370954Y35881D01*
X371668Y35548D01*
X372349Y35154D01*
X372994Y34702D01*
X373598Y34196D01*
X374154Y33640D01*
X374660Y33036D01*
X375112Y32391D01*
X375506Y31710D01*
X375839Y30996D01*
X376108Y30256D01*
X376312Y29496D01*
X376448Y28720D01*
X376517Y27936D01*
X376517Y27148D01*
X376517Y117064D02*
X376448Y116280D01*
X376312Y115505D01*
X376108Y114744D01*
X375839Y114004D01*
X375506Y113290D01*
X375112Y112609D01*
X374660Y111964D01*
X374154Y111360D01*
X373598Y110804D01*
X372994Y110298D01*
X372349Y109846D01*
X371668Y109452D01*
X370954Y109119D01*
X370214Y108850D01*
X369454Y108646D01*
X368678Y108510D01*
X367894Y108441D01*
X367106Y108441D01*
X366322Y108510D01*
X365547Y108646D01*
X364786Y108850D01*
X364046Y109119D01*
X363332Y109452D01*
X362651Y109846D01*
X362006Y110298D01*
X361402Y110804D01*
X360846Y111360D01*
X360340Y111964D01*
X359888Y112609D01*
X359494Y113290D01*
X359161Y114004D01*
X358892Y114744D01*
X358688Y115505D01*
X358552Y116280D01*
X358483Y117064D01*
X358483Y117852D01*
X358552Y118636D01*
X358688Y119412D01*
X358892Y120172D01*
X359161Y120912D01*
X359494Y121626D01*
X359888Y122307D01*
X360340Y122952D01*
X360846Y123556D01*
X361402Y124112D01*
X362006Y124618D01*
X362651Y125070D01*
X363332Y125464D01*
X364046Y125797D01*
X364786Y126066D01*
X365547Y126270D01*
X366322Y126406D01*
X367106Y126475D01*
X367894Y126475D01*
X368678Y126406D01*
X369454Y126270D01*
X370214Y126066D01*
X370954Y125797D01*
X371668Y125464D01*
X372349Y125070D01*
X372994Y124618D01*
X373598Y124112D01*
X374154Y123556D01*
X374660Y122952D01*
X375112Y122307D01*
X375506Y121626D01*
X375839Y120912D01*
X376108Y120172D01*
X376312Y119412D01*
X376448Y118636D01*
X376517Y117852D01*
X376517Y117064D01*
X641517Y27148D02*
X641448Y26364D01*
X641312Y25589D01*
X641108Y24828D01*
X640839Y24088D01*
X640506Y23374D01*
X640112Y22693D01*
X639660Y22048D01*
X639154Y21444D01*
X638598Y20888D01*
X637994Y20382D01*
X637349Y19930D01*
X636668Y19536D01*
X635954Y19203D01*
X635214Y18934D01*
X634454Y18730D01*
X633678Y18594D01*
X632894Y18525D01*
X632106Y18525D01*
X631322Y18594D01*
X630547Y18730D01*
X629786Y18934D01*
X629046Y19203D01*
X628332Y19536D01*
X627651Y19930D01*
X627006Y20382D01*
X626402Y20888D01*
X625846Y21444D01*
X625340Y22048D01*
X624888Y22693D01*
X624494Y23374D01*
X624161Y24088D01*
X623892Y24828D01*
X623688Y25589D01*
X623552Y26364D01*
X623483Y27148D01*
X623483Y27936D01*
X623552Y28720D01*
X623688Y29496D01*
X623892Y30256D01*
X624161Y30996D01*
X624494Y31710D01*
X624888Y32391D01*
X625340Y33036D01*
X625846Y33640D01*
X626402Y34196D01*
X627006Y34702D01*
X627651Y35154D01*
X628332Y35548D01*
X629046Y35881D01*
X629786Y36150D01*
X630547Y36354D01*
X631322Y36490D01*
X632106Y36559D01*
X632894Y36559D01*
X633678Y36490D01*
X634454Y36354D01*
X635214Y36150D01*
X635954Y35881D01*
X636668Y35548D01*
X637349Y35154D01*
X637994Y34702D01*
X638598Y34196D01*
X639154Y33640D01*
X639660Y33036D01*
X640112Y32391D01*
X640506Y31710D01*
X640839Y30996D01*
X641108Y30256D01*
X641312Y29496D01*
X641448Y28720D01*
X641517Y27936D01*
X641517Y27148D01*
X641517Y117064D02*
X641448Y116280D01*
X641312Y115505D01*
X641108Y114744D01*
X640839Y114004D01*
X640506Y113290D01*
X640112Y112609D01*
X639660Y111964D01*
X639154Y111360D01*
X638598Y110804D01*
X637994Y110298D01*
X637349Y109846D01*
X636668Y109452D01*
X635954Y109119D01*
X635214Y108850D01*
X634454Y108646D01*
X633678Y108510D01*
X632894Y108441D01*
X632106Y108441D01*
X631322Y108510D01*
X630547Y108646D01*
X629786Y108850D01*
X629046Y109119D01*
X628332Y109452D01*
X627651Y109846D01*
X627006Y110298D01*
X626402Y110804D01*
X625846Y111360D01*
X625340Y111964D01*
X624888Y112609D01*
X624494Y113290D01*
X624161Y114004D01*
X623892Y114744D01*
X623688Y115505D01*
X623552Y116280D01*
X623483Y117064D01*
X623483Y117852D01*
X623552Y118636D01*
X623688Y119412D01*
X623892Y120172D01*
X624161Y120912D01*
X624494Y121626D01*
X624888Y122307D01*
X625340Y122952D01*
X625846Y123556D01*
X626402Y124112D01*
X627006Y124618D01*
X627651Y125070D01*
X628332Y125464D01*
X629046Y125797D01*
X629786Y126066D01*
X630547Y126270D01*
X631322Y126406D01*
X632106Y126475D01*
X632894Y126475D01*
X633678Y126406D01*
X634454Y126270D01*
X635214Y126066D01*
X635954Y125797D01*
X636668Y125464D01*
X637349Y125070D01*
X637994Y124618D01*
X638598Y124112D01*
X639154Y123556D01*
X639660Y122952D01*
X640112Y122307D01*
X640506Y121626D01*
X640839Y120912D01*
X641108Y120172D01*
X641312Y119412D01*
X641448Y118636D01*
X641517Y117852D01*
X641517Y117064D01*
X906517Y27148D02*
X906448Y26364D01*
X906312Y25589D01*
X906108Y24828D01*
X905839Y24088D01*
X905506Y23374D01*
X905112Y22693D01*
X904660Y22048D01*
X904154Y21444D01*
X903598Y20888D01*
X902994Y20382D01*
X902349Y19930D01*
X901668Y19536D01*
X900954Y19203D01*
X900214Y18934D01*
X899454Y18730D01*
X898678Y18594D01*
X897894Y18525D01*
X897106Y18525D01*
X896322Y18594D01*
X895547Y18730D01*
X894786Y18934D01*
X894046Y19203D01*
X893332Y19536D01*
X892651Y19930D01*
X892006Y20382D01*
X891402Y20888D01*
X890846Y21444D01*
X890340Y22048D01*
X889888Y22693D01*
X889494Y23374D01*
X889161Y24088D01*
X888892Y24828D01*
X888688Y25589D01*
X888552Y26364D01*
X888483Y27148D01*
X888483Y27936D01*
X888552Y28720D01*
X888688Y29496D01*
X888892Y30256D01*
X889161Y30996D01*
X889494Y31710D01*
X889888Y32391D01*
X890340Y33036D01*
X890846Y33640D01*
X891402Y34196D01*
X892006Y34702D01*
X892651Y35154D01*
X893332Y35548D01*
X894046Y35881D01*
X894786Y36150D01*
X895547Y36354D01*
X896322Y36490D01*
X897106Y36559D01*
X897894Y36559D01*
X898678Y36490D01*
X899454Y36354D01*
X900214Y36150D01*
X900954Y35881D01*
X901668Y35548D01*
X902349Y35154D01*
X902994Y34702D01*
X903598Y34196D01*
X904154Y33640D01*
X904660Y33036D01*
X905112Y32391D01*
X905506Y31710D01*
X905839Y30996D01*
X906108Y30256D01*
X906312Y29496D01*
X906448Y28720D01*
X906517Y27936D01*
X906517Y27148D01*
X906517Y117064D02*
X906448Y116280D01*
X906312Y115505D01*
X906108Y114744D01*
X905839Y114004D01*
X905506Y113290D01*
X905112Y112609D01*
X904660Y111964D01*
X904154Y111360D01*
X903598Y110804D01*
X902994Y110298D01*
X902349Y109846D01*
X901668Y109452D01*
X900954Y109119D01*
X900214Y108850D01*
X899454Y108646D01*
X898678Y108510D01*
X897894Y108441D01*
X897106Y108441D01*
X896322Y108510D01*
X895547Y108646D01*
X894786Y108850D01*
X894046Y109119D01*
X893332Y109452D01*
X892651Y109846D01*
X892006Y110298D01*
X891402Y110804D01*
X890846Y111360D01*
X890340Y111964D01*
X889888Y112609D01*
X889494Y113290D01*
X889161Y114004D01*
X888892Y114744D01*
X888688Y115505D01*
X888552Y116280D01*
X888483Y117064D01*
X888483Y117852D01*
X888552Y118636D01*
X888688Y119412D01*
X888892Y120172D01*
X889161Y120912D01*
X889494Y121626D01*
X889888Y122307D01*
X890340Y122952D01*
X890846Y123556D01*
X891402Y124112D01*
X892006Y124618D01*
X892651Y125070D01*
X893332Y125464D01*
X894046Y125797D01*
X894786Y126066D01*
X895547Y126270D01*
X896322Y126406D01*
X897106Y126475D01*
X897894Y126475D01*
X898678Y126406D01*
X899454Y126270D01*
X900214Y126066D01*
X900954Y125797D01*
X901668Y125464D01*
X902349Y125070D01*
X902994Y124618D01*
X903598Y124112D01*
X904154Y123556D01*
X904660Y122952D01*
X905112Y122307D01*
X905506Y121626D01*
X905839Y120912D01*
X906108Y120172D01*
X906312Y119412D01*
X906448Y118636D01*
X906517Y117852D01*
X906517Y117064D01*
X111517Y27148D02*
X111448Y26364D01*
X111312Y25589D01*
X111108Y24828D01*
X110839Y24088D01*
X110506Y23374D01*
X110112Y22693D01*
X109660Y22048D01*
X109154Y21444D01*
X108598Y20888D01*
X107994Y20382D01*
X107349Y19930D01*
X106668Y19536D01*
X105954Y19203D01*
X105214Y18934D01*
X104454Y18730D01*
X103678Y18594D01*
X102894Y18525D01*
X102106Y18525D01*
X101322Y18594D01*
X100547Y18730D01*
X99786Y18934D01*
X99046Y19203D01*
X98332Y19536D01*
X97651Y19930D01*
X97006Y20382D01*
X96402Y20888D01*
X95846Y21444D01*
X95340Y22048D01*
X94888Y22693D01*
X94494Y23374D01*
X94161Y24088D01*
X93892Y24828D01*
X93688Y25589D01*
X93552Y26364D01*
X93483Y27148D01*
X93483Y27936D01*
X93552Y28720D01*
X93688Y29496D01*
X93892Y30256D01*
X94161Y30996D01*
X94494Y31710D01*
X94888Y32391D01*
X95340Y33036D01*
X95846Y33640D01*
X96402Y34196D01*
X97006Y34702D01*
X97651Y35154D01*
X98332Y35548D01*
X99046Y35881D01*
X99786Y36150D01*
X100547Y36354D01*
X101322Y36490D01*
X102106Y36559D01*
X102894Y36559D01*
X103678Y36490D01*
X104454Y36354D01*
X105214Y36150D01*
X105954Y35881D01*
X106668Y35548D01*
X107349Y35154D01*
X107994Y34702D01*
X108598Y34196D01*
X109154Y33640D01*
X109660Y33036D01*
X110112Y32391D01*
X110506Y31710D01*
X110839Y30996D01*
X111108Y30256D01*
X111312Y29496D01*
X111448Y28720D01*
X111517Y27936D01*
X111517Y27148D01*
X111517Y117064D02*
X111448Y116280D01*
X111312Y115505D01*
X111108Y114744D01*
X110839Y114004D01*
X110506Y113290D01*
X110112Y112609D01*
X109660Y111964D01*
X109154Y111360D01*
X108598Y110804D01*
X107994Y110298D01*
X107349Y109846D01*
X106668Y109452D01*
X105954Y109119D01*
X105214Y108850D01*
X104454Y108646D01*
X103678Y108510D01*
X102894Y108441D01*
X102106Y108441D01*
X101322Y108510D01*
X100547Y108646D01*
X99786Y108850D01*
X99046Y109119D01*
X98332Y109452D01*
X97651Y109846D01*
X97006Y110298D01*
X96402Y110804D01*
X95846Y111360D01*
X95340Y111964D01*
X94888Y112609D01*
X94494Y113290D01*
X94161Y114004D01*
X93892Y114744D01*
X93688Y115505D01*
X93552Y116280D01*
X93483Y117064D01*
X93483Y117852D01*
X93552Y118636D01*
X93688Y119412D01*
X93892Y120172D01*
X94161Y120912D01*
X94494Y121626D01*
X94888Y122307D01*
X95340Y122952D01*
X95846Y123556D01*
X96402Y124112D01*
X97006Y124618D01*
X97651Y125070D01*
X98332Y125464D01*
X99046Y125797D01*
X99786Y126066D01*
X100547Y126270D01*
X101322Y126406D01*
X102106Y126475D01*
X102894Y126475D01*
X103678Y126406D01*
X104454Y126270D01*
X105214Y126066D01*
X105954Y125797D01*
X106668Y125464D01*
X107349Y125070D01*
X107994Y124618D01*
X108598Y124112D01*
X109154Y123556D01*
X109660Y122952D01*
X110112Y122307D01*
X110506Y121626D01*
X110839Y120912D01*
X111108Y120172D01*
X111312Y119412D01*
X111448Y118636D01*
X111517Y117852D01*
X111517Y117064D01*
M02*
