G04 EAGLE Gerber RS-274X export*
G75*
%MOMM*%
%FSLAX34Y34*%
%LPD*%
%INSilkscreen Bottom*%
%IPPOS*%
%AMOC8*
5,1,8,0,0,1.08239X$1,22.5*%
G01*
%ADD10C,0.076200*%
%ADD11C,0.152400*%
%ADD12C,0.762000*%
%ADD13R,0.762000X0.508000*%
%ADD14R,0.762000X1.016000*%


D10*
X532184Y77119D02*
X532184Y67721D01*
X533228Y67721D02*
X531140Y67721D01*
X531140Y77119D02*
X533228Y77119D01*
X527087Y73986D02*
X527087Y67721D01*
X527087Y73986D02*
X522388Y73986D01*
X522311Y73984D01*
X522235Y73978D01*
X522158Y73969D01*
X522082Y73956D01*
X522007Y73939D01*
X521933Y73919D01*
X521860Y73894D01*
X521789Y73867D01*
X521718Y73836D01*
X521650Y73801D01*
X521583Y73763D01*
X521518Y73722D01*
X521455Y73678D01*
X521395Y73631D01*
X521336Y73580D01*
X521281Y73527D01*
X521228Y73472D01*
X521177Y73413D01*
X521130Y73353D01*
X521086Y73290D01*
X521045Y73225D01*
X521007Y73158D01*
X520972Y73090D01*
X520941Y73019D01*
X520914Y72948D01*
X520889Y72875D01*
X520869Y72801D01*
X520852Y72726D01*
X520839Y72650D01*
X520830Y72573D01*
X520824Y72497D01*
X520822Y72420D01*
X520822Y67721D01*
X523954Y67721D02*
X523954Y73986D01*
X516244Y73986D02*
X516244Y64588D01*
X516244Y73986D02*
X513633Y73986D01*
X513556Y73984D01*
X513480Y73978D01*
X513403Y73969D01*
X513327Y73956D01*
X513253Y73939D01*
X513178Y73919D01*
X513105Y73894D01*
X513034Y73867D01*
X512963Y73836D01*
X512895Y73801D01*
X512828Y73763D01*
X512763Y73722D01*
X512700Y73678D01*
X512640Y73631D01*
X512581Y73580D01*
X512526Y73527D01*
X512473Y73472D01*
X512422Y73413D01*
X512375Y73353D01*
X512331Y73290D01*
X512290Y73225D01*
X512252Y73158D01*
X512217Y73090D01*
X512186Y73019D01*
X512159Y72948D01*
X512134Y72875D01*
X512114Y72801D01*
X512097Y72726D01*
X512084Y72650D01*
X512075Y72574D01*
X512069Y72497D01*
X512067Y72420D01*
X512067Y69287D01*
X512069Y69210D01*
X512075Y69134D01*
X512084Y69057D01*
X512097Y68981D01*
X512114Y68906D01*
X512134Y68832D01*
X512159Y68759D01*
X512186Y68688D01*
X512217Y68617D01*
X512252Y68549D01*
X512290Y68482D01*
X512331Y68417D01*
X512375Y68354D01*
X512422Y68294D01*
X512473Y68235D01*
X512526Y68180D01*
X512581Y68127D01*
X512640Y68076D01*
X512700Y68029D01*
X512763Y67985D01*
X512828Y67944D01*
X512895Y67906D01*
X512963Y67871D01*
X513034Y67840D01*
X513105Y67813D01*
X513178Y67788D01*
X513253Y67768D01*
X513328Y67751D01*
X513403Y67738D01*
X513480Y67729D01*
X513556Y67723D01*
X513633Y67721D01*
X516244Y67721D01*
X506583Y71376D02*
X504233Y71376D01*
X506583Y71375D02*
X506667Y71373D01*
X506752Y71367D01*
X506835Y71357D01*
X506919Y71344D01*
X507001Y71326D01*
X507083Y71305D01*
X507164Y71280D01*
X507243Y71252D01*
X507321Y71219D01*
X507397Y71183D01*
X507472Y71144D01*
X507545Y71101D01*
X507616Y71055D01*
X507684Y71006D01*
X507750Y70954D01*
X507814Y70898D01*
X507875Y70840D01*
X507933Y70779D01*
X507989Y70715D01*
X508041Y70649D01*
X508090Y70581D01*
X508136Y70510D01*
X508179Y70437D01*
X508218Y70362D01*
X508254Y70286D01*
X508287Y70208D01*
X508315Y70129D01*
X508340Y70048D01*
X508361Y69966D01*
X508379Y69884D01*
X508392Y69800D01*
X508402Y69717D01*
X508408Y69632D01*
X508410Y69548D01*
X508408Y69464D01*
X508402Y69379D01*
X508392Y69296D01*
X508379Y69212D01*
X508361Y69130D01*
X508340Y69048D01*
X508315Y68967D01*
X508287Y68888D01*
X508254Y68810D01*
X508218Y68734D01*
X508179Y68659D01*
X508136Y68586D01*
X508090Y68515D01*
X508041Y68447D01*
X507989Y68381D01*
X507933Y68317D01*
X507875Y68256D01*
X507814Y68198D01*
X507750Y68142D01*
X507684Y68090D01*
X507616Y68041D01*
X507545Y67995D01*
X507472Y67952D01*
X507397Y67913D01*
X507321Y67877D01*
X507243Y67844D01*
X507164Y67816D01*
X507083Y67791D01*
X507001Y67770D01*
X506919Y67752D01*
X506835Y67739D01*
X506752Y67729D01*
X506667Y67723D01*
X506583Y67721D01*
X504233Y67721D01*
X504233Y72420D01*
X504234Y72420D02*
X504236Y72497D01*
X504242Y72573D01*
X504251Y72650D01*
X504264Y72726D01*
X504281Y72801D01*
X504301Y72875D01*
X504326Y72948D01*
X504353Y73019D01*
X504384Y73090D01*
X504419Y73158D01*
X504457Y73225D01*
X504498Y73290D01*
X504542Y73353D01*
X504589Y73413D01*
X504640Y73472D01*
X504693Y73527D01*
X504748Y73580D01*
X504807Y73631D01*
X504867Y73678D01*
X504930Y73722D01*
X504995Y73763D01*
X505062Y73801D01*
X505130Y73836D01*
X505201Y73867D01*
X505272Y73894D01*
X505345Y73919D01*
X505420Y73939D01*
X505495Y73956D01*
X505570Y73969D01*
X505647Y73978D01*
X505723Y73984D01*
X505800Y73986D01*
X507888Y73986D01*
X498558Y67721D02*
X496470Y67721D01*
X498558Y67721D02*
X498635Y67723D01*
X498711Y67729D01*
X498788Y67738D01*
X498864Y67751D01*
X498939Y67768D01*
X499013Y67788D01*
X499086Y67813D01*
X499157Y67840D01*
X499228Y67871D01*
X499296Y67906D01*
X499363Y67944D01*
X499428Y67985D01*
X499491Y68029D01*
X499551Y68076D01*
X499610Y68127D01*
X499665Y68180D01*
X499718Y68235D01*
X499769Y68294D01*
X499816Y68354D01*
X499860Y68417D01*
X499901Y68482D01*
X499939Y68549D01*
X499974Y68617D01*
X500005Y68688D01*
X500032Y68759D01*
X500057Y68832D01*
X500077Y68906D01*
X500094Y68981D01*
X500107Y69057D01*
X500116Y69134D01*
X500122Y69210D01*
X500124Y69287D01*
X500125Y69287D02*
X500125Y72420D01*
X500124Y72420D02*
X500122Y72497D01*
X500116Y72573D01*
X500107Y72650D01*
X500094Y72726D01*
X500077Y72801D01*
X500057Y72875D01*
X500032Y72948D01*
X500005Y73019D01*
X499974Y73090D01*
X499939Y73158D01*
X499901Y73225D01*
X499860Y73290D01*
X499816Y73353D01*
X499769Y73413D01*
X499718Y73472D01*
X499665Y73527D01*
X499610Y73580D01*
X499551Y73631D01*
X499491Y73678D01*
X499428Y73722D01*
X499363Y73763D01*
X499296Y73801D01*
X499228Y73836D01*
X499157Y73867D01*
X499086Y73894D01*
X499013Y73919D01*
X498939Y73939D01*
X498864Y73956D01*
X498788Y73969D01*
X498711Y73978D01*
X498635Y73984D01*
X498558Y73986D01*
X496470Y73986D01*
X493893Y73986D02*
X490761Y73986D01*
X492849Y77119D02*
X492849Y69287D01*
X492847Y69210D01*
X492841Y69134D01*
X492832Y69057D01*
X492819Y68981D01*
X492802Y68906D01*
X492782Y68832D01*
X492757Y68759D01*
X492730Y68688D01*
X492699Y68617D01*
X492664Y68549D01*
X492626Y68482D01*
X492585Y68417D01*
X492541Y68354D01*
X492494Y68294D01*
X492443Y68235D01*
X492390Y68180D01*
X492335Y68127D01*
X492276Y68076D01*
X492216Y68029D01*
X492153Y67985D01*
X492088Y67944D01*
X492021Y67906D01*
X491953Y67871D01*
X491882Y67840D01*
X491811Y67813D01*
X491738Y67788D01*
X491664Y67768D01*
X491589Y67751D01*
X491513Y67738D01*
X491436Y67729D01*
X491360Y67723D01*
X491283Y67721D01*
X490761Y67721D01*
X487247Y70332D02*
X487245Y70433D01*
X487239Y70534D01*
X487229Y70635D01*
X487216Y70735D01*
X487198Y70835D01*
X487177Y70934D01*
X487151Y71032D01*
X487122Y71129D01*
X487090Y71225D01*
X487053Y71319D01*
X487013Y71412D01*
X486969Y71504D01*
X486922Y71593D01*
X486871Y71681D01*
X486817Y71767D01*
X486760Y71850D01*
X486700Y71932D01*
X486636Y72010D01*
X486570Y72087D01*
X486500Y72160D01*
X486428Y72231D01*
X486353Y72299D01*
X486275Y72364D01*
X486195Y72426D01*
X486113Y72485D01*
X486028Y72541D01*
X485942Y72593D01*
X485853Y72642D01*
X485762Y72688D01*
X485670Y72729D01*
X485576Y72768D01*
X485481Y72802D01*
X485385Y72833D01*
X485287Y72860D01*
X485189Y72884D01*
X485089Y72903D01*
X484989Y72919D01*
X484889Y72931D01*
X484788Y72939D01*
X484687Y72943D01*
X484585Y72943D01*
X484484Y72939D01*
X484383Y72931D01*
X484283Y72919D01*
X484183Y72903D01*
X484083Y72884D01*
X483985Y72860D01*
X483887Y72833D01*
X483791Y72802D01*
X483696Y72768D01*
X483602Y72729D01*
X483510Y72688D01*
X483419Y72642D01*
X483331Y72593D01*
X483244Y72541D01*
X483159Y72485D01*
X483077Y72426D01*
X482997Y72364D01*
X482919Y72299D01*
X482844Y72231D01*
X482772Y72160D01*
X482702Y72087D01*
X482636Y72010D01*
X482572Y71932D01*
X482512Y71850D01*
X482455Y71767D01*
X482401Y71681D01*
X482350Y71593D01*
X482303Y71504D01*
X482259Y71412D01*
X482219Y71319D01*
X482182Y71225D01*
X482150Y71129D01*
X482121Y71032D01*
X482095Y70934D01*
X482074Y70835D01*
X482056Y70735D01*
X482043Y70635D01*
X482033Y70534D01*
X482027Y70433D01*
X482025Y70332D01*
X482027Y70231D01*
X482033Y70130D01*
X482043Y70029D01*
X482056Y69929D01*
X482074Y69829D01*
X482095Y69730D01*
X482121Y69632D01*
X482150Y69535D01*
X482182Y69439D01*
X482219Y69345D01*
X482259Y69252D01*
X482303Y69160D01*
X482350Y69071D01*
X482401Y68983D01*
X482455Y68897D01*
X482512Y68814D01*
X482572Y68732D01*
X482636Y68654D01*
X482702Y68577D01*
X482772Y68504D01*
X482844Y68433D01*
X482919Y68365D01*
X482997Y68300D01*
X483077Y68238D01*
X483159Y68179D01*
X483244Y68123D01*
X483331Y68071D01*
X483419Y68022D01*
X483510Y67976D01*
X483602Y67935D01*
X483696Y67896D01*
X483791Y67862D01*
X483887Y67831D01*
X483985Y67804D01*
X484083Y67780D01*
X484183Y67761D01*
X484283Y67745D01*
X484383Y67733D01*
X484484Y67725D01*
X484585Y67721D01*
X484687Y67721D01*
X484788Y67725D01*
X484889Y67733D01*
X484989Y67745D01*
X485089Y67761D01*
X485189Y67780D01*
X485287Y67804D01*
X485385Y67831D01*
X485481Y67862D01*
X485576Y67896D01*
X485670Y67935D01*
X485762Y67976D01*
X485853Y68022D01*
X485941Y68071D01*
X486028Y68123D01*
X486113Y68179D01*
X486195Y68238D01*
X486275Y68300D01*
X486353Y68365D01*
X486428Y68433D01*
X486500Y68504D01*
X486570Y68577D01*
X486636Y68654D01*
X486700Y68732D01*
X486760Y68814D01*
X486817Y68897D01*
X486871Y68983D01*
X486922Y69071D01*
X486969Y69160D01*
X487013Y69252D01*
X487053Y69345D01*
X487090Y69439D01*
X487122Y69535D01*
X487151Y69632D01*
X487177Y69730D01*
X487198Y69829D01*
X487216Y69929D01*
X487229Y70029D01*
X487239Y70130D01*
X487245Y70231D01*
X487247Y70332D01*
X486724Y75031D02*
X486722Y75121D01*
X486716Y75210D01*
X486707Y75300D01*
X486693Y75389D01*
X486676Y75477D01*
X486655Y75564D01*
X486630Y75651D01*
X486601Y75736D01*
X486569Y75820D01*
X486534Y75902D01*
X486494Y75983D01*
X486452Y76062D01*
X486406Y76139D01*
X486356Y76214D01*
X486304Y76287D01*
X486248Y76358D01*
X486190Y76426D01*
X486128Y76491D01*
X486064Y76554D01*
X485997Y76614D01*
X485928Y76671D01*
X485856Y76725D01*
X485782Y76776D01*
X485706Y76824D01*
X485628Y76868D01*
X485548Y76909D01*
X485466Y76947D01*
X485383Y76981D01*
X485298Y77011D01*
X485212Y77038D01*
X485126Y77061D01*
X485038Y77080D01*
X484949Y77095D01*
X484860Y77107D01*
X484771Y77115D01*
X484681Y77119D01*
X484591Y77119D01*
X484501Y77115D01*
X484412Y77107D01*
X484323Y77095D01*
X484234Y77080D01*
X484146Y77061D01*
X484060Y77038D01*
X483974Y77011D01*
X483889Y76981D01*
X483806Y76947D01*
X483724Y76909D01*
X483644Y76868D01*
X483566Y76824D01*
X483490Y76776D01*
X483416Y76725D01*
X483344Y76671D01*
X483275Y76614D01*
X483208Y76554D01*
X483144Y76491D01*
X483082Y76426D01*
X483024Y76358D01*
X482968Y76287D01*
X482916Y76214D01*
X482866Y76139D01*
X482820Y76062D01*
X482778Y75983D01*
X482738Y75902D01*
X482703Y75820D01*
X482671Y75736D01*
X482642Y75651D01*
X482617Y75564D01*
X482596Y75477D01*
X482579Y75389D01*
X482565Y75300D01*
X482556Y75210D01*
X482550Y75121D01*
X482548Y75031D01*
X482550Y74941D01*
X482556Y74852D01*
X482565Y74762D01*
X482579Y74673D01*
X482596Y74585D01*
X482617Y74498D01*
X482642Y74411D01*
X482671Y74326D01*
X482703Y74242D01*
X482738Y74160D01*
X482778Y74079D01*
X482820Y74000D01*
X482866Y73923D01*
X482916Y73848D01*
X482968Y73775D01*
X483024Y73704D01*
X483082Y73636D01*
X483144Y73571D01*
X483208Y73508D01*
X483275Y73448D01*
X483344Y73391D01*
X483416Y73337D01*
X483490Y73286D01*
X483566Y73238D01*
X483644Y73194D01*
X483724Y73153D01*
X483806Y73115D01*
X483889Y73081D01*
X483974Y73051D01*
X484060Y73024D01*
X484146Y73001D01*
X484234Y72982D01*
X484323Y72967D01*
X484412Y72955D01*
X484501Y72947D01*
X484591Y72943D01*
X484681Y72943D01*
X484771Y72947D01*
X484860Y72955D01*
X484949Y72967D01*
X485038Y72982D01*
X485126Y73001D01*
X485212Y73024D01*
X485298Y73051D01*
X485383Y73081D01*
X485466Y73115D01*
X485548Y73153D01*
X485628Y73194D01*
X485706Y73238D01*
X485782Y73286D01*
X485856Y73337D01*
X485928Y73391D01*
X485997Y73448D01*
X486064Y73508D01*
X486128Y73571D01*
X486190Y73636D01*
X486248Y73704D01*
X486304Y73775D01*
X486356Y73848D01*
X486406Y73923D01*
X486452Y74000D01*
X486494Y74079D01*
X486534Y74160D01*
X486569Y74242D01*
X486601Y74326D01*
X486630Y74411D01*
X486655Y74498D01*
X486676Y74585D01*
X486693Y74673D01*
X486707Y74762D01*
X486716Y74852D01*
X486722Y74941D01*
X486724Y75031D01*
X478102Y69809D02*
X476014Y77119D01*
X478102Y69809D02*
X472881Y69809D01*
X474447Y71898D02*
X474447Y67721D01*
D11*
X500000Y145950D02*
X525400Y145950D01*
X500000Y145950D02*
X500000Y171350D01*
X525400Y171350D01*
X525400Y145950D01*
D12*
X512700Y177700D02*
X512700Y234850D01*
D11*
X500000Y145950D02*
X474600Y145950D01*
X474600Y171350D01*
X500000Y171350D01*
D12*
X487300Y177700D02*
X487300Y234850D01*
D13*
X512700Y173890D03*
X487300Y173890D03*
D14*
X512700Y140870D03*
X487300Y140870D03*
D11*
X474600Y-950D02*
X449200Y-950D01*
X474600Y-950D02*
X474600Y-26350D01*
X449200Y-26350D01*
X449200Y-950D01*
D12*
X461900Y-32700D02*
X461900Y-89850D01*
D11*
X474600Y-950D02*
X500000Y-950D01*
X500000Y-26350D01*
X474600Y-26350D01*
D12*
X487300Y-32700D02*
X487300Y-89850D01*
D11*
X500000Y-950D02*
X525400Y-950D01*
X525400Y-26350D01*
X500000Y-26350D01*
D12*
X512700Y-32700D02*
X512700Y-89850D01*
D11*
X525400Y-950D02*
X550800Y-950D01*
X550800Y-26350D01*
X525400Y-26350D01*
D12*
X538100Y-32700D02*
X538100Y-89850D01*
D13*
X461900Y-28890D03*
X487300Y-28890D03*
X512700Y-28890D03*
X538100Y-28890D03*
D14*
X461900Y4130D03*
X487300Y4130D03*
X512700Y4130D03*
X538100Y4130D03*
M02*
