G04 EAGLE Gerber RS-274X export*
G75*
%MOMM*%
%FSLAX34Y34*%
%LPD*%
%INSilkscreen Top*%
%IPPOS*%
%AMOC8*
5,1,8,0,0,1.08239X$1,22.5*%
G01*
%ADD10C,0.076200*%
%ADD11C,0.152400*%
%ADD12C,0.050800*%
%ADD13C,0.127000*%
%ADD14R,2.159000X0.508000*%


D10*
X458514Y37881D02*
X458603Y37883D01*
X458691Y37889D01*
X458779Y37898D01*
X458867Y37911D01*
X458954Y37928D01*
X459040Y37948D01*
X459125Y37973D01*
X459210Y38000D01*
X459293Y38032D01*
X459374Y38066D01*
X459454Y38105D01*
X459532Y38146D01*
X459609Y38191D01*
X459683Y38239D01*
X459756Y38290D01*
X459826Y38344D01*
X459893Y38402D01*
X459959Y38462D01*
X460021Y38524D01*
X460081Y38590D01*
X460139Y38657D01*
X460193Y38727D01*
X460244Y38800D01*
X460292Y38874D01*
X460337Y38951D01*
X460378Y39029D01*
X460417Y39109D01*
X460451Y39190D01*
X460483Y39273D01*
X460510Y39358D01*
X460535Y39443D01*
X460555Y39529D01*
X460572Y39616D01*
X460585Y39704D01*
X460594Y39792D01*
X460600Y39880D01*
X460602Y39969D01*
X458514Y37881D02*
X458385Y37883D01*
X458256Y37889D01*
X458127Y37898D01*
X457999Y37911D01*
X457871Y37928D01*
X457744Y37949D01*
X457617Y37973D01*
X457491Y38001D01*
X457366Y38033D01*
X457242Y38068D01*
X457119Y38107D01*
X456997Y38150D01*
X456877Y38196D01*
X456758Y38246D01*
X456640Y38299D01*
X456524Y38355D01*
X456410Y38415D01*
X456297Y38478D01*
X456187Y38545D01*
X456078Y38614D01*
X455972Y38687D01*
X455867Y38763D01*
X455765Y38842D01*
X455666Y38924D01*
X455568Y39008D01*
X455473Y39096D01*
X455381Y39186D01*
X455642Y45191D02*
X455644Y45280D01*
X455650Y45368D01*
X455659Y45456D01*
X455672Y45544D01*
X455689Y45631D01*
X455709Y45717D01*
X455734Y45802D01*
X455761Y45887D01*
X455793Y45970D01*
X455827Y46051D01*
X455866Y46131D01*
X455907Y46209D01*
X455952Y46286D01*
X456000Y46360D01*
X456051Y46433D01*
X456105Y46503D01*
X456163Y46570D01*
X456223Y46636D01*
X456285Y46698D01*
X456351Y46758D01*
X456418Y46816D01*
X456488Y46870D01*
X456561Y46921D01*
X456635Y46969D01*
X456712Y47014D01*
X456790Y47055D01*
X456870Y47094D01*
X456951Y47128D01*
X457034Y47160D01*
X457119Y47187D01*
X457204Y47212D01*
X457290Y47232D01*
X457377Y47249D01*
X457465Y47262D01*
X457553Y47271D01*
X457641Y47277D01*
X457730Y47279D01*
X457850Y47277D01*
X457970Y47272D01*
X458090Y47262D01*
X458209Y47250D01*
X458328Y47233D01*
X458446Y47213D01*
X458564Y47189D01*
X458680Y47162D01*
X458796Y47131D01*
X458911Y47097D01*
X459025Y47059D01*
X459138Y47017D01*
X459249Y46972D01*
X459359Y46924D01*
X459467Y46873D01*
X459574Y46818D01*
X459679Y46760D01*
X459782Y46698D01*
X459883Y46634D01*
X459983Y46566D01*
X460080Y46496D01*
X456686Y43364D02*
X456608Y43412D01*
X456532Y43464D01*
X456459Y43518D01*
X456388Y43576D01*
X456319Y43637D01*
X456253Y43701D01*
X456190Y43768D01*
X456130Y43837D01*
X456073Y43909D01*
X456019Y43983D01*
X455969Y44060D01*
X455921Y44139D01*
X455878Y44219D01*
X455837Y44302D01*
X455801Y44386D01*
X455768Y44471D01*
X455739Y44558D01*
X455713Y44647D01*
X455691Y44736D01*
X455674Y44826D01*
X455660Y44916D01*
X455650Y45008D01*
X455644Y45099D01*
X455642Y45191D01*
X459558Y41796D02*
X459636Y41748D01*
X459712Y41696D01*
X459785Y41642D01*
X459856Y41584D01*
X459925Y41523D01*
X459991Y41459D01*
X460054Y41392D01*
X460114Y41323D01*
X460171Y41251D01*
X460225Y41177D01*
X460275Y41100D01*
X460323Y41021D01*
X460366Y40941D01*
X460407Y40858D01*
X460443Y40774D01*
X460476Y40689D01*
X460505Y40602D01*
X460531Y40513D01*
X460553Y40424D01*
X460570Y40334D01*
X460584Y40244D01*
X460594Y40152D01*
X460600Y40061D01*
X460602Y39969D01*
X459558Y41797D02*
X456686Y43363D01*
X464220Y45191D02*
X466831Y47279D01*
X466831Y37881D01*
X469441Y37881D02*
X464220Y37881D01*
X483514Y37881D02*
X483603Y37883D01*
X483691Y37889D01*
X483779Y37898D01*
X483867Y37911D01*
X483954Y37928D01*
X484040Y37948D01*
X484125Y37973D01*
X484210Y38000D01*
X484293Y38032D01*
X484374Y38066D01*
X484454Y38105D01*
X484532Y38146D01*
X484609Y38191D01*
X484683Y38239D01*
X484756Y38290D01*
X484826Y38344D01*
X484893Y38402D01*
X484959Y38462D01*
X485021Y38524D01*
X485081Y38590D01*
X485139Y38657D01*
X485193Y38727D01*
X485244Y38800D01*
X485292Y38874D01*
X485337Y38951D01*
X485378Y39029D01*
X485417Y39109D01*
X485451Y39190D01*
X485483Y39273D01*
X485510Y39358D01*
X485535Y39443D01*
X485555Y39529D01*
X485572Y39616D01*
X485585Y39704D01*
X485594Y39792D01*
X485600Y39880D01*
X485602Y39969D01*
X483514Y37881D02*
X483385Y37883D01*
X483256Y37889D01*
X483127Y37898D01*
X482999Y37911D01*
X482871Y37928D01*
X482744Y37949D01*
X482617Y37973D01*
X482491Y38001D01*
X482366Y38033D01*
X482242Y38068D01*
X482119Y38107D01*
X481997Y38150D01*
X481877Y38196D01*
X481758Y38246D01*
X481640Y38299D01*
X481524Y38355D01*
X481410Y38415D01*
X481297Y38478D01*
X481187Y38545D01*
X481078Y38614D01*
X480972Y38687D01*
X480867Y38763D01*
X480765Y38842D01*
X480666Y38924D01*
X480568Y39008D01*
X480473Y39096D01*
X480381Y39186D01*
X480642Y45191D02*
X480644Y45280D01*
X480650Y45368D01*
X480659Y45456D01*
X480672Y45544D01*
X480689Y45631D01*
X480709Y45717D01*
X480734Y45802D01*
X480761Y45887D01*
X480793Y45970D01*
X480827Y46051D01*
X480866Y46131D01*
X480907Y46209D01*
X480952Y46286D01*
X481000Y46360D01*
X481051Y46433D01*
X481105Y46503D01*
X481163Y46570D01*
X481223Y46636D01*
X481285Y46698D01*
X481351Y46758D01*
X481418Y46816D01*
X481488Y46870D01*
X481561Y46921D01*
X481635Y46969D01*
X481712Y47014D01*
X481790Y47055D01*
X481870Y47094D01*
X481951Y47128D01*
X482034Y47160D01*
X482119Y47187D01*
X482204Y47212D01*
X482290Y47232D01*
X482377Y47249D01*
X482465Y47262D01*
X482553Y47271D01*
X482641Y47277D01*
X482730Y47279D01*
X482850Y47277D01*
X482970Y47272D01*
X483090Y47262D01*
X483209Y47250D01*
X483328Y47233D01*
X483446Y47213D01*
X483564Y47189D01*
X483680Y47162D01*
X483796Y47131D01*
X483911Y47097D01*
X484025Y47059D01*
X484138Y47017D01*
X484249Y46972D01*
X484359Y46924D01*
X484467Y46873D01*
X484574Y46818D01*
X484679Y46760D01*
X484782Y46698D01*
X484883Y46634D01*
X484983Y46566D01*
X485080Y46496D01*
X481686Y43364D02*
X481608Y43412D01*
X481532Y43464D01*
X481459Y43518D01*
X481388Y43576D01*
X481319Y43637D01*
X481253Y43701D01*
X481190Y43768D01*
X481130Y43837D01*
X481073Y43909D01*
X481019Y43983D01*
X480969Y44060D01*
X480921Y44139D01*
X480878Y44219D01*
X480837Y44302D01*
X480801Y44386D01*
X480768Y44471D01*
X480739Y44558D01*
X480713Y44647D01*
X480691Y44736D01*
X480674Y44826D01*
X480660Y44916D01*
X480650Y45008D01*
X480644Y45099D01*
X480642Y45191D01*
X484558Y41796D02*
X484636Y41748D01*
X484712Y41696D01*
X484785Y41642D01*
X484856Y41584D01*
X484925Y41523D01*
X484991Y41459D01*
X485054Y41392D01*
X485114Y41323D01*
X485171Y41251D01*
X485225Y41177D01*
X485275Y41100D01*
X485323Y41021D01*
X485366Y40941D01*
X485407Y40858D01*
X485443Y40774D01*
X485476Y40689D01*
X485505Y40602D01*
X485531Y40513D01*
X485553Y40424D01*
X485570Y40334D01*
X485584Y40244D01*
X485594Y40152D01*
X485600Y40061D01*
X485602Y39969D01*
X484558Y41797D02*
X481686Y43363D01*
X492092Y47280D02*
X492187Y47278D01*
X492281Y47272D01*
X492375Y47263D01*
X492469Y47250D01*
X492562Y47233D01*
X492654Y47212D01*
X492746Y47187D01*
X492836Y47159D01*
X492925Y47127D01*
X493013Y47092D01*
X493099Y47053D01*
X493184Y47011D01*
X493267Y46965D01*
X493348Y46916D01*
X493427Y46864D01*
X493504Y46809D01*
X493578Y46750D01*
X493650Y46689D01*
X493720Y46625D01*
X493787Y46558D01*
X493851Y46488D01*
X493912Y46416D01*
X493971Y46342D01*
X494026Y46265D01*
X494078Y46186D01*
X494127Y46105D01*
X494173Y46022D01*
X494215Y45937D01*
X494254Y45851D01*
X494289Y45763D01*
X494321Y45674D01*
X494349Y45584D01*
X494374Y45492D01*
X494395Y45400D01*
X494412Y45307D01*
X494425Y45213D01*
X494434Y45119D01*
X494440Y45025D01*
X494442Y44930D01*
X492092Y47279D02*
X491984Y47277D01*
X491875Y47271D01*
X491767Y47261D01*
X491660Y47248D01*
X491553Y47230D01*
X491446Y47209D01*
X491341Y47184D01*
X491236Y47155D01*
X491133Y47123D01*
X491031Y47086D01*
X490930Y47046D01*
X490831Y47003D01*
X490733Y46956D01*
X490637Y46905D01*
X490543Y46851D01*
X490451Y46794D01*
X490361Y46733D01*
X490273Y46669D01*
X490188Y46603D01*
X490105Y46533D01*
X490025Y46460D01*
X489947Y46384D01*
X489872Y46306D01*
X489800Y46225D01*
X489731Y46141D01*
X489665Y46055D01*
X489602Y45967D01*
X489543Y45876D01*
X489486Y45784D01*
X489433Y45689D01*
X489384Y45593D01*
X489338Y45494D01*
X489295Y45395D01*
X489256Y45293D01*
X489221Y45191D01*
X493659Y43102D02*
X493728Y43171D01*
X493794Y43242D01*
X493858Y43315D01*
X493919Y43391D01*
X493977Y43470D01*
X494031Y43550D01*
X494083Y43633D01*
X494131Y43717D01*
X494177Y43803D01*
X494218Y43891D01*
X494257Y43981D01*
X494292Y44072D01*
X494323Y44164D01*
X494351Y44257D01*
X494375Y44351D01*
X494395Y44446D01*
X494412Y44542D01*
X494425Y44639D01*
X494434Y44736D01*
X494440Y44833D01*
X494442Y44930D01*
X493658Y43102D02*
X489220Y37881D01*
X494441Y37881D01*
X508514Y37881D02*
X508603Y37883D01*
X508691Y37889D01*
X508779Y37898D01*
X508867Y37911D01*
X508954Y37928D01*
X509040Y37948D01*
X509125Y37973D01*
X509210Y38000D01*
X509293Y38032D01*
X509374Y38066D01*
X509454Y38105D01*
X509532Y38146D01*
X509609Y38191D01*
X509683Y38239D01*
X509756Y38290D01*
X509826Y38344D01*
X509893Y38402D01*
X509959Y38462D01*
X510021Y38524D01*
X510081Y38590D01*
X510139Y38657D01*
X510193Y38727D01*
X510244Y38800D01*
X510292Y38874D01*
X510337Y38951D01*
X510378Y39029D01*
X510417Y39109D01*
X510451Y39190D01*
X510483Y39273D01*
X510510Y39358D01*
X510535Y39443D01*
X510555Y39529D01*
X510572Y39616D01*
X510585Y39704D01*
X510594Y39792D01*
X510600Y39880D01*
X510602Y39969D01*
X508514Y37881D02*
X508385Y37883D01*
X508256Y37889D01*
X508127Y37898D01*
X507999Y37911D01*
X507871Y37928D01*
X507744Y37949D01*
X507617Y37973D01*
X507491Y38001D01*
X507366Y38033D01*
X507242Y38068D01*
X507119Y38107D01*
X506997Y38150D01*
X506877Y38196D01*
X506758Y38246D01*
X506640Y38299D01*
X506524Y38355D01*
X506410Y38415D01*
X506297Y38478D01*
X506187Y38545D01*
X506078Y38614D01*
X505972Y38687D01*
X505867Y38763D01*
X505765Y38842D01*
X505666Y38924D01*
X505568Y39008D01*
X505473Y39096D01*
X505381Y39186D01*
X505642Y45191D02*
X505644Y45280D01*
X505650Y45368D01*
X505659Y45456D01*
X505672Y45544D01*
X505689Y45631D01*
X505709Y45717D01*
X505734Y45802D01*
X505761Y45887D01*
X505793Y45970D01*
X505827Y46051D01*
X505866Y46131D01*
X505907Y46209D01*
X505952Y46286D01*
X506000Y46360D01*
X506051Y46433D01*
X506105Y46503D01*
X506163Y46570D01*
X506223Y46636D01*
X506285Y46698D01*
X506351Y46758D01*
X506418Y46816D01*
X506488Y46870D01*
X506561Y46921D01*
X506635Y46969D01*
X506712Y47014D01*
X506790Y47055D01*
X506870Y47094D01*
X506951Y47128D01*
X507034Y47160D01*
X507119Y47187D01*
X507204Y47212D01*
X507290Y47232D01*
X507377Y47249D01*
X507465Y47262D01*
X507553Y47271D01*
X507641Y47277D01*
X507730Y47279D01*
X507850Y47277D01*
X507970Y47272D01*
X508090Y47262D01*
X508209Y47250D01*
X508328Y47233D01*
X508446Y47213D01*
X508564Y47189D01*
X508680Y47162D01*
X508796Y47131D01*
X508911Y47097D01*
X509025Y47059D01*
X509138Y47017D01*
X509249Y46972D01*
X509359Y46924D01*
X509467Y46873D01*
X509574Y46818D01*
X509679Y46760D01*
X509782Y46698D01*
X509883Y46634D01*
X509983Y46566D01*
X510080Y46496D01*
X506686Y43364D02*
X506608Y43412D01*
X506532Y43464D01*
X506459Y43518D01*
X506388Y43576D01*
X506319Y43637D01*
X506253Y43701D01*
X506190Y43768D01*
X506130Y43837D01*
X506073Y43909D01*
X506019Y43983D01*
X505969Y44060D01*
X505921Y44139D01*
X505878Y44219D01*
X505837Y44302D01*
X505801Y44386D01*
X505768Y44471D01*
X505739Y44558D01*
X505713Y44647D01*
X505691Y44736D01*
X505674Y44826D01*
X505660Y44916D01*
X505650Y45008D01*
X505644Y45099D01*
X505642Y45191D01*
X509558Y41796D02*
X509636Y41748D01*
X509712Y41696D01*
X509785Y41642D01*
X509856Y41584D01*
X509925Y41523D01*
X509991Y41459D01*
X510054Y41392D01*
X510114Y41323D01*
X510171Y41251D01*
X510225Y41177D01*
X510275Y41100D01*
X510323Y41021D01*
X510366Y40941D01*
X510407Y40858D01*
X510443Y40774D01*
X510476Y40689D01*
X510505Y40602D01*
X510531Y40513D01*
X510553Y40424D01*
X510570Y40334D01*
X510584Y40244D01*
X510594Y40152D01*
X510600Y40061D01*
X510602Y39969D01*
X509558Y41797D02*
X506686Y43363D01*
X514220Y37881D02*
X516831Y37881D01*
X516932Y37883D01*
X517033Y37889D01*
X517134Y37899D01*
X517234Y37912D01*
X517334Y37930D01*
X517433Y37951D01*
X517531Y37977D01*
X517628Y38006D01*
X517724Y38038D01*
X517818Y38075D01*
X517911Y38115D01*
X518003Y38159D01*
X518092Y38206D01*
X518180Y38257D01*
X518266Y38311D01*
X518349Y38368D01*
X518431Y38428D01*
X518509Y38492D01*
X518586Y38558D01*
X518659Y38628D01*
X518730Y38700D01*
X518798Y38775D01*
X518863Y38853D01*
X518925Y38933D01*
X518984Y39015D01*
X519040Y39100D01*
X519092Y39186D01*
X519141Y39275D01*
X519187Y39366D01*
X519228Y39458D01*
X519267Y39552D01*
X519301Y39647D01*
X519332Y39743D01*
X519359Y39841D01*
X519383Y39939D01*
X519402Y40039D01*
X519418Y40139D01*
X519430Y40239D01*
X519438Y40340D01*
X519442Y40441D01*
X519442Y40543D01*
X519438Y40644D01*
X519430Y40745D01*
X519418Y40845D01*
X519402Y40945D01*
X519383Y41045D01*
X519359Y41143D01*
X519332Y41241D01*
X519301Y41337D01*
X519267Y41432D01*
X519228Y41526D01*
X519187Y41618D01*
X519141Y41709D01*
X519092Y41797D01*
X519040Y41884D01*
X518984Y41969D01*
X518925Y42051D01*
X518863Y42131D01*
X518798Y42209D01*
X518730Y42284D01*
X518659Y42356D01*
X518586Y42426D01*
X518509Y42492D01*
X518431Y42556D01*
X518349Y42616D01*
X518266Y42673D01*
X518180Y42727D01*
X518092Y42778D01*
X518003Y42825D01*
X517911Y42869D01*
X517818Y42909D01*
X517724Y42946D01*
X517628Y42978D01*
X517531Y43007D01*
X517433Y43033D01*
X517334Y43054D01*
X517234Y43072D01*
X517134Y43085D01*
X517033Y43095D01*
X516932Y43101D01*
X516831Y43103D01*
X517353Y47279D02*
X514220Y47279D01*
X517353Y47279D02*
X517443Y47277D01*
X517532Y47271D01*
X517622Y47262D01*
X517711Y47248D01*
X517799Y47231D01*
X517886Y47210D01*
X517973Y47185D01*
X518058Y47156D01*
X518142Y47124D01*
X518224Y47089D01*
X518305Y47049D01*
X518384Y47007D01*
X518461Y46961D01*
X518536Y46911D01*
X518609Y46859D01*
X518680Y46803D01*
X518748Y46745D01*
X518813Y46683D01*
X518876Y46619D01*
X518936Y46552D01*
X518993Y46483D01*
X519047Y46411D01*
X519098Y46337D01*
X519146Y46261D01*
X519190Y46183D01*
X519231Y46103D01*
X519269Y46021D01*
X519303Y45938D01*
X519333Y45853D01*
X519360Y45767D01*
X519383Y45681D01*
X519402Y45593D01*
X519417Y45504D01*
X519429Y45415D01*
X519437Y45326D01*
X519441Y45236D01*
X519441Y45146D01*
X519437Y45056D01*
X519429Y44967D01*
X519417Y44878D01*
X519402Y44789D01*
X519383Y44701D01*
X519360Y44615D01*
X519333Y44529D01*
X519303Y44444D01*
X519269Y44361D01*
X519231Y44279D01*
X519190Y44199D01*
X519146Y44121D01*
X519098Y44045D01*
X519047Y43971D01*
X518993Y43899D01*
X518936Y43830D01*
X518876Y43763D01*
X518813Y43699D01*
X518748Y43637D01*
X518680Y43579D01*
X518609Y43523D01*
X518536Y43471D01*
X518461Y43421D01*
X518384Y43375D01*
X518305Y43333D01*
X518224Y43293D01*
X518142Y43258D01*
X518058Y43226D01*
X517973Y43197D01*
X517886Y43172D01*
X517799Y43151D01*
X517711Y43134D01*
X517622Y43120D01*
X517532Y43111D01*
X517443Y43105D01*
X517353Y43103D01*
X517353Y43102D02*
X515264Y43102D01*
X533514Y37881D02*
X533603Y37883D01*
X533691Y37889D01*
X533779Y37898D01*
X533867Y37911D01*
X533954Y37928D01*
X534040Y37948D01*
X534125Y37973D01*
X534210Y38000D01*
X534293Y38032D01*
X534374Y38066D01*
X534454Y38105D01*
X534532Y38146D01*
X534609Y38191D01*
X534683Y38239D01*
X534756Y38290D01*
X534826Y38344D01*
X534893Y38402D01*
X534959Y38462D01*
X535021Y38524D01*
X535081Y38590D01*
X535139Y38657D01*
X535193Y38727D01*
X535244Y38800D01*
X535292Y38874D01*
X535337Y38951D01*
X535378Y39029D01*
X535417Y39109D01*
X535451Y39190D01*
X535483Y39273D01*
X535510Y39358D01*
X535535Y39443D01*
X535555Y39529D01*
X535572Y39616D01*
X535585Y39704D01*
X535594Y39792D01*
X535600Y39880D01*
X535602Y39969D01*
X533514Y37881D02*
X533385Y37883D01*
X533256Y37889D01*
X533127Y37898D01*
X532999Y37911D01*
X532871Y37928D01*
X532744Y37949D01*
X532617Y37973D01*
X532491Y38001D01*
X532366Y38033D01*
X532242Y38068D01*
X532119Y38107D01*
X531997Y38150D01*
X531877Y38196D01*
X531758Y38246D01*
X531640Y38299D01*
X531524Y38355D01*
X531410Y38415D01*
X531297Y38478D01*
X531187Y38545D01*
X531078Y38614D01*
X530972Y38687D01*
X530867Y38763D01*
X530765Y38842D01*
X530666Y38924D01*
X530568Y39008D01*
X530473Y39096D01*
X530381Y39186D01*
X530642Y45191D02*
X530644Y45280D01*
X530650Y45368D01*
X530659Y45456D01*
X530672Y45544D01*
X530689Y45631D01*
X530709Y45717D01*
X530734Y45802D01*
X530761Y45887D01*
X530793Y45970D01*
X530827Y46051D01*
X530866Y46131D01*
X530907Y46209D01*
X530952Y46286D01*
X531000Y46360D01*
X531051Y46433D01*
X531105Y46503D01*
X531163Y46570D01*
X531223Y46636D01*
X531285Y46698D01*
X531351Y46758D01*
X531418Y46816D01*
X531488Y46870D01*
X531561Y46921D01*
X531635Y46969D01*
X531712Y47014D01*
X531790Y47055D01*
X531870Y47094D01*
X531951Y47128D01*
X532034Y47160D01*
X532119Y47187D01*
X532204Y47212D01*
X532290Y47232D01*
X532377Y47249D01*
X532465Y47262D01*
X532553Y47271D01*
X532641Y47277D01*
X532730Y47279D01*
X532850Y47277D01*
X532970Y47272D01*
X533090Y47262D01*
X533209Y47250D01*
X533328Y47233D01*
X533446Y47213D01*
X533564Y47189D01*
X533680Y47162D01*
X533796Y47131D01*
X533911Y47097D01*
X534025Y47059D01*
X534138Y47017D01*
X534249Y46972D01*
X534359Y46924D01*
X534467Y46873D01*
X534574Y46818D01*
X534679Y46760D01*
X534782Y46698D01*
X534883Y46634D01*
X534983Y46566D01*
X535080Y46496D01*
X531686Y43364D02*
X531608Y43412D01*
X531532Y43464D01*
X531459Y43518D01*
X531388Y43576D01*
X531319Y43637D01*
X531253Y43701D01*
X531190Y43768D01*
X531130Y43837D01*
X531073Y43909D01*
X531019Y43983D01*
X530969Y44060D01*
X530921Y44139D01*
X530878Y44219D01*
X530837Y44302D01*
X530801Y44386D01*
X530768Y44471D01*
X530739Y44558D01*
X530713Y44647D01*
X530691Y44736D01*
X530674Y44826D01*
X530660Y44916D01*
X530650Y45008D01*
X530644Y45099D01*
X530642Y45191D01*
X534558Y41796D02*
X534636Y41748D01*
X534712Y41696D01*
X534785Y41642D01*
X534856Y41584D01*
X534925Y41523D01*
X534991Y41459D01*
X535054Y41392D01*
X535114Y41323D01*
X535171Y41251D01*
X535225Y41177D01*
X535275Y41100D01*
X535323Y41021D01*
X535366Y40941D01*
X535407Y40858D01*
X535443Y40774D01*
X535476Y40689D01*
X535505Y40602D01*
X535531Y40513D01*
X535553Y40424D01*
X535570Y40334D01*
X535584Y40244D01*
X535594Y40152D01*
X535600Y40061D01*
X535602Y39969D01*
X534558Y41797D02*
X531686Y43363D01*
X539220Y39969D02*
X541309Y47279D01*
X539220Y39969D02*
X544441Y39969D01*
X542875Y42058D02*
X542875Y37881D01*
X492612Y100442D02*
X491045Y100442D01*
X492612Y100442D02*
X492612Y95221D01*
X489479Y95221D01*
X489390Y95223D01*
X489302Y95229D01*
X489214Y95238D01*
X489126Y95251D01*
X489039Y95268D01*
X488953Y95288D01*
X488868Y95313D01*
X488783Y95340D01*
X488700Y95372D01*
X488619Y95406D01*
X488539Y95445D01*
X488461Y95486D01*
X488384Y95531D01*
X488310Y95579D01*
X488237Y95630D01*
X488167Y95684D01*
X488100Y95742D01*
X488034Y95802D01*
X487972Y95864D01*
X487912Y95930D01*
X487854Y95997D01*
X487800Y96067D01*
X487749Y96140D01*
X487701Y96214D01*
X487656Y96291D01*
X487615Y96369D01*
X487576Y96449D01*
X487542Y96530D01*
X487510Y96613D01*
X487483Y96698D01*
X487458Y96783D01*
X487438Y96869D01*
X487421Y96956D01*
X487408Y97044D01*
X487399Y97132D01*
X487393Y97220D01*
X487391Y97309D01*
X487391Y102531D01*
X487393Y102622D01*
X487399Y102713D01*
X487409Y102804D01*
X487423Y102894D01*
X487440Y102983D01*
X487462Y103071D01*
X487488Y103159D01*
X487517Y103245D01*
X487550Y103330D01*
X487587Y103413D01*
X487627Y103495D01*
X487671Y103575D01*
X487718Y103653D01*
X487769Y103729D01*
X487822Y103802D01*
X487879Y103873D01*
X487940Y103942D01*
X488003Y104007D01*
X488068Y104070D01*
X488137Y104130D01*
X488208Y104188D01*
X488281Y104241D01*
X488357Y104292D01*
X488435Y104339D01*
X488515Y104383D01*
X488597Y104423D01*
X488680Y104460D01*
X488765Y104493D01*
X488851Y104522D01*
X488939Y104548D01*
X489027Y104570D01*
X489116Y104587D01*
X489206Y104601D01*
X489297Y104611D01*
X489388Y104617D01*
X489479Y104619D01*
X492612Y104619D01*
X497144Y104619D02*
X497144Y95221D01*
X502365Y95221D02*
X497144Y104619D01*
X502365Y104619D02*
X502365Y95221D01*
X506898Y95221D02*
X506898Y104619D01*
X509508Y104619D01*
X509608Y104617D01*
X509708Y104611D01*
X509807Y104602D01*
X509907Y104588D01*
X510005Y104571D01*
X510103Y104550D01*
X510200Y104526D01*
X510296Y104497D01*
X510391Y104465D01*
X510484Y104430D01*
X510576Y104391D01*
X510667Y104348D01*
X510755Y104302D01*
X510842Y104252D01*
X510927Y104200D01*
X511010Y104144D01*
X511091Y104085D01*
X511169Y104022D01*
X511245Y103957D01*
X511319Y103889D01*
X511389Y103819D01*
X511457Y103745D01*
X511522Y103669D01*
X511585Y103591D01*
X511644Y103510D01*
X511700Y103427D01*
X511752Y103342D01*
X511802Y103255D01*
X511848Y103167D01*
X511891Y103076D01*
X511930Y102984D01*
X511965Y102891D01*
X511997Y102796D01*
X512026Y102700D01*
X512050Y102603D01*
X512071Y102505D01*
X512088Y102407D01*
X512102Y102307D01*
X512111Y102208D01*
X512117Y102108D01*
X512119Y102008D01*
X512119Y97832D01*
X512117Y97732D01*
X512111Y97632D01*
X512102Y97533D01*
X512088Y97433D01*
X512071Y97335D01*
X512050Y97237D01*
X512026Y97140D01*
X511997Y97044D01*
X511965Y96949D01*
X511930Y96856D01*
X511891Y96764D01*
X511848Y96673D01*
X511802Y96585D01*
X511752Y96498D01*
X511700Y96413D01*
X511644Y96330D01*
X511585Y96249D01*
X511522Y96171D01*
X511457Y96095D01*
X511389Y96021D01*
X511319Y95951D01*
X511245Y95883D01*
X511169Y95818D01*
X511091Y95755D01*
X511010Y95696D01*
X510927Y95640D01*
X510842Y95588D01*
X510755Y95538D01*
X510667Y95492D01*
X510576Y95449D01*
X510484Y95410D01*
X510391Y95375D01*
X510296Y95343D01*
X510200Y95314D01*
X510103Y95290D01*
X510005Y95269D01*
X509907Y95252D01*
X509807Y95238D01*
X509708Y95229D01*
X509608Y95223D01*
X509508Y95221D01*
X506898Y95221D01*
D11*
X517500Y107500D02*
X482500Y107500D01*
X477500Y112500D01*
X517500Y107500D02*
X522500Y112500D01*
D10*
X470316Y77119D02*
X470316Y67721D01*
X469272Y67721D02*
X471360Y67721D01*
X471360Y77119D02*
X469272Y77119D01*
X475413Y73986D02*
X475413Y67721D01*
X475413Y73986D02*
X480112Y73986D01*
X480189Y73984D01*
X480265Y73978D01*
X480342Y73969D01*
X480418Y73956D01*
X480493Y73939D01*
X480567Y73919D01*
X480640Y73894D01*
X480711Y73867D01*
X480782Y73836D01*
X480850Y73801D01*
X480917Y73763D01*
X480982Y73722D01*
X481045Y73678D01*
X481105Y73631D01*
X481164Y73580D01*
X481219Y73527D01*
X481272Y73472D01*
X481323Y73413D01*
X481370Y73353D01*
X481414Y73290D01*
X481455Y73225D01*
X481493Y73158D01*
X481528Y73090D01*
X481559Y73019D01*
X481586Y72948D01*
X481611Y72875D01*
X481631Y72801D01*
X481648Y72726D01*
X481661Y72650D01*
X481670Y72573D01*
X481676Y72497D01*
X481678Y72420D01*
X481678Y67721D01*
X478546Y67721D02*
X478546Y73986D01*
X486256Y73986D02*
X486256Y64588D01*
X486256Y73986D02*
X488867Y73986D01*
X488944Y73984D01*
X489020Y73978D01*
X489097Y73969D01*
X489173Y73956D01*
X489248Y73939D01*
X489322Y73919D01*
X489395Y73894D01*
X489466Y73867D01*
X489537Y73836D01*
X489605Y73801D01*
X489672Y73763D01*
X489737Y73722D01*
X489800Y73678D01*
X489860Y73631D01*
X489919Y73580D01*
X489974Y73527D01*
X490027Y73472D01*
X490078Y73413D01*
X490125Y73353D01*
X490169Y73290D01*
X490210Y73225D01*
X490248Y73158D01*
X490283Y73090D01*
X490314Y73019D01*
X490341Y72948D01*
X490366Y72875D01*
X490386Y72801D01*
X490403Y72726D01*
X490416Y72650D01*
X490425Y72574D01*
X490431Y72497D01*
X490433Y72420D01*
X490433Y69287D01*
X490431Y69210D01*
X490425Y69134D01*
X490416Y69057D01*
X490403Y68981D01*
X490386Y68906D01*
X490366Y68832D01*
X490341Y68759D01*
X490314Y68688D01*
X490283Y68617D01*
X490248Y68549D01*
X490210Y68482D01*
X490169Y68417D01*
X490125Y68354D01*
X490078Y68294D01*
X490027Y68235D01*
X489974Y68180D01*
X489919Y68127D01*
X489860Y68076D01*
X489800Y68029D01*
X489737Y67985D01*
X489672Y67944D01*
X489605Y67906D01*
X489537Y67871D01*
X489466Y67840D01*
X489395Y67813D01*
X489322Y67788D01*
X489248Y67768D01*
X489173Y67751D01*
X489097Y67738D01*
X489020Y67729D01*
X488944Y67723D01*
X488867Y67721D01*
X486256Y67721D01*
X495917Y71376D02*
X498267Y71376D01*
X495917Y71375D02*
X495833Y71373D01*
X495748Y71367D01*
X495665Y71357D01*
X495581Y71344D01*
X495499Y71326D01*
X495417Y71305D01*
X495336Y71280D01*
X495257Y71252D01*
X495179Y71219D01*
X495103Y71183D01*
X495028Y71144D01*
X494955Y71101D01*
X494884Y71055D01*
X494816Y71006D01*
X494750Y70954D01*
X494686Y70898D01*
X494625Y70840D01*
X494567Y70779D01*
X494511Y70715D01*
X494459Y70649D01*
X494410Y70581D01*
X494364Y70510D01*
X494321Y70437D01*
X494282Y70362D01*
X494246Y70286D01*
X494213Y70208D01*
X494185Y70129D01*
X494160Y70048D01*
X494139Y69966D01*
X494121Y69884D01*
X494108Y69800D01*
X494098Y69717D01*
X494092Y69632D01*
X494090Y69548D01*
X494092Y69464D01*
X494098Y69379D01*
X494108Y69296D01*
X494121Y69212D01*
X494139Y69130D01*
X494160Y69048D01*
X494185Y68967D01*
X494213Y68888D01*
X494246Y68810D01*
X494282Y68734D01*
X494321Y68659D01*
X494364Y68586D01*
X494410Y68515D01*
X494459Y68447D01*
X494511Y68381D01*
X494567Y68317D01*
X494625Y68256D01*
X494686Y68198D01*
X494750Y68142D01*
X494816Y68090D01*
X494884Y68041D01*
X494955Y67995D01*
X495028Y67952D01*
X495103Y67913D01*
X495179Y67877D01*
X495257Y67844D01*
X495336Y67816D01*
X495417Y67791D01*
X495499Y67770D01*
X495581Y67752D01*
X495665Y67739D01*
X495748Y67729D01*
X495833Y67723D01*
X495917Y67721D01*
X498267Y67721D01*
X498267Y72420D01*
X498266Y72420D02*
X498264Y72497D01*
X498258Y72573D01*
X498249Y72650D01*
X498236Y72726D01*
X498219Y72801D01*
X498199Y72875D01*
X498174Y72948D01*
X498147Y73019D01*
X498116Y73090D01*
X498081Y73158D01*
X498043Y73225D01*
X498002Y73290D01*
X497958Y73353D01*
X497911Y73413D01*
X497860Y73472D01*
X497807Y73527D01*
X497752Y73580D01*
X497693Y73631D01*
X497633Y73678D01*
X497570Y73722D01*
X497505Y73763D01*
X497438Y73801D01*
X497370Y73836D01*
X497299Y73867D01*
X497228Y73894D01*
X497155Y73919D01*
X497081Y73939D01*
X497006Y73956D01*
X496930Y73969D01*
X496853Y73978D01*
X496777Y73984D01*
X496700Y73986D01*
X494612Y73986D01*
X503942Y67721D02*
X506030Y67721D01*
X503942Y67721D02*
X503865Y67723D01*
X503789Y67729D01*
X503712Y67738D01*
X503636Y67751D01*
X503561Y67768D01*
X503487Y67788D01*
X503414Y67813D01*
X503343Y67840D01*
X503272Y67871D01*
X503204Y67906D01*
X503137Y67944D01*
X503072Y67985D01*
X503009Y68029D01*
X502949Y68076D01*
X502890Y68127D01*
X502835Y68180D01*
X502782Y68235D01*
X502731Y68294D01*
X502684Y68354D01*
X502640Y68417D01*
X502599Y68482D01*
X502561Y68549D01*
X502526Y68617D01*
X502495Y68688D01*
X502468Y68759D01*
X502443Y68832D01*
X502423Y68906D01*
X502406Y68981D01*
X502393Y69057D01*
X502384Y69134D01*
X502378Y69210D01*
X502376Y69287D01*
X502375Y69287D02*
X502375Y72420D01*
X502376Y72420D02*
X502378Y72497D01*
X502384Y72573D01*
X502393Y72650D01*
X502406Y72726D01*
X502423Y72801D01*
X502443Y72875D01*
X502468Y72948D01*
X502495Y73019D01*
X502526Y73090D01*
X502561Y73158D01*
X502599Y73225D01*
X502640Y73290D01*
X502684Y73353D01*
X502731Y73413D01*
X502782Y73472D01*
X502835Y73527D01*
X502890Y73580D01*
X502949Y73631D01*
X503009Y73678D01*
X503072Y73722D01*
X503137Y73763D01*
X503204Y73801D01*
X503272Y73836D01*
X503343Y73867D01*
X503414Y73894D01*
X503487Y73919D01*
X503561Y73939D01*
X503636Y73956D01*
X503712Y73969D01*
X503789Y73978D01*
X503865Y73984D01*
X503942Y73986D01*
X506030Y73986D01*
X508607Y73986D02*
X511739Y73986D01*
X509651Y77119D02*
X509651Y69287D01*
X509653Y69210D01*
X509659Y69134D01*
X509668Y69057D01*
X509681Y68981D01*
X509698Y68906D01*
X509718Y68832D01*
X509743Y68759D01*
X509770Y68688D01*
X509801Y68617D01*
X509836Y68549D01*
X509874Y68482D01*
X509915Y68417D01*
X509959Y68354D01*
X510006Y68294D01*
X510057Y68235D01*
X510110Y68180D01*
X510165Y68127D01*
X510224Y68076D01*
X510284Y68029D01*
X510347Y67985D01*
X510412Y67944D01*
X510479Y67906D01*
X510547Y67871D01*
X510618Y67840D01*
X510689Y67813D01*
X510762Y67788D01*
X510836Y67768D01*
X510911Y67751D01*
X510987Y67738D01*
X511064Y67729D01*
X511140Y67723D01*
X511217Y67721D01*
X511739Y67721D01*
X515253Y70332D02*
X515255Y70433D01*
X515261Y70534D01*
X515271Y70635D01*
X515284Y70735D01*
X515302Y70835D01*
X515323Y70934D01*
X515349Y71032D01*
X515378Y71129D01*
X515410Y71225D01*
X515447Y71319D01*
X515487Y71412D01*
X515531Y71504D01*
X515578Y71593D01*
X515629Y71681D01*
X515683Y71767D01*
X515740Y71850D01*
X515800Y71932D01*
X515864Y72010D01*
X515930Y72087D01*
X516000Y72160D01*
X516072Y72231D01*
X516147Y72299D01*
X516225Y72364D01*
X516305Y72426D01*
X516387Y72485D01*
X516472Y72541D01*
X516559Y72593D01*
X516647Y72642D01*
X516738Y72688D01*
X516830Y72729D01*
X516924Y72768D01*
X517019Y72802D01*
X517115Y72833D01*
X517213Y72860D01*
X517311Y72884D01*
X517411Y72903D01*
X517511Y72919D01*
X517611Y72931D01*
X517712Y72939D01*
X517813Y72943D01*
X517915Y72943D01*
X518016Y72939D01*
X518117Y72931D01*
X518217Y72919D01*
X518317Y72903D01*
X518417Y72884D01*
X518515Y72860D01*
X518613Y72833D01*
X518709Y72802D01*
X518804Y72768D01*
X518898Y72729D01*
X518990Y72688D01*
X519081Y72642D01*
X519170Y72593D01*
X519256Y72541D01*
X519341Y72485D01*
X519423Y72426D01*
X519503Y72364D01*
X519581Y72299D01*
X519656Y72231D01*
X519728Y72160D01*
X519798Y72087D01*
X519864Y72010D01*
X519928Y71932D01*
X519988Y71850D01*
X520045Y71767D01*
X520099Y71681D01*
X520150Y71593D01*
X520197Y71504D01*
X520241Y71412D01*
X520281Y71319D01*
X520318Y71225D01*
X520350Y71129D01*
X520379Y71032D01*
X520405Y70934D01*
X520426Y70835D01*
X520444Y70735D01*
X520457Y70635D01*
X520467Y70534D01*
X520473Y70433D01*
X520475Y70332D01*
X520473Y70231D01*
X520467Y70130D01*
X520457Y70029D01*
X520444Y69929D01*
X520426Y69829D01*
X520405Y69730D01*
X520379Y69632D01*
X520350Y69535D01*
X520318Y69439D01*
X520281Y69345D01*
X520241Y69252D01*
X520197Y69160D01*
X520150Y69071D01*
X520099Y68983D01*
X520045Y68897D01*
X519988Y68814D01*
X519928Y68732D01*
X519864Y68654D01*
X519798Y68577D01*
X519728Y68504D01*
X519656Y68433D01*
X519581Y68365D01*
X519503Y68300D01*
X519423Y68238D01*
X519341Y68179D01*
X519256Y68123D01*
X519169Y68071D01*
X519081Y68022D01*
X518990Y67976D01*
X518898Y67935D01*
X518804Y67896D01*
X518709Y67862D01*
X518613Y67831D01*
X518515Y67804D01*
X518417Y67780D01*
X518317Y67761D01*
X518217Y67745D01*
X518117Y67733D01*
X518016Y67725D01*
X517915Y67721D01*
X517813Y67721D01*
X517712Y67725D01*
X517611Y67733D01*
X517511Y67745D01*
X517411Y67761D01*
X517311Y67780D01*
X517213Y67804D01*
X517115Y67831D01*
X517019Y67862D01*
X516924Y67896D01*
X516830Y67935D01*
X516738Y67976D01*
X516647Y68022D01*
X516559Y68071D01*
X516472Y68123D01*
X516387Y68179D01*
X516305Y68238D01*
X516225Y68300D01*
X516147Y68365D01*
X516072Y68433D01*
X516000Y68504D01*
X515930Y68577D01*
X515864Y68654D01*
X515800Y68732D01*
X515740Y68814D01*
X515683Y68897D01*
X515629Y68983D01*
X515578Y69071D01*
X515531Y69160D01*
X515487Y69252D01*
X515447Y69345D01*
X515410Y69439D01*
X515378Y69535D01*
X515349Y69632D01*
X515323Y69730D01*
X515302Y69829D01*
X515284Y69929D01*
X515271Y70029D01*
X515261Y70130D01*
X515255Y70231D01*
X515253Y70332D01*
X515776Y75031D02*
X515778Y75121D01*
X515784Y75210D01*
X515793Y75300D01*
X515807Y75389D01*
X515824Y75477D01*
X515845Y75564D01*
X515870Y75651D01*
X515899Y75736D01*
X515931Y75820D01*
X515966Y75902D01*
X516006Y75983D01*
X516048Y76062D01*
X516094Y76139D01*
X516144Y76214D01*
X516196Y76287D01*
X516252Y76358D01*
X516310Y76426D01*
X516372Y76491D01*
X516436Y76554D01*
X516503Y76614D01*
X516572Y76671D01*
X516644Y76725D01*
X516718Y76776D01*
X516794Y76824D01*
X516872Y76868D01*
X516952Y76909D01*
X517034Y76947D01*
X517117Y76981D01*
X517202Y77011D01*
X517288Y77038D01*
X517374Y77061D01*
X517462Y77080D01*
X517551Y77095D01*
X517640Y77107D01*
X517729Y77115D01*
X517819Y77119D01*
X517909Y77119D01*
X517999Y77115D01*
X518088Y77107D01*
X518177Y77095D01*
X518266Y77080D01*
X518354Y77061D01*
X518440Y77038D01*
X518526Y77011D01*
X518611Y76981D01*
X518694Y76947D01*
X518776Y76909D01*
X518856Y76868D01*
X518934Y76824D01*
X519010Y76776D01*
X519084Y76725D01*
X519156Y76671D01*
X519225Y76614D01*
X519292Y76554D01*
X519356Y76491D01*
X519418Y76426D01*
X519476Y76358D01*
X519532Y76287D01*
X519584Y76214D01*
X519634Y76139D01*
X519680Y76062D01*
X519722Y75983D01*
X519762Y75902D01*
X519797Y75820D01*
X519829Y75736D01*
X519858Y75651D01*
X519883Y75564D01*
X519904Y75477D01*
X519921Y75389D01*
X519935Y75300D01*
X519944Y75210D01*
X519950Y75121D01*
X519952Y75031D01*
X519950Y74941D01*
X519944Y74852D01*
X519935Y74762D01*
X519921Y74673D01*
X519904Y74585D01*
X519883Y74498D01*
X519858Y74411D01*
X519829Y74326D01*
X519797Y74242D01*
X519762Y74160D01*
X519722Y74079D01*
X519680Y74000D01*
X519634Y73923D01*
X519584Y73848D01*
X519532Y73775D01*
X519476Y73704D01*
X519418Y73636D01*
X519356Y73571D01*
X519292Y73508D01*
X519225Y73448D01*
X519156Y73391D01*
X519084Y73337D01*
X519010Y73286D01*
X518934Y73238D01*
X518856Y73194D01*
X518776Y73153D01*
X518694Y73115D01*
X518611Y73081D01*
X518526Y73051D01*
X518440Y73024D01*
X518354Y73001D01*
X518266Y72982D01*
X518177Y72967D01*
X518088Y72955D01*
X517999Y72947D01*
X517909Y72943D01*
X517819Y72943D01*
X517729Y72947D01*
X517640Y72955D01*
X517551Y72967D01*
X517462Y72982D01*
X517374Y73001D01*
X517288Y73024D01*
X517202Y73051D01*
X517117Y73081D01*
X517034Y73115D01*
X516952Y73153D01*
X516872Y73194D01*
X516794Y73238D01*
X516718Y73286D01*
X516644Y73337D01*
X516572Y73391D01*
X516503Y73448D01*
X516436Y73508D01*
X516372Y73571D01*
X516310Y73636D01*
X516252Y73704D01*
X516196Y73775D01*
X516144Y73848D01*
X516094Y73923D01*
X516048Y74000D01*
X516006Y74079D01*
X515966Y74160D01*
X515931Y74242D01*
X515899Y74326D01*
X515870Y74411D01*
X515845Y74498D01*
X515824Y74585D01*
X515807Y74673D01*
X515793Y74762D01*
X515784Y74852D01*
X515778Y74941D01*
X515776Y75031D01*
X524398Y69809D02*
X526486Y77119D01*
X524398Y69809D02*
X529619Y69809D01*
X528053Y71898D02*
X528053Y67721D01*
D11*
X386550Y91550D02*
X348450Y91550D01*
X386550Y91550D02*
X386550Y53450D01*
X348450Y53450D01*
X348450Y91550D01*
D12*
X350990Y89010D02*
X384010Y89010D01*
X384010Y55990D01*
X350990Y55990D01*
X350990Y89010D01*
D11*
X357340Y133460D02*
X357340Y137270D01*
X357340Y133460D02*
X377660Y133460D01*
X377660Y137270D02*
X357340Y137270D01*
X377660Y137270D02*
X377660Y133460D01*
X418300Y133460D02*
X428460Y123300D01*
X418300Y133460D02*
X385280Y133460D01*
X428460Y123300D02*
X428460Y110600D01*
X428460Y83930D02*
X428460Y61070D01*
X428460Y21700D02*
X418300Y11540D01*
X428460Y21700D02*
X428460Y34400D01*
X306540Y61070D02*
X306540Y83930D01*
X306540Y34400D02*
X306540Y21700D01*
X316700Y11540D01*
X349720Y11540D01*
X349720Y133460D02*
X316700Y133460D01*
X306540Y123300D01*
X306540Y110600D01*
X357340Y7730D02*
X377660Y7730D01*
X357340Y7730D02*
X357340Y11540D01*
X377660Y11540D02*
X377660Y7730D01*
X418300Y133460D02*
X415760Y136000D01*
X385280Y136000D01*
X385280Y133460D01*
X377660Y133460D01*
X349720Y133460D02*
X349720Y136000D01*
X349720Y133460D02*
X357340Y133460D01*
X349720Y136000D02*
X319240Y136000D01*
X316700Y133460D01*
X357340Y11540D02*
X377660Y11540D01*
X385280Y11540D01*
X349720Y11540D02*
X349720Y9000D01*
X349720Y11540D02*
X357340Y11540D01*
X349720Y9000D02*
X319240Y9000D01*
X316700Y11540D01*
X385280Y11540D02*
X385280Y9000D01*
X385280Y11540D02*
X418300Y11540D01*
X415760Y9000D02*
X385280Y9000D01*
X415760Y9000D02*
X418300Y11540D01*
X331940Y72500D02*
X331951Y73373D01*
X331983Y74245D01*
X332036Y75116D01*
X332111Y75985D01*
X332207Y76853D01*
X332325Y77718D01*
X332464Y78579D01*
X332623Y79437D01*
X332804Y80291D01*
X333006Y81140D01*
X333228Y81984D01*
X333471Y82823D01*
X333735Y83655D01*
X334019Y84480D01*
X334323Y85298D01*
X334647Y86108D01*
X334991Y86910D01*
X335354Y87704D01*
X335737Y88488D01*
X336139Y89263D01*
X336560Y90027D01*
X336999Y90781D01*
X337457Y91525D01*
X337933Y92256D01*
X338427Y92976D01*
X338938Y93683D01*
X339466Y94378D01*
X340012Y95059D01*
X340574Y95727D01*
X341152Y96381D01*
X341746Y97020D01*
X342355Y97645D01*
X342980Y98254D01*
X343619Y98848D01*
X344273Y99426D01*
X344941Y99988D01*
X345622Y100534D01*
X346317Y101062D01*
X347024Y101573D01*
X347744Y102067D01*
X348475Y102543D01*
X349219Y103001D01*
X349973Y103440D01*
X350737Y103861D01*
X351512Y104263D01*
X352296Y104646D01*
X353090Y105009D01*
X353892Y105353D01*
X354702Y105677D01*
X355520Y105981D01*
X356345Y106265D01*
X357177Y106529D01*
X358016Y106772D01*
X358860Y106994D01*
X359709Y107196D01*
X360563Y107377D01*
X361421Y107536D01*
X362282Y107675D01*
X363147Y107793D01*
X364015Y107889D01*
X364884Y107964D01*
X365755Y108017D01*
X366627Y108049D01*
X367500Y108060D01*
X368373Y108049D01*
X369245Y108017D01*
X370116Y107964D01*
X370985Y107889D01*
X371853Y107793D01*
X372718Y107675D01*
X373579Y107536D01*
X374437Y107377D01*
X375291Y107196D01*
X376140Y106994D01*
X376984Y106772D01*
X377823Y106529D01*
X378655Y106265D01*
X379480Y105981D01*
X380298Y105677D01*
X381108Y105353D01*
X381910Y105009D01*
X382704Y104646D01*
X383488Y104263D01*
X384263Y103861D01*
X385027Y103440D01*
X385781Y103001D01*
X386525Y102543D01*
X387256Y102067D01*
X387976Y101573D01*
X388683Y101062D01*
X389378Y100534D01*
X390059Y99988D01*
X390727Y99426D01*
X391381Y98848D01*
X392020Y98254D01*
X392645Y97645D01*
X393254Y97020D01*
X393848Y96381D01*
X394426Y95727D01*
X394988Y95059D01*
X395534Y94378D01*
X396062Y93683D01*
X396573Y92976D01*
X397067Y92256D01*
X397543Y91525D01*
X398001Y90781D01*
X398440Y90027D01*
X398861Y89263D01*
X399263Y88488D01*
X399646Y87704D01*
X400009Y86910D01*
X400353Y86108D01*
X400677Y85298D01*
X400981Y84480D01*
X401265Y83655D01*
X401529Y82823D01*
X401772Y81984D01*
X401994Y81140D01*
X402196Y80291D01*
X402377Y79437D01*
X402536Y78579D01*
X402675Y77718D01*
X402793Y76853D01*
X402889Y75985D01*
X402964Y75116D01*
X403017Y74245D01*
X403049Y73373D01*
X403060Y72500D01*
X403049Y71627D01*
X403017Y70755D01*
X402964Y69884D01*
X402889Y69015D01*
X402793Y68147D01*
X402675Y67282D01*
X402536Y66421D01*
X402377Y65563D01*
X402196Y64709D01*
X401994Y63860D01*
X401772Y63016D01*
X401529Y62177D01*
X401265Y61345D01*
X400981Y60520D01*
X400677Y59702D01*
X400353Y58892D01*
X400009Y58090D01*
X399646Y57296D01*
X399263Y56512D01*
X398861Y55737D01*
X398440Y54973D01*
X398001Y54219D01*
X397543Y53475D01*
X397067Y52744D01*
X396573Y52024D01*
X396062Y51317D01*
X395534Y50622D01*
X394988Y49941D01*
X394426Y49273D01*
X393848Y48619D01*
X393254Y47980D01*
X392645Y47355D01*
X392020Y46746D01*
X391381Y46152D01*
X390727Y45574D01*
X390059Y45012D01*
X389378Y44466D01*
X388683Y43938D01*
X387976Y43427D01*
X387256Y42933D01*
X386525Y42457D01*
X385781Y41999D01*
X385027Y41560D01*
X384263Y41139D01*
X383488Y40737D01*
X382704Y40354D01*
X381910Y39991D01*
X381108Y39647D01*
X380298Y39323D01*
X379480Y39019D01*
X378655Y38735D01*
X377823Y38471D01*
X376984Y38228D01*
X376140Y38006D01*
X375291Y37804D01*
X374437Y37623D01*
X373579Y37464D01*
X372718Y37325D01*
X371853Y37207D01*
X370985Y37111D01*
X370116Y37036D01*
X369245Y36983D01*
X368373Y36951D01*
X367500Y36940D01*
X366627Y36951D01*
X365755Y36983D01*
X364884Y37036D01*
X364015Y37111D01*
X363147Y37207D01*
X362282Y37325D01*
X361421Y37464D01*
X360563Y37623D01*
X359709Y37804D01*
X358860Y38006D01*
X358016Y38228D01*
X357177Y38471D01*
X356345Y38735D01*
X355520Y39019D01*
X354702Y39323D01*
X353892Y39647D01*
X353090Y39991D01*
X352296Y40354D01*
X351512Y40737D01*
X350737Y41139D01*
X349973Y41560D01*
X349219Y41999D01*
X348475Y42457D01*
X347744Y42933D01*
X347024Y43427D01*
X346317Y43938D01*
X345622Y44466D01*
X344941Y45012D01*
X344273Y45574D01*
X343619Y46152D01*
X342980Y46746D01*
X342355Y47355D01*
X341746Y47980D01*
X341152Y48619D01*
X340574Y49273D01*
X340012Y49941D01*
X339466Y50622D01*
X338938Y51317D01*
X338427Y52024D01*
X337933Y52744D01*
X337457Y53475D01*
X336999Y54219D01*
X336560Y54973D01*
X336139Y55737D01*
X335737Y56512D01*
X335354Y57296D01*
X334991Y58090D01*
X334647Y58892D01*
X334323Y59702D01*
X334019Y60520D01*
X333735Y61345D01*
X333471Y62177D01*
X333228Y63016D01*
X333006Y63860D01*
X332804Y64709D01*
X332623Y65563D01*
X332464Y66421D01*
X332325Y67282D01*
X332207Y68147D01*
X332111Y69015D01*
X332036Y69884D01*
X331983Y70755D01*
X331951Y71627D01*
X331940Y72500D01*
D12*
X357340Y72500D02*
X357343Y72749D01*
X357352Y72999D01*
X357368Y73247D01*
X357389Y73496D01*
X357416Y73744D01*
X357450Y73991D01*
X357490Y74237D01*
X357535Y74482D01*
X357587Y74726D01*
X357644Y74969D01*
X357708Y75210D01*
X357777Y75449D01*
X357853Y75687D01*
X357934Y75923D01*
X358021Y76157D01*
X358113Y76388D01*
X358212Y76617D01*
X358315Y76844D01*
X358425Y77068D01*
X358540Y77289D01*
X358660Y77508D01*
X358785Y77723D01*
X358916Y77936D01*
X359052Y78145D01*
X359193Y78350D01*
X359339Y78552D01*
X359490Y78751D01*
X359646Y78945D01*
X359807Y79136D01*
X359972Y79323D01*
X360142Y79506D01*
X360316Y79684D01*
X360494Y79858D01*
X360677Y80028D01*
X360864Y80193D01*
X361055Y80354D01*
X361249Y80510D01*
X361448Y80661D01*
X361650Y80807D01*
X361855Y80948D01*
X362064Y81084D01*
X362277Y81215D01*
X362492Y81340D01*
X362711Y81460D01*
X362932Y81575D01*
X363156Y81685D01*
X363383Y81788D01*
X363612Y81887D01*
X363843Y81979D01*
X364077Y82066D01*
X364313Y82147D01*
X364551Y82223D01*
X364790Y82292D01*
X365031Y82356D01*
X365274Y82413D01*
X365518Y82465D01*
X365763Y82510D01*
X366009Y82550D01*
X366256Y82584D01*
X366504Y82611D01*
X366753Y82632D01*
X367001Y82648D01*
X367251Y82657D01*
X367500Y82660D01*
X367749Y82657D01*
X367999Y82648D01*
X368247Y82632D01*
X368496Y82611D01*
X368744Y82584D01*
X368991Y82550D01*
X369237Y82510D01*
X369482Y82465D01*
X369726Y82413D01*
X369969Y82356D01*
X370210Y82292D01*
X370449Y82223D01*
X370687Y82147D01*
X370923Y82066D01*
X371157Y81979D01*
X371388Y81887D01*
X371617Y81788D01*
X371844Y81685D01*
X372068Y81575D01*
X372289Y81460D01*
X372508Y81340D01*
X372723Y81215D01*
X372936Y81084D01*
X373145Y80948D01*
X373350Y80807D01*
X373552Y80661D01*
X373751Y80510D01*
X373945Y80354D01*
X374136Y80193D01*
X374323Y80028D01*
X374506Y79858D01*
X374684Y79684D01*
X374858Y79506D01*
X375028Y79323D01*
X375193Y79136D01*
X375354Y78945D01*
X375510Y78751D01*
X375661Y78552D01*
X375807Y78350D01*
X375948Y78145D01*
X376084Y77936D01*
X376215Y77723D01*
X376340Y77508D01*
X376460Y77289D01*
X376575Y77068D01*
X376685Y76844D01*
X376788Y76617D01*
X376887Y76388D01*
X376979Y76157D01*
X377066Y75923D01*
X377147Y75687D01*
X377223Y75449D01*
X377292Y75210D01*
X377356Y74969D01*
X377413Y74726D01*
X377465Y74482D01*
X377510Y74237D01*
X377550Y73991D01*
X377584Y73744D01*
X377611Y73496D01*
X377632Y73247D01*
X377648Y72999D01*
X377657Y72749D01*
X377660Y72500D01*
X377657Y72251D01*
X377648Y72001D01*
X377632Y71753D01*
X377611Y71504D01*
X377584Y71256D01*
X377550Y71009D01*
X377510Y70763D01*
X377465Y70518D01*
X377413Y70274D01*
X377356Y70031D01*
X377292Y69790D01*
X377223Y69551D01*
X377147Y69313D01*
X377066Y69077D01*
X376979Y68843D01*
X376887Y68612D01*
X376788Y68383D01*
X376685Y68156D01*
X376575Y67932D01*
X376460Y67711D01*
X376340Y67492D01*
X376215Y67277D01*
X376084Y67064D01*
X375948Y66855D01*
X375807Y66650D01*
X375661Y66448D01*
X375510Y66249D01*
X375354Y66055D01*
X375193Y65864D01*
X375028Y65677D01*
X374858Y65494D01*
X374684Y65316D01*
X374506Y65142D01*
X374323Y64972D01*
X374136Y64807D01*
X373945Y64646D01*
X373751Y64490D01*
X373552Y64339D01*
X373350Y64193D01*
X373145Y64052D01*
X372936Y63916D01*
X372723Y63785D01*
X372508Y63660D01*
X372289Y63540D01*
X372068Y63425D01*
X371844Y63315D01*
X371617Y63212D01*
X371388Y63113D01*
X371157Y63021D01*
X370923Y62934D01*
X370687Y62853D01*
X370449Y62777D01*
X370210Y62708D01*
X369969Y62644D01*
X369726Y62587D01*
X369482Y62535D01*
X369237Y62490D01*
X368991Y62450D01*
X368744Y62416D01*
X368496Y62389D01*
X368247Y62368D01*
X367999Y62352D01*
X367749Y62343D01*
X367500Y62340D01*
X367251Y62343D01*
X367001Y62352D01*
X366753Y62368D01*
X366504Y62389D01*
X366256Y62416D01*
X366009Y62450D01*
X365763Y62490D01*
X365518Y62535D01*
X365274Y62587D01*
X365031Y62644D01*
X364790Y62708D01*
X364551Y62777D01*
X364313Y62853D01*
X364077Y62934D01*
X363843Y63021D01*
X363612Y63113D01*
X363383Y63212D01*
X363156Y63315D01*
X362932Y63425D01*
X362711Y63540D01*
X362492Y63660D01*
X362277Y63785D01*
X362064Y63916D01*
X361855Y64052D01*
X361650Y64193D01*
X361448Y64339D01*
X361249Y64490D01*
X361055Y64646D01*
X360864Y64807D01*
X360677Y64972D01*
X360494Y65142D01*
X360316Y65316D01*
X360142Y65494D01*
X359972Y65677D01*
X359807Y65864D01*
X359646Y66055D01*
X359490Y66249D01*
X359339Y66448D01*
X359193Y66650D01*
X359052Y66855D01*
X358916Y67064D01*
X358785Y67277D01*
X358660Y67492D01*
X358540Y67711D01*
X358425Y67932D01*
X358315Y68156D01*
X358212Y68383D01*
X358113Y68612D01*
X358021Y68843D01*
X357934Y69077D01*
X357853Y69313D01*
X357777Y69551D01*
X357708Y69790D01*
X357644Y70031D01*
X357587Y70274D01*
X357535Y70518D01*
X357490Y70763D01*
X357450Y71009D01*
X357416Y71256D01*
X357389Y71504D01*
X357368Y71753D01*
X357352Y72001D01*
X357343Y72251D01*
X357340Y72500D01*
X359880Y72500D02*
X359882Y72687D01*
X359889Y72874D01*
X359901Y73061D01*
X359917Y73247D01*
X359937Y73433D01*
X359962Y73618D01*
X359992Y73803D01*
X360026Y73987D01*
X360065Y74170D01*
X360108Y74352D01*
X360156Y74532D01*
X360208Y74712D01*
X360265Y74890D01*
X360325Y75067D01*
X360391Y75242D01*
X360460Y75416D01*
X360534Y75588D01*
X360612Y75758D01*
X360694Y75926D01*
X360780Y76092D01*
X360870Y76256D01*
X360964Y76417D01*
X361062Y76577D01*
X361164Y76733D01*
X361270Y76888D01*
X361380Y77039D01*
X361493Y77188D01*
X361610Y77334D01*
X361730Y77477D01*
X361854Y77617D01*
X361981Y77754D01*
X362112Y77888D01*
X362246Y78019D01*
X362383Y78146D01*
X362523Y78270D01*
X362666Y78390D01*
X362812Y78507D01*
X362961Y78620D01*
X363112Y78730D01*
X363267Y78836D01*
X363423Y78938D01*
X363583Y79036D01*
X363744Y79130D01*
X363908Y79220D01*
X364074Y79306D01*
X364242Y79388D01*
X364412Y79466D01*
X364584Y79540D01*
X364758Y79609D01*
X364933Y79675D01*
X365110Y79735D01*
X365288Y79792D01*
X365468Y79844D01*
X365648Y79892D01*
X365830Y79935D01*
X366013Y79974D01*
X366197Y80008D01*
X366382Y80038D01*
X366567Y80063D01*
X366753Y80083D01*
X366939Y80099D01*
X367126Y80111D01*
X367313Y80118D01*
X367500Y80120D01*
X367687Y80118D01*
X367874Y80111D01*
X368061Y80099D01*
X368247Y80083D01*
X368433Y80063D01*
X368618Y80038D01*
X368803Y80008D01*
X368987Y79974D01*
X369170Y79935D01*
X369352Y79892D01*
X369532Y79844D01*
X369712Y79792D01*
X369890Y79735D01*
X370067Y79675D01*
X370242Y79609D01*
X370416Y79540D01*
X370588Y79466D01*
X370758Y79388D01*
X370926Y79306D01*
X371092Y79220D01*
X371256Y79130D01*
X371417Y79036D01*
X371577Y78938D01*
X371733Y78836D01*
X371888Y78730D01*
X372039Y78620D01*
X372188Y78507D01*
X372334Y78390D01*
X372477Y78270D01*
X372617Y78146D01*
X372754Y78019D01*
X372888Y77888D01*
X373019Y77754D01*
X373146Y77617D01*
X373270Y77477D01*
X373390Y77334D01*
X373507Y77188D01*
X373620Y77039D01*
X373730Y76888D01*
X373836Y76733D01*
X373938Y76577D01*
X374036Y76417D01*
X374130Y76256D01*
X374220Y76092D01*
X374306Y75926D01*
X374388Y75758D01*
X374466Y75588D01*
X374540Y75416D01*
X374609Y75242D01*
X374675Y75067D01*
X374735Y74890D01*
X374792Y74712D01*
X374844Y74532D01*
X374892Y74352D01*
X374935Y74170D01*
X374974Y73987D01*
X375008Y73803D01*
X375038Y73618D01*
X375063Y73433D01*
X375083Y73247D01*
X375099Y73061D01*
X375111Y72874D01*
X375118Y72687D01*
X375120Y72500D01*
X375118Y72313D01*
X375111Y72126D01*
X375099Y71939D01*
X375083Y71753D01*
X375063Y71567D01*
X375038Y71382D01*
X375008Y71197D01*
X374974Y71013D01*
X374935Y70830D01*
X374892Y70648D01*
X374844Y70468D01*
X374792Y70288D01*
X374735Y70110D01*
X374675Y69933D01*
X374609Y69758D01*
X374540Y69584D01*
X374466Y69412D01*
X374388Y69242D01*
X374306Y69074D01*
X374220Y68908D01*
X374130Y68744D01*
X374036Y68583D01*
X373938Y68423D01*
X373836Y68267D01*
X373730Y68112D01*
X373620Y67961D01*
X373507Y67812D01*
X373390Y67666D01*
X373270Y67523D01*
X373146Y67383D01*
X373019Y67246D01*
X372888Y67112D01*
X372754Y66981D01*
X372617Y66854D01*
X372477Y66730D01*
X372334Y66610D01*
X372188Y66493D01*
X372039Y66380D01*
X371888Y66270D01*
X371733Y66164D01*
X371577Y66062D01*
X371417Y65964D01*
X371256Y65870D01*
X371092Y65780D01*
X370926Y65694D01*
X370758Y65612D01*
X370588Y65534D01*
X370416Y65460D01*
X370242Y65391D01*
X370067Y65325D01*
X369890Y65265D01*
X369712Y65208D01*
X369532Y65156D01*
X369352Y65108D01*
X369170Y65065D01*
X368987Y65026D01*
X368803Y64992D01*
X368618Y64962D01*
X368433Y64937D01*
X368247Y64917D01*
X368061Y64901D01*
X367874Y64889D01*
X367687Y64882D01*
X367500Y64880D01*
X367313Y64882D01*
X367126Y64889D01*
X366939Y64901D01*
X366753Y64917D01*
X366567Y64937D01*
X366382Y64962D01*
X366197Y64992D01*
X366013Y65026D01*
X365830Y65065D01*
X365648Y65108D01*
X365468Y65156D01*
X365288Y65208D01*
X365110Y65265D01*
X364933Y65325D01*
X364758Y65391D01*
X364584Y65460D01*
X364412Y65534D01*
X364242Y65612D01*
X364074Y65694D01*
X363908Y65780D01*
X363744Y65870D01*
X363583Y65964D01*
X363423Y66062D01*
X363267Y66164D01*
X363112Y66270D01*
X362961Y66380D01*
X362812Y66493D01*
X362666Y66610D01*
X362523Y66730D01*
X362383Y66854D01*
X362246Y66981D01*
X362112Y67112D01*
X361981Y67246D01*
X361854Y67383D01*
X361730Y67523D01*
X361610Y67666D01*
X361493Y67812D01*
X361380Y67961D01*
X361270Y68112D01*
X361164Y68267D01*
X361062Y68423D01*
X360964Y68583D01*
X360870Y68744D01*
X360780Y68908D01*
X360694Y69074D01*
X360612Y69242D01*
X360534Y69412D01*
X360460Y69584D01*
X360391Y69758D01*
X360325Y69933D01*
X360265Y70110D01*
X360208Y70288D01*
X360156Y70468D01*
X360108Y70648D01*
X360065Y70830D01*
X360026Y71013D01*
X359992Y71197D01*
X359962Y71382D01*
X359937Y71567D01*
X359917Y71753D01*
X359901Y71939D01*
X359889Y72126D01*
X359882Y72313D01*
X359880Y72500D01*
D13*
X319240Y117585D02*
X316065Y115045D01*
X319240Y117585D02*
X319240Y106155D01*
X316065Y106155D02*
X322415Y106155D01*
X410998Y117586D02*
X411102Y117584D01*
X411207Y117578D01*
X411311Y117569D01*
X411414Y117556D01*
X411517Y117538D01*
X411619Y117518D01*
X411721Y117493D01*
X411821Y117465D01*
X411921Y117433D01*
X412019Y117397D01*
X412116Y117358D01*
X412211Y117316D01*
X412305Y117270D01*
X412397Y117220D01*
X412487Y117168D01*
X412575Y117112D01*
X412661Y117052D01*
X412745Y116990D01*
X412826Y116925D01*
X412905Y116857D01*
X412982Y116785D01*
X413055Y116712D01*
X413127Y116635D01*
X413195Y116556D01*
X413260Y116475D01*
X413322Y116391D01*
X413382Y116305D01*
X413438Y116217D01*
X413490Y116127D01*
X413540Y116035D01*
X413586Y115941D01*
X413628Y115846D01*
X413667Y115749D01*
X413703Y115651D01*
X413735Y115551D01*
X413763Y115451D01*
X413788Y115349D01*
X413808Y115247D01*
X413826Y115144D01*
X413839Y115041D01*
X413848Y114937D01*
X413854Y114832D01*
X413856Y114728D01*
X410998Y117585D02*
X410880Y117583D01*
X410761Y117577D01*
X410643Y117568D01*
X410526Y117555D01*
X410409Y117537D01*
X410292Y117517D01*
X410176Y117492D01*
X410061Y117464D01*
X409948Y117431D01*
X409835Y117396D01*
X409723Y117356D01*
X409613Y117314D01*
X409504Y117267D01*
X409396Y117217D01*
X409291Y117164D01*
X409187Y117107D01*
X409085Y117047D01*
X408985Y116984D01*
X408887Y116917D01*
X408791Y116848D01*
X408698Y116775D01*
X408607Y116699D01*
X408518Y116621D01*
X408432Y116539D01*
X408349Y116455D01*
X408268Y116369D01*
X408191Y116279D01*
X408116Y116188D01*
X408044Y116094D01*
X407975Y115997D01*
X407910Y115899D01*
X407847Y115798D01*
X407788Y115695D01*
X407732Y115591D01*
X407680Y115485D01*
X407631Y115377D01*
X407586Y115268D01*
X407544Y115157D01*
X407506Y115045D01*
X412903Y112506D02*
X412979Y112581D01*
X413054Y112660D01*
X413125Y112741D01*
X413194Y112825D01*
X413259Y112911D01*
X413321Y112999D01*
X413381Y113089D01*
X413437Y113181D01*
X413490Y113276D01*
X413539Y113372D01*
X413585Y113470D01*
X413628Y113569D01*
X413667Y113670D01*
X413702Y113772D01*
X413734Y113875D01*
X413762Y113979D01*
X413787Y114084D01*
X413808Y114191D01*
X413825Y114297D01*
X413838Y114404D01*
X413847Y114512D01*
X413853Y114620D01*
X413855Y114728D01*
X412903Y112505D02*
X407505Y106155D01*
X413855Y106155D01*
X319240Y26145D02*
X316065Y26145D01*
X319240Y26145D02*
X319351Y26147D01*
X319461Y26153D01*
X319572Y26162D01*
X319682Y26176D01*
X319791Y26193D01*
X319900Y26214D01*
X320008Y26239D01*
X320115Y26268D01*
X320221Y26300D01*
X320326Y26336D01*
X320429Y26376D01*
X320531Y26419D01*
X320632Y26466D01*
X320731Y26517D01*
X320828Y26570D01*
X320922Y26627D01*
X321015Y26688D01*
X321106Y26751D01*
X321195Y26818D01*
X321281Y26888D01*
X321364Y26961D01*
X321446Y27036D01*
X321524Y27114D01*
X321599Y27196D01*
X321672Y27279D01*
X321742Y27365D01*
X321809Y27454D01*
X321872Y27545D01*
X321933Y27638D01*
X321990Y27732D01*
X322043Y27829D01*
X322094Y27928D01*
X322141Y28029D01*
X322184Y28131D01*
X322224Y28234D01*
X322260Y28339D01*
X322292Y28445D01*
X322321Y28552D01*
X322346Y28660D01*
X322367Y28769D01*
X322384Y28878D01*
X322398Y28988D01*
X322407Y29099D01*
X322413Y29209D01*
X322415Y29320D01*
X322413Y29431D01*
X322407Y29541D01*
X322398Y29652D01*
X322384Y29762D01*
X322367Y29871D01*
X322346Y29980D01*
X322321Y30088D01*
X322292Y30195D01*
X322260Y30301D01*
X322224Y30406D01*
X322184Y30509D01*
X322141Y30611D01*
X322094Y30712D01*
X322043Y30811D01*
X321990Y30907D01*
X321933Y31002D01*
X321872Y31095D01*
X321809Y31186D01*
X321742Y31275D01*
X321672Y31361D01*
X321599Y31444D01*
X321524Y31526D01*
X321446Y31604D01*
X321364Y31679D01*
X321281Y31752D01*
X321195Y31822D01*
X321106Y31889D01*
X321015Y31952D01*
X320922Y32013D01*
X320828Y32070D01*
X320731Y32123D01*
X320632Y32174D01*
X320531Y32221D01*
X320429Y32264D01*
X320326Y32304D01*
X320221Y32340D01*
X320115Y32372D01*
X320008Y32401D01*
X319900Y32426D01*
X319791Y32447D01*
X319682Y32464D01*
X319572Y32478D01*
X319461Y32487D01*
X319351Y32493D01*
X319240Y32495D01*
X319875Y37575D02*
X316065Y37575D01*
X319875Y37575D02*
X319975Y37573D01*
X320074Y37567D01*
X320174Y37557D01*
X320272Y37544D01*
X320371Y37526D01*
X320468Y37505D01*
X320564Y37480D01*
X320660Y37451D01*
X320754Y37418D01*
X320847Y37382D01*
X320938Y37342D01*
X321028Y37298D01*
X321116Y37251D01*
X321202Y37201D01*
X321286Y37147D01*
X321368Y37090D01*
X321447Y37030D01*
X321525Y36966D01*
X321599Y36900D01*
X321671Y36831D01*
X321740Y36759D01*
X321806Y36685D01*
X321870Y36607D01*
X321930Y36528D01*
X321987Y36446D01*
X322041Y36362D01*
X322091Y36276D01*
X322138Y36188D01*
X322182Y36098D01*
X322222Y36007D01*
X322258Y35914D01*
X322291Y35820D01*
X322320Y35724D01*
X322345Y35628D01*
X322366Y35531D01*
X322384Y35432D01*
X322397Y35334D01*
X322407Y35234D01*
X322413Y35135D01*
X322415Y35035D01*
X322413Y34935D01*
X322407Y34836D01*
X322397Y34736D01*
X322384Y34638D01*
X322366Y34539D01*
X322345Y34442D01*
X322320Y34346D01*
X322291Y34250D01*
X322258Y34156D01*
X322222Y34063D01*
X322182Y33972D01*
X322138Y33882D01*
X322091Y33794D01*
X322041Y33708D01*
X321987Y33624D01*
X321930Y33542D01*
X321870Y33463D01*
X321806Y33385D01*
X321740Y33311D01*
X321671Y33239D01*
X321599Y33170D01*
X321525Y33104D01*
X321447Y33040D01*
X321368Y32980D01*
X321286Y32923D01*
X321202Y32869D01*
X321116Y32819D01*
X321028Y32772D01*
X320938Y32728D01*
X320847Y32688D01*
X320754Y32652D01*
X320660Y32619D01*
X320564Y32590D01*
X320468Y32565D01*
X320371Y32544D01*
X320272Y32526D01*
X320174Y32513D01*
X320074Y32503D01*
X319975Y32497D01*
X319875Y32495D01*
X317335Y32495D01*
X408775Y28685D02*
X411315Y37575D01*
X408775Y28685D02*
X415125Y28685D01*
X413220Y31225D02*
X413220Y26145D01*
D14*
X401155Y133460D03*
X333845Y133460D03*
X401155Y11540D03*
X333845Y11540D03*
D11*
X613450Y91550D02*
X651550Y91550D01*
X651550Y53450D01*
X613450Y53450D01*
X613450Y91550D01*
D12*
X615990Y89010D02*
X649010Y89010D01*
X649010Y55990D01*
X615990Y55990D01*
X615990Y89010D01*
D11*
X622340Y133460D02*
X622340Y137270D01*
X622340Y133460D02*
X642660Y133460D01*
X642660Y137270D02*
X622340Y137270D01*
X642660Y137270D02*
X642660Y133460D01*
X683300Y133460D02*
X693460Y123300D01*
X683300Y133460D02*
X650280Y133460D01*
X693460Y123300D02*
X693460Y110600D01*
X693460Y83930D02*
X693460Y61070D01*
X693460Y21700D02*
X683300Y11540D01*
X693460Y21700D02*
X693460Y34400D01*
X571540Y61070D02*
X571540Y83930D01*
X571540Y34400D02*
X571540Y21700D01*
X581700Y11540D01*
X614720Y11540D01*
X614720Y133460D02*
X581700Y133460D01*
X571540Y123300D01*
X571540Y110600D01*
X622340Y7730D02*
X642660Y7730D01*
X622340Y7730D02*
X622340Y11540D01*
X642660Y11540D02*
X642660Y7730D01*
X683300Y133460D02*
X680760Y136000D01*
X650280Y136000D01*
X650280Y133460D01*
X642660Y133460D01*
X614720Y133460D02*
X614720Y136000D01*
X614720Y133460D02*
X622340Y133460D01*
X614720Y136000D02*
X584240Y136000D01*
X581700Y133460D01*
X622340Y11540D02*
X642660Y11540D01*
X650280Y11540D01*
X614720Y11540D02*
X614720Y9000D01*
X614720Y11540D02*
X622340Y11540D01*
X614720Y9000D02*
X584240Y9000D01*
X581700Y11540D01*
X650280Y11540D02*
X650280Y9000D01*
X650280Y11540D02*
X683300Y11540D01*
X680760Y9000D02*
X650280Y9000D01*
X680760Y9000D02*
X683300Y11540D01*
X596940Y72500D02*
X596951Y73373D01*
X596983Y74245D01*
X597036Y75116D01*
X597111Y75985D01*
X597207Y76853D01*
X597325Y77718D01*
X597464Y78579D01*
X597623Y79437D01*
X597804Y80291D01*
X598006Y81140D01*
X598228Y81984D01*
X598471Y82823D01*
X598735Y83655D01*
X599019Y84480D01*
X599323Y85298D01*
X599647Y86108D01*
X599991Y86910D01*
X600354Y87704D01*
X600737Y88488D01*
X601139Y89263D01*
X601560Y90027D01*
X601999Y90781D01*
X602457Y91525D01*
X602933Y92256D01*
X603427Y92976D01*
X603938Y93683D01*
X604466Y94378D01*
X605012Y95059D01*
X605574Y95727D01*
X606152Y96381D01*
X606746Y97020D01*
X607355Y97645D01*
X607980Y98254D01*
X608619Y98848D01*
X609273Y99426D01*
X609941Y99988D01*
X610622Y100534D01*
X611317Y101062D01*
X612024Y101573D01*
X612744Y102067D01*
X613475Y102543D01*
X614219Y103001D01*
X614973Y103440D01*
X615737Y103861D01*
X616512Y104263D01*
X617296Y104646D01*
X618090Y105009D01*
X618892Y105353D01*
X619702Y105677D01*
X620520Y105981D01*
X621345Y106265D01*
X622177Y106529D01*
X623016Y106772D01*
X623860Y106994D01*
X624709Y107196D01*
X625563Y107377D01*
X626421Y107536D01*
X627282Y107675D01*
X628147Y107793D01*
X629015Y107889D01*
X629884Y107964D01*
X630755Y108017D01*
X631627Y108049D01*
X632500Y108060D01*
X633373Y108049D01*
X634245Y108017D01*
X635116Y107964D01*
X635985Y107889D01*
X636853Y107793D01*
X637718Y107675D01*
X638579Y107536D01*
X639437Y107377D01*
X640291Y107196D01*
X641140Y106994D01*
X641984Y106772D01*
X642823Y106529D01*
X643655Y106265D01*
X644480Y105981D01*
X645298Y105677D01*
X646108Y105353D01*
X646910Y105009D01*
X647704Y104646D01*
X648488Y104263D01*
X649263Y103861D01*
X650027Y103440D01*
X650781Y103001D01*
X651525Y102543D01*
X652256Y102067D01*
X652976Y101573D01*
X653683Y101062D01*
X654378Y100534D01*
X655059Y99988D01*
X655727Y99426D01*
X656381Y98848D01*
X657020Y98254D01*
X657645Y97645D01*
X658254Y97020D01*
X658848Y96381D01*
X659426Y95727D01*
X659988Y95059D01*
X660534Y94378D01*
X661062Y93683D01*
X661573Y92976D01*
X662067Y92256D01*
X662543Y91525D01*
X663001Y90781D01*
X663440Y90027D01*
X663861Y89263D01*
X664263Y88488D01*
X664646Y87704D01*
X665009Y86910D01*
X665353Y86108D01*
X665677Y85298D01*
X665981Y84480D01*
X666265Y83655D01*
X666529Y82823D01*
X666772Y81984D01*
X666994Y81140D01*
X667196Y80291D01*
X667377Y79437D01*
X667536Y78579D01*
X667675Y77718D01*
X667793Y76853D01*
X667889Y75985D01*
X667964Y75116D01*
X668017Y74245D01*
X668049Y73373D01*
X668060Y72500D01*
X668049Y71627D01*
X668017Y70755D01*
X667964Y69884D01*
X667889Y69015D01*
X667793Y68147D01*
X667675Y67282D01*
X667536Y66421D01*
X667377Y65563D01*
X667196Y64709D01*
X666994Y63860D01*
X666772Y63016D01*
X666529Y62177D01*
X666265Y61345D01*
X665981Y60520D01*
X665677Y59702D01*
X665353Y58892D01*
X665009Y58090D01*
X664646Y57296D01*
X664263Y56512D01*
X663861Y55737D01*
X663440Y54973D01*
X663001Y54219D01*
X662543Y53475D01*
X662067Y52744D01*
X661573Y52024D01*
X661062Y51317D01*
X660534Y50622D01*
X659988Y49941D01*
X659426Y49273D01*
X658848Y48619D01*
X658254Y47980D01*
X657645Y47355D01*
X657020Y46746D01*
X656381Y46152D01*
X655727Y45574D01*
X655059Y45012D01*
X654378Y44466D01*
X653683Y43938D01*
X652976Y43427D01*
X652256Y42933D01*
X651525Y42457D01*
X650781Y41999D01*
X650027Y41560D01*
X649263Y41139D01*
X648488Y40737D01*
X647704Y40354D01*
X646910Y39991D01*
X646108Y39647D01*
X645298Y39323D01*
X644480Y39019D01*
X643655Y38735D01*
X642823Y38471D01*
X641984Y38228D01*
X641140Y38006D01*
X640291Y37804D01*
X639437Y37623D01*
X638579Y37464D01*
X637718Y37325D01*
X636853Y37207D01*
X635985Y37111D01*
X635116Y37036D01*
X634245Y36983D01*
X633373Y36951D01*
X632500Y36940D01*
X631627Y36951D01*
X630755Y36983D01*
X629884Y37036D01*
X629015Y37111D01*
X628147Y37207D01*
X627282Y37325D01*
X626421Y37464D01*
X625563Y37623D01*
X624709Y37804D01*
X623860Y38006D01*
X623016Y38228D01*
X622177Y38471D01*
X621345Y38735D01*
X620520Y39019D01*
X619702Y39323D01*
X618892Y39647D01*
X618090Y39991D01*
X617296Y40354D01*
X616512Y40737D01*
X615737Y41139D01*
X614973Y41560D01*
X614219Y41999D01*
X613475Y42457D01*
X612744Y42933D01*
X612024Y43427D01*
X611317Y43938D01*
X610622Y44466D01*
X609941Y45012D01*
X609273Y45574D01*
X608619Y46152D01*
X607980Y46746D01*
X607355Y47355D01*
X606746Y47980D01*
X606152Y48619D01*
X605574Y49273D01*
X605012Y49941D01*
X604466Y50622D01*
X603938Y51317D01*
X603427Y52024D01*
X602933Y52744D01*
X602457Y53475D01*
X601999Y54219D01*
X601560Y54973D01*
X601139Y55737D01*
X600737Y56512D01*
X600354Y57296D01*
X599991Y58090D01*
X599647Y58892D01*
X599323Y59702D01*
X599019Y60520D01*
X598735Y61345D01*
X598471Y62177D01*
X598228Y63016D01*
X598006Y63860D01*
X597804Y64709D01*
X597623Y65563D01*
X597464Y66421D01*
X597325Y67282D01*
X597207Y68147D01*
X597111Y69015D01*
X597036Y69884D01*
X596983Y70755D01*
X596951Y71627D01*
X596940Y72500D01*
D12*
X622340Y72500D02*
X622343Y72749D01*
X622352Y72999D01*
X622368Y73247D01*
X622389Y73496D01*
X622416Y73744D01*
X622450Y73991D01*
X622490Y74237D01*
X622535Y74482D01*
X622587Y74726D01*
X622644Y74969D01*
X622708Y75210D01*
X622777Y75449D01*
X622853Y75687D01*
X622934Y75923D01*
X623021Y76157D01*
X623113Y76388D01*
X623212Y76617D01*
X623315Y76844D01*
X623425Y77068D01*
X623540Y77289D01*
X623660Y77508D01*
X623785Y77723D01*
X623916Y77936D01*
X624052Y78145D01*
X624193Y78350D01*
X624339Y78552D01*
X624490Y78751D01*
X624646Y78945D01*
X624807Y79136D01*
X624972Y79323D01*
X625142Y79506D01*
X625316Y79684D01*
X625494Y79858D01*
X625677Y80028D01*
X625864Y80193D01*
X626055Y80354D01*
X626249Y80510D01*
X626448Y80661D01*
X626650Y80807D01*
X626855Y80948D01*
X627064Y81084D01*
X627277Y81215D01*
X627492Y81340D01*
X627711Y81460D01*
X627932Y81575D01*
X628156Y81685D01*
X628383Y81788D01*
X628612Y81887D01*
X628843Y81979D01*
X629077Y82066D01*
X629313Y82147D01*
X629551Y82223D01*
X629790Y82292D01*
X630031Y82356D01*
X630274Y82413D01*
X630518Y82465D01*
X630763Y82510D01*
X631009Y82550D01*
X631256Y82584D01*
X631504Y82611D01*
X631753Y82632D01*
X632001Y82648D01*
X632251Y82657D01*
X632500Y82660D01*
X632749Y82657D01*
X632999Y82648D01*
X633247Y82632D01*
X633496Y82611D01*
X633744Y82584D01*
X633991Y82550D01*
X634237Y82510D01*
X634482Y82465D01*
X634726Y82413D01*
X634969Y82356D01*
X635210Y82292D01*
X635449Y82223D01*
X635687Y82147D01*
X635923Y82066D01*
X636157Y81979D01*
X636388Y81887D01*
X636617Y81788D01*
X636844Y81685D01*
X637068Y81575D01*
X637289Y81460D01*
X637508Y81340D01*
X637723Y81215D01*
X637936Y81084D01*
X638145Y80948D01*
X638350Y80807D01*
X638552Y80661D01*
X638751Y80510D01*
X638945Y80354D01*
X639136Y80193D01*
X639323Y80028D01*
X639506Y79858D01*
X639684Y79684D01*
X639858Y79506D01*
X640028Y79323D01*
X640193Y79136D01*
X640354Y78945D01*
X640510Y78751D01*
X640661Y78552D01*
X640807Y78350D01*
X640948Y78145D01*
X641084Y77936D01*
X641215Y77723D01*
X641340Y77508D01*
X641460Y77289D01*
X641575Y77068D01*
X641685Y76844D01*
X641788Y76617D01*
X641887Y76388D01*
X641979Y76157D01*
X642066Y75923D01*
X642147Y75687D01*
X642223Y75449D01*
X642292Y75210D01*
X642356Y74969D01*
X642413Y74726D01*
X642465Y74482D01*
X642510Y74237D01*
X642550Y73991D01*
X642584Y73744D01*
X642611Y73496D01*
X642632Y73247D01*
X642648Y72999D01*
X642657Y72749D01*
X642660Y72500D01*
X642657Y72251D01*
X642648Y72001D01*
X642632Y71753D01*
X642611Y71504D01*
X642584Y71256D01*
X642550Y71009D01*
X642510Y70763D01*
X642465Y70518D01*
X642413Y70274D01*
X642356Y70031D01*
X642292Y69790D01*
X642223Y69551D01*
X642147Y69313D01*
X642066Y69077D01*
X641979Y68843D01*
X641887Y68612D01*
X641788Y68383D01*
X641685Y68156D01*
X641575Y67932D01*
X641460Y67711D01*
X641340Y67492D01*
X641215Y67277D01*
X641084Y67064D01*
X640948Y66855D01*
X640807Y66650D01*
X640661Y66448D01*
X640510Y66249D01*
X640354Y66055D01*
X640193Y65864D01*
X640028Y65677D01*
X639858Y65494D01*
X639684Y65316D01*
X639506Y65142D01*
X639323Y64972D01*
X639136Y64807D01*
X638945Y64646D01*
X638751Y64490D01*
X638552Y64339D01*
X638350Y64193D01*
X638145Y64052D01*
X637936Y63916D01*
X637723Y63785D01*
X637508Y63660D01*
X637289Y63540D01*
X637068Y63425D01*
X636844Y63315D01*
X636617Y63212D01*
X636388Y63113D01*
X636157Y63021D01*
X635923Y62934D01*
X635687Y62853D01*
X635449Y62777D01*
X635210Y62708D01*
X634969Y62644D01*
X634726Y62587D01*
X634482Y62535D01*
X634237Y62490D01*
X633991Y62450D01*
X633744Y62416D01*
X633496Y62389D01*
X633247Y62368D01*
X632999Y62352D01*
X632749Y62343D01*
X632500Y62340D01*
X632251Y62343D01*
X632001Y62352D01*
X631753Y62368D01*
X631504Y62389D01*
X631256Y62416D01*
X631009Y62450D01*
X630763Y62490D01*
X630518Y62535D01*
X630274Y62587D01*
X630031Y62644D01*
X629790Y62708D01*
X629551Y62777D01*
X629313Y62853D01*
X629077Y62934D01*
X628843Y63021D01*
X628612Y63113D01*
X628383Y63212D01*
X628156Y63315D01*
X627932Y63425D01*
X627711Y63540D01*
X627492Y63660D01*
X627277Y63785D01*
X627064Y63916D01*
X626855Y64052D01*
X626650Y64193D01*
X626448Y64339D01*
X626249Y64490D01*
X626055Y64646D01*
X625864Y64807D01*
X625677Y64972D01*
X625494Y65142D01*
X625316Y65316D01*
X625142Y65494D01*
X624972Y65677D01*
X624807Y65864D01*
X624646Y66055D01*
X624490Y66249D01*
X624339Y66448D01*
X624193Y66650D01*
X624052Y66855D01*
X623916Y67064D01*
X623785Y67277D01*
X623660Y67492D01*
X623540Y67711D01*
X623425Y67932D01*
X623315Y68156D01*
X623212Y68383D01*
X623113Y68612D01*
X623021Y68843D01*
X622934Y69077D01*
X622853Y69313D01*
X622777Y69551D01*
X622708Y69790D01*
X622644Y70031D01*
X622587Y70274D01*
X622535Y70518D01*
X622490Y70763D01*
X622450Y71009D01*
X622416Y71256D01*
X622389Y71504D01*
X622368Y71753D01*
X622352Y72001D01*
X622343Y72251D01*
X622340Y72500D01*
X624880Y72500D02*
X624882Y72687D01*
X624889Y72874D01*
X624901Y73061D01*
X624917Y73247D01*
X624937Y73433D01*
X624962Y73618D01*
X624992Y73803D01*
X625026Y73987D01*
X625065Y74170D01*
X625108Y74352D01*
X625156Y74532D01*
X625208Y74712D01*
X625265Y74890D01*
X625325Y75067D01*
X625391Y75242D01*
X625460Y75416D01*
X625534Y75588D01*
X625612Y75758D01*
X625694Y75926D01*
X625780Y76092D01*
X625870Y76256D01*
X625964Y76417D01*
X626062Y76577D01*
X626164Y76733D01*
X626270Y76888D01*
X626380Y77039D01*
X626493Y77188D01*
X626610Y77334D01*
X626730Y77477D01*
X626854Y77617D01*
X626981Y77754D01*
X627112Y77888D01*
X627246Y78019D01*
X627383Y78146D01*
X627523Y78270D01*
X627666Y78390D01*
X627812Y78507D01*
X627961Y78620D01*
X628112Y78730D01*
X628267Y78836D01*
X628423Y78938D01*
X628583Y79036D01*
X628744Y79130D01*
X628908Y79220D01*
X629074Y79306D01*
X629242Y79388D01*
X629412Y79466D01*
X629584Y79540D01*
X629758Y79609D01*
X629933Y79675D01*
X630110Y79735D01*
X630288Y79792D01*
X630468Y79844D01*
X630648Y79892D01*
X630830Y79935D01*
X631013Y79974D01*
X631197Y80008D01*
X631382Y80038D01*
X631567Y80063D01*
X631753Y80083D01*
X631939Y80099D01*
X632126Y80111D01*
X632313Y80118D01*
X632500Y80120D01*
X632687Y80118D01*
X632874Y80111D01*
X633061Y80099D01*
X633247Y80083D01*
X633433Y80063D01*
X633618Y80038D01*
X633803Y80008D01*
X633987Y79974D01*
X634170Y79935D01*
X634352Y79892D01*
X634532Y79844D01*
X634712Y79792D01*
X634890Y79735D01*
X635067Y79675D01*
X635242Y79609D01*
X635416Y79540D01*
X635588Y79466D01*
X635758Y79388D01*
X635926Y79306D01*
X636092Y79220D01*
X636256Y79130D01*
X636417Y79036D01*
X636577Y78938D01*
X636733Y78836D01*
X636888Y78730D01*
X637039Y78620D01*
X637188Y78507D01*
X637334Y78390D01*
X637477Y78270D01*
X637617Y78146D01*
X637754Y78019D01*
X637888Y77888D01*
X638019Y77754D01*
X638146Y77617D01*
X638270Y77477D01*
X638390Y77334D01*
X638507Y77188D01*
X638620Y77039D01*
X638730Y76888D01*
X638836Y76733D01*
X638938Y76577D01*
X639036Y76417D01*
X639130Y76256D01*
X639220Y76092D01*
X639306Y75926D01*
X639388Y75758D01*
X639466Y75588D01*
X639540Y75416D01*
X639609Y75242D01*
X639675Y75067D01*
X639735Y74890D01*
X639792Y74712D01*
X639844Y74532D01*
X639892Y74352D01*
X639935Y74170D01*
X639974Y73987D01*
X640008Y73803D01*
X640038Y73618D01*
X640063Y73433D01*
X640083Y73247D01*
X640099Y73061D01*
X640111Y72874D01*
X640118Y72687D01*
X640120Y72500D01*
X640118Y72313D01*
X640111Y72126D01*
X640099Y71939D01*
X640083Y71753D01*
X640063Y71567D01*
X640038Y71382D01*
X640008Y71197D01*
X639974Y71013D01*
X639935Y70830D01*
X639892Y70648D01*
X639844Y70468D01*
X639792Y70288D01*
X639735Y70110D01*
X639675Y69933D01*
X639609Y69758D01*
X639540Y69584D01*
X639466Y69412D01*
X639388Y69242D01*
X639306Y69074D01*
X639220Y68908D01*
X639130Y68744D01*
X639036Y68583D01*
X638938Y68423D01*
X638836Y68267D01*
X638730Y68112D01*
X638620Y67961D01*
X638507Y67812D01*
X638390Y67666D01*
X638270Y67523D01*
X638146Y67383D01*
X638019Y67246D01*
X637888Y67112D01*
X637754Y66981D01*
X637617Y66854D01*
X637477Y66730D01*
X637334Y66610D01*
X637188Y66493D01*
X637039Y66380D01*
X636888Y66270D01*
X636733Y66164D01*
X636577Y66062D01*
X636417Y65964D01*
X636256Y65870D01*
X636092Y65780D01*
X635926Y65694D01*
X635758Y65612D01*
X635588Y65534D01*
X635416Y65460D01*
X635242Y65391D01*
X635067Y65325D01*
X634890Y65265D01*
X634712Y65208D01*
X634532Y65156D01*
X634352Y65108D01*
X634170Y65065D01*
X633987Y65026D01*
X633803Y64992D01*
X633618Y64962D01*
X633433Y64937D01*
X633247Y64917D01*
X633061Y64901D01*
X632874Y64889D01*
X632687Y64882D01*
X632500Y64880D01*
X632313Y64882D01*
X632126Y64889D01*
X631939Y64901D01*
X631753Y64917D01*
X631567Y64937D01*
X631382Y64962D01*
X631197Y64992D01*
X631013Y65026D01*
X630830Y65065D01*
X630648Y65108D01*
X630468Y65156D01*
X630288Y65208D01*
X630110Y65265D01*
X629933Y65325D01*
X629758Y65391D01*
X629584Y65460D01*
X629412Y65534D01*
X629242Y65612D01*
X629074Y65694D01*
X628908Y65780D01*
X628744Y65870D01*
X628583Y65964D01*
X628423Y66062D01*
X628267Y66164D01*
X628112Y66270D01*
X627961Y66380D01*
X627812Y66493D01*
X627666Y66610D01*
X627523Y66730D01*
X627383Y66854D01*
X627246Y66981D01*
X627112Y67112D01*
X626981Y67246D01*
X626854Y67383D01*
X626730Y67523D01*
X626610Y67666D01*
X626493Y67812D01*
X626380Y67961D01*
X626270Y68112D01*
X626164Y68267D01*
X626062Y68423D01*
X625964Y68583D01*
X625870Y68744D01*
X625780Y68908D01*
X625694Y69074D01*
X625612Y69242D01*
X625534Y69412D01*
X625460Y69584D01*
X625391Y69758D01*
X625325Y69933D01*
X625265Y70110D01*
X625208Y70288D01*
X625156Y70468D01*
X625108Y70648D01*
X625065Y70830D01*
X625026Y71013D01*
X624992Y71197D01*
X624962Y71382D01*
X624937Y71567D01*
X624917Y71753D01*
X624901Y71939D01*
X624889Y72126D01*
X624882Y72313D01*
X624880Y72500D01*
D13*
X584240Y117585D02*
X581065Y115045D01*
X584240Y117585D02*
X584240Y106155D01*
X581065Y106155D02*
X587415Y106155D01*
X675998Y117586D02*
X676102Y117584D01*
X676207Y117578D01*
X676311Y117569D01*
X676414Y117556D01*
X676517Y117538D01*
X676619Y117518D01*
X676721Y117493D01*
X676821Y117465D01*
X676921Y117433D01*
X677019Y117397D01*
X677116Y117358D01*
X677211Y117316D01*
X677305Y117270D01*
X677397Y117220D01*
X677487Y117168D01*
X677575Y117112D01*
X677661Y117052D01*
X677745Y116990D01*
X677826Y116925D01*
X677905Y116857D01*
X677982Y116785D01*
X678055Y116712D01*
X678127Y116635D01*
X678195Y116556D01*
X678260Y116475D01*
X678322Y116391D01*
X678382Y116305D01*
X678438Y116217D01*
X678490Y116127D01*
X678540Y116035D01*
X678586Y115941D01*
X678628Y115846D01*
X678667Y115749D01*
X678703Y115651D01*
X678735Y115551D01*
X678763Y115451D01*
X678788Y115349D01*
X678808Y115247D01*
X678826Y115144D01*
X678839Y115041D01*
X678848Y114937D01*
X678854Y114832D01*
X678856Y114728D01*
X675998Y117585D02*
X675880Y117583D01*
X675761Y117577D01*
X675643Y117568D01*
X675526Y117555D01*
X675409Y117537D01*
X675292Y117517D01*
X675176Y117492D01*
X675061Y117464D01*
X674948Y117431D01*
X674835Y117396D01*
X674723Y117356D01*
X674613Y117314D01*
X674504Y117267D01*
X674396Y117217D01*
X674291Y117164D01*
X674187Y117107D01*
X674085Y117047D01*
X673985Y116984D01*
X673887Y116917D01*
X673791Y116848D01*
X673698Y116775D01*
X673607Y116699D01*
X673518Y116621D01*
X673432Y116539D01*
X673349Y116455D01*
X673268Y116369D01*
X673191Y116279D01*
X673116Y116188D01*
X673044Y116094D01*
X672975Y115997D01*
X672910Y115899D01*
X672847Y115798D01*
X672788Y115695D01*
X672732Y115591D01*
X672680Y115485D01*
X672631Y115377D01*
X672586Y115268D01*
X672544Y115157D01*
X672506Y115045D01*
X677903Y112506D02*
X677979Y112581D01*
X678054Y112660D01*
X678125Y112741D01*
X678194Y112825D01*
X678259Y112911D01*
X678321Y112999D01*
X678381Y113089D01*
X678437Y113181D01*
X678490Y113276D01*
X678539Y113372D01*
X678585Y113470D01*
X678628Y113569D01*
X678667Y113670D01*
X678702Y113772D01*
X678734Y113875D01*
X678762Y113979D01*
X678787Y114084D01*
X678808Y114191D01*
X678825Y114297D01*
X678838Y114404D01*
X678847Y114512D01*
X678853Y114620D01*
X678855Y114728D01*
X677903Y112505D02*
X672505Y106155D01*
X678855Y106155D01*
X584240Y26145D02*
X581065Y26145D01*
X584240Y26145D02*
X584351Y26147D01*
X584461Y26153D01*
X584572Y26162D01*
X584682Y26176D01*
X584791Y26193D01*
X584900Y26214D01*
X585008Y26239D01*
X585115Y26268D01*
X585221Y26300D01*
X585326Y26336D01*
X585429Y26376D01*
X585531Y26419D01*
X585632Y26466D01*
X585731Y26517D01*
X585828Y26570D01*
X585922Y26627D01*
X586015Y26688D01*
X586106Y26751D01*
X586195Y26818D01*
X586281Y26888D01*
X586364Y26961D01*
X586446Y27036D01*
X586524Y27114D01*
X586599Y27196D01*
X586672Y27279D01*
X586742Y27365D01*
X586809Y27454D01*
X586872Y27545D01*
X586933Y27638D01*
X586990Y27732D01*
X587043Y27829D01*
X587094Y27928D01*
X587141Y28029D01*
X587184Y28131D01*
X587224Y28234D01*
X587260Y28339D01*
X587292Y28445D01*
X587321Y28552D01*
X587346Y28660D01*
X587367Y28769D01*
X587384Y28878D01*
X587398Y28988D01*
X587407Y29099D01*
X587413Y29209D01*
X587415Y29320D01*
X587413Y29431D01*
X587407Y29541D01*
X587398Y29652D01*
X587384Y29762D01*
X587367Y29871D01*
X587346Y29980D01*
X587321Y30088D01*
X587292Y30195D01*
X587260Y30301D01*
X587224Y30406D01*
X587184Y30509D01*
X587141Y30611D01*
X587094Y30712D01*
X587043Y30811D01*
X586990Y30907D01*
X586933Y31002D01*
X586872Y31095D01*
X586809Y31186D01*
X586742Y31275D01*
X586672Y31361D01*
X586599Y31444D01*
X586524Y31526D01*
X586446Y31604D01*
X586364Y31679D01*
X586281Y31752D01*
X586195Y31822D01*
X586106Y31889D01*
X586015Y31952D01*
X585922Y32013D01*
X585828Y32070D01*
X585731Y32123D01*
X585632Y32174D01*
X585531Y32221D01*
X585429Y32264D01*
X585326Y32304D01*
X585221Y32340D01*
X585115Y32372D01*
X585008Y32401D01*
X584900Y32426D01*
X584791Y32447D01*
X584682Y32464D01*
X584572Y32478D01*
X584461Y32487D01*
X584351Y32493D01*
X584240Y32495D01*
X584875Y37575D02*
X581065Y37575D01*
X584875Y37575D02*
X584975Y37573D01*
X585074Y37567D01*
X585174Y37557D01*
X585272Y37544D01*
X585371Y37526D01*
X585468Y37505D01*
X585564Y37480D01*
X585660Y37451D01*
X585754Y37418D01*
X585847Y37382D01*
X585938Y37342D01*
X586028Y37298D01*
X586116Y37251D01*
X586202Y37201D01*
X586286Y37147D01*
X586368Y37090D01*
X586447Y37030D01*
X586525Y36966D01*
X586599Y36900D01*
X586671Y36831D01*
X586740Y36759D01*
X586806Y36685D01*
X586870Y36607D01*
X586930Y36528D01*
X586987Y36446D01*
X587041Y36362D01*
X587091Y36276D01*
X587138Y36188D01*
X587182Y36098D01*
X587222Y36007D01*
X587258Y35914D01*
X587291Y35820D01*
X587320Y35724D01*
X587345Y35628D01*
X587366Y35531D01*
X587384Y35432D01*
X587397Y35334D01*
X587407Y35234D01*
X587413Y35135D01*
X587415Y35035D01*
X587413Y34935D01*
X587407Y34836D01*
X587397Y34736D01*
X587384Y34638D01*
X587366Y34539D01*
X587345Y34442D01*
X587320Y34346D01*
X587291Y34250D01*
X587258Y34156D01*
X587222Y34063D01*
X587182Y33972D01*
X587138Y33882D01*
X587091Y33794D01*
X587041Y33708D01*
X586987Y33624D01*
X586930Y33542D01*
X586870Y33463D01*
X586806Y33385D01*
X586740Y33311D01*
X586671Y33239D01*
X586599Y33170D01*
X586525Y33104D01*
X586447Y33040D01*
X586368Y32980D01*
X586286Y32923D01*
X586202Y32869D01*
X586116Y32819D01*
X586028Y32772D01*
X585938Y32728D01*
X585847Y32688D01*
X585754Y32652D01*
X585660Y32619D01*
X585564Y32590D01*
X585468Y32565D01*
X585371Y32544D01*
X585272Y32526D01*
X585174Y32513D01*
X585074Y32503D01*
X584975Y32497D01*
X584875Y32495D01*
X582335Y32495D01*
X673775Y28685D02*
X676315Y37575D01*
X673775Y28685D02*
X680125Y28685D01*
X678220Y31225D02*
X678220Y26145D01*
D14*
X666155Y133460D03*
X598845Y133460D03*
X666155Y11540D03*
X598845Y11540D03*
D11*
X878450Y91550D02*
X916550Y91550D01*
X916550Y53450D01*
X878450Y53450D01*
X878450Y91550D01*
D12*
X880990Y89010D02*
X914010Y89010D01*
X914010Y55990D01*
X880990Y55990D01*
X880990Y89010D01*
D11*
X887340Y133460D02*
X887340Y137270D01*
X887340Y133460D02*
X907660Y133460D01*
X907660Y137270D02*
X887340Y137270D01*
X907660Y137270D02*
X907660Y133460D01*
X948300Y133460D02*
X958460Y123300D01*
X948300Y133460D02*
X915280Y133460D01*
X958460Y123300D02*
X958460Y110600D01*
X958460Y83930D02*
X958460Y61070D01*
X958460Y21700D02*
X948300Y11540D01*
X958460Y21700D02*
X958460Y34400D01*
X836540Y61070D02*
X836540Y83930D01*
X836540Y34400D02*
X836540Y21700D01*
X846700Y11540D01*
X879720Y11540D01*
X879720Y133460D02*
X846700Y133460D01*
X836540Y123300D01*
X836540Y110600D01*
X887340Y7730D02*
X907660Y7730D01*
X887340Y7730D02*
X887340Y11540D01*
X907660Y11540D02*
X907660Y7730D01*
X948300Y133460D02*
X945760Y136000D01*
X915280Y136000D01*
X915280Y133460D01*
X907660Y133460D01*
X879720Y133460D02*
X879720Y136000D01*
X879720Y133460D02*
X887340Y133460D01*
X879720Y136000D02*
X849240Y136000D01*
X846700Y133460D01*
X887340Y11540D02*
X907660Y11540D01*
X915280Y11540D01*
X879720Y11540D02*
X879720Y9000D01*
X879720Y11540D02*
X887340Y11540D01*
X879720Y9000D02*
X849240Y9000D01*
X846700Y11540D01*
X915280Y11540D02*
X915280Y9000D01*
X915280Y11540D02*
X948300Y11540D01*
X945760Y9000D02*
X915280Y9000D01*
X945760Y9000D02*
X948300Y11540D01*
X861940Y72500D02*
X861951Y73373D01*
X861983Y74245D01*
X862036Y75116D01*
X862111Y75985D01*
X862207Y76853D01*
X862325Y77718D01*
X862464Y78579D01*
X862623Y79437D01*
X862804Y80291D01*
X863006Y81140D01*
X863228Y81984D01*
X863471Y82823D01*
X863735Y83655D01*
X864019Y84480D01*
X864323Y85298D01*
X864647Y86108D01*
X864991Y86910D01*
X865354Y87704D01*
X865737Y88488D01*
X866139Y89263D01*
X866560Y90027D01*
X866999Y90781D01*
X867457Y91525D01*
X867933Y92256D01*
X868427Y92976D01*
X868938Y93683D01*
X869466Y94378D01*
X870012Y95059D01*
X870574Y95727D01*
X871152Y96381D01*
X871746Y97020D01*
X872355Y97645D01*
X872980Y98254D01*
X873619Y98848D01*
X874273Y99426D01*
X874941Y99988D01*
X875622Y100534D01*
X876317Y101062D01*
X877024Y101573D01*
X877744Y102067D01*
X878475Y102543D01*
X879219Y103001D01*
X879973Y103440D01*
X880737Y103861D01*
X881512Y104263D01*
X882296Y104646D01*
X883090Y105009D01*
X883892Y105353D01*
X884702Y105677D01*
X885520Y105981D01*
X886345Y106265D01*
X887177Y106529D01*
X888016Y106772D01*
X888860Y106994D01*
X889709Y107196D01*
X890563Y107377D01*
X891421Y107536D01*
X892282Y107675D01*
X893147Y107793D01*
X894015Y107889D01*
X894884Y107964D01*
X895755Y108017D01*
X896627Y108049D01*
X897500Y108060D01*
X898373Y108049D01*
X899245Y108017D01*
X900116Y107964D01*
X900985Y107889D01*
X901853Y107793D01*
X902718Y107675D01*
X903579Y107536D01*
X904437Y107377D01*
X905291Y107196D01*
X906140Y106994D01*
X906984Y106772D01*
X907823Y106529D01*
X908655Y106265D01*
X909480Y105981D01*
X910298Y105677D01*
X911108Y105353D01*
X911910Y105009D01*
X912704Y104646D01*
X913488Y104263D01*
X914263Y103861D01*
X915027Y103440D01*
X915781Y103001D01*
X916525Y102543D01*
X917256Y102067D01*
X917976Y101573D01*
X918683Y101062D01*
X919378Y100534D01*
X920059Y99988D01*
X920727Y99426D01*
X921381Y98848D01*
X922020Y98254D01*
X922645Y97645D01*
X923254Y97020D01*
X923848Y96381D01*
X924426Y95727D01*
X924988Y95059D01*
X925534Y94378D01*
X926062Y93683D01*
X926573Y92976D01*
X927067Y92256D01*
X927543Y91525D01*
X928001Y90781D01*
X928440Y90027D01*
X928861Y89263D01*
X929263Y88488D01*
X929646Y87704D01*
X930009Y86910D01*
X930353Y86108D01*
X930677Y85298D01*
X930981Y84480D01*
X931265Y83655D01*
X931529Y82823D01*
X931772Y81984D01*
X931994Y81140D01*
X932196Y80291D01*
X932377Y79437D01*
X932536Y78579D01*
X932675Y77718D01*
X932793Y76853D01*
X932889Y75985D01*
X932964Y75116D01*
X933017Y74245D01*
X933049Y73373D01*
X933060Y72500D01*
X933049Y71627D01*
X933017Y70755D01*
X932964Y69884D01*
X932889Y69015D01*
X932793Y68147D01*
X932675Y67282D01*
X932536Y66421D01*
X932377Y65563D01*
X932196Y64709D01*
X931994Y63860D01*
X931772Y63016D01*
X931529Y62177D01*
X931265Y61345D01*
X930981Y60520D01*
X930677Y59702D01*
X930353Y58892D01*
X930009Y58090D01*
X929646Y57296D01*
X929263Y56512D01*
X928861Y55737D01*
X928440Y54973D01*
X928001Y54219D01*
X927543Y53475D01*
X927067Y52744D01*
X926573Y52024D01*
X926062Y51317D01*
X925534Y50622D01*
X924988Y49941D01*
X924426Y49273D01*
X923848Y48619D01*
X923254Y47980D01*
X922645Y47355D01*
X922020Y46746D01*
X921381Y46152D01*
X920727Y45574D01*
X920059Y45012D01*
X919378Y44466D01*
X918683Y43938D01*
X917976Y43427D01*
X917256Y42933D01*
X916525Y42457D01*
X915781Y41999D01*
X915027Y41560D01*
X914263Y41139D01*
X913488Y40737D01*
X912704Y40354D01*
X911910Y39991D01*
X911108Y39647D01*
X910298Y39323D01*
X909480Y39019D01*
X908655Y38735D01*
X907823Y38471D01*
X906984Y38228D01*
X906140Y38006D01*
X905291Y37804D01*
X904437Y37623D01*
X903579Y37464D01*
X902718Y37325D01*
X901853Y37207D01*
X900985Y37111D01*
X900116Y37036D01*
X899245Y36983D01*
X898373Y36951D01*
X897500Y36940D01*
X896627Y36951D01*
X895755Y36983D01*
X894884Y37036D01*
X894015Y37111D01*
X893147Y37207D01*
X892282Y37325D01*
X891421Y37464D01*
X890563Y37623D01*
X889709Y37804D01*
X888860Y38006D01*
X888016Y38228D01*
X887177Y38471D01*
X886345Y38735D01*
X885520Y39019D01*
X884702Y39323D01*
X883892Y39647D01*
X883090Y39991D01*
X882296Y40354D01*
X881512Y40737D01*
X880737Y41139D01*
X879973Y41560D01*
X879219Y41999D01*
X878475Y42457D01*
X877744Y42933D01*
X877024Y43427D01*
X876317Y43938D01*
X875622Y44466D01*
X874941Y45012D01*
X874273Y45574D01*
X873619Y46152D01*
X872980Y46746D01*
X872355Y47355D01*
X871746Y47980D01*
X871152Y48619D01*
X870574Y49273D01*
X870012Y49941D01*
X869466Y50622D01*
X868938Y51317D01*
X868427Y52024D01*
X867933Y52744D01*
X867457Y53475D01*
X866999Y54219D01*
X866560Y54973D01*
X866139Y55737D01*
X865737Y56512D01*
X865354Y57296D01*
X864991Y58090D01*
X864647Y58892D01*
X864323Y59702D01*
X864019Y60520D01*
X863735Y61345D01*
X863471Y62177D01*
X863228Y63016D01*
X863006Y63860D01*
X862804Y64709D01*
X862623Y65563D01*
X862464Y66421D01*
X862325Y67282D01*
X862207Y68147D01*
X862111Y69015D01*
X862036Y69884D01*
X861983Y70755D01*
X861951Y71627D01*
X861940Y72500D01*
D12*
X887340Y72500D02*
X887343Y72749D01*
X887352Y72999D01*
X887368Y73247D01*
X887389Y73496D01*
X887416Y73744D01*
X887450Y73991D01*
X887490Y74237D01*
X887535Y74482D01*
X887587Y74726D01*
X887644Y74969D01*
X887708Y75210D01*
X887777Y75449D01*
X887853Y75687D01*
X887934Y75923D01*
X888021Y76157D01*
X888113Y76388D01*
X888212Y76617D01*
X888315Y76844D01*
X888425Y77068D01*
X888540Y77289D01*
X888660Y77508D01*
X888785Y77723D01*
X888916Y77936D01*
X889052Y78145D01*
X889193Y78350D01*
X889339Y78552D01*
X889490Y78751D01*
X889646Y78945D01*
X889807Y79136D01*
X889972Y79323D01*
X890142Y79506D01*
X890316Y79684D01*
X890494Y79858D01*
X890677Y80028D01*
X890864Y80193D01*
X891055Y80354D01*
X891249Y80510D01*
X891448Y80661D01*
X891650Y80807D01*
X891855Y80948D01*
X892064Y81084D01*
X892277Y81215D01*
X892492Y81340D01*
X892711Y81460D01*
X892932Y81575D01*
X893156Y81685D01*
X893383Y81788D01*
X893612Y81887D01*
X893843Y81979D01*
X894077Y82066D01*
X894313Y82147D01*
X894551Y82223D01*
X894790Y82292D01*
X895031Y82356D01*
X895274Y82413D01*
X895518Y82465D01*
X895763Y82510D01*
X896009Y82550D01*
X896256Y82584D01*
X896504Y82611D01*
X896753Y82632D01*
X897001Y82648D01*
X897251Y82657D01*
X897500Y82660D01*
X897749Y82657D01*
X897999Y82648D01*
X898247Y82632D01*
X898496Y82611D01*
X898744Y82584D01*
X898991Y82550D01*
X899237Y82510D01*
X899482Y82465D01*
X899726Y82413D01*
X899969Y82356D01*
X900210Y82292D01*
X900449Y82223D01*
X900687Y82147D01*
X900923Y82066D01*
X901157Y81979D01*
X901388Y81887D01*
X901617Y81788D01*
X901844Y81685D01*
X902068Y81575D01*
X902289Y81460D01*
X902508Y81340D01*
X902723Y81215D01*
X902936Y81084D01*
X903145Y80948D01*
X903350Y80807D01*
X903552Y80661D01*
X903751Y80510D01*
X903945Y80354D01*
X904136Y80193D01*
X904323Y80028D01*
X904506Y79858D01*
X904684Y79684D01*
X904858Y79506D01*
X905028Y79323D01*
X905193Y79136D01*
X905354Y78945D01*
X905510Y78751D01*
X905661Y78552D01*
X905807Y78350D01*
X905948Y78145D01*
X906084Y77936D01*
X906215Y77723D01*
X906340Y77508D01*
X906460Y77289D01*
X906575Y77068D01*
X906685Y76844D01*
X906788Y76617D01*
X906887Y76388D01*
X906979Y76157D01*
X907066Y75923D01*
X907147Y75687D01*
X907223Y75449D01*
X907292Y75210D01*
X907356Y74969D01*
X907413Y74726D01*
X907465Y74482D01*
X907510Y74237D01*
X907550Y73991D01*
X907584Y73744D01*
X907611Y73496D01*
X907632Y73247D01*
X907648Y72999D01*
X907657Y72749D01*
X907660Y72500D01*
X907657Y72251D01*
X907648Y72001D01*
X907632Y71753D01*
X907611Y71504D01*
X907584Y71256D01*
X907550Y71009D01*
X907510Y70763D01*
X907465Y70518D01*
X907413Y70274D01*
X907356Y70031D01*
X907292Y69790D01*
X907223Y69551D01*
X907147Y69313D01*
X907066Y69077D01*
X906979Y68843D01*
X906887Y68612D01*
X906788Y68383D01*
X906685Y68156D01*
X906575Y67932D01*
X906460Y67711D01*
X906340Y67492D01*
X906215Y67277D01*
X906084Y67064D01*
X905948Y66855D01*
X905807Y66650D01*
X905661Y66448D01*
X905510Y66249D01*
X905354Y66055D01*
X905193Y65864D01*
X905028Y65677D01*
X904858Y65494D01*
X904684Y65316D01*
X904506Y65142D01*
X904323Y64972D01*
X904136Y64807D01*
X903945Y64646D01*
X903751Y64490D01*
X903552Y64339D01*
X903350Y64193D01*
X903145Y64052D01*
X902936Y63916D01*
X902723Y63785D01*
X902508Y63660D01*
X902289Y63540D01*
X902068Y63425D01*
X901844Y63315D01*
X901617Y63212D01*
X901388Y63113D01*
X901157Y63021D01*
X900923Y62934D01*
X900687Y62853D01*
X900449Y62777D01*
X900210Y62708D01*
X899969Y62644D01*
X899726Y62587D01*
X899482Y62535D01*
X899237Y62490D01*
X898991Y62450D01*
X898744Y62416D01*
X898496Y62389D01*
X898247Y62368D01*
X897999Y62352D01*
X897749Y62343D01*
X897500Y62340D01*
X897251Y62343D01*
X897001Y62352D01*
X896753Y62368D01*
X896504Y62389D01*
X896256Y62416D01*
X896009Y62450D01*
X895763Y62490D01*
X895518Y62535D01*
X895274Y62587D01*
X895031Y62644D01*
X894790Y62708D01*
X894551Y62777D01*
X894313Y62853D01*
X894077Y62934D01*
X893843Y63021D01*
X893612Y63113D01*
X893383Y63212D01*
X893156Y63315D01*
X892932Y63425D01*
X892711Y63540D01*
X892492Y63660D01*
X892277Y63785D01*
X892064Y63916D01*
X891855Y64052D01*
X891650Y64193D01*
X891448Y64339D01*
X891249Y64490D01*
X891055Y64646D01*
X890864Y64807D01*
X890677Y64972D01*
X890494Y65142D01*
X890316Y65316D01*
X890142Y65494D01*
X889972Y65677D01*
X889807Y65864D01*
X889646Y66055D01*
X889490Y66249D01*
X889339Y66448D01*
X889193Y66650D01*
X889052Y66855D01*
X888916Y67064D01*
X888785Y67277D01*
X888660Y67492D01*
X888540Y67711D01*
X888425Y67932D01*
X888315Y68156D01*
X888212Y68383D01*
X888113Y68612D01*
X888021Y68843D01*
X887934Y69077D01*
X887853Y69313D01*
X887777Y69551D01*
X887708Y69790D01*
X887644Y70031D01*
X887587Y70274D01*
X887535Y70518D01*
X887490Y70763D01*
X887450Y71009D01*
X887416Y71256D01*
X887389Y71504D01*
X887368Y71753D01*
X887352Y72001D01*
X887343Y72251D01*
X887340Y72500D01*
X889880Y72500D02*
X889882Y72687D01*
X889889Y72874D01*
X889901Y73061D01*
X889917Y73247D01*
X889937Y73433D01*
X889962Y73618D01*
X889992Y73803D01*
X890026Y73987D01*
X890065Y74170D01*
X890108Y74352D01*
X890156Y74532D01*
X890208Y74712D01*
X890265Y74890D01*
X890325Y75067D01*
X890391Y75242D01*
X890460Y75416D01*
X890534Y75588D01*
X890612Y75758D01*
X890694Y75926D01*
X890780Y76092D01*
X890870Y76256D01*
X890964Y76417D01*
X891062Y76577D01*
X891164Y76733D01*
X891270Y76888D01*
X891380Y77039D01*
X891493Y77188D01*
X891610Y77334D01*
X891730Y77477D01*
X891854Y77617D01*
X891981Y77754D01*
X892112Y77888D01*
X892246Y78019D01*
X892383Y78146D01*
X892523Y78270D01*
X892666Y78390D01*
X892812Y78507D01*
X892961Y78620D01*
X893112Y78730D01*
X893267Y78836D01*
X893423Y78938D01*
X893583Y79036D01*
X893744Y79130D01*
X893908Y79220D01*
X894074Y79306D01*
X894242Y79388D01*
X894412Y79466D01*
X894584Y79540D01*
X894758Y79609D01*
X894933Y79675D01*
X895110Y79735D01*
X895288Y79792D01*
X895468Y79844D01*
X895648Y79892D01*
X895830Y79935D01*
X896013Y79974D01*
X896197Y80008D01*
X896382Y80038D01*
X896567Y80063D01*
X896753Y80083D01*
X896939Y80099D01*
X897126Y80111D01*
X897313Y80118D01*
X897500Y80120D01*
X897687Y80118D01*
X897874Y80111D01*
X898061Y80099D01*
X898247Y80083D01*
X898433Y80063D01*
X898618Y80038D01*
X898803Y80008D01*
X898987Y79974D01*
X899170Y79935D01*
X899352Y79892D01*
X899532Y79844D01*
X899712Y79792D01*
X899890Y79735D01*
X900067Y79675D01*
X900242Y79609D01*
X900416Y79540D01*
X900588Y79466D01*
X900758Y79388D01*
X900926Y79306D01*
X901092Y79220D01*
X901256Y79130D01*
X901417Y79036D01*
X901577Y78938D01*
X901733Y78836D01*
X901888Y78730D01*
X902039Y78620D01*
X902188Y78507D01*
X902334Y78390D01*
X902477Y78270D01*
X902617Y78146D01*
X902754Y78019D01*
X902888Y77888D01*
X903019Y77754D01*
X903146Y77617D01*
X903270Y77477D01*
X903390Y77334D01*
X903507Y77188D01*
X903620Y77039D01*
X903730Y76888D01*
X903836Y76733D01*
X903938Y76577D01*
X904036Y76417D01*
X904130Y76256D01*
X904220Y76092D01*
X904306Y75926D01*
X904388Y75758D01*
X904466Y75588D01*
X904540Y75416D01*
X904609Y75242D01*
X904675Y75067D01*
X904735Y74890D01*
X904792Y74712D01*
X904844Y74532D01*
X904892Y74352D01*
X904935Y74170D01*
X904974Y73987D01*
X905008Y73803D01*
X905038Y73618D01*
X905063Y73433D01*
X905083Y73247D01*
X905099Y73061D01*
X905111Y72874D01*
X905118Y72687D01*
X905120Y72500D01*
X905118Y72313D01*
X905111Y72126D01*
X905099Y71939D01*
X905083Y71753D01*
X905063Y71567D01*
X905038Y71382D01*
X905008Y71197D01*
X904974Y71013D01*
X904935Y70830D01*
X904892Y70648D01*
X904844Y70468D01*
X904792Y70288D01*
X904735Y70110D01*
X904675Y69933D01*
X904609Y69758D01*
X904540Y69584D01*
X904466Y69412D01*
X904388Y69242D01*
X904306Y69074D01*
X904220Y68908D01*
X904130Y68744D01*
X904036Y68583D01*
X903938Y68423D01*
X903836Y68267D01*
X903730Y68112D01*
X903620Y67961D01*
X903507Y67812D01*
X903390Y67666D01*
X903270Y67523D01*
X903146Y67383D01*
X903019Y67246D01*
X902888Y67112D01*
X902754Y66981D01*
X902617Y66854D01*
X902477Y66730D01*
X902334Y66610D01*
X902188Y66493D01*
X902039Y66380D01*
X901888Y66270D01*
X901733Y66164D01*
X901577Y66062D01*
X901417Y65964D01*
X901256Y65870D01*
X901092Y65780D01*
X900926Y65694D01*
X900758Y65612D01*
X900588Y65534D01*
X900416Y65460D01*
X900242Y65391D01*
X900067Y65325D01*
X899890Y65265D01*
X899712Y65208D01*
X899532Y65156D01*
X899352Y65108D01*
X899170Y65065D01*
X898987Y65026D01*
X898803Y64992D01*
X898618Y64962D01*
X898433Y64937D01*
X898247Y64917D01*
X898061Y64901D01*
X897874Y64889D01*
X897687Y64882D01*
X897500Y64880D01*
X897313Y64882D01*
X897126Y64889D01*
X896939Y64901D01*
X896753Y64917D01*
X896567Y64937D01*
X896382Y64962D01*
X896197Y64992D01*
X896013Y65026D01*
X895830Y65065D01*
X895648Y65108D01*
X895468Y65156D01*
X895288Y65208D01*
X895110Y65265D01*
X894933Y65325D01*
X894758Y65391D01*
X894584Y65460D01*
X894412Y65534D01*
X894242Y65612D01*
X894074Y65694D01*
X893908Y65780D01*
X893744Y65870D01*
X893583Y65964D01*
X893423Y66062D01*
X893267Y66164D01*
X893112Y66270D01*
X892961Y66380D01*
X892812Y66493D01*
X892666Y66610D01*
X892523Y66730D01*
X892383Y66854D01*
X892246Y66981D01*
X892112Y67112D01*
X891981Y67246D01*
X891854Y67383D01*
X891730Y67523D01*
X891610Y67666D01*
X891493Y67812D01*
X891380Y67961D01*
X891270Y68112D01*
X891164Y68267D01*
X891062Y68423D01*
X890964Y68583D01*
X890870Y68744D01*
X890780Y68908D01*
X890694Y69074D01*
X890612Y69242D01*
X890534Y69412D01*
X890460Y69584D01*
X890391Y69758D01*
X890325Y69933D01*
X890265Y70110D01*
X890208Y70288D01*
X890156Y70468D01*
X890108Y70648D01*
X890065Y70830D01*
X890026Y71013D01*
X889992Y71197D01*
X889962Y71382D01*
X889937Y71567D01*
X889917Y71753D01*
X889901Y71939D01*
X889889Y72126D01*
X889882Y72313D01*
X889880Y72500D01*
D13*
X849240Y117585D02*
X846065Y115045D01*
X849240Y117585D02*
X849240Y106155D01*
X846065Y106155D02*
X852415Y106155D01*
X940998Y117586D02*
X941102Y117584D01*
X941207Y117578D01*
X941311Y117569D01*
X941414Y117556D01*
X941517Y117538D01*
X941619Y117518D01*
X941721Y117493D01*
X941821Y117465D01*
X941921Y117433D01*
X942019Y117397D01*
X942116Y117358D01*
X942211Y117316D01*
X942305Y117270D01*
X942397Y117220D01*
X942487Y117168D01*
X942575Y117112D01*
X942661Y117052D01*
X942745Y116990D01*
X942826Y116925D01*
X942905Y116857D01*
X942982Y116785D01*
X943055Y116712D01*
X943127Y116635D01*
X943195Y116556D01*
X943260Y116475D01*
X943322Y116391D01*
X943382Y116305D01*
X943438Y116217D01*
X943490Y116127D01*
X943540Y116035D01*
X943586Y115941D01*
X943628Y115846D01*
X943667Y115749D01*
X943703Y115651D01*
X943735Y115551D01*
X943763Y115451D01*
X943788Y115349D01*
X943808Y115247D01*
X943826Y115144D01*
X943839Y115041D01*
X943848Y114937D01*
X943854Y114832D01*
X943856Y114728D01*
X940998Y117585D02*
X940880Y117583D01*
X940761Y117577D01*
X940643Y117568D01*
X940526Y117555D01*
X940409Y117537D01*
X940292Y117517D01*
X940176Y117492D01*
X940061Y117464D01*
X939948Y117431D01*
X939835Y117396D01*
X939723Y117356D01*
X939613Y117314D01*
X939504Y117267D01*
X939396Y117217D01*
X939291Y117164D01*
X939187Y117107D01*
X939085Y117047D01*
X938985Y116984D01*
X938887Y116917D01*
X938791Y116848D01*
X938698Y116775D01*
X938607Y116699D01*
X938518Y116621D01*
X938432Y116539D01*
X938349Y116455D01*
X938268Y116369D01*
X938191Y116279D01*
X938116Y116188D01*
X938044Y116094D01*
X937975Y115997D01*
X937910Y115899D01*
X937847Y115798D01*
X937788Y115695D01*
X937732Y115591D01*
X937680Y115485D01*
X937631Y115377D01*
X937586Y115268D01*
X937544Y115157D01*
X937506Y115045D01*
X942903Y112506D02*
X942979Y112581D01*
X943054Y112660D01*
X943125Y112741D01*
X943194Y112825D01*
X943259Y112911D01*
X943321Y112999D01*
X943381Y113089D01*
X943437Y113181D01*
X943490Y113276D01*
X943539Y113372D01*
X943585Y113470D01*
X943628Y113569D01*
X943667Y113670D01*
X943702Y113772D01*
X943734Y113875D01*
X943762Y113979D01*
X943787Y114084D01*
X943808Y114191D01*
X943825Y114297D01*
X943838Y114404D01*
X943847Y114512D01*
X943853Y114620D01*
X943855Y114728D01*
X942903Y112505D02*
X937505Y106155D01*
X943855Y106155D01*
X849240Y26145D02*
X846065Y26145D01*
X849240Y26145D02*
X849351Y26147D01*
X849461Y26153D01*
X849572Y26162D01*
X849682Y26176D01*
X849791Y26193D01*
X849900Y26214D01*
X850008Y26239D01*
X850115Y26268D01*
X850221Y26300D01*
X850326Y26336D01*
X850429Y26376D01*
X850531Y26419D01*
X850632Y26466D01*
X850731Y26517D01*
X850828Y26570D01*
X850922Y26627D01*
X851015Y26688D01*
X851106Y26751D01*
X851195Y26818D01*
X851281Y26888D01*
X851364Y26961D01*
X851446Y27036D01*
X851524Y27114D01*
X851599Y27196D01*
X851672Y27279D01*
X851742Y27365D01*
X851809Y27454D01*
X851872Y27545D01*
X851933Y27638D01*
X851990Y27732D01*
X852043Y27829D01*
X852094Y27928D01*
X852141Y28029D01*
X852184Y28131D01*
X852224Y28234D01*
X852260Y28339D01*
X852292Y28445D01*
X852321Y28552D01*
X852346Y28660D01*
X852367Y28769D01*
X852384Y28878D01*
X852398Y28988D01*
X852407Y29099D01*
X852413Y29209D01*
X852415Y29320D01*
X852413Y29431D01*
X852407Y29541D01*
X852398Y29652D01*
X852384Y29762D01*
X852367Y29871D01*
X852346Y29980D01*
X852321Y30088D01*
X852292Y30195D01*
X852260Y30301D01*
X852224Y30406D01*
X852184Y30509D01*
X852141Y30611D01*
X852094Y30712D01*
X852043Y30811D01*
X851990Y30907D01*
X851933Y31002D01*
X851872Y31095D01*
X851809Y31186D01*
X851742Y31275D01*
X851672Y31361D01*
X851599Y31444D01*
X851524Y31526D01*
X851446Y31604D01*
X851364Y31679D01*
X851281Y31752D01*
X851195Y31822D01*
X851106Y31889D01*
X851015Y31952D01*
X850922Y32013D01*
X850828Y32070D01*
X850731Y32123D01*
X850632Y32174D01*
X850531Y32221D01*
X850429Y32264D01*
X850326Y32304D01*
X850221Y32340D01*
X850115Y32372D01*
X850008Y32401D01*
X849900Y32426D01*
X849791Y32447D01*
X849682Y32464D01*
X849572Y32478D01*
X849461Y32487D01*
X849351Y32493D01*
X849240Y32495D01*
X849875Y37575D02*
X846065Y37575D01*
X849875Y37575D02*
X849975Y37573D01*
X850074Y37567D01*
X850174Y37557D01*
X850272Y37544D01*
X850371Y37526D01*
X850468Y37505D01*
X850564Y37480D01*
X850660Y37451D01*
X850754Y37418D01*
X850847Y37382D01*
X850938Y37342D01*
X851028Y37298D01*
X851116Y37251D01*
X851202Y37201D01*
X851286Y37147D01*
X851368Y37090D01*
X851447Y37030D01*
X851525Y36966D01*
X851599Y36900D01*
X851671Y36831D01*
X851740Y36759D01*
X851806Y36685D01*
X851870Y36607D01*
X851930Y36528D01*
X851987Y36446D01*
X852041Y36362D01*
X852091Y36276D01*
X852138Y36188D01*
X852182Y36098D01*
X852222Y36007D01*
X852258Y35914D01*
X852291Y35820D01*
X852320Y35724D01*
X852345Y35628D01*
X852366Y35531D01*
X852384Y35432D01*
X852397Y35334D01*
X852407Y35234D01*
X852413Y35135D01*
X852415Y35035D01*
X852413Y34935D01*
X852407Y34836D01*
X852397Y34736D01*
X852384Y34638D01*
X852366Y34539D01*
X852345Y34442D01*
X852320Y34346D01*
X852291Y34250D01*
X852258Y34156D01*
X852222Y34063D01*
X852182Y33972D01*
X852138Y33882D01*
X852091Y33794D01*
X852041Y33708D01*
X851987Y33624D01*
X851930Y33542D01*
X851870Y33463D01*
X851806Y33385D01*
X851740Y33311D01*
X851671Y33239D01*
X851599Y33170D01*
X851525Y33104D01*
X851447Y33040D01*
X851368Y32980D01*
X851286Y32923D01*
X851202Y32869D01*
X851116Y32819D01*
X851028Y32772D01*
X850938Y32728D01*
X850847Y32688D01*
X850754Y32652D01*
X850660Y32619D01*
X850564Y32590D01*
X850468Y32565D01*
X850371Y32544D01*
X850272Y32526D01*
X850174Y32513D01*
X850074Y32503D01*
X849975Y32497D01*
X849875Y32495D01*
X847335Y32495D01*
X938775Y28685D02*
X941315Y37575D01*
X938775Y28685D02*
X945125Y28685D01*
X943220Y31225D02*
X943220Y26145D01*
D14*
X931155Y133460D03*
X863845Y133460D03*
X931155Y11540D03*
X863845Y11540D03*
D11*
X121550Y91550D02*
X83450Y91550D01*
X121550Y91550D02*
X121550Y53450D01*
X83450Y53450D01*
X83450Y91550D01*
D12*
X85990Y89010D02*
X119010Y89010D01*
X119010Y55990D01*
X85990Y55990D01*
X85990Y89010D01*
D11*
X92340Y133460D02*
X92340Y137270D01*
X92340Y133460D02*
X112660Y133460D01*
X112660Y137270D02*
X92340Y137270D01*
X112660Y137270D02*
X112660Y133460D01*
X153300Y133460D02*
X163460Y123300D01*
X153300Y133460D02*
X120280Y133460D01*
X163460Y123300D02*
X163460Y110600D01*
X163460Y83930D02*
X163460Y61070D01*
X163460Y21700D02*
X153300Y11540D01*
X163460Y21700D02*
X163460Y34400D01*
X41540Y61070D02*
X41540Y83930D01*
X41540Y34400D02*
X41540Y21700D01*
X51700Y11540D01*
X84720Y11540D01*
X84720Y133460D02*
X51700Y133460D01*
X41540Y123300D01*
X41540Y110600D01*
X92340Y7730D02*
X112660Y7730D01*
X92340Y7730D02*
X92340Y11540D01*
X112660Y11540D02*
X112660Y7730D01*
X153300Y133460D02*
X150760Y136000D01*
X120280Y136000D01*
X120280Y133460D01*
X112660Y133460D01*
X84720Y133460D02*
X84720Y136000D01*
X84720Y133460D02*
X92340Y133460D01*
X84720Y136000D02*
X54240Y136000D01*
X51700Y133460D01*
X92340Y11540D02*
X112660Y11540D01*
X120280Y11540D01*
X84720Y11540D02*
X84720Y9000D01*
X84720Y11540D02*
X92340Y11540D01*
X84720Y9000D02*
X54240Y9000D01*
X51700Y11540D01*
X120280Y11540D02*
X120280Y9000D01*
X120280Y11540D02*
X153300Y11540D01*
X150760Y9000D02*
X120280Y9000D01*
X150760Y9000D02*
X153300Y11540D01*
X66940Y72500D02*
X66951Y73373D01*
X66983Y74245D01*
X67036Y75116D01*
X67111Y75985D01*
X67207Y76853D01*
X67325Y77718D01*
X67464Y78579D01*
X67623Y79437D01*
X67804Y80291D01*
X68006Y81140D01*
X68228Y81984D01*
X68471Y82823D01*
X68735Y83655D01*
X69019Y84480D01*
X69323Y85298D01*
X69647Y86108D01*
X69991Y86910D01*
X70354Y87704D01*
X70737Y88488D01*
X71139Y89263D01*
X71560Y90027D01*
X71999Y90781D01*
X72457Y91525D01*
X72933Y92256D01*
X73427Y92976D01*
X73938Y93683D01*
X74466Y94378D01*
X75012Y95059D01*
X75574Y95727D01*
X76152Y96381D01*
X76746Y97020D01*
X77355Y97645D01*
X77980Y98254D01*
X78619Y98848D01*
X79273Y99426D01*
X79941Y99988D01*
X80622Y100534D01*
X81317Y101062D01*
X82024Y101573D01*
X82744Y102067D01*
X83475Y102543D01*
X84219Y103001D01*
X84973Y103440D01*
X85737Y103861D01*
X86512Y104263D01*
X87296Y104646D01*
X88090Y105009D01*
X88892Y105353D01*
X89702Y105677D01*
X90520Y105981D01*
X91345Y106265D01*
X92177Y106529D01*
X93016Y106772D01*
X93860Y106994D01*
X94709Y107196D01*
X95563Y107377D01*
X96421Y107536D01*
X97282Y107675D01*
X98147Y107793D01*
X99015Y107889D01*
X99884Y107964D01*
X100755Y108017D01*
X101627Y108049D01*
X102500Y108060D01*
X103373Y108049D01*
X104245Y108017D01*
X105116Y107964D01*
X105985Y107889D01*
X106853Y107793D01*
X107718Y107675D01*
X108579Y107536D01*
X109437Y107377D01*
X110291Y107196D01*
X111140Y106994D01*
X111984Y106772D01*
X112823Y106529D01*
X113655Y106265D01*
X114480Y105981D01*
X115298Y105677D01*
X116108Y105353D01*
X116910Y105009D01*
X117704Y104646D01*
X118488Y104263D01*
X119263Y103861D01*
X120027Y103440D01*
X120781Y103001D01*
X121525Y102543D01*
X122256Y102067D01*
X122976Y101573D01*
X123683Y101062D01*
X124378Y100534D01*
X125059Y99988D01*
X125727Y99426D01*
X126381Y98848D01*
X127020Y98254D01*
X127645Y97645D01*
X128254Y97020D01*
X128848Y96381D01*
X129426Y95727D01*
X129988Y95059D01*
X130534Y94378D01*
X131062Y93683D01*
X131573Y92976D01*
X132067Y92256D01*
X132543Y91525D01*
X133001Y90781D01*
X133440Y90027D01*
X133861Y89263D01*
X134263Y88488D01*
X134646Y87704D01*
X135009Y86910D01*
X135353Y86108D01*
X135677Y85298D01*
X135981Y84480D01*
X136265Y83655D01*
X136529Y82823D01*
X136772Y81984D01*
X136994Y81140D01*
X137196Y80291D01*
X137377Y79437D01*
X137536Y78579D01*
X137675Y77718D01*
X137793Y76853D01*
X137889Y75985D01*
X137964Y75116D01*
X138017Y74245D01*
X138049Y73373D01*
X138060Y72500D01*
X138049Y71627D01*
X138017Y70755D01*
X137964Y69884D01*
X137889Y69015D01*
X137793Y68147D01*
X137675Y67282D01*
X137536Y66421D01*
X137377Y65563D01*
X137196Y64709D01*
X136994Y63860D01*
X136772Y63016D01*
X136529Y62177D01*
X136265Y61345D01*
X135981Y60520D01*
X135677Y59702D01*
X135353Y58892D01*
X135009Y58090D01*
X134646Y57296D01*
X134263Y56512D01*
X133861Y55737D01*
X133440Y54973D01*
X133001Y54219D01*
X132543Y53475D01*
X132067Y52744D01*
X131573Y52024D01*
X131062Y51317D01*
X130534Y50622D01*
X129988Y49941D01*
X129426Y49273D01*
X128848Y48619D01*
X128254Y47980D01*
X127645Y47355D01*
X127020Y46746D01*
X126381Y46152D01*
X125727Y45574D01*
X125059Y45012D01*
X124378Y44466D01*
X123683Y43938D01*
X122976Y43427D01*
X122256Y42933D01*
X121525Y42457D01*
X120781Y41999D01*
X120027Y41560D01*
X119263Y41139D01*
X118488Y40737D01*
X117704Y40354D01*
X116910Y39991D01*
X116108Y39647D01*
X115298Y39323D01*
X114480Y39019D01*
X113655Y38735D01*
X112823Y38471D01*
X111984Y38228D01*
X111140Y38006D01*
X110291Y37804D01*
X109437Y37623D01*
X108579Y37464D01*
X107718Y37325D01*
X106853Y37207D01*
X105985Y37111D01*
X105116Y37036D01*
X104245Y36983D01*
X103373Y36951D01*
X102500Y36940D01*
X101627Y36951D01*
X100755Y36983D01*
X99884Y37036D01*
X99015Y37111D01*
X98147Y37207D01*
X97282Y37325D01*
X96421Y37464D01*
X95563Y37623D01*
X94709Y37804D01*
X93860Y38006D01*
X93016Y38228D01*
X92177Y38471D01*
X91345Y38735D01*
X90520Y39019D01*
X89702Y39323D01*
X88892Y39647D01*
X88090Y39991D01*
X87296Y40354D01*
X86512Y40737D01*
X85737Y41139D01*
X84973Y41560D01*
X84219Y41999D01*
X83475Y42457D01*
X82744Y42933D01*
X82024Y43427D01*
X81317Y43938D01*
X80622Y44466D01*
X79941Y45012D01*
X79273Y45574D01*
X78619Y46152D01*
X77980Y46746D01*
X77355Y47355D01*
X76746Y47980D01*
X76152Y48619D01*
X75574Y49273D01*
X75012Y49941D01*
X74466Y50622D01*
X73938Y51317D01*
X73427Y52024D01*
X72933Y52744D01*
X72457Y53475D01*
X71999Y54219D01*
X71560Y54973D01*
X71139Y55737D01*
X70737Y56512D01*
X70354Y57296D01*
X69991Y58090D01*
X69647Y58892D01*
X69323Y59702D01*
X69019Y60520D01*
X68735Y61345D01*
X68471Y62177D01*
X68228Y63016D01*
X68006Y63860D01*
X67804Y64709D01*
X67623Y65563D01*
X67464Y66421D01*
X67325Y67282D01*
X67207Y68147D01*
X67111Y69015D01*
X67036Y69884D01*
X66983Y70755D01*
X66951Y71627D01*
X66940Y72500D01*
D12*
X92340Y72500D02*
X92343Y72749D01*
X92352Y72999D01*
X92368Y73247D01*
X92389Y73496D01*
X92416Y73744D01*
X92450Y73991D01*
X92490Y74237D01*
X92535Y74482D01*
X92587Y74726D01*
X92644Y74969D01*
X92708Y75210D01*
X92777Y75449D01*
X92853Y75687D01*
X92934Y75923D01*
X93021Y76157D01*
X93113Y76388D01*
X93212Y76617D01*
X93315Y76844D01*
X93425Y77068D01*
X93540Y77289D01*
X93660Y77508D01*
X93785Y77723D01*
X93916Y77936D01*
X94052Y78145D01*
X94193Y78350D01*
X94339Y78552D01*
X94490Y78751D01*
X94646Y78945D01*
X94807Y79136D01*
X94972Y79323D01*
X95142Y79506D01*
X95316Y79684D01*
X95494Y79858D01*
X95677Y80028D01*
X95864Y80193D01*
X96055Y80354D01*
X96249Y80510D01*
X96448Y80661D01*
X96650Y80807D01*
X96855Y80948D01*
X97064Y81084D01*
X97277Y81215D01*
X97492Y81340D01*
X97711Y81460D01*
X97932Y81575D01*
X98156Y81685D01*
X98383Y81788D01*
X98612Y81887D01*
X98843Y81979D01*
X99077Y82066D01*
X99313Y82147D01*
X99551Y82223D01*
X99790Y82292D01*
X100031Y82356D01*
X100274Y82413D01*
X100518Y82465D01*
X100763Y82510D01*
X101009Y82550D01*
X101256Y82584D01*
X101504Y82611D01*
X101753Y82632D01*
X102001Y82648D01*
X102251Y82657D01*
X102500Y82660D01*
X102749Y82657D01*
X102999Y82648D01*
X103247Y82632D01*
X103496Y82611D01*
X103744Y82584D01*
X103991Y82550D01*
X104237Y82510D01*
X104482Y82465D01*
X104726Y82413D01*
X104969Y82356D01*
X105210Y82292D01*
X105449Y82223D01*
X105687Y82147D01*
X105923Y82066D01*
X106157Y81979D01*
X106388Y81887D01*
X106617Y81788D01*
X106844Y81685D01*
X107068Y81575D01*
X107289Y81460D01*
X107508Y81340D01*
X107723Y81215D01*
X107936Y81084D01*
X108145Y80948D01*
X108350Y80807D01*
X108552Y80661D01*
X108751Y80510D01*
X108945Y80354D01*
X109136Y80193D01*
X109323Y80028D01*
X109506Y79858D01*
X109684Y79684D01*
X109858Y79506D01*
X110028Y79323D01*
X110193Y79136D01*
X110354Y78945D01*
X110510Y78751D01*
X110661Y78552D01*
X110807Y78350D01*
X110948Y78145D01*
X111084Y77936D01*
X111215Y77723D01*
X111340Y77508D01*
X111460Y77289D01*
X111575Y77068D01*
X111685Y76844D01*
X111788Y76617D01*
X111887Y76388D01*
X111979Y76157D01*
X112066Y75923D01*
X112147Y75687D01*
X112223Y75449D01*
X112292Y75210D01*
X112356Y74969D01*
X112413Y74726D01*
X112465Y74482D01*
X112510Y74237D01*
X112550Y73991D01*
X112584Y73744D01*
X112611Y73496D01*
X112632Y73247D01*
X112648Y72999D01*
X112657Y72749D01*
X112660Y72500D01*
X112657Y72251D01*
X112648Y72001D01*
X112632Y71753D01*
X112611Y71504D01*
X112584Y71256D01*
X112550Y71009D01*
X112510Y70763D01*
X112465Y70518D01*
X112413Y70274D01*
X112356Y70031D01*
X112292Y69790D01*
X112223Y69551D01*
X112147Y69313D01*
X112066Y69077D01*
X111979Y68843D01*
X111887Y68612D01*
X111788Y68383D01*
X111685Y68156D01*
X111575Y67932D01*
X111460Y67711D01*
X111340Y67492D01*
X111215Y67277D01*
X111084Y67064D01*
X110948Y66855D01*
X110807Y66650D01*
X110661Y66448D01*
X110510Y66249D01*
X110354Y66055D01*
X110193Y65864D01*
X110028Y65677D01*
X109858Y65494D01*
X109684Y65316D01*
X109506Y65142D01*
X109323Y64972D01*
X109136Y64807D01*
X108945Y64646D01*
X108751Y64490D01*
X108552Y64339D01*
X108350Y64193D01*
X108145Y64052D01*
X107936Y63916D01*
X107723Y63785D01*
X107508Y63660D01*
X107289Y63540D01*
X107068Y63425D01*
X106844Y63315D01*
X106617Y63212D01*
X106388Y63113D01*
X106157Y63021D01*
X105923Y62934D01*
X105687Y62853D01*
X105449Y62777D01*
X105210Y62708D01*
X104969Y62644D01*
X104726Y62587D01*
X104482Y62535D01*
X104237Y62490D01*
X103991Y62450D01*
X103744Y62416D01*
X103496Y62389D01*
X103247Y62368D01*
X102999Y62352D01*
X102749Y62343D01*
X102500Y62340D01*
X102251Y62343D01*
X102001Y62352D01*
X101753Y62368D01*
X101504Y62389D01*
X101256Y62416D01*
X101009Y62450D01*
X100763Y62490D01*
X100518Y62535D01*
X100274Y62587D01*
X100031Y62644D01*
X99790Y62708D01*
X99551Y62777D01*
X99313Y62853D01*
X99077Y62934D01*
X98843Y63021D01*
X98612Y63113D01*
X98383Y63212D01*
X98156Y63315D01*
X97932Y63425D01*
X97711Y63540D01*
X97492Y63660D01*
X97277Y63785D01*
X97064Y63916D01*
X96855Y64052D01*
X96650Y64193D01*
X96448Y64339D01*
X96249Y64490D01*
X96055Y64646D01*
X95864Y64807D01*
X95677Y64972D01*
X95494Y65142D01*
X95316Y65316D01*
X95142Y65494D01*
X94972Y65677D01*
X94807Y65864D01*
X94646Y66055D01*
X94490Y66249D01*
X94339Y66448D01*
X94193Y66650D01*
X94052Y66855D01*
X93916Y67064D01*
X93785Y67277D01*
X93660Y67492D01*
X93540Y67711D01*
X93425Y67932D01*
X93315Y68156D01*
X93212Y68383D01*
X93113Y68612D01*
X93021Y68843D01*
X92934Y69077D01*
X92853Y69313D01*
X92777Y69551D01*
X92708Y69790D01*
X92644Y70031D01*
X92587Y70274D01*
X92535Y70518D01*
X92490Y70763D01*
X92450Y71009D01*
X92416Y71256D01*
X92389Y71504D01*
X92368Y71753D01*
X92352Y72001D01*
X92343Y72251D01*
X92340Y72500D01*
X94880Y72500D02*
X94882Y72687D01*
X94889Y72874D01*
X94901Y73061D01*
X94917Y73247D01*
X94937Y73433D01*
X94962Y73618D01*
X94992Y73803D01*
X95026Y73987D01*
X95065Y74170D01*
X95108Y74352D01*
X95156Y74532D01*
X95208Y74712D01*
X95265Y74890D01*
X95325Y75067D01*
X95391Y75242D01*
X95460Y75416D01*
X95534Y75588D01*
X95612Y75758D01*
X95694Y75926D01*
X95780Y76092D01*
X95870Y76256D01*
X95964Y76417D01*
X96062Y76577D01*
X96164Y76733D01*
X96270Y76888D01*
X96380Y77039D01*
X96493Y77188D01*
X96610Y77334D01*
X96730Y77477D01*
X96854Y77617D01*
X96981Y77754D01*
X97112Y77888D01*
X97246Y78019D01*
X97383Y78146D01*
X97523Y78270D01*
X97666Y78390D01*
X97812Y78507D01*
X97961Y78620D01*
X98112Y78730D01*
X98267Y78836D01*
X98423Y78938D01*
X98583Y79036D01*
X98744Y79130D01*
X98908Y79220D01*
X99074Y79306D01*
X99242Y79388D01*
X99412Y79466D01*
X99584Y79540D01*
X99758Y79609D01*
X99933Y79675D01*
X100110Y79735D01*
X100288Y79792D01*
X100468Y79844D01*
X100648Y79892D01*
X100830Y79935D01*
X101013Y79974D01*
X101197Y80008D01*
X101382Y80038D01*
X101567Y80063D01*
X101753Y80083D01*
X101939Y80099D01*
X102126Y80111D01*
X102313Y80118D01*
X102500Y80120D01*
X102687Y80118D01*
X102874Y80111D01*
X103061Y80099D01*
X103247Y80083D01*
X103433Y80063D01*
X103618Y80038D01*
X103803Y80008D01*
X103987Y79974D01*
X104170Y79935D01*
X104352Y79892D01*
X104532Y79844D01*
X104712Y79792D01*
X104890Y79735D01*
X105067Y79675D01*
X105242Y79609D01*
X105416Y79540D01*
X105588Y79466D01*
X105758Y79388D01*
X105926Y79306D01*
X106092Y79220D01*
X106256Y79130D01*
X106417Y79036D01*
X106577Y78938D01*
X106733Y78836D01*
X106888Y78730D01*
X107039Y78620D01*
X107188Y78507D01*
X107334Y78390D01*
X107477Y78270D01*
X107617Y78146D01*
X107754Y78019D01*
X107888Y77888D01*
X108019Y77754D01*
X108146Y77617D01*
X108270Y77477D01*
X108390Y77334D01*
X108507Y77188D01*
X108620Y77039D01*
X108730Y76888D01*
X108836Y76733D01*
X108938Y76577D01*
X109036Y76417D01*
X109130Y76256D01*
X109220Y76092D01*
X109306Y75926D01*
X109388Y75758D01*
X109466Y75588D01*
X109540Y75416D01*
X109609Y75242D01*
X109675Y75067D01*
X109735Y74890D01*
X109792Y74712D01*
X109844Y74532D01*
X109892Y74352D01*
X109935Y74170D01*
X109974Y73987D01*
X110008Y73803D01*
X110038Y73618D01*
X110063Y73433D01*
X110083Y73247D01*
X110099Y73061D01*
X110111Y72874D01*
X110118Y72687D01*
X110120Y72500D01*
X110118Y72313D01*
X110111Y72126D01*
X110099Y71939D01*
X110083Y71753D01*
X110063Y71567D01*
X110038Y71382D01*
X110008Y71197D01*
X109974Y71013D01*
X109935Y70830D01*
X109892Y70648D01*
X109844Y70468D01*
X109792Y70288D01*
X109735Y70110D01*
X109675Y69933D01*
X109609Y69758D01*
X109540Y69584D01*
X109466Y69412D01*
X109388Y69242D01*
X109306Y69074D01*
X109220Y68908D01*
X109130Y68744D01*
X109036Y68583D01*
X108938Y68423D01*
X108836Y68267D01*
X108730Y68112D01*
X108620Y67961D01*
X108507Y67812D01*
X108390Y67666D01*
X108270Y67523D01*
X108146Y67383D01*
X108019Y67246D01*
X107888Y67112D01*
X107754Y66981D01*
X107617Y66854D01*
X107477Y66730D01*
X107334Y66610D01*
X107188Y66493D01*
X107039Y66380D01*
X106888Y66270D01*
X106733Y66164D01*
X106577Y66062D01*
X106417Y65964D01*
X106256Y65870D01*
X106092Y65780D01*
X105926Y65694D01*
X105758Y65612D01*
X105588Y65534D01*
X105416Y65460D01*
X105242Y65391D01*
X105067Y65325D01*
X104890Y65265D01*
X104712Y65208D01*
X104532Y65156D01*
X104352Y65108D01*
X104170Y65065D01*
X103987Y65026D01*
X103803Y64992D01*
X103618Y64962D01*
X103433Y64937D01*
X103247Y64917D01*
X103061Y64901D01*
X102874Y64889D01*
X102687Y64882D01*
X102500Y64880D01*
X102313Y64882D01*
X102126Y64889D01*
X101939Y64901D01*
X101753Y64917D01*
X101567Y64937D01*
X101382Y64962D01*
X101197Y64992D01*
X101013Y65026D01*
X100830Y65065D01*
X100648Y65108D01*
X100468Y65156D01*
X100288Y65208D01*
X100110Y65265D01*
X99933Y65325D01*
X99758Y65391D01*
X99584Y65460D01*
X99412Y65534D01*
X99242Y65612D01*
X99074Y65694D01*
X98908Y65780D01*
X98744Y65870D01*
X98583Y65964D01*
X98423Y66062D01*
X98267Y66164D01*
X98112Y66270D01*
X97961Y66380D01*
X97812Y66493D01*
X97666Y66610D01*
X97523Y66730D01*
X97383Y66854D01*
X97246Y66981D01*
X97112Y67112D01*
X96981Y67246D01*
X96854Y67383D01*
X96730Y67523D01*
X96610Y67666D01*
X96493Y67812D01*
X96380Y67961D01*
X96270Y68112D01*
X96164Y68267D01*
X96062Y68423D01*
X95964Y68583D01*
X95870Y68744D01*
X95780Y68908D01*
X95694Y69074D01*
X95612Y69242D01*
X95534Y69412D01*
X95460Y69584D01*
X95391Y69758D01*
X95325Y69933D01*
X95265Y70110D01*
X95208Y70288D01*
X95156Y70468D01*
X95108Y70648D01*
X95065Y70830D01*
X95026Y71013D01*
X94992Y71197D01*
X94962Y71382D01*
X94937Y71567D01*
X94917Y71753D01*
X94901Y71939D01*
X94889Y72126D01*
X94882Y72313D01*
X94880Y72500D01*
D13*
X54240Y117585D02*
X51065Y115045D01*
X54240Y117585D02*
X54240Y106155D01*
X51065Y106155D02*
X57415Y106155D01*
X145998Y117586D02*
X146102Y117584D01*
X146207Y117578D01*
X146311Y117569D01*
X146414Y117556D01*
X146517Y117538D01*
X146619Y117518D01*
X146721Y117493D01*
X146821Y117465D01*
X146921Y117433D01*
X147019Y117397D01*
X147116Y117358D01*
X147211Y117316D01*
X147305Y117270D01*
X147397Y117220D01*
X147487Y117168D01*
X147575Y117112D01*
X147661Y117052D01*
X147745Y116990D01*
X147826Y116925D01*
X147905Y116857D01*
X147982Y116785D01*
X148055Y116712D01*
X148127Y116635D01*
X148195Y116556D01*
X148260Y116475D01*
X148322Y116391D01*
X148382Y116305D01*
X148438Y116217D01*
X148490Y116127D01*
X148540Y116035D01*
X148586Y115941D01*
X148628Y115846D01*
X148667Y115749D01*
X148703Y115651D01*
X148735Y115551D01*
X148763Y115451D01*
X148788Y115349D01*
X148808Y115247D01*
X148826Y115144D01*
X148839Y115041D01*
X148848Y114937D01*
X148854Y114832D01*
X148856Y114728D01*
X145998Y117585D02*
X145880Y117583D01*
X145761Y117577D01*
X145643Y117568D01*
X145526Y117555D01*
X145409Y117537D01*
X145292Y117517D01*
X145176Y117492D01*
X145061Y117464D01*
X144948Y117431D01*
X144835Y117396D01*
X144723Y117356D01*
X144613Y117314D01*
X144504Y117267D01*
X144396Y117217D01*
X144291Y117164D01*
X144187Y117107D01*
X144085Y117047D01*
X143985Y116984D01*
X143887Y116917D01*
X143791Y116848D01*
X143698Y116775D01*
X143607Y116699D01*
X143518Y116621D01*
X143432Y116539D01*
X143349Y116455D01*
X143268Y116369D01*
X143191Y116279D01*
X143116Y116188D01*
X143044Y116094D01*
X142975Y115997D01*
X142910Y115899D01*
X142847Y115798D01*
X142788Y115695D01*
X142732Y115591D01*
X142680Y115485D01*
X142631Y115377D01*
X142586Y115268D01*
X142544Y115157D01*
X142506Y115045D01*
X147903Y112506D02*
X147979Y112581D01*
X148054Y112660D01*
X148125Y112741D01*
X148194Y112825D01*
X148259Y112911D01*
X148321Y112999D01*
X148381Y113089D01*
X148437Y113181D01*
X148490Y113276D01*
X148539Y113372D01*
X148585Y113470D01*
X148628Y113569D01*
X148667Y113670D01*
X148702Y113772D01*
X148734Y113875D01*
X148762Y113979D01*
X148787Y114084D01*
X148808Y114191D01*
X148825Y114297D01*
X148838Y114404D01*
X148847Y114512D01*
X148853Y114620D01*
X148855Y114728D01*
X147903Y112505D02*
X142505Y106155D01*
X148855Y106155D01*
X54240Y26145D02*
X51065Y26145D01*
X54240Y26145D02*
X54351Y26147D01*
X54461Y26153D01*
X54572Y26162D01*
X54682Y26176D01*
X54791Y26193D01*
X54900Y26214D01*
X55008Y26239D01*
X55115Y26268D01*
X55221Y26300D01*
X55326Y26336D01*
X55429Y26376D01*
X55531Y26419D01*
X55632Y26466D01*
X55731Y26517D01*
X55827Y26570D01*
X55922Y26627D01*
X56015Y26688D01*
X56106Y26751D01*
X56195Y26818D01*
X56281Y26888D01*
X56364Y26961D01*
X56446Y27036D01*
X56524Y27114D01*
X56599Y27196D01*
X56672Y27279D01*
X56742Y27365D01*
X56809Y27454D01*
X56872Y27545D01*
X56933Y27638D01*
X56990Y27732D01*
X57043Y27829D01*
X57094Y27928D01*
X57141Y28029D01*
X57184Y28131D01*
X57224Y28234D01*
X57260Y28339D01*
X57292Y28445D01*
X57321Y28552D01*
X57346Y28660D01*
X57367Y28769D01*
X57384Y28878D01*
X57398Y28988D01*
X57407Y29099D01*
X57413Y29209D01*
X57415Y29320D01*
X57413Y29431D01*
X57407Y29541D01*
X57398Y29652D01*
X57384Y29762D01*
X57367Y29871D01*
X57346Y29980D01*
X57321Y30088D01*
X57292Y30195D01*
X57260Y30301D01*
X57224Y30406D01*
X57184Y30509D01*
X57141Y30611D01*
X57094Y30712D01*
X57043Y30811D01*
X56990Y30907D01*
X56933Y31002D01*
X56872Y31095D01*
X56809Y31186D01*
X56742Y31275D01*
X56672Y31361D01*
X56599Y31444D01*
X56524Y31526D01*
X56446Y31604D01*
X56364Y31679D01*
X56281Y31752D01*
X56195Y31822D01*
X56106Y31889D01*
X56015Y31952D01*
X55922Y32013D01*
X55828Y32070D01*
X55731Y32123D01*
X55632Y32174D01*
X55531Y32221D01*
X55429Y32264D01*
X55326Y32304D01*
X55221Y32340D01*
X55115Y32372D01*
X55008Y32401D01*
X54900Y32426D01*
X54791Y32447D01*
X54682Y32464D01*
X54572Y32478D01*
X54461Y32487D01*
X54351Y32493D01*
X54240Y32495D01*
X54875Y37575D02*
X51065Y37575D01*
X54875Y37575D02*
X54975Y37573D01*
X55074Y37567D01*
X55174Y37557D01*
X55272Y37544D01*
X55371Y37526D01*
X55468Y37505D01*
X55564Y37480D01*
X55660Y37451D01*
X55754Y37418D01*
X55847Y37382D01*
X55938Y37342D01*
X56028Y37298D01*
X56116Y37251D01*
X56202Y37201D01*
X56286Y37147D01*
X56368Y37090D01*
X56447Y37030D01*
X56525Y36966D01*
X56599Y36900D01*
X56671Y36831D01*
X56740Y36759D01*
X56806Y36685D01*
X56870Y36607D01*
X56930Y36528D01*
X56987Y36446D01*
X57041Y36362D01*
X57091Y36276D01*
X57138Y36188D01*
X57182Y36098D01*
X57222Y36007D01*
X57258Y35914D01*
X57291Y35820D01*
X57320Y35724D01*
X57345Y35628D01*
X57366Y35531D01*
X57384Y35432D01*
X57397Y35334D01*
X57407Y35234D01*
X57413Y35135D01*
X57415Y35035D01*
X57413Y34935D01*
X57407Y34836D01*
X57397Y34736D01*
X57384Y34638D01*
X57366Y34539D01*
X57345Y34442D01*
X57320Y34346D01*
X57291Y34250D01*
X57258Y34156D01*
X57222Y34063D01*
X57182Y33972D01*
X57138Y33882D01*
X57091Y33794D01*
X57041Y33708D01*
X56987Y33624D01*
X56930Y33542D01*
X56870Y33463D01*
X56806Y33385D01*
X56740Y33311D01*
X56671Y33239D01*
X56599Y33170D01*
X56525Y33104D01*
X56447Y33040D01*
X56368Y32980D01*
X56286Y32923D01*
X56202Y32869D01*
X56116Y32819D01*
X56028Y32772D01*
X55938Y32728D01*
X55847Y32688D01*
X55754Y32652D01*
X55660Y32619D01*
X55564Y32590D01*
X55468Y32565D01*
X55371Y32544D01*
X55272Y32526D01*
X55174Y32513D01*
X55074Y32503D01*
X54975Y32497D01*
X54875Y32495D01*
X52335Y32495D01*
X143775Y28685D02*
X146315Y37575D01*
X143775Y28685D02*
X150125Y28685D01*
X148220Y31225D02*
X148220Y26145D01*
D14*
X136155Y133460D03*
X68845Y133460D03*
X136155Y11540D03*
X68845Y11540D03*
M02*
