G04 EAGLE Gerber RS-274X export*
G75*
%MOMM*%
%FSLAX34Y34*%
%LPD*%
%INTop Copper*%
%IPPOS*%
%AMOC8*
5,1,8,0,0,1.08239X$1,22.5*%
G01*
%ADD10C,1.300000*%
%ADD11P,1.649562X8X292.500000*%
%ADD12P,1.649562X8X112.500000*%
%ADD13C,0.400000*%
%ADD14C,0.250000*%

G36*
X506758Y2504D02*
X506758Y2504D01*
X506777Y2502D01*
X506879Y2524D01*
X506981Y2540D01*
X506998Y2550D01*
X507018Y2554D01*
X507107Y2607D01*
X507198Y2656D01*
X507212Y2670D01*
X507229Y2680D01*
X507296Y2759D01*
X507368Y2834D01*
X507376Y2852D01*
X507389Y2867D01*
X507428Y2963D01*
X507471Y3057D01*
X507473Y3077D01*
X507481Y3095D01*
X507499Y3262D01*
X507499Y616738D01*
X507496Y616758D01*
X507498Y616777D01*
X507476Y616879D01*
X507460Y616981D01*
X507450Y616998D01*
X507446Y617018D01*
X507393Y617107D01*
X507344Y617198D01*
X507330Y617212D01*
X507320Y617229D01*
X507241Y617296D01*
X507166Y617368D01*
X507148Y617376D01*
X507133Y617389D01*
X507037Y617428D01*
X506943Y617471D01*
X506923Y617473D01*
X506905Y617481D01*
X506738Y617499D01*
X3262Y617499D01*
X3242Y617496D01*
X3223Y617498D01*
X3121Y617476D01*
X3019Y617460D01*
X3002Y617450D01*
X2982Y617446D01*
X2893Y617393D01*
X2802Y617344D01*
X2788Y617330D01*
X2771Y617320D01*
X2704Y617241D01*
X2632Y617166D01*
X2624Y617148D01*
X2611Y617133D01*
X2572Y617037D01*
X2529Y616943D01*
X2527Y616923D01*
X2519Y616905D01*
X2501Y616738D01*
X2501Y3262D01*
X2504Y3242D01*
X2502Y3223D01*
X2524Y3121D01*
X2540Y3019D01*
X2550Y3002D01*
X2554Y2982D01*
X2607Y2893D01*
X2656Y2802D01*
X2670Y2788D01*
X2680Y2771D01*
X2759Y2704D01*
X2834Y2632D01*
X2852Y2624D01*
X2867Y2611D01*
X2963Y2572D01*
X3057Y2529D01*
X3077Y2527D01*
X3095Y2519D01*
X3262Y2501D01*
X506738Y2501D01*
X506758Y2504D01*
G37*
%LPC*%
G36*
X209507Y42749D02*
X209507Y42749D01*
X196272Y55985D01*
X196234Y56011D01*
X196203Y56045D01*
X196135Y56083D01*
X196072Y56128D01*
X196028Y56142D01*
X195988Y56164D01*
X195911Y56178D01*
X195837Y56201D01*
X195791Y56199D01*
X195746Y56208D01*
X195669Y56196D01*
X195591Y56194D01*
X195548Y56178D01*
X195502Y56172D01*
X195433Y56137D01*
X195360Y56110D01*
X195324Y56081D01*
X195283Y56060D01*
X195229Y56005D01*
X195168Y55956D01*
X195143Y55917D01*
X195111Y55885D01*
X195064Y55800D01*
X191815Y52550D01*
X187588Y50799D01*
X170012Y50799D01*
X165785Y52550D01*
X162550Y55785D01*
X161310Y58779D01*
X161248Y58879D01*
X161188Y58979D01*
X161184Y58983D01*
X161180Y58988D01*
X161091Y59063D01*
X161002Y59139D01*
X160996Y59141D01*
X160991Y59145D01*
X160883Y59187D01*
X160773Y59231D01*
X160766Y59232D01*
X160761Y59233D01*
X160743Y59234D01*
X160607Y59249D01*
X131082Y59249D01*
X131062Y59246D01*
X131043Y59248D01*
X130941Y59226D01*
X130839Y59210D01*
X130822Y59200D01*
X130802Y59196D01*
X130713Y59143D01*
X130622Y59094D01*
X130608Y59080D01*
X130591Y59070D01*
X130524Y58991D01*
X130452Y58916D01*
X130444Y58898D01*
X130431Y58883D01*
X130392Y58787D01*
X130349Y58693D01*
X130347Y58673D01*
X130339Y58655D01*
X130321Y58488D01*
X130321Y58472D01*
X122928Y51079D01*
X112472Y51079D01*
X105079Y58472D01*
X105079Y68928D01*
X112472Y76321D01*
X122928Y76321D01*
X130321Y68928D01*
X130321Y66012D01*
X130324Y65992D01*
X130322Y65973D01*
X130344Y65871D01*
X130360Y65769D01*
X130370Y65752D01*
X130374Y65732D01*
X130427Y65643D01*
X130476Y65552D01*
X130490Y65538D01*
X130500Y65521D01*
X130579Y65454D01*
X130654Y65382D01*
X130672Y65374D01*
X130687Y65361D01*
X130783Y65322D01*
X130877Y65279D01*
X130897Y65277D01*
X130915Y65269D01*
X131082Y65251D01*
X160565Y65251D01*
X160680Y65270D01*
X160796Y65287D01*
X160802Y65289D01*
X160808Y65290D01*
X160911Y65345D01*
X161015Y65398D01*
X161020Y65403D01*
X161025Y65406D01*
X161105Y65490D01*
X161188Y65574D01*
X161191Y65580D01*
X161195Y65584D01*
X161203Y65601D01*
X161269Y65721D01*
X162550Y68815D01*
X165785Y72050D01*
X170012Y73801D01*
X187588Y73801D01*
X191815Y72050D01*
X195050Y68815D01*
X196801Y64588D01*
X196801Y64258D01*
X196815Y64168D01*
X196823Y64077D01*
X196835Y64047D01*
X196840Y64016D01*
X196883Y63935D01*
X196919Y63851D01*
X196945Y63819D01*
X196956Y63798D01*
X196979Y63776D01*
X197024Y63720D01*
X211770Y48974D01*
X211844Y48921D01*
X211913Y48861D01*
X211944Y48849D01*
X211970Y48830D01*
X212057Y48803D01*
X212142Y48769D01*
X212182Y48765D01*
X212205Y48758D01*
X212237Y48759D01*
X212308Y48751D01*
X424192Y48751D01*
X424282Y48765D01*
X424373Y48773D01*
X424403Y48785D01*
X424434Y48790D01*
X424515Y48833D01*
X424599Y48869D01*
X424631Y48895D01*
X424652Y48906D01*
X424674Y48929D01*
X424730Y48974D01*
X463276Y87520D01*
X463329Y87594D01*
X463389Y87663D01*
X463401Y87694D01*
X463420Y87720D01*
X463447Y87807D01*
X463481Y87892D01*
X463485Y87932D01*
X463492Y87955D01*
X463491Y87987D01*
X463499Y88058D01*
X463499Y151918D01*
X463496Y151938D01*
X463498Y151957D01*
X463476Y152059D01*
X463460Y152161D01*
X463450Y152178D01*
X463446Y152198D01*
X463393Y152287D01*
X463344Y152378D01*
X463330Y152392D01*
X463320Y152409D01*
X463241Y152476D01*
X463166Y152548D01*
X463148Y152556D01*
X463133Y152569D01*
X463037Y152608D01*
X462943Y152651D01*
X462923Y152653D01*
X462905Y152661D01*
X462738Y152679D01*
X462472Y152679D01*
X455079Y160072D01*
X455079Y170528D01*
X462013Y177462D01*
X462025Y177478D01*
X462041Y177490D01*
X462097Y177578D01*
X462157Y177661D01*
X462163Y177680D01*
X462174Y177697D01*
X462199Y177798D01*
X462229Y177897D01*
X462229Y177916D01*
X462234Y177936D01*
X462226Y178039D01*
X462223Y178142D01*
X462216Y178161D01*
X462214Y178181D01*
X462174Y178276D01*
X462138Y178373D01*
X462126Y178389D01*
X462118Y178407D01*
X462013Y178538D01*
X455079Y185472D01*
X455079Y195928D01*
X462013Y202862D01*
X462025Y202878D01*
X462041Y202890D01*
X462097Y202978D01*
X462157Y203061D01*
X462163Y203080D01*
X462174Y203097D01*
X462199Y203198D01*
X462229Y203297D01*
X462229Y203316D01*
X462234Y203336D01*
X462226Y203439D01*
X462223Y203542D01*
X462216Y203561D01*
X462214Y203581D01*
X462174Y203676D01*
X462138Y203773D01*
X462126Y203789D01*
X462118Y203807D01*
X462013Y203938D01*
X455079Y210872D01*
X455079Y221328D01*
X462013Y228262D01*
X462025Y228278D01*
X462041Y228290D01*
X462097Y228378D01*
X462157Y228461D01*
X462163Y228480D01*
X462174Y228497D01*
X462199Y228598D01*
X462229Y228697D01*
X462229Y228716D01*
X462234Y228736D01*
X462226Y228839D01*
X462223Y228942D01*
X462216Y228961D01*
X462214Y228981D01*
X462174Y229076D01*
X462138Y229173D01*
X462126Y229189D01*
X462118Y229207D01*
X462013Y229338D01*
X455079Y236272D01*
X455079Y246728D01*
X462013Y253662D01*
X462025Y253678D01*
X462041Y253690D01*
X462097Y253778D01*
X462157Y253861D01*
X462163Y253880D01*
X462174Y253897D01*
X462199Y253998D01*
X462229Y254097D01*
X462229Y254116D01*
X462234Y254136D01*
X462226Y254239D01*
X462223Y254342D01*
X462216Y254361D01*
X462214Y254381D01*
X462174Y254476D01*
X462138Y254573D01*
X462126Y254589D01*
X462118Y254607D01*
X462013Y254738D01*
X455079Y261672D01*
X455079Y272128D01*
X462013Y279062D01*
X462025Y279078D01*
X462041Y279090D01*
X462069Y279135D01*
X462100Y279168D01*
X462120Y279210D01*
X462157Y279261D01*
X462163Y279280D01*
X462174Y279297D01*
X462189Y279358D01*
X462204Y279391D01*
X462208Y279428D01*
X462229Y279497D01*
X462229Y279516D01*
X462234Y279536D01*
X462228Y279608D01*
X462231Y279635D01*
X462225Y279663D01*
X462223Y279742D01*
X462216Y279761D01*
X462214Y279781D01*
X462184Y279854D01*
X462179Y279876D01*
X462167Y279895D01*
X462138Y279973D01*
X462126Y279989D01*
X462118Y280007D01*
X462013Y280138D01*
X455079Y287072D01*
X455079Y297528D01*
X462013Y304462D01*
X462025Y304478D01*
X462041Y304490D01*
X462097Y304578D01*
X462157Y304661D01*
X462163Y304680D01*
X462174Y304697D01*
X462199Y304798D01*
X462229Y304897D01*
X462229Y304916D01*
X462234Y304936D01*
X462226Y305039D01*
X462223Y305142D01*
X462216Y305161D01*
X462214Y305181D01*
X462174Y305276D01*
X462138Y305373D01*
X462126Y305389D01*
X462118Y305407D01*
X462013Y305538D01*
X455079Y312472D01*
X455079Y322928D01*
X462013Y329862D01*
X462025Y329878D01*
X462041Y329890D01*
X462097Y329978D01*
X462157Y330061D01*
X462163Y330080D01*
X462174Y330097D01*
X462199Y330198D01*
X462229Y330297D01*
X462229Y330316D01*
X462234Y330336D01*
X462226Y330439D01*
X462223Y330542D01*
X462216Y330561D01*
X462214Y330581D01*
X462174Y330676D01*
X462138Y330773D01*
X462126Y330789D01*
X462118Y330807D01*
X462013Y330938D01*
X455079Y337872D01*
X455079Y348328D01*
X462472Y355721D01*
X462738Y355721D01*
X462758Y355724D01*
X462777Y355722D01*
X462879Y355744D01*
X462981Y355760D01*
X462998Y355770D01*
X463018Y355774D01*
X463107Y355827D01*
X463198Y355876D01*
X463212Y355890D01*
X463229Y355900D01*
X463296Y355979D01*
X463368Y356054D01*
X463376Y356072D01*
X463389Y356087D01*
X463428Y356183D01*
X463471Y356277D01*
X463473Y356297D01*
X463481Y356315D01*
X463499Y356482D01*
X463499Y524192D01*
X463485Y524282D01*
X463477Y524373D01*
X463465Y524403D01*
X463460Y524435D01*
X463417Y524515D01*
X463381Y524599D01*
X463355Y524631D01*
X463344Y524652D01*
X463321Y524674D01*
X463276Y524730D01*
X427730Y560276D01*
X427656Y560329D01*
X427587Y560389D01*
X427556Y560401D01*
X427530Y560420D01*
X427443Y560447D01*
X427358Y560481D01*
X427318Y560485D01*
X427295Y560492D01*
X427263Y560491D01*
X427192Y560499D01*
X385308Y560499D01*
X385218Y560485D01*
X385127Y560477D01*
X385097Y560465D01*
X385066Y560460D01*
X384985Y560417D01*
X384901Y560381D01*
X384869Y560355D01*
X384848Y560344D01*
X384846Y560342D01*
X384825Y560321D01*
X384770Y560276D01*
X375724Y551230D01*
X375671Y551156D01*
X375611Y551087D01*
X375599Y551056D01*
X375580Y551030D01*
X375553Y550943D01*
X375519Y550858D01*
X375515Y550818D01*
X375508Y550795D01*
X375509Y550763D01*
X375501Y550692D01*
X375501Y498012D01*
X375504Y497992D01*
X375502Y497973D01*
X375524Y497871D01*
X375540Y497769D01*
X375550Y497752D01*
X375554Y497732D01*
X375607Y497643D01*
X375656Y497552D01*
X375670Y497538D01*
X375680Y497521D01*
X375759Y497454D01*
X375834Y497382D01*
X375852Y497374D01*
X375867Y497361D01*
X375963Y497322D01*
X376057Y497279D01*
X376077Y497277D01*
X376095Y497269D01*
X376262Y497251D01*
X378918Y497251D01*
X378938Y497254D01*
X378957Y497252D01*
X379059Y497274D01*
X379161Y497290D01*
X379178Y497300D01*
X379198Y497304D01*
X379287Y497357D01*
X379378Y497406D01*
X379392Y497420D01*
X379409Y497430D01*
X379476Y497509D01*
X379548Y497584D01*
X379556Y497602D01*
X379569Y497617D01*
X379608Y497713D01*
X379651Y497807D01*
X379653Y497827D01*
X379661Y497845D01*
X379679Y498012D01*
X379679Y500728D01*
X387072Y508121D01*
X397528Y508121D01*
X404921Y500728D01*
X404921Y490272D01*
X397987Y483338D01*
X397975Y483322D01*
X397959Y483310D01*
X397903Y483222D01*
X397843Y483139D01*
X397837Y483120D01*
X397826Y483103D01*
X397801Y483002D01*
X397771Y482903D01*
X397771Y482884D01*
X397766Y482864D01*
X397774Y482761D01*
X397777Y482658D01*
X397784Y482639D01*
X397786Y482619D01*
X397826Y482524D01*
X397862Y482427D01*
X397874Y482411D01*
X397882Y482393D01*
X397987Y482262D01*
X404921Y475328D01*
X404921Y464872D01*
X397987Y457938D01*
X397975Y457922D01*
X397959Y457910D01*
X397903Y457822D01*
X397843Y457739D01*
X397837Y457720D01*
X397826Y457703D01*
X397801Y457602D01*
X397771Y457503D01*
X397771Y457484D01*
X397766Y457464D01*
X397774Y457361D01*
X397777Y457258D01*
X397784Y457239D01*
X397786Y457219D01*
X397826Y457124D01*
X397862Y457027D01*
X397874Y457011D01*
X397882Y456993D01*
X397987Y456862D01*
X404921Y449928D01*
X404921Y439472D01*
X397987Y432538D01*
X397975Y432522D01*
X397959Y432510D01*
X397903Y432422D01*
X397843Y432339D01*
X397837Y432320D01*
X397826Y432303D01*
X397801Y432202D01*
X397771Y432103D01*
X397771Y432084D01*
X397766Y432064D01*
X397774Y431961D01*
X397777Y431858D01*
X397784Y431839D01*
X397786Y431819D01*
X397826Y431724D01*
X397862Y431627D01*
X397874Y431611D01*
X397882Y431593D01*
X397987Y431462D01*
X404921Y424528D01*
X404921Y414072D01*
X397987Y407138D01*
X397975Y407122D01*
X397959Y407110D01*
X397903Y407022D01*
X397843Y406939D01*
X397837Y406920D01*
X397826Y406903D01*
X397801Y406802D01*
X397771Y406703D01*
X397771Y406684D01*
X397766Y406664D01*
X397774Y406561D01*
X397777Y406458D01*
X397784Y406439D01*
X397786Y406419D01*
X397826Y406324D01*
X397862Y406227D01*
X397874Y406211D01*
X397882Y406193D01*
X397987Y406062D01*
X404921Y399128D01*
X404921Y388672D01*
X397987Y381738D01*
X397975Y381722D01*
X397959Y381710D01*
X397903Y381622D01*
X397843Y381539D01*
X397837Y381520D01*
X397826Y381503D01*
X397801Y381402D01*
X397771Y381303D01*
X397771Y381284D01*
X397766Y381264D01*
X397774Y381161D01*
X397777Y381058D01*
X397784Y381039D01*
X397786Y381019D01*
X397826Y380924D01*
X397862Y380827D01*
X397874Y380811D01*
X397882Y380793D01*
X397987Y380662D01*
X404921Y373728D01*
X404921Y363272D01*
X397987Y356338D01*
X397975Y356322D01*
X397959Y356310D01*
X397903Y356222D01*
X397843Y356139D01*
X397837Y356120D01*
X397826Y356103D01*
X397801Y356002D01*
X397771Y355903D01*
X397771Y355884D01*
X397766Y355864D01*
X397774Y355761D01*
X397777Y355658D01*
X397784Y355639D01*
X397786Y355619D01*
X397826Y355524D01*
X397862Y355427D01*
X397874Y355411D01*
X397882Y355393D01*
X397987Y355262D01*
X404921Y348328D01*
X404921Y337872D01*
X397987Y330938D01*
X397975Y330922D01*
X397959Y330910D01*
X397903Y330822D01*
X397843Y330739D01*
X397837Y330720D01*
X397826Y330703D01*
X397801Y330602D01*
X397771Y330503D01*
X397771Y330484D01*
X397766Y330464D01*
X397774Y330361D01*
X397777Y330258D01*
X397784Y330239D01*
X397786Y330219D01*
X397826Y330124D01*
X397862Y330027D01*
X397874Y330011D01*
X397882Y329993D01*
X397987Y329862D01*
X404921Y322928D01*
X404921Y312472D01*
X397987Y305538D01*
X397975Y305522D01*
X397959Y305510D01*
X397903Y305422D01*
X397843Y305339D01*
X397837Y305320D01*
X397826Y305303D01*
X397801Y305202D01*
X397771Y305103D01*
X397771Y305084D01*
X397766Y305064D01*
X397774Y304961D01*
X397777Y304858D01*
X397784Y304839D01*
X397786Y304819D01*
X397826Y304724D01*
X397862Y304627D01*
X397874Y304611D01*
X397882Y304593D01*
X397987Y304462D01*
X404921Y297528D01*
X404921Y287072D01*
X397987Y280138D01*
X397975Y280122D01*
X397959Y280110D01*
X397914Y280039D01*
X397900Y280024D01*
X397891Y280005D01*
X397843Y279939D01*
X397837Y279920D01*
X397826Y279903D01*
X397806Y279823D01*
X397796Y279801D01*
X397794Y279777D01*
X397771Y279703D01*
X397771Y279684D01*
X397766Y279664D01*
X397772Y279587D01*
X397769Y279556D01*
X397775Y279527D01*
X397777Y279458D01*
X397784Y279439D01*
X397786Y279419D01*
X397813Y279355D01*
X397821Y279316D01*
X397841Y279283D01*
X397862Y279227D01*
X397874Y279211D01*
X397882Y279193D01*
X397933Y279128D01*
X397947Y279105D01*
X397962Y279092D01*
X397987Y279062D01*
X404921Y272128D01*
X404921Y261672D01*
X397987Y254738D01*
X397975Y254722D01*
X397959Y254710D01*
X397903Y254622D01*
X397843Y254539D01*
X397837Y254520D01*
X397826Y254503D01*
X397801Y254402D01*
X397771Y254303D01*
X397771Y254284D01*
X397766Y254264D01*
X397774Y254161D01*
X397777Y254058D01*
X397784Y254039D01*
X397786Y254019D01*
X397826Y253924D01*
X397862Y253827D01*
X397874Y253811D01*
X397882Y253793D01*
X397987Y253662D01*
X404921Y246728D01*
X404921Y236272D01*
X397987Y229338D01*
X397975Y229322D01*
X397959Y229310D01*
X397903Y229222D01*
X397843Y229139D01*
X397837Y229120D01*
X397826Y229103D01*
X397801Y229002D01*
X397771Y228903D01*
X397771Y228884D01*
X397766Y228864D01*
X397774Y228761D01*
X397777Y228658D01*
X397784Y228639D01*
X397786Y228619D01*
X397826Y228524D01*
X397862Y228427D01*
X397874Y228411D01*
X397882Y228393D01*
X397987Y228262D01*
X404921Y221328D01*
X404921Y210872D01*
X397987Y203938D01*
X397975Y203922D01*
X397959Y203910D01*
X397903Y203822D01*
X397843Y203739D01*
X397837Y203720D01*
X397826Y203703D01*
X397801Y203602D01*
X397771Y203503D01*
X397771Y203484D01*
X397766Y203464D01*
X397774Y203361D01*
X397777Y203258D01*
X397784Y203239D01*
X397786Y203219D01*
X397826Y203124D01*
X397862Y203027D01*
X397874Y203011D01*
X397882Y202993D01*
X397987Y202862D01*
X404921Y195928D01*
X404921Y185472D01*
X397987Y178538D01*
X397975Y178522D01*
X397959Y178510D01*
X397903Y178422D01*
X397843Y178339D01*
X397837Y178320D01*
X397826Y178303D01*
X397801Y178202D01*
X397771Y178103D01*
X397771Y178084D01*
X397766Y178064D01*
X397774Y177961D01*
X397777Y177858D01*
X397784Y177839D01*
X397786Y177819D01*
X397826Y177724D01*
X397862Y177627D01*
X397874Y177611D01*
X397882Y177593D01*
X397987Y177462D01*
X404921Y170528D01*
X404921Y160072D01*
X397987Y153138D01*
X397975Y153122D01*
X397959Y153110D01*
X397903Y153022D01*
X397843Y152939D01*
X397837Y152920D01*
X397826Y152903D01*
X397801Y152802D01*
X397771Y152703D01*
X397771Y152684D01*
X397766Y152664D01*
X397774Y152561D01*
X397777Y152458D01*
X397784Y152439D01*
X397786Y152419D01*
X397826Y152324D01*
X397862Y152227D01*
X397874Y152211D01*
X397882Y152193D01*
X397987Y152062D01*
X404921Y145128D01*
X404921Y134672D01*
X397987Y127738D01*
X397975Y127722D01*
X397959Y127710D01*
X397903Y127622D01*
X397843Y127539D01*
X397837Y127520D01*
X397826Y127503D01*
X397801Y127402D01*
X397771Y127303D01*
X397771Y127284D01*
X397766Y127264D01*
X397774Y127161D01*
X397777Y127058D01*
X397784Y127039D01*
X397786Y127019D01*
X397826Y126924D01*
X397862Y126827D01*
X397874Y126811D01*
X397882Y126793D01*
X397987Y126662D01*
X404921Y119728D01*
X404921Y109272D01*
X397987Y102338D01*
X397975Y102322D01*
X397959Y102310D01*
X397903Y102222D01*
X397843Y102139D01*
X397837Y102120D01*
X397826Y102103D01*
X397801Y102002D01*
X397771Y101903D01*
X397771Y101884D01*
X397766Y101864D01*
X397774Y101761D01*
X397777Y101658D01*
X397784Y101639D01*
X397786Y101619D01*
X397826Y101524D01*
X397862Y101427D01*
X397874Y101411D01*
X397882Y101393D01*
X397987Y101262D01*
X404921Y94328D01*
X404921Y83872D01*
X397987Y76938D01*
X397975Y76922D01*
X397959Y76910D01*
X397903Y76822D01*
X397843Y76739D01*
X397837Y76720D01*
X397826Y76703D01*
X397801Y76602D01*
X397771Y76503D01*
X397771Y76484D01*
X397766Y76464D01*
X397774Y76361D01*
X397777Y76258D01*
X397784Y76239D01*
X397786Y76219D01*
X397826Y76124D01*
X397862Y76027D01*
X397874Y76011D01*
X397882Y75993D01*
X397987Y75862D01*
X404921Y68928D01*
X404921Y58472D01*
X397528Y51079D01*
X387072Y51079D01*
X379679Y58472D01*
X379679Y59988D01*
X379676Y60008D01*
X379678Y60027D01*
X379656Y60129D01*
X379640Y60231D01*
X379630Y60248D01*
X379626Y60268D01*
X379573Y60357D01*
X379524Y60448D01*
X379510Y60462D01*
X379500Y60479D01*
X379421Y60546D01*
X379346Y60618D01*
X379328Y60626D01*
X379313Y60639D01*
X379217Y60678D01*
X379123Y60721D01*
X379103Y60723D01*
X379085Y60731D01*
X378918Y60749D01*
X349962Y60749D01*
X349942Y60746D01*
X349923Y60748D01*
X349821Y60726D01*
X349719Y60710D01*
X349702Y60700D01*
X349682Y60696D01*
X349593Y60643D01*
X349502Y60594D01*
X349488Y60580D01*
X349471Y60570D01*
X349404Y60491D01*
X349332Y60416D01*
X349324Y60398D01*
X349311Y60383D01*
X349272Y60287D01*
X349229Y60193D01*
X349227Y60173D01*
X349219Y60155D01*
X349204Y60021D01*
X347450Y55785D01*
X344215Y52550D01*
X339988Y50799D01*
X322412Y50799D01*
X318185Y52550D01*
X314950Y55785D01*
X313199Y60012D01*
X313199Y64588D01*
X314950Y68815D01*
X318185Y72050D01*
X322412Y73801D01*
X339988Y73801D01*
X344215Y72050D01*
X347450Y68815D01*
X348731Y65721D01*
X348793Y65621D01*
X348853Y65521D01*
X348858Y65517D01*
X348861Y65512D01*
X348951Y65437D01*
X349040Y65361D01*
X349046Y65359D01*
X349050Y65355D01*
X349159Y65313D01*
X349268Y65269D01*
X349276Y65268D01*
X349280Y65267D01*
X349298Y65266D01*
X349435Y65251D01*
X378918Y65251D01*
X378938Y65254D01*
X378957Y65252D01*
X379059Y65274D01*
X379161Y65290D01*
X379178Y65300D01*
X379198Y65304D01*
X379287Y65357D01*
X379378Y65406D01*
X379392Y65420D01*
X379409Y65430D01*
X379476Y65509D01*
X379548Y65584D01*
X379556Y65602D01*
X379569Y65617D01*
X379608Y65713D01*
X379651Y65807D01*
X379653Y65827D01*
X379661Y65845D01*
X379679Y66012D01*
X379679Y68928D01*
X386613Y75862D01*
X386625Y75878D01*
X386641Y75890D01*
X386697Y75978D01*
X386757Y76061D01*
X386763Y76080D01*
X386774Y76097D01*
X386799Y76198D01*
X386829Y76297D01*
X386829Y76316D01*
X386834Y76336D01*
X386826Y76439D01*
X386823Y76542D01*
X386816Y76561D01*
X386814Y76581D01*
X386774Y76676D01*
X386738Y76773D01*
X386726Y76789D01*
X386718Y76807D01*
X386613Y76938D01*
X379679Y83872D01*
X379679Y83988D01*
X379676Y84008D01*
X379678Y84027D01*
X379656Y84129D01*
X379640Y84231D01*
X379630Y84248D01*
X379626Y84268D01*
X379573Y84357D01*
X379524Y84448D01*
X379510Y84462D01*
X379500Y84479D01*
X379421Y84546D01*
X379346Y84618D01*
X379328Y84626D01*
X379313Y84639D01*
X379217Y84678D01*
X379123Y84721D01*
X379103Y84723D01*
X379085Y84731D01*
X378918Y84749D01*
X349435Y84749D01*
X349320Y84730D01*
X349204Y84713D01*
X349198Y84711D01*
X349192Y84710D01*
X349089Y84655D01*
X348985Y84602D01*
X348980Y84597D01*
X348975Y84594D01*
X348895Y84510D01*
X348812Y84426D01*
X348809Y84420D01*
X348805Y84416D01*
X348797Y84399D01*
X348731Y84279D01*
X347450Y81185D01*
X344215Y77950D01*
X339988Y76199D01*
X322412Y76199D01*
X318185Y77950D01*
X314950Y81185D01*
X313199Y85412D01*
X313199Y89988D01*
X314950Y94215D01*
X318185Y97450D01*
X322412Y99201D01*
X339988Y99201D01*
X344215Y97450D01*
X347450Y94215D01*
X349203Y89982D01*
X349202Y89973D01*
X349224Y89871D01*
X349240Y89769D01*
X349250Y89752D01*
X349254Y89732D01*
X349307Y89643D01*
X349356Y89552D01*
X349370Y89538D01*
X349380Y89521D01*
X349459Y89454D01*
X349534Y89382D01*
X349552Y89374D01*
X349567Y89361D01*
X349663Y89322D01*
X349757Y89279D01*
X349777Y89277D01*
X349795Y89269D01*
X349962Y89251D01*
X378918Y89251D01*
X378938Y89254D01*
X378957Y89252D01*
X379059Y89274D01*
X379161Y89290D01*
X379178Y89300D01*
X379198Y89304D01*
X379287Y89357D01*
X379378Y89406D01*
X379392Y89420D01*
X379409Y89430D01*
X379476Y89509D01*
X379548Y89584D01*
X379556Y89602D01*
X379569Y89617D01*
X379608Y89713D01*
X379651Y89807D01*
X379653Y89827D01*
X379661Y89845D01*
X379679Y90012D01*
X379679Y94328D01*
X386613Y101262D01*
X386625Y101278D01*
X386641Y101290D01*
X386697Y101378D01*
X386757Y101461D01*
X386763Y101480D01*
X386774Y101497D01*
X386799Y101598D01*
X386829Y101697D01*
X386829Y101716D01*
X386834Y101736D01*
X386826Y101839D01*
X386823Y101942D01*
X386816Y101961D01*
X386814Y101981D01*
X386774Y102076D01*
X386738Y102173D01*
X386726Y102189D01*
X386718Y102207D01*
X386613Y102338D01*
X379679Y109272D01*
X379679Y109488D01*
X379676Y109508D01*
X379678Y109527D01*
X379656Y109629D01*
X379640Y109731D01*
X379630Y109748D01*
X379626Y109768D01*
X379573Y109857D01*
X379524Y109948D01*
X379510Y109962D01*
X379500Y109979D01*
X379421Y110046D01*
X379346Y110118D01*
X379328Y110126D01*
X379313Y110139D01*
X379217Y110178D01*
X379123Y110221D01*
X379103Y110223D01*
X379085Y110231D01*
X378918Y110249D01*
X349476Y110249D01*
X349361Y110230D01*
X349245Y110213D01*
X349240Y110211D01*
X349233Y110210D01*
X349131Y110155D01*
X349026Y110102D01*
X349022Y110097D01*
X349016Y110094D01*
X348936Y110010D01*
X348854Y109926D01*
X348850Y109920D01*
X348847Y109916D01*
X348839Y109899D01*
X348773Y109779D01*
X347450Y106585D01*
X344215Y103350D01*
X339988Y101599D01*
X322412Y101599D01*
X318185Y103350D01*
X314950Y106585D01*
X313199Y110812D01*
X313199Y115388D01*
X314950Y119615D01*
X318185Y122850D01*
X322412Y124601D01*
X339988Y124601D01*
X344215Y122850D01*
X347450Y119615D01*
X349234Y115306D01*
X349240Y115269D01*
X349250Y115252D01*
X349254Y115232D01*
X349307Y115143D01*
X349356Y115052D01*
X349370Y115038D01*
X349380Y115021D01*
X349459Y114954D01*
X349534Y114882D01*
X349552Y114874D01*
X349567Y114861D01*
X349663Y114822D01*
X349757Y114779D01*
X349777Y114777D01*
X349795Y114769D01*
X349962Y114751D01*
X378918Y114751D01*
X378938Y114754D01*
X378957Y114752D01*
X379059Y114774D01*
X379161Y114790D01*
X379178Y114800D01*
X379198Y114804D01*
X379287Y114857D01*
X379378Y114906D01*
X379392Y114920D01*
X379409Y114930D01*
X379476Y115009D01*
X379548Y115084D01*
X379556Y115102D01*
X379569Y115117D01*
X379608Y115213D01*
X379651Y115307D01*
X379653Y115327D01*
X379661Y115345D01*
X379679Y115512D01*
X379679Y119728D01*
X386613Y126662D01*
X386625Y126678D01*
X386641Y126690D01*
X386697Y126778D01*
X386757Y126861D01*
X386763Y126880D01*
X386774Y126897D01*
X386799Y126998D01*
X386829Y127097D01*
X386829Y127116D01*
X386834Y127136D01*
X386826Y127239D01*
X386823Y127342D01*
X386816Y127361D01*
X386814Y127381D01*
X386774Y127476D01*
X386738Y127573D01*
X386726Y127589D01*
X386718Y127607D01*
X386613Y127738D01*
X379679Y134672D01*
X379679Y134988D01*
X379678Y134996D01*
X379678Y134998D01*
X379676Y135008D01*
X379678Y135027D01*
X379656Y135129D01*
X379640Y135231D01*
X379630Y135248D01*
X379626Y135268D01*
X379573Y135357D01*
X379524Y135448D01*
X379510Y135462D01*
X379500Y135479D01*
X379421Y135546D01*
X379346Y135618D01*
X379328Y135626D01*
X379313Y135639D01*
X379217Y135678D01*
X379123Y135721D01*
X379103Y135723D01*
X379085Y135731D01*
X378918Y135749D01*
X349518Y135749D01*
X349403Y135730D01*
X349287Y135713D01*
X349281Y135711D01*
X349275Y135710D01*
X349172Y135655D01*
X349067Y135602D01*
X349063Y135597D01*
X349057Y135594D01*
X348978Y135510D01*
X348895Y135426D01*
X348891Y135420D01*
X348888Y135416D01*
X348880Y135399D01*
X348814Y135279D01*
X347450Y131985D01*
X344215Y128750D01*
X339988Y126999D01*
X322412Y126999D01*
X318185Y128750D01*
X314950Y131985D01*
X313199Y136212D01*
X313199Y140788D01*
X314950Y145015D01*
X318185Y148250D01*
X322412Y150001D01*
X339988Y150001D01*
X344215Y148250D01*
X347450Y145015D01*
X349228Y140721D01*
X349290Y140621D01*
X349350Y140521D01*
X349355Y140517D01*
X349358Y140512D01*
X349448Y140437D01*
X349537Y140361D01*
X349543Y140359D01*
X349548Y140355D01*
X349656Y140313D01*
X349765Y140269D01*
X349773Y140268D01*
X349777Y140267D01*
X349795Y140266D01*
X349932Y140251D01*
X378918Y140251D01*
X378938Y140254D01*
X378957Y140252D01*
X379059Y140274D01*
X379161Y140290D01*
X379178Y140300D01*
X379198Y140304D01*
X379287Y140357D01*
X379378Y140406D01*
X379392Y140420D01*
X379409Y140430D01*
X379476Y140509D01*
X379548Y140584D01*
X379556Y140602D01*
X379569Y140617D01*
X379608Y140713D01*
X379651Y140807D01*
X379653Y140827D01*
X379661Y140845D01*
X379679Y141012D01*
X379679Y145128D01*
X386613Y152062D01*
X386625Y152078D01*
X386641Y152090D01*
X386697Y152178D01*
X386757Y152261D01*
X386763Y152280D01*
X386774Y152297D01*
X386799Y152398D01*
X386829Y152497D01*
X386829Y152516D01*
X386834Y152536D01*
X386826Y152639D01*
X386823Y152742D01*
X386816Y152761D01*
X386814Y152781D01*
X386774Y152876D01*
X386738Y152973D01*
X386726Y152989D01*
X386718Y153007D01*
X386613Y153138D01*
X379679Y160072D01*
X379679Y160488D01*
X379676Y160508D01*
X379678Y160527D01*
X379656Y160629D01*
X379640Y160731D01*
X379630Y160748D01*
X379626Y160768D01*
X379573Y160857D01*
X379524Y160948D01*
X379510Y160962D01*
X379500Y160979D01*
X379421Y161046D01*
X379346Y161118D01*
X379328Y161126D01*
X379313Y161139D01*
X379217Y161178D01*
X379123Y161221D01*
X379103Y161223D01*
X379085Y161231D01*
X378918Y161249D01*
X349559Y161249D01*
X349444Y161230D01*
X349328Y161213D01*
X349322Y161211D01*
X349316Y161210D01*
X349214Y161155D01*
X349109Y161102D01*
X349104Y161097D01*
X349099Y161094D01*
X349019Y161010D01*
X348937Y160926D01*
X348933Y160920D01*
X348929Y160916D01*
X348922Y160899D01*
X348856Y160779D01*
X347450Y157385D01*
X344215Y154150D01*
X339988Y152399D01*
X322412Y152399D01*
X318185Y154150D01*
X314950Y157385D01*
X313199Y161612D01*
X313199Y166188D01*
X314950Y170415D01*
X318185Y173650D01*
X322412Y175401D01*
X339988Y175401D01*
X344215Y173650D01*
X347450Y170415D01*
X349187Y166221D01*
X349249Y166121D01*
X349309Y166021D01*
X349313Y166017D01*
X349317Y166012D01*
X349406Y165937D01*
X349495Y165861D01*
X349501Y165859D01*
X349506Y165855D01*
X349614Y165813D01*
X349724Y165769D01*
X349731Y165768D01*
X349736Y165767D01*
X349754Y165766D01*
X349890Y165751D01*
X378918Y165751D01*
X378938Y165754D01*
X378957Y165752D01*
X379059Y165774D01*
X379161Y165790D01*
X379178Y165800D01*
X379198Y165804D01*
X379287Y165857D01*
X379378Y165906D01*
X379392Y165920D01*
X379409Y165930D01*
X379476Y166009D01*
X379548Y166084D01*
X379556Y166102D01*
X379569Y166117D01*
X379608Y166213D01*
X379651Y166307D01*
X379653Y166327D01*
X379661Y166345D01*
X379679Y166512D01*
X379679Y170528D01*
X386613Y177462D01*
X386625Y177478D01*
X386641Y177490D01*
X386697Y177578D01*
X386757Y177661D01*
X386763Y177680D01*
X386774Y177697D01*
X386799Y177798D01*
X386829Y177897D01*
X386829Y177916D01*
X386834Y177936D01*
X386826Y178039D01*
X386823Y178142D01*
X386816Y178161D01*
X386814Y178181D01*
X386774Y178276D01*
X386738Y178373D01*
X386726Y178389D01*
X386718Y178407D01*
X386613Y178538D01*
X379679Y185472D01*
X379679Y186738D01*
X379677Y186752D01*
X379678Y186763D01*
X379677Y186768D01*
X379678Y186777D01*
X379656Y186879D01*
X379640Y186981D01*
X379630Y186998D01*
X379626Y187018D01*
X379573Y187107D01*
X379524Y187198D01*
X379510Y187212D01*
X379500Y187229D01*
X379421Y187296D01*
X379346Y187368D01*
X379328Y187376D01*
X379313Y187389D01*
X379217Y187428D01*
X379123Y187471D01*
X379103Y187473D01*
X379085Y187481D01*
X378918Y187499D01*
X349911Y187499D01*
X349796Y187480D01*
X349680Y187463D01*
X349675Y187461D01*
X349668Y187460D01*
X349566Y187405D01*
X349461Y187352D01*
X349456Y187347D01*
X349451Y187344D01*
X349371Y187260D01*
X349289Y187176D01*
X349285Y187170D01*
X349282Y187166D01*
X349274Y187149D01*
X349208Y187029D01*
X347450Y182785D01*
X344215Y179550D01*
X339988Y177799D01*
X322412Y177799D01*
X318185Y179550D01*
X314950Y182785D01*
X313199Y187012D01*
X313199Y191588D01*
X314950Y195815D01*
X318185Y199050D01*
X322412Y200801D01*
X339988Y200801D01*
X344215Y199050D01*
X347450Y195815D01*
X348835Y192471D01*
X348896Y192371D01*
X348956Y192271D01*
X348961Y192267D01*
X348965Y192262D01*
X349054Y192187D01*
X349143Y192111D01*
X349149Y192109D01*
X349154Y192105D01*
X349262Y192063D01*
X349372Y192019D01*
X349379Y192018D01*
X349384Y192017D01*
X349402Y192016D01*
X349538Y192001D01*
X378918Y192001D01*
X378938Y192004D01*
X378957Y192002D01*
X379059Y192024D01*
X379161Y192040D01*
X379178Y192050D01*
X379198Y192054D01*
X379287Y192107D01*
X379378Y192156D01*
X379392Y192170D01*
X379409Y192180D01*
X379476Y192259D01*
X379548Y192334D01*
X379556Y192352D01*
X379569Y192367D01*
X379608Y192463D01*
X379651Y192557D01*
X379653Y192577D01*
X379661Y192595D01*
X379679Y192762D01*
X379679Y195928D01*
X386613Y202862D01*
X386625Y202878D01*
X386641Y202890D01*
X386697Y202978D01*
X386757Y203061D01*
X386763Y203080D01*
X386774Y203097D01*
X386799Y203198D01*
X386829Y203297D01*
X386829Y203316D01*
X386834Y203336D01*
X386826Y203439D01*
X386823Y203542D01*
X386816Y203561D01*
X386814Y203581D01*
X386774Y203676D01*
X386738Y203773D01*
X386726Y203789D01*
X386718Y203807D01*
X386613Y203938D01*
X379679Y210872D01*
X379679Y212238D01*
X379676Y212258D01*
X379678Y212277D01*
X379656Y212379D01*
X379640Y212481D01*
X379630Y212498D01*
X379626Y212518D01*
X379573Y212607D01*
X379524Y212698D01*
X379510Y212712D01*
X379500Y212729D01*
X379421Y212796D01*
X379346Y212868D01*
X379328Y212876D01*
X379313Y212889D01*
X379217Y212928D01*
X379123Y212971D01*
X379103Y212973D01*
X379085Y212981D01*
X378918Y212999D01*
X349952Y212999D01*
X349838Y212980D01*
X349722Y212963D01*
X349716Y212961D01*
X349710Y212960D01*
X349607Y212905D01*
X349502Y212852D01*
X349498Y212847D01*
X349492Y212844D01*
X349413Y212760D01*
X349330Y212676D01*
X349326Y212670D01*
X349323Y212666D01*
X349315Y212649D01*
X349249Y212529D01*
X347450Y208185D01*
X344215Y204950D01*
X339988Y203199D01*
X322412Y203199D01*
X318185Y204950D01*
X314950Y208185D01*
X313199Y212412D01*
X313199Y216988D01*
X314950Y221215D01*
X318185Y224450D01*
X322412Y226201D01*
X339988Y226201D01*
X344215Y224450D01*
X347450Y221215D01*
X348794Y217971D01*
X348855Y217871D01*
X348915Y217771D01*
X348920Y217767D01*
X348923Y217762D01*
X349013Y217687D01*
X349102Y217611D01*
X349108Y217609D01*
X349113Y217605D01*
X349221Y217563D01*
X349330Y217519D01*
X349338Y217518D01*
X349342Y217517D01*
X349361Y217516D01*
X349497Y217501D01*
X378918Y217501D01*
X378938Y217504D01*
X378957Y217502D01*
X379059Y217524D01*
X379161Y217540D01*
X379178Y217550D01*
X379198Y217554D01*
X379287Y217607D01*
X379378Y217656D01*
X379392Y217670D01*
X379409Y217680D01*
X379476Y217759D01*
X379548Y217834D01*
X379556Y217852D01*
X379569Y217867D01*
X379608Y217963D01*
X379651Y218057D01*
X379653Y218077D01*
X379661Y218095D01*
X379679Y218262D01*
X379679Y221328D01*
X386613Y228262D01*
X386625Y228278D01*
X386641Y228290D01*
X386697Y228378D01*
X386757Y228461D01*
X386763Y228480D01*
X386774Y228497D01*
X386799Y228598D01*
X386829Y228697D01*
X386829Y228716D01*
X386834Y228736D01*
X386826Y228839D01*
X386823Y228942D01*
X386816Y228961D01*
X386814Y228981D01*
X386774Y229076D01*
X386738Y229173D01*
X386726Y229189D01*
X386718Y229207D01*
X386613Y229338D01*
X379679Y236272D01*
X379679Y237738D01*
X379677Y237753D01*
X379678Y237766D01*
X379677Y237770D01*
X379678Y237777D01*
X379656Y237879D01*
X379640Y237981D01*
X379630Y237998D01*
X379626Y238018D01*
X379573Y238107D01*
X379524Y238198D01*
X379510Y238212D01*
X379500Y238229D01*
X379421Y238296D01*
X379346Y238368D01*
X379328Y238376D01*
X379313Y238389D01*
X379217Y238428D01*
X379123Y238471D01*
X379103Y238473D01*
X379085Y238481D01*
X378918Y238499D01*
X349962Y238499D01*
X349942Y238496D01*
X349923Y238498D01*
X349821Y238476D01*
X349719Y238460D01*
X349702Y238450D01*
X349682Y238446D01*
X349593Y238393D01*
X349502Y238344D01*
X349488Y238330D01*
X349471Y238320D01*
X349404Y238241D01*
X349332Y238166D01*
X349324Y238148D01*
X349311Y238133D01*
X349272Y238037D01*
X349229Y237943D01*
X349227Y237923D01*
X349219Y237905D01*
X349212Y237840D01*
X347450Y233585D01*
X344215Y230350D01*
X339988Y228599D01*
X322412Y228599D01*
X318185Y230350D01*
X314950Y233585D01*
X313199Y237812D01*
X313199Y242388D01*
X314950Y246615D01*
X318185Y249850D01*
X322412Y251601D01*
X339988Y251601D01*
X344215Y249850D01*
X347450Y246615D01*
X348752Y243471D01*
X348814Y243371D01*
X348874Y243271D01*
X348878Y243267D01*
X348882Y243262D01*
X348971Y243187D01*
X349061Y243111D01*
X349066Y243109D01*
X349071Y243105D01*
X349179Y243063D01*
X349289Y243019D01*
X349296Y243018D01*
X349301Y243017D01*
X349319Y243016D01*
X349455Y243001D01*
X378918Y243001D01*
X378938Y243004D01*
X378957Y243002D01*
X379059Y243024D01*
X379161Y243040D01*
X379178Y243050D01*
X379198Y243054D01*
X379287Y243107D01*
X379378Y243156D01*
X379392Y243170D01*
X379409Y243180D01*
X379476Y243259D01*
X379548Y243334D01*
X379556Y243352D01*
X379569Y243367D01*
X379608Y243463D01*
X379651Y243557D01*
X379653Y243577D01*
X379661Y243595D01*
X379679Y243762D01*
X379679Y246728D01*
X386613Y253662D01*
X386625Y253678D01*
X386641Y253690D01*
X386697Y253778D01*
X386757Y253861D01*
X386763Y253880D01*
X386774Y253897D01*
X386799Y253998D01*
X386829Y254097D01*
X386829Y254116D01*
X386834Y254136D01*
X386826Y254239D01*
X386823Y254342D01*
X386816Y254361D01*
X386814Y254381D01*
X386774Y254476D01*
X386738Y254573D01*
X386726Y254589D01*
X386718Y254607D01*
X386613Y254738D01*
X379679Y261672D01*
X379679Y262488D01*
X379676Y262508D01*
X379678Y262527D01*
X379656Y262629D01*
X379640Y262731D01*
X379630Y262748D01*
X379626Y262768D01*
X379573Y262857D01*
X379524Y262948D01*
X379510Y262962D01*
X379500Y262979D01*
X379421Y263046D01*
X379346Y263118D01*
X379328Y263126D01*
X379313Y263139D01*
X379217Y263178D01*
X379123Y263221D01*
X379103Y263223D01*
X379085Y263231D01*
X378918Y263249D01*
X349725Y263249D01*
X349610Y263230D01*
X349494Y263213D01*
X349488Y263211D01*
X349482Y263210D01*
X349379Y263155D01*
X349274Y263102D01*
X349270Y263097D01*
X349265Y263094D01*
X349185Y263010D01*
X349102Y262926D01*
X349099Y262920D01*
X349095Y262916D01*
X349087Y262899D01*
X349021Y262779D01*
X347450Y258985D01*
X344215Y255750D01*
X339988Y253999D01*
X322412Y253999D01*
X318185Y255750D01*
X314950Y258985D01*
X313199Y263212D01*
X313199Y267788D01*
X314950Y272015D01*
X318185Y275250D01*
X322412Y277001D01*
X339988Y277001D01*
X344215Y275250D01*
X347450Y272015D01*
X349021Y268221D01*
X349083Y268121D01*
X349143Y268021D01*
X349148Y268017D01*
X349151Y268012D01*
X349241Y267937D01*
X349330Y267861D01*
X349336Y267859D01*
X349340Y267855D01*
X349449Y267813D01*
X349558Y267769D01*
X349566Y267768D01*
X349570Y267767D01*
X349588Y267766D01*
X349725Y267751D01*
X378918Y267751D01*
X378938Y267754D01*
X378957Y267752D01*
X379059Y267774D01*
X379161Y267790D01*
X379178Y267800D01*
X379198Y267804D01*
X379287Y267857D01*
X379378Y267906D01*
X379392Y267920D01*
X379409Y267930D01*
X379476Y268009D01*
X379548Y268084D01*
X379556Y268102D01*
X379569Y268117D01*
X379608Y268213D01*
X379651Y268307D01*
X379653Y268327D01*
X379661Y268345D01*
X379679Y268512D01*
X379679Y272128D01*
X386613Y279062D01*
X386625Y279078D01*
X386641Y279090D01*
X386669Y279135D01*
X386700Y279168D01*
X386720Y279210D01*
X386757Y279261D01*
X386763Y279280D01*
X386774Y279297D01*
X386789Y279358D01*
X386804Y279391D01*
X386808Y279428D01*
X386829Y279497D01*
X386829Y279516D01*
X386834Y279536D01*
X386828Y279608D01*
X386831Y279635D01*
X386825Y279663D01*
X386823Y279742D01*
X386816Y279761D01*
X386814Y279781D01*
X386784Y279854D01*
X386779Y279876D01*
X386767Y279895D01*
X386738Y279973D01*
X386726Y279989D01*
X386718Y280007D01*
X386613Y280138D01*
X379679Y287072D01*
X379679Y287238D01*
X379678Y287246D01*
X379678Y287248D01*
X379676Y287258D01*
X379678Y287277D01*
X379656Y287379D01*
X379640Y287481D01*
X379630Y287498D01*
X379626Y287518D01*
X379573Y287607D01*
X379524Y287698D01*
X379510Y287712D01*
X379500Y287729D01*
X379421Y287796D01*
X379346Y287868D01*
X379328Y287876D01*
X379313Y287889D01*
X379217Y287928D01*
X379123Y287971D01*
X379103Y287973D01*
X379085Y287981D01*
X378918Y287999D01*
X349455Y287999D01*
X349341Y287980D01*
X349224Y287963D01*
X349219Y287961D01*
X349213Y287960D01*
X349110Y287905D01*
X349005Y287852D01*
X349001Y287847D01*
X348995Y287844D01*
X348915Y287760D01*
X348833Y287676D01*
X348829Y287670D01*
X348826Y287666D01*
X348818Y287649D01*
X348752Y287529D01*
X347450Y284385D01*
X344215Y281150D01*
X339988Y279399D01*
X322412Y279399D01*
X318185Y281150D01*
X314950Y284385D01*
X313199Y288612D01*
X313199Y293188D01*
X314950Y297415D01*
X318185Y300650D01*
X322412Y302401D01*
X339988Y302401D01*
X344215Y300650D01*
X347450Y297415D01*
X349219Y293144D01*
X349224Y293121D01*
X349240Y293019D01*
X349250Y293002D01*
X349254Y292982D01*
X349307Y292893D01*
X349356Y292802D01*
X349370Y292788D01*
X349380Y292771D01*
X349459Y292704D01*
X349534Y292632D01*
X349552Y292624D01*
X349567Y292611D01*
X349663Y292572D01*
X349757Y292529D01*
X349777Y292527D01*
X349795Y292519D01*
X349962Y292501D01*
X378918Y292501D01*
X378938Y292504D01*
X378957Y292502D01*
X379059Y292524D01*
X379161Y292540D01*
X379178Y292550D01*
X379198Y292554D01*
X379287Y292607D01*
X379378Y292656D01*
X379392Y292670D01*
X379409Y292680D01*
X379476Y292759D01*
X379548Y292834D01*
X379556Y292852D01*
X379569Y292867D01*
X379608Y292963D01*
X379651Y293057D01*
X379653Y293077D01*
X379661Y293095D01*
X379679Y293262D01*
X379679Y297528D01*
X386613Y304462D01*
X386625Y304478D01*
X386641Y304490D01*
X386697Y304578D01*
X386757Y304661D01*
X386763Y304680D01*
X386774Y304697D01*
X386799Y304798D01*
X386829Y304897D01*
X386829Y304916D01*
X386834Y304936D01*
X386826Y305039D01*
X386823Y305142D01*
X386816Y305161D01*
X386814Y305181D01*
X386774Y305276D01*
X386738Y305373D01*
X386726Y305389D01*
X386718Y305407D01*
X386613Y305538D01*
X379679Y312472D01*
X379679Y312738D01*
X379676Y312758D01*
X379678Y312777D01*
X379656Y312879D01*
X379640Y312981D01*
X379630Y312998D01*
X379626Y313018D01*
X379573Y313107D01*
X379524Y313198D01*
X379510Y313212D01*
X379500Y313229D01*
X379421Y313296D01*
X379346Y313368D01*
X379328Y313376D01*
X379313Y313389D01*
X379217Y313428D01*
X379123Y313471D01*
X379103Y313473D01*
X379085Y313481D01*
X378918Y313499D01*
X349497Y313499D01*
X349382Y313480D01*
X349266Y313463D01*
X349260Y313461D01*
X349254Y313460D01*
X349151Y313405D01*
X349047Y313352D01*
X349042Y313347D01*
X349037Y313344D01*
X348957Y313260D01*
X348874Y313176D01*
X348871Y313170D01*
X348867Y313166D01*
X348860Y313149D01*
X348794Y313029D01*
X347450Y309785D01*
X344215Y306550D01*
X339988Y304799D01*
X322412Y304799D01*
X318185Y306550D01*
X314950Y309785D01*
X313199Y314012D01*
X313199Y318588D01*
X314950Y322815D01*
X318185Y326050D01*
X322412Y327801D01*
X339988Y327801D01*
X344215Y326050D01*
X347450Y322815D01*
X349249Y318471D01*
X349311Y318371D01*
X349371Y318271D01*
X349375Y318267D01*
X349379Y318262D01*
X349468Y318187D01*
X349558Y318111D01*
X349563Y318109D01*
X349568Y318105D01*
X349676Y318063D01*
X349786Y318019D01*
X349793Y318018D01*
X349798Y318017D01*
X349816Y318016D01*
X349952Y318001D01*
X378918Y318001D01*
X378938Y318004D01*
X378957Y318002D01*
X379059Y318024D01*
X379161Y318040D01*
X379178Y318050D01*
X379198Y318054D01*
X379287Y318107D01*
X379378Y318156D01*
X379392Y318170D01*
X379409Y318180D01*
X379476Y318259D01*
X379548Y318334D01*
X379556Y318352D01*
X379569Y318367D01*
X379608Y318463D01*
X379651Y318557D01*
X379653Y318577D01*
X379661Y318595D01*
X379679Y318762D01*
X379679Y322928D01*
X386613Y329862D01*
X386625Y329878D01*
X386641Y329890D01*
X386697Y329978D01*
X386757Y330061D01*
X386763Y330080D01*
X386774Y330097D01*
X386799Y330198D01*
X386829Y330297D01*
X386829Y330316D01*
X386834Y330336D01*
X386826Y330439D01*
X386823Y330542D01*
X386816Y330561D01*
X386814Y330581D01*
X386774Y330676D01*
X386738Y330773D01*
X386726Y330789D01*
X386718Y330807D01*
X386613Y330938D01*
X379679Y337872D01*
X379679Y338238D01*
X379678Y338247D01*
X379678Y338251D01*
X379676Y338260D01*
X379678Y338277D01*
X379656Y338379D01*
X379640Y338481D01*
X379630Y338498D01*
X379626Y338518D01*
X379573Y338607D01*
X379524Y338698D01*
X379510Y338712D01*
X379500Y338729D01*
X379421Y338796D01*
X379346Y338868D01*
X379328Y338876D01*
X379313Y338889D01*
X379217Y338928D01*
X379123Y338971D01*
X379103Y338973D01*
X379085Y338981D01*
X378918Y338999D01*
X349538Y338999D01*
X349423Y338980D01*
X349307Y338963D01*
X349302Y338961D01*
X349296Y338960D01*
X349193Y338905D01*
X349088Y338852D01*
X349084Y338847D01*
X349078Y338844D01*
X348998Y338760D01*
X348916Y338676D01*
X348912Y338670D01*
X348909Y338666D01*
X348901Y338649D01*
X348835Y338529D01*
X347450Y335185D01*
X344215Y331950D01*
X339988Y330199D01*
X322412Y330199D01*
X318185Y331950D01*
X314950Y335185D01*
X313199Y339412D01*
X313199Y343988D01*
X314950Y348215D01*
X318185Y351450D01*
X322412Y353201D01*
X339988Y353201D01*
X344215Y351450D01*
X347450Y348215D01*
X349208Y343971D01*
X349269Y343871D01*
X349329Y343771D01*
X349334Y343767D01*
X349337Y343762D01*
X349427Y343687D01*
X349516Y343611D01*
X349522Y343609D01*
X349527Y343605D01*
X349635Y343563D01*
X349744Y343519D01*
X349752Y343518D01*
X349756Y343517D01*
X349775Y343516D01*
X349911Y343501D01*
X378918Y343501D01*
X378938Y343504D01*
X378957Y343502D01*
X379059Y343524D01*
X379161Y343540D01*
X379178Y343550D01*
X379198Y343554D01*
X379287Y343607D01*
X379378Y343656D01*
X379392Y343670D01*
X379409Y343680D01*
X379476Y343759D01*
X379548Y343834D01*
X379556Y343852D01*
X379569Y343867D01*
X379608Y343963D01*
X379651Y344057D01*
X379653Y344077D01*
X379661Y344095D01*
X379679Y344262D01*
X379679Y348328D01*
X386613Y355262D01*
X386625Y355278D01*
X386641Y355290D01*
X386697Y355378D01*
X386757Y355461D01*
X386763Y355480D01*
X386774Y355497D01*
X386799Y355598D01*
X386829Y355697D01*
X386829Y355716D01*
X386834Y355736D01*
X386826Y355839D01*
X386823Y355942D01*
X386816Y355961D01*
X386814Y355981D01*
X386774Y356076D01*
X386738Y356173D01*
X386726Y356189D01*
X386718Y356207D01*
X386613Y356338D01*
X379679Y363272D01*
X379679Y364488D01*
X379676Y364508D01*
X379678Y364527D01*
X379656Y364629D01*
X379640Y364731D01*
X379630Y364748D01*
X379626Y364768D01*
X379573Y364857D01*
X379524Y364948D01*
X379510Y364962D01*
X379500Y364979D01*
X379421Y365046D01*
X379346Y365118D01*
X379328Y365126D01*
X379313Y365139D01*
X379217Y365178D01*
X379123Y365221D01*
X379103Y365223D01*
X379085Y365231D01*
X378918Y365249D01*
X349890Y365249D01*
X349776Y365230D01*
X349659Y365213D01*
X349654Y365211D01*
X349648Y365210D01*
X349545Y365155D01*
X349440Y365102D01*
X349436Y365097D01*
X349430Y365094D01*
X349350Y365010D01*
X349268Y364926D01*
X349264Y364920D01*
X349261Y364916D01*
X349253Y364899D01*
X349187Y364779D01*
X347450Y360585D01*
X344215Y357350D01*
X339988Y355599D01*
X322412Y355599D01*
X318185Y357350D01*
X314950Y360585D01*
X313199Y364812D01*
X313199Y369388D01*
X314950Y373615D01*
X318185Y376850D01*
X322412Y378601D01*
X339988Y378601D01*
X344215Y376850D01*
X347450Y373615D01*
X348856Y370221D01*
X348918Y370121D01*
X348977Y370021D01*
X348982Y370017D01*
X348985Y370012D01*
X349075Y369937D01*
X349164Y369861D01*
X349170Y369859D01*
X349175Y369855D01*
X349283Y369813D01*
X349392Y369769D01*
X349400Y369768D01*
X349404Y369767D01*
X349423Y369766D01*
X349559Y369751D01*
X378918Y369751D01*
X378938Y369754D01*
X378957Y369752D01*
X379059Y369774D01*
X379161Y369790D01*
X379178Y369800D01*
X379198Y369804D01*
X379287Y369857D01*
X379378Y369906D01*
X379392Y369920D01*
X379409Y369930D01*
X379476Y370009D01*
X379548Y370084D01*
X379556Y370102D01*
X379569Y370117D01*
X379608Y370213D01*
X379651Y370307D01*
X379653Y370327D01*
X379661Y370345D01*
X379679Y370512D01*
X379679Y373728D01*
X386613Y380662D01*
X386625Y380678D01*
X386641Y380690D01*
X386697Y380778D01*
X386757Y380861D01*
X386763Y380880D01*
X386774Y380897D01*
X386799Y380998D01*
X386829Y381097D01*
X386829Y381116D01*
X386834Y381136D01*
X386826Y381239D01*
X386823Y381342D01*
X386816Y381361D01*
X386814Y381381D01*
X386774Y381476D01*
X386738Y381573D01*
X386726Y381589D01*
X386718Y381607D01*
X386613Y381738D01*
X379679Y388672D01*
X379679Y389988D01*
X379677Y390003D01*
X379678Y390016D01*
X379677Y390020D01*
X379678Y390027D01*
X379656Y390129D01*
X379640Y390231D01*
X379630Y390248D01*
X379626Y390268D01*
X379573Y390357D01*
X379524Y390448D01*
X379510Y390462D01*
X379500Y390479D01*
X379421Y390546D01*
X379346Y390618D01*
X379328Y390626D01*
X379313Y390639D01*
X379217Y390678D01*
X379123Y390721D01*
X379103Y390723D01*
X379085Y390731D01*
X378918Y390749D01*
X349932Y390749D01*
X349817Y390730D01*
X349701Y390713D01*
X349695Y390711D01*
X349689Y390710D01*
X349586Y390655D01*
X349482Y390602D01*
X349477Y390597D01*
X349472Y390594D01*
X349392Y390510D01*
X349309Y390426D01*
X349306Y390420D01*
X349302Y390416D01*
X349294Y390399D01*
X349228Y390279D01*
X347450Y385985D01*
X344215Y382750D01*
X339988Y380999D01*
X322412Y380999D01*
X318185Y382750D01*
X314950Y385985D01*
X313199Y390212D01*
X313199Y394788D01*
X314950Y399015D01*
X318185Y402250D01*
X322412Y404001D01*
X339988Y404001D01*
X344215Y402250D01*
X347450Y399015D01*
X348814Y395721D01*
X348876Y395621D01*
X348936Y395521D01*
X348941Y395517D01*
X348944Y395512D01*
X349034Y395437D01*
X349123Y395361D01*
X349129Y395359D01*
X349133Y395355D01*
X349242Y395313D01*
X349351Y395269D01*
X349358Y395268D01*
X349363Y395267D01*
X349381Y395266D01*
X349518Y395251D01*
X378918Y395251D01*
X378938Y395254D01*
X378957Y395252D01*
X379059Y395274D01*
X379161Y395290D01*
X379178Y395300D01*
X379198Y395304D01*
X379287Y395357D01*
X379378Y395406D01*
X379392Y395420D01*
X379409Y395430D01*
X379476Y395509D01*
X379548Y395584D01*
X379556Y395602D01*
X379569Y395617D01*
X379608Y395713D01*
X379651Y395807D01*
X379653Y395827D01*
X379661Y395845D01*
X379679Y396012D01*
X379679Y399128D01*
X386613Y406062D01*
X386625Y406078D01*
X386641Y406090D01*
X386697Y406178D01*
X386757Y406261D01*
X386763Y406280D01*
X386774Y406297D01*
X386799Y406398D01*
X386829Y406497D01*
X386829Y406516D01*
X386834Y406536D01*
X386826Y406639D01*
X386823Y406742D01*
X386816Y406761D01*
X386814Y406781D01*
X386774Y406876D01*
X386738Y406973D01*
X386726Y406989D01*
X386718Y407007D01*
X386613Y407138D01*
X379679Y414072D01*
X379679Y415488D01*
X379676Y415508D01*
X379678Y415527D01*
X379656Y415629D01*
X379640Y415731D01*
X379630Y415748D01*
X379626Y415768D01*
X379573Y415857D01*
X379524Y415948D01*
X379510Y415962D01*
X379500Y415979D01*
X379421Y416046D01*
X379346Y416118D01*
X379328Y416126D01*
X379313Y416139D01*
X379217Y416178D01*
X379123Y416221D01*
X379103Y416223D01*
X379085Y416231D01*
X378918Y416249D01*
X349962Y416249D01*
X349942Y416246D01*
X349923Y416248D01*
X349821Y416226D01*
X349719Y416210D01*
X349702Y416200D01*
X349682Y416196D01*
X349593Y416143D01*
X349502Y416094D01*
X349488Y416080D01*
X349471Y416070D01*
X349404Y415991D01*
X349332Y415916D01*
X349324Y415898D01*
X349311Y415883D01*
X349272Y415787D01*
X349229Y415693D01*
X349227Y415676D01*
X347450Y411385D01*
X344215Y408150D01*
X339988Y406399D01*
X322412Y406399D01*
X318185Y408150D01*
X314950Y411385D01*
X313199Y415612D01*
X313199Y420188D01*
X314950Y424415D01*
X318185Y427650D01*
X322412Y429401D01*
X339988Y429401D01*
X344215Y427650D01*
X347450Y424415D01*
X348773Y421221D01*
X348834Y421121D01*
X348894Y421021D01*
X348899Y421017D01*
X348902Y421012D01*
X348992Y420937D01*
X349081Y420861D01*
X349087Y420859D01*
X349092Y420855D01*
X349200Y420813D01*
X349309Y420769D01*
X349317Y420768D01*
X349322Y420767D01*
X349340Y420766D01*
X349476Y420751D01*
X378918Y420751D01*
X378938Y420754D01*
X378957Y420752D01*
X379059Y420774D01*
X379161Y420790D01*
X379178Y420800D01*
X379198Y420804D01*
X379287Y420857D01*
X379378Y420906D01*
X379392Y420920D01*
X379409Y420930D01*
X379476Y421009D01*
X379548Y421084D01*
X379556Y421102D01*
X379569Y421117D01*
X379608Y421213D01*
X379651Y421307D01*
X379653Y421327D01*
X379661Y421345D01*
X379679Y421512D01*
X379679Y424528D01*
X386613Y431462D01*
X386625Y431478D01*
X386641Y431490D01*
X386697Y431578D01*
X386757Y431661D01*
X386763Y431680D01*
X386774Y431697D01*
X386799Y431798D01*
X386829Y431897D01*
X386829Y431916D01*
X386834Y431936D01*
X386826Y432039D01*
X386823Y432142D01*
X386816Y432161D01*
X386814Y432181D01*
X386774Y432276D01*
X386738Y432373D01*
X386726Y432389D01*
X386718Y432407D01*
X386613Y432538D01*
X379679Y439472D01*
X379679Y440988D01*
X379677Y441005D01*
X379678Y441020D01*
X379678Y441023D01*
X379678Y441027D01*
X379656Y441129D01*
X379640Y441231D01*
X379630Y441248D01*
X379626Y441268D01*
X379573Y441357D01*
X379524Y441448D01*
X379510Y441462D01*
X379500Y441479D01*
X379421Y441546D01*
X379346Y441618D01*
X379328Y441626D01*
X379313Y441639D01*
X379217Y441678D01*
X379123Y441721D01*
X379103Y441723D01*
X379085Y441731D01*
X378918Y441749D01*
X349962Y441749D01*
X349942Y441746D01*
X349923Y441748D01*
X349821Y441726D01*
X349719Y441710D01*
X349702Y441700D01*
X349682Y441696D01*
X349593Y441643D01*
X349502Y441594D01*
X349488Y441580D01*
X349471Y441570D01*
X349404Y441491D01*
X349332Y441416D01*
X349324Y441398D01*
X349311Y441383D01*
X349272Y441287D01*
X349229Y441193D01*
X349227Y441173D01*
X349219Y441155D01*
X349204Y441021D01*
X347450Y436785D01*
X344215Y433550D01*
X339988Y431799D01*
X322412Y431799D01*
X318185Y433550D01*
X314950Y436785D01*
X313199Y441012D01*
X313199Y445588D01*
X314950Y449815D01*
X318185Y453050D01*
X322412Y454801D01*
X339988Y454801D01*
X344215Y453050D01*
X347450Y449815D01*
X348731Y446721D01*
X348793Y446621D01*
X348853Y446521D01*
X348858Y446517D01*
X348861Y446512D01*
X348951Y446437D01*
X349040Y446361D01*
X349046Y446359D01*
X349050Y446355D01*
X349159Y446313D01*
X349268Y446269D01*
X349276Y446268D01*
X349280Y446267D01*
X349298Y446266D01*
X349435Y446251D01*
X378918Y446251D01*
X378938Y446254D01*
X378957Y446252D01*
X379059Y446274D01*
X379161Y446290D01*
X379178Y446300D01*
X379198Y446304D01*
X379287Y446357D01*
X379378Y446406D01*
X379392Y446420D01*
X379409Y446430D01*
X379476Y446509D01*
X379548Y446584D01*
X379556Y446602D01*
X379569Y446617D01*
X379608Y446713D01*
X379651Y446807D01*
X379653Y446827D01*
X379661Y446845D01*
X379679Y447012D01*
X379679Y449928D01*
X386613Y456862D01*
X386625Y456878D01*
X386641Y456890D01*
X386697Y456978D01*
X386757Y457061D01*
X386763Y457080D01*
X386774Y457097D01*
X386799Y457198D01*
X386829Y457297D01*
X386829Y457316D01*
X386834Y457336D01*
X386826Y457439D01*
X386823Y457542D01*
X386816Y457561D01*
X386814Y457581D01*
X386774Y457676D01*
X386738Y457773D01*
X386726Y457789D01*
X386718Y457807D01*
X386613Y457938D01*
X379679Y464872D01*
X379679Y464988D01*
X379676Y465008D01*
X379678Y465027D01*
X379656Y465129D01*
X379640Y465231D01*
X379630Y465248D01*
X379626Y465268D01*
X379573Y465357D01*
X379524Y465448D01*
X379510Y465462D01*
X379500Y465479D01*
X379421Y465546D01*
X379346Y465618D01*
X379328Y465626D01*
X379313Y465639D01*
X379217Y465678D01*
X379123Y465721D01*
X379103Y465723D01*
X379085Y465731D01*
X378918Y465749D01*
X349435Y465749D01*
X349320Y465730D01*
X349204Y465713D01*
X349198Y465711D01*
X349192Y465710D01*
X349089Y465655D01*
X348985Y465602D01*
X348980Y465597D01*
X348975Y465594D01*
X348895Y465510D01*
X348812Y465426D01*
X348809Y465420D01*
X348805Y465416D01*
X348797Y465399D01*
X348731Y465279D01*
X347450Y462185D01*
X344215Y458950D01*
X339988Y457199D01*
X322412Y457199D01*
X318185Y458950D01*
X314950Y462185D01*
X313199Y466412D01*
X313199Y470988D01*
X314950Y475215D01*
X318185Y478450D01*
X322412Y480201D01*
X339988Y480201D01*
X344215Y478450D01*
X347450Y475215D01*
X349203Y470982D01*
X349202Y470973D01*
X349224Y470871D01*
X349240Y470769D01*
X349250Y470752D01*
X349254Y470732D01*
X349307Y470643D01*
X349356Y470552D01*
X349370Y470538D01*
X349380Y470521D01*
X349459Y470454D01*
X349534Y470382D01*
X349552Y470374D01*
X349567Y470361D01*
X349663Y470322D01*
X349757Y470279D01*
X349777Y470277D01*
X349795Y470269D01*
X349962Y470251D01*
X378918Y470251D01*
X378938Y470254D01*
X378957Y470252D01*
X379059Y470274D01*
X379161Y470290D01*
X379178Y470300D01*
X379198Y470304D01*
X379287Y470357D01*
X379378Y470406D01*
X379392Y470420D01*
X379409Y470430D01*
X379476Y470509D01*
X379548Y470584D01*
X379556Y470602D01*
X379569Y470617D01*
X379608Y470713D01*
X379651Y470807D01*
X379653Y470827D01*
X379661Y470845D01*
X379679Y471012D01*
X379679Y475328D01*
X386613Y482262D01*
X386625Y482278D01*
X386641Y482290D01*
X386697Y482378D01*
X386757Y482461D01*
X386763Y482480D01*
X386774Y482497D01*
X386799Y482598D01*
X386829Y482697D01*
X386829Y482716D01*
X386834Y482736D01*
X386826Y482839D01*
X386823Y482942D01*
X386816Y482961D01*
X386814Y482981D01*
X386774Y483076D01*
X386738Y483173D01*
X386726Y483189D01*
X386718Y483207D01*
X386613Y483338D01*
X379679Y490272D01*
X379679Y490488D01*
X379678Y490497D01*
X379678Y490501D01*
X379676Y490510D01*
X379678Y490527D01*
X379656Y490629D01*
X379640Y490731D01*
X379630Y490748D01*
X379626Y490768D01*
X379573Y490857D01*
X379524Y490948D01*
X379510Y490962D01*
X379500Y490979D01*
X379421Y491046D01*
X379346Y491118D01*
X379328Y491126D01*
X379313Y491139D01*
X379217Y491178D01*
X379123Y491221D01*
X379103Y491223D01*
X379085Y491231D01*
X378918Y491249D01*
X349476Y491249D01*
X349361Y491230D01*
X349245Y491213D01*
X349240Y491211D01*
X349233Y491210D01*
X349131Y491155D01*
X349026Y491102D01*
X349022Y491097D01*
X349016Y491094D01*
X348936Y491010D01*
X348854Y490926D01*
X348850Y490920D01*
X348847Y490916D01*
X348839Y490899D01*
X348773Y490779D01*
X347450Y487585D01*
X344215Y484350D01*
X339988Y482599D01*
X322412Y482599D01*
X318185Y484350D01*
X314950Y487585D01*
X313199Y491812D01*
X313199Y496388D01*
X314950Y500615D01*
X318185Y503850D01*
X322412Y505601D01*
X339988Y505601D01*
X344215Y503850D01*
X347450Y500615D01*
X348649Y497721D01*
X348710Y497621D01*
X348770Y497521D01*
X348775Y497517D01*
X348778Y497512D01*
X348868Y497437D01*
X348957Y497361D01*
X348963Y497359D01*
X348968Y497355D01*
X349076Y497313D01*
X349185Y497269D01*
X349193Y497268D01*
X349197Y497267D01*
X349216Y497266D01*
X349352Y497251D01*
X368738Y497251D01*
X368758Y497254D01*
X368777Y497252D01*
X368879Y497274D01*
X368981Y497290D01*
X368998Y497300D01*
X369018Y497304D01*
X369107Y497357D01*
X369198Y497406D01*
X369212Y497420D01*
X369229Y497430D01*
X369296Y497509D01*
X369368Y497584D01*
X369376Y497602D01*
X369389Y497617D01*
X369428Y497713D01*
X369471Y497807D01*
X369473Y497827D01*
X369481Y497845D01*
X369499Y498012D01*
X369499Y553493D01*
X382507Y566501D01*
X429993Y566501D01*
X431974Y564520D01*
X467520Y528974D01*
X469501Y526993D01*
X469501Y356482D01*
X469504Y356462D01*
X469502Y356443D01*
X469524Y356341D01*
X469540Y356239D01*
X469550Y356222D01*
X469554Y356202D01*
X469607Y356113D01*
X469656Y356022D01*
X469670Y356008D01*
X469680Y355991D01*
X469759Y355924D01*
X469834Y355852D01*
X469852Y355844D01*
X469867Y355831D01*
X469963Y355792D01*
X470057Y355749D01*
X470077Y355747D01*
X470095Y355739D01*
X470262Y355721D01*
X472928Y355721D01*
X480321Y348328D01*
X480321Y337872D01*
X473387Y330938D01*
X473375Y330922D01*
X473359Y330910D01*
X473303Y330822D01*
X473243Y330739D01*
X473237Y330720D01*
X473226Y330703D01*
X473201Y330602D01*
X473171Y330503D01*
X473171Y330484D01*
X473166Y330464D01*
X473174Y330361D01*
X473177Y330258D01*
X473184Y330239D01*
X473186Y330219D01*
X473226Y330124D01*
X473262Y330027D01*
X473274Y330011D01*
X473282Y329993D01*
X473387Y329862D01*
X480321Y322928D01*
X480321Y312472D01*
X473387Y305538D01*
X473375Y305522D01*
X473359Y305510D01*
X473303Y305422D01*
X473243Y305339D01*
X473237Y305320D01*
X473226Y305303D01*
X473201Y305202D01*
X473171Y305103D01*
X473171Y305084D01*
X473166Y305064D01*
X473174Y304961D01*
X473177Y304858D01*
X473184Y304839D01*
X473186Y304819D01*
X473226Y304724D01*
X473262Y304627D01*
X473274Y304611D01*
X473282Y304593D01*
X473387Y304462D01*
X480321Y297528D01*
X480321Y287072D01*
X473387Y280138D01*
X473375Y280122D01*
X473359Y280110D01*
X473314Y280039D01*
X473300Y280024D01*
X473291Y280005D01*
X473243Y279939D01*
X473237Y279920D01*
X473226Y279903D01*
X473206Y279823D01*
X473196Y279801D01*
X473194Y279777D01*
X473171Y279703D01*
X473171Y279684D01*
X473166Y279664D01*
X473172Y279587D01*
X473169Y279556D01*
X473175Y279527D01*
X473177Y279458D01*
X473184Y279439D01*
X473186Y279419D01*
X473213Y279355D01*
X473221Y279316D01*
X473241Y279283D01*
X473262Y279227D01*
X473274Y279211D01*
X473282Y279193D01*
X473333Y279128D01*
X473347Y279105D01*
X473362Y279092D01*
X473387Y279062D01*
X480321Y272128D01*
X480321Y261672D01*
X473387Y254738D01*
X473375Y254722D01*
X473359Y254710D01*
X473303Y254622D01*
X473243Y254539D01*
X473237Y254520D01*
X473226Y254503D01*
X473201Y254402D01*
X473171Y254303D01*
X473171Y254284D01*
X473166Y254264D01*
X473174Y254161D01*
X473177Y254058D01*
X473184Y254039D01*
X473186Y254019D01*
X473226Y253924D01*
X473262Y253827D01*
X473274Y253811D01*
X473282Y253793D01*
X473387Y253662D01*
X480321Y246728D01*
X480321Y236272D01*
X473387Y229338D01*
X473375Y229322D01*
X473359Y229310D01*
X473303Y229222D01*
X473243Y229139D01*
X473237Y229120D01*
X473226Y229103D01*
X473201Y229002D01*
X473171Y228903D01*
X473171Y228884D01*
X473166Y228864D01*
X473174Y228761D01*
X473177Y228658D01*
X473184Y228639D01*
X473186Y228619D01*
X473226Y228524D01*
X473262Y228427D01*
X473274Y228411D01*
X473282Y228393D01*
X473387Y228262D01*
X480321Y221328D01*
X480321Y210872D01*
X473387Y203938D01*
X473375Y203922D01*
X473359Y203910D01*
X473303Y203822D01*
X473243Y203739D01*
X473237Y203720D01*
X473226Y203703D01*
X473201Y203602D01*
X473171Y203503D01*
X473171Y203484D01*
X473166Y203464D01*
X473174Y203361D01*
X473177Y203258D01*
X473184Y203239D01*
X473186Y203219D01*
X473226Y203124D01*
X473262Y203027D01*
X473274Y203011D01*
X473282Y202993D01*
X473387Y202862D01*
X480321Y195928D01*
X480321Y185472D01*
X473387Y178538D01*
X473375Y178522D01*
X473359Y178510D01*
X473303Y178422D01*
X473243Y178339D01*
X473237Y178320D01*
X473226Y178303D01*
X473201Y178202D01*
X473171Y178103D01*
X473171Y178084D01*
X473166Y178064D01*
X473174Y177961D01*
X473177Y177858D01*
X473184Y177839D01*
X473186Y177819D01*
X473226Y177724D01*
X473262Y177627D01*
X473274Y177611D01*
X473282Y177593D01*
X473387Y177462D01*
X480321Y170528D01*
X480321Y160072D01*
X472928Y152679D01*
X470262Y152679D01*
X470242Y152676D01*
X470223Y152678D01*
X470121Y152656D01*
X470019Y152640D01*
X470002Y152630D01*
X469982Y152626D01*
X469893Y152573D01*
X469802Y152524D01*
X469788Y152510D01*
X469771Y152500D01*
X469704Y152421D01*
X469632Y152346D01*
X469624Y152328D01*
X469611Y152313D01*
X469572Y152217D01*
X469529Y152123D01*
X469527Y152103D01*
X469519Y152085D01*
X469501Y151918D01*
X469501Y85257D01*
X426993Y42749D01*
X209507Y42749D01*
G37*
%LPD*%
%LPC*%
G36*
X170012Y101599D02*
X170012Y101599D01*
X165785Y103350D01*
X162550Y106585D01*
X161227Y109779D01*
X161166Y109879D01*
X161106Y109979D01*
X161101Y109983D01*
X161098Y109988D01*
X161008Y110063D01*
X160919Y110139D01*
X160913Y110141D01*
X160908Y110145D01*
X160800Y110187D01*
X160691Y110231D01*
X160683Y110232D01*
X160678Y110233D01*
X160660Y110234D01*
X160524Y110249D01*
X131082Y110249D01*
X131062Y110246D01*
X131043Y110248D01*
X130941Y110226D01*
X130839Y110210D01*
X130822Y110200D01*
X130802Y110196D01*
X130713Y110143D01*
X130622Y110094D01*
X130608Y110080D01*
X130591Y110070D01*
X130524Y109991D01*
X130452Y109916D01*
X130444Y109898D01*
X130431Y109883D01*
X130392Y109787D01*
X130349Y109693D01*
X130347Y109673D01*
X130339Y109655D01*
X130321Y109488D01*
X130321Y109272D01*
X122928Y101879D01*
X112472Y101879D01*
X105079Y109272D01*
X105079Y119728D01*
X112013Y126662D01*
X112025Y126678D01*
X112041Y126690D01*
X112097Y126778D01*
X112157Y126861D01*
X112163Y126880D01*
X112174Y126897D01*
X112199Y126998D01*
X112229Y127097D01*
X112229Y127116D01*
X112234Y127136D01*
X112226Y127239D01*
X112223Y127342D01*
X112216Y127361D01*
X112214Y127381D01*
X112174Y127476D01*
X112138Y127573D01*
X112126Y127589D01*
X112118Y127607D01*
X112013Y127738D01*
X105079Y134672D01*
X105079Y145128D01*
X112013Y152062D01*
X112025Y152078D01*
X112041Y152090D01*
X112097Y152178D01*
X112157Y152261D01*
X112163Y152280D01*
X112174Y152297D01*
X112199Y152398D01*
X112229Y152497D01*
X112229Y152516D01*
X112234Y152536D01*
X112226Y152639D01*
X112223Y152742D01*
X112216Y152761D01*
X112214Y152781D01*
X112174Y152876D01*
X112138Y152973D01*
X112126Y152989D01*
X112118Y153007D01*
X112013Y153138D01*
X105079Y160072D01*
X105079Y170528D01*
X112013Y177462D01*
X112025Y177478D01*
X112041Y177490D01*
X112097Y177578D01*
X112157Y177661D01*
X112163Y177680D01*
X112174Y177697D01*
X112199Y177798D01*
X112229Y177897D01*
X112229Y177916D01*
X112234Y177936D01*
X112226Y178039D01*
X112223Y178142D01*
X112216Y178161D01*
X112214Y178181D01*
X112174Y178276D01*
X112138Y178373D01*
X112126Y178389D01*
X112118Y178407D01*
X112013Y178538D01*
X105079Y185472D01*
X105079Y195928D01*
X112013Y202862D01*
X112025Y202878D01*
X112041Y202890D01*
X112097Y202978D01*
X112157Y203061D01*
X112163Y203080D01*
X112174Y203097D01*
X112199Y203198D01*
X112229Y203297D01*
X112229Y203316D01*
X112234Y203336D01*
X112226Y203439D01*
X112223Y203542D01*
X112216Y203561D01*
X112214Y203581D01*
X112174Y203676D01*
X112138Y203773D01*
X112126Y203789D01*
X112118Y203807D01*
X112013Y203938D01*
X105079Y210872D01*
X105079Y221328D01*
X112013Y228262D01*
X112025Y228278D01*
X112041Y228290D01*
X112097Y228378D01*
X112157Y228461D01*
X112163Y228480D01*
X112174Y228497D01*
X112199Y228598D01*
X112229Y228697D01*
X112229Y228716D01*
X112234Y228736D01*
X112226Y228839D01*
X112223Y228942D01*
X112216Y228961D01*
X112214Y228981D01*
X112174Y229076D01*
X112138Y229173D01*
X112126Y229189D01*
X112118Y229207D01*
X112013Y229338D01*
X105079Y236272D01*
X105079Y246728D01*
X112013Y253662D01*
X112025Y253678D01*
X112041Y253690D01*
X112097Y253778D01*
X112157Y253861D01*
X112163Y253880D01*
X112174Y253897D01*
X112199Y253998D01*
X112229Y254097D01*
X112229Y254116D01*
X112234Y254136D01*
X112226Y254239D01*
X112223Y254342D01*
X112216Y254361D01*
X112214Y254381D01*
X112174Y254476D01*
X112138Y254573D01*
X112126Y254589D01*
X112118Y254607D01*
X112013Y254738D01*
X105079Y261672D01*
X105079Y272128D01*
X112013Y279062D01*
X112025Y279078D01*
X112041Y279090D01*
X112069Y279135D01*
X112100Y279168D01*
X112120Y279210D01*
X112157Y279261D01*
X112163Y279280D01*
X112174Y279297D01*
X112189Y279359D01*
X112204Y279391D01*
X112208Y279427D01*
X112229Y279497D01*
X112229Y279516D01*
X112234Y279536D01*
X112228Y279608D01*
X112231Y279635D01*
X112225Y279663D01*
X112223Y279742D01*
X112216Y279761D01*
X112214Y279781D01*
X112183Y279854D01*
X112179Y279876D01*
X112167Y279895D01*
X112138Y279973D01*
X112126Y279989D01*
X112118Y280007D01*
X112013Y280138D01*
X105079Y287072D01*
X105079Y297528D01*
X112013Y304462D01*
X112025Y304478D01*
X112041Y304490D01*
X112097Y304578D01*
X112157Y304661D01*
X112163Y304680D01*
X112174Y304697D01*
X112199Y304798D01*
X112229Y304897D01*
X112229Y304916D01*
X112234Y304936D01*
X112226Y305039D01*
X112223Y305142D01*
X112216Y305161D01*
X112214Y305181D01*
X112174Y305276D01*
X112138Y305373D01*
X112126Y305389D01*
X112118Y305407D01*
X112013Y305538D01*
X105079Y312472D01*
X105079Y322928D01*
X112013Y329862D01*
X112025Y329878D01*
X112041Y329890D01*
X112097Y329978D01*
X112157Y330061D01*
X112163Y330080D01*
X112174Y330097D01*
X112199Y330198D01*
X112229Y330297D01*
X112229Y330316D01*
X112234Y330336D01*
X112226Y330439D01*
X112223Y330542D01*
X112216Y330561D01*
X112214Y330581D01*
X112174Y330676D01*
X112138Y330773D01*
X112126Y330789D01*
X112118Y330807D01*
X112013Y330938D01*
X105079Y337872D01*
X105079Y348328D01*
X112013Y355262D01*
X112025Y355278D01*
X112041Y355290D01*
X112097Y355378D01*
X112157Y355461D01*
X112163Y355480D01*
X112174Y355497D01*
X112199Y355598D01*
X112229Y355697D01*
X112229Y355716D01*
X112234Y355736D01*
X112226Y355839D01*
X112223Y355942D01*
X112216Y355961D01*
X112214Y355981D01*
X112174Y356076D01*
X112138Y356173D01*
X112126Y356189D01*
X112118Y356207D01*
X112013Y356338D01*
X105079Y363272D01*
X105079Y373728D01*
X112013Y380662D01*
X112025Y380678D01*
X112041Y380690D01*
X112097Y380778D01*
X112157Y380861D01*
X112163Y380880D01*
X112174Y380897D01*
X112199Y380998D01*
X112229Y381097D01*
X112229Y381116D01*
X112234Y381136D01*
X112226Y381239D01*
X112223Y381342D01*
X112216Y381361D01*
X112214Y381381D01*
X112174Y381476D01*
X112138Y381573D01*
X112126Y381589D01*
X112118Y381607D01*
X112013Y381738D01*
X105079Y388672D01*
X105079Y399128D01*
X112013Y406062D01*
X112025Y406078D01*
X112041Y406090D01*
X112097Y406178D01*
X112157Y406261D01*
X112163Y406280D01*
X112174Y406297D01*
X112199Y406398D01*
X112229Y406497D01*
X112229Y406516D01*
X112234Y406536D01*
X112226Y406639D01*
X112223Y406742D01*
X112216Y406761D01*
X112214Y406781D01*
X112174Y406876D01*
X112138Y406973D01*
X112126Y406989D01*
X112118Y407007D01*
X112013Y407138D01*
X105079Y414072D01*
X105079Y424528D01*
X112013Y431462D01*
X112025Y431478D01*
X112041Y431490D01*
X112097Y431578D01*
X112157Y431661D01*
X112163Y431680D01*
X112174Y431697D01*
X112199Y431798D01*
X112229Y431897D01*
X112229Y431916D01*
X112234Y431936D01*
X112226Y432039D01*
X112223Y432142D01*
X112216Y432161D01*
X112214Y432181D01*
X112174Y432276D01*
X112138Y432373D01*
X112126Y432389D01*
X112118Y432407D01*
X112013Y432538D01*
X105079Y439472D01*
X105079Y449928D01*
X112013Y456862D01*
X112025Y456878D01*
X112041Y456890D01*
X112097Y456978D01*
X112157Y457061D01*
X112163Y457080D01*
X112174Y457097D01*
X112199Y457198D01*
X112229Y457297D01*
X112229Y457316D01*
X112234Y457336D01*
X112226Y457439D01*
X112223Y457542D01*
X112216Y457561D01*
X112214Y457581D01*
X112174Y457676D01*
X112138Y457773D01*
X112126Y457789D01*
X112118Y457807D01*
X112013Y457938D01*
X105079Y464872D01*
X105079Y475328D01*
X112013Y482262D01*
X112025Y482278D01*
X112041Y482290D01*
X112097Y482378D01*
X112157Y482461D01*
X112163Y482480D01*
X112174Y482497D01*
X112199Y482598D01*
X112229Y482697D01*
X112229Y482716D01*
X112234Y482736D01*
X112226Y482839D01*
X112223Y482942D01*
X112216Y482961D01*
X112214Y482981D01*
X112174Y483076D01*
X112138Y483173D01*
X112126Y483189D01*
X112118Y483207D01*
X112013Y483338D01*
X105079Y490272D01*
X105079Y500728D01*
X112013Y507662D01*
X112025Y507678D01*
X112041Y507690D01*
X112097Y507778D01*
X112157Y507861D01*
X112163Y507880D01*
X112174Y507897D01*
X112199Y507998D01*
X112229Y508097D01*
X112229Y508116D01*
X112234Y508136D01*
X112226Y508239D01*
X112223Y508342D01*
X112216Y508361D01*
X112214Y508381D01*
X112174Y508476D01*
X112138Y508573D01*
X112126Y508589D01*
X112118Y508607D01*
X112013Y508738D01*
X105079Y515672D01*
X105079Y526128D01*
X112013Y533062D01*
X112025Y533078D01*
X112041Y533090D01*
X112097Y533178D01*
X112157Y533261D01*
X112163Y533280D01*
X112174Y533297D01*
X112199Y533398D01*
X112229Y533497D01*
X112229Y533516D01*
X112234Y533536D01*
X112226Y533639D01*
X112223Y533742D01*
X112216Y533761D01*
X112214Y533781D01*
X112174Y533876D01*
X112138Y533973D01*
X112126Y533989D01*
X112118Y534007D01*
X112013Y534138D01*
X105079Y541072D01*
X105079Y551528D01*
X112472Y558921D01*
X122928Y558921D01*
X130321Y551528D01*
X130321Y547512D01*
X130324Y547492D01*
X130322Y547473D01*
X130344Y547371D01*
X130360Y547269D01*
X130370Y547252D01*
X130374Y547232D01*
X130427Y547143D01*
X130476Y547052D01*
X130490Y547038D01*
X130500Y547021D01*
X130579Y546954D01*
X130654Y546882D01*
X130672Y546874D01*
X130687Y546861D01*
X130783Y546822D01*
X130877Y546779D01*
X130897Y546777D01*
X130915Y546769D01*
X131082Y546751D01*
X160110Y546751D01*
X160224Y546770D01*
X160341Y546787D01*
X160346Y546789D01*
X160352Y546790D01*
X160455Y546845D01*
X160560Y546898D01*
X160564Y546903D01*
X160570Y546906D01*
X160650Y546990D01*
X160732Y547074D01*
X160736Y547080D01*
X160739Y547084D01*
X160747Y547101D01*
X160813Y547221D01*
X162550Y551415D01*
X165785Y554650D01*
X170012Y556401D01*
X187588Y556401D01*
X191815Y554650D01*
X195050Y551415D01*
X196801Y547188D01*
X196801Y542612D01*
X195050Y538385D01*
X191815Y535150D01*
X187588Y533399D01*
X170012Y533399D01*
X165785Y535150D01*
X162550Y538385D01*
X161144Y541779D01*
X161083Y541879D01*
X161023Y541979D01*
X161018Y541983D01*
X161015Y541988D01*
X160925Y542063D01*
X160836Y542139D01*
X160830Y542141D01*
X160825Y542145D01*
X160717Y542187D01*
X160608Y542231D01*
X160600Y542232D01*
X160596Y542233D01*
X160577Y542234D01*
X160441Y542249D01*
X131082Y542249D01*
X131062Y542246D01*
X131043Y542248D01*
X130941Y542226D01*
X130839Y542210D01*
X130822Y542200D01*
X130802Y542196D01*
X130713Y542143D01*
X130622Y542094D01*
X130608Y542080D01*
X130591Y542070D01*
X130524Y541991D01*
X130452Y541916D01*
X130444Y541898D01*
X130431Y541883D01*
X130392Y541787D01*
X130349Y541693D01*
X130347Y541673D01*
X130339Y541655D01*
X130321Y541488D01*
X130321Y541072D01*
X123387Y534138D01*
X123375Y534122D01*
X123359Y534110D01*
X123303Y534022D01*
X123243Y533939D01*
X123237Y533920D01*
X123226Y533903D01*
X123201Y533802D01*
X123171Y533703D01*
X123171Y533684D01*
X123166Y533664D01*
X123174Y533561D01*
X123177Y533458D01*
X123184Y533439D01*
X123186Y533419D01*
X123226Y533324D01*
X123262Y533227D01*
X123274Y533211D01*
X123282Y533193D01*
X123387Y533062D01*
X130321Y526128D01*
X130321Y522012D01*
X130324Y521992D01*
X130322Y521973D01*
X130344Y521871D01*
X130360Y521769D01*
X130370Y521752D01*
X130374Y521732D01*
X130427Y521643D01*
X130476Y521552D01*
X130490Y521538D01*
X130500Y521521D01*
X130579Y521454D01*
X130654Y521382D01*
X130672Y521374D01*
X130687Y521361D01*
X130783Y521322D01*
X130877Y521279D01*
X130897Y521277D01*
X130915Y521269D01*
X131082Y521251D01*
X160068Y521251D01*
X160183Y521270D01*
X160299Y521287D01*
X160305Y521289D01*
X160311Y521290D01*
X160414Y521345D01*
X160518Y521398D01*
X160523Y521403D01*
X160528Y521406D01*
X160608Y521490D01*
X160691Y521574D01*
X160694Y521580D01*
X160698Y521584D01*
X160706Y521601D01*
X160772Y521721D01*
X162550Y526015D01*
X165785Y529250D01*
X170012Y531001D01*
X187588Y531001D01*
X191815Y529250D01*
X195050Y526015D01*
X196801Y521788D01*
X196801Y517212D01*
X195050Y512985D01*
X191815Y509750D01*
X187588Y507999D01*
X170012Y507999D01*
X165785Y509750D01*
X162550Y512985D01*
X161186Y516279D01*
X161124Y516379D01*
X161064Y516479D01*
X161059Y516483D01*
X161056Y516488D01*
X160966Y516563D01*
X160877Y516639D01*
X160871Y516641D01*
X160867Y516645D01*
X160758Y516687D01*
X160649Y516731D01*
X160642Y516732D01*
X160637Y516733D01*
X160619Y516734D01*
X160482Y516749D01*
X131082Y516749D01*
X131062Y516746D01*
X131043Y516748D01*
X130941Y516726D01*
X130839Y516710D01*
X130822Y516700D01*
X130802Y516696D01*
X130713Y516643D01*
X130622Y516594D01*
X130608Y516580D01*
X130591Y516570D01*
X130524Y516491D01*
X130452Y516416D01*
X130444Y516398D01*
X130431Y516383D01*
X130392Y516287D01*
X130349Y516193D01*
X130347Y516173D01*
X130339Y516155D01*
X130321Y515988D01*
X130321Y515672D01*
X123387Y508738D01*
X123375Y508722D01*
X123359Y508710D01*
X123303Y508622D01*
X123243Y508539D01*
X123237Y508520D01*
X123226Y508503D01*
X123201Y508402D01*
X123171Y508303D01*
X123171Y508284D01*
X123166Y508264D01*
X123174Y508161D01*
X123177Y508058D01*
X123184Y508039D01*
X123186Y508019D01*
X123226Y507924D01*
X123262Y507827D01*
X123274Y507811D01*
X123282Y507793D01*
X123387Y507662D01*
X130321Y500728D01*
X130321Y496512D01*
X130324Y496492D01*
X130322Y496473D01*
X130344Y496371D01*
X130360Y496269D01*
X130370Y496252D01*
X130374Y496232D01*
X130427Y496143D01*
X130476Y496052D01*
X130490Y496038D01*
X130500Y496021D01*
X130579Y495954D01*
X130654Y495882D01*
X130672Y495874D01*
X130687Y495861D01*
X130783Y495822D01*
X130877Y495779D01*
X130897Y495777D01*
X130915Y495769D01*
X131082Y495751D01*
X160038Y495751D01*
X160058Y495754D01*
X160077Y495752D01*
X160179Y495774D01*
X160281Y495790D01*
X160298Y495800D01*
X160318Y495804D01*
X160407Y495857D01*
X160498Y495906D01*
X160512Y495920D01*
X160529Y495930D01*
X160596Y496009D01*
X160668Y496084D01*
X160676Y496102D01*
X160689Y496117D01*
X160728Y496213D01*
X160771Y496307D01*
X160773Y496324D01*
X162550Y500615D01*
X165785Y503850D01*
X170012Y505601D01*
X187588Y505601D01*
X191815Y503850D01*
X195050Y500615D01*
X196801Y496388D01*
X196801Y491812D01*
X195050Y487585D01*
X191815Y484350D01*
X187588Y482599D01*
X170012Y482599D01*
X165785Y484350D01*
X162550Y487585D01*
X161227Y490779D01*
X161166Y490879D01*
X161106Y490979D01*
X161101Y490983D01*
X161098Y490988D01*
X161008Y491063D01*
X160919Y491139D01*
X160913Y491141D01*
X160908Y491145D01*
X160800Y491187D01*
X160691Y491231D01*
X160683Y491232D01*
X160678Y491233D01*
X160660Y491234D01*
X160524Y491249D01*
X131082Y491249D01*
X131062Y491246D01*
X131043Y491248D01*
X130941Y491226D01*
X130839Y491210D01*
X130822Y491200D01*
X130802Y491196D01*
X130713Y491143D01*
X130622Y491094D01*
X130608Y491080D01*
X130591Y491070D01*
X130524Y490991D01*
X130452Y490916D01*
X130444Y490898D01*
X130431Y490883D01*
X130392Y490787D01*
X130349Y490693D01*
X130347Y490673D01*
X130339Y490655D01*
X130321Y490488D01*
X130321Y490272D01*
X123387Y483338D01*
X123375Y483322D01*
X123359Y483310D01*
X123303Y483222D01*
X123243Y483139D01*
X123237Y483120D01*
X123226Y483103D01*
X123201Y483002D01*
X123171Y482903D01*
X123171Y482884D01*
X123166Y482864D01*
X123174Y482761D01*
X123177Y482658D01*
X123184Y482639D01*
X123186Y482619D01*
X123226Y482524D01*
X123262Y482427D01*
X123274Y482411D01*
X123282Y482393D01*
X123387Y482262D01*
X130321Y475328D01*
X130321Y471012D01*
X130324Y470992D01*
X130322Y470973D01*
X130344Y470871D01*
X130360Y470769D01*
X130370Y470752D01*
X130374Y470732D01*
X130427Y470643D01*
X130476Y470552D01*
X130490Y470538D01*
X130500Y470521D01*
X130579Y470454D01*
X130654Y470382D01*
X130672Y470374D01*
X130687Y470361D01*
X130783Y470322D01*
X130877Y470279D01*
X130897Y470277D01*
X130915Y470269D01*
X131082Y470251D01*
X160038Y470251D01*
X160058Y470254D01*
X160077Y470252D01*
X160179Y470274D01*
X160281Y470290D01*
X160298Y470300D01*
X160318Y470304D01*
X160407Y470357D01*
X160498Y470406D01*
X160512Y470420D01*
X160529Y470430D01*
X160596Y470509D01*
X160668Y470584D01*
X160676Y470602D01*
X160689Y470617D01*
X160728Y470713D01*
X160771Y470807D01*
X160773Y470827D01*
X160781Y470845D01*
X160796Y470979D01*
X162550Y475215D01*
X165785Y478450D01*
X170012Y480201D01*
X187588Y480201D01*
X191815Y478450D01*
X195050Y475215D01*
X196801Y470988D01*
X196801Y466412D01*
X195050Y462185D01*
X191815Y458950D01*
X187588Y457199D01*
X170012Y457199D01*
X165785Y458950D01*
X162550Y462185D01*
X161269Y465279D01*
X161207Y465379D01*
X161147Y465479D01*
X161142Y465483D01*
X161139Y465488D01*
X161049Y465563D01*
X160960Y465639D01*
X160954Y465641D01*
X160950Y465645D01*
X160841Y465687D01*
X160732Y465731D01*
X160724Y465732D01*
X160720Y465733D01*
X160702Y465734D01*
X160565Y465749D01*
X131082Y465749D01*
X131062Y465746D01*
X131043Y465748D01*
X130941Y465726D01*
X130839Y465710D01*
X130822Y465700D01*
X130802Y465696D01*
X130713Y465643D01*
X130622Y465594D01*
X130608Y465580D01*
X130591Y465570D01*
X130524Y465491D01*
X130452Y465416D01*
X130444Y465398D01*
X130431Y465383D01*
X130392Y465287D01*
X130349Y465193D01*
X130347Y465173D01*
X130339Y465155D01*
X130321Y464988D01*
X130321Y464872D01*
X123387Y457938D01*
X123375Y457922D01*
X123359Y457910D01*
X123303Y457822D01*
X123243Y457739D01*
X123237Y457720D01*
X123226Y457703D01*
X123201Y457602D01*
X123171Y457503D01*
X123171Y457484D01*
X123166Y457464D01*
X123174Y457361D01*
X123177Y457258D01*
X123184Y457239D01*
X123186Y457219D01*
X123226Y457124D01*
X123262Y457027D01*
X123274Y457011D01*
X123282Y456993D01*
X123387Y456862D01*
X130321Y449928D01*
X130321Y447012D01*
X130324Y446992D01*
X130322Y446973D01*
X130344Y446871D01*
X130360Y446769D01*
X130370Y446752D01*
X130374Y446732D01*
X130427Y446643D01*
X130476Y446552D01*
X130490Y446538D01*
X130500Y446521D01*
X130579Y446454D01*
X130654Y446382D01*
X130672Y446374D01*
X130687Y446361D01*
X130783Y446322D01*
X130877Y446279D01*
X130897Y446277D01*
X130915Y446269D01*
X131082Y446251D01*
X160565Y446251D01*
X160680Y446270D01*
X160796Y446287D01*
X160802Y446289D01*
X160808Y446290D01*
X160911Y446345D01*
X161015Y446398D01*
X161020Y446403D01*
X161025Y446406D01*
X161105Y446490D01*
X161188Y446574D01*
X161191Y446580D01*
X161195Y446584D01*
X161203Y446601D01*
X161269Y446721D01*
X162550Y449815D01*
X165785Y453050D01*
X170012Y454801D01*
X187588Y454801D01*
X191815Y453050D01*
X195050Y449815D01*
X196801Y445588D01*
X196801Y441012D01*
X195050Y436785D01*
X191815Y433550D01*
X187588Y431799D01*
X170012Y431799D01*
X165785Y433550D01*
X162550Y436785D01*
X160798Y441016D01*
X160798Y441020D01*
X160798Y441023D01*
X160798Y441027D01*
X160776Y441129D01*
X160760Y441231D01*
X160750Y441248D01*
X160746Y441268D01*
X160693Y441357D01*
X160644Y441448D01*
X160630Y441462D01*
X160620Y441479D01*
X160541Y441546D01*
X160466Y441618D01*
X160448Y441626D01*
X160433Y441639D01*
X160337Y441678D01*
X160243Y441721D01*
X160223Y441723D01*
X160205Y441731D01*
X160038Y441749D01*
X131082Y441749D01*
X131062Y441746D01*
X131043Y441748D01*
X130941Y441726D01*
X130839Y441710D01*
X130822Y441700D01*
X130802Y441696D01*
X130713Y441643D01*
X130622Y441594D01*
X130608Y441580D01*
X130591Y441570D01*
X130524Y441491D01*
X130452Y441416D01*
X130444Y441398D01*
X130431Y441383D01*
X130392Y441287D01*
X130349Y441193D01*
X130347Y441173D01*
X130339Y441155D01*
X130321Y440988D01*
X130321Y439472D01*
X123387Y432538D01*
X123375Y432522D01*
X123359Y432510D01*
X123303Y432422D01*
X123243Y432339D01*
X123237Y432320D01*
X123226Y432303D01*
X123201Y432202D01*
X123171Y432103D01*
X123171Y432084D01*
X123166Y432064D01*
X123174Y431961D01*
X123177Y431858D01*
X123184Y431839D01*
X123186Y431819D01*
X123226Y431724D01*
X123262Y431627D01*
X123274Y431611D01*
X123282Y431593D01*
X123387Y431462D01*
X130321Y424528D01*
X130321Y421512D01*
X130324Y421492D01*
X130322Y421473D01*
X130344Y421371D01*
X130360Y421269D01*
X130370Y421252D01*
X130374Y421232D01*
X130427Y421143D01*
X130476Y421052D01*
X130490Y421038D01*
X130500Y421021D01*
X130579Y420954D01*
X130654Y420882D01*
X130672Y420874D01*
X130687Y420861D01*
X130783Y420822D01*
X130877Y420779D01*
X130897Y420777D01*
X130915Y420769D01*
X131082Y420751D01*
X160524Y420751D01*
X160639Y420770D01*
X160755Y420787D01*
X160760Y420789D01*
X160767Y420790D01*
X160869Y420845D01*
X160974Y420898D01*
X160978Y420903D01*
X160984Y420906D01*
X161064Y420990D01*
X161146Y421074D01*
X161150Y421080D01*
X161153Y421084D01*
X161161Y421101D01*
X161227Y421221D01*
X162550Y424415D01*
X165785Y427650D01*
X170012Y429401D01*
X187588Y429401D01*
X191815Y427650D01*
X195050Y424415D01*
X196801Y420188D01*
X196801Y415612D01*
X195050Y411385D01*
X191815Y408150D01*
X187588Y406399D01*
X170012Y406399D01*
X165785Y408150D01*
X162550Y411385D01*
X160766Y415694D01*
X160760Y415731D01*
X160750Y415748D01*
X160746Y415768D01*
X160693Y415857D01*
X160644Y415948D01*
X160630Y415962D01*
X160620Y415979D01*
X160541Y416046D01*
X160466Y416118D01*
X160448Y416126D01*
X160433Y416139D01*
X160337Y416178D01*
X160243Y416221D01*
X160223Y416223D01*
X160205Y416231D01*
X160038Y416249D01*
X131082Y416249D01*
X131062Y416246D01*
X131043Y416248D01*
X130941Y416226D01*
X130839Y416210D01*
X130822Y416200D01*
X130802Y416196D01*
X130713Y416143D01*
X130622Y416094D01*
X130608Y416080D01*
X130591Y416070D01*
X130524Y415991D01*
X130452Y415916D01*
X130444Y415898D01*
X130431Y415883D01*
X130392Y415787D01*
X130349Y415693D01*
X130347Y415673D01*
X130339Y415655D01*
X130321Y415488D01*
X130321Y414072D01*
X123387Y407138D01*
X123375Y407122D01*
X123359Y407110D01*
X123303Y407022D01*
X123243Y406939D01*
X123237Y406920D01*
X123226Y406903D01*
X123201Y406802D01*
X123171Y406703D01*
X123171Y406684D01*
X123166Y406664D01*
X123174Y406561D01*
X123177Y406458D01*
X123184Y406439D01*
X123186Y406419D01*
X123226Y406324D01*
X123262Y406227D01*
X123274Y406211D01*
X123282Y406193D01*
X123387Y406062D01*
X130321Y399128D01*
X130321Y396012D01*
X130324Y395992D01*
X130322Y395973D01*
X130344Y395871D01*
X130360Y395769D01*
X130370Y395752D01*
X130374Y395732D01*
X130427Y395643D01*
X130476Y395552D01*
X130490Y395538D01*
X130500Y395521D01*
X130579Y395454D01*
X130654Y395382D01*
X130672Y395374D01*
X130687Y395361D01*
X130783Y395322D01*
X130877Y395279D01*
X130897Y395277D01*
X130915Y395269D01*
X131082Y395251D01*
X160482Y395251D01*
X160597Y395270D01*
X160713Y395287D01*
X160719Y395289D01*
X160725Y395290D01*
X160828Y395345D01*
X160933Y395398D01*
X160937Y395403D01*
X160943Y395406D01*
X161022Y395490D01*
X161105Y395574D01*
X161109Y395580D01*
X161112Y395584D01*
X161120Y395601D01*
X161186Y395721D01*
X162550Y399015D01*
X165785Y402250D01*
X170012Y404001D01*
X187588Y404001D01*
X191815Y402250D01*
X195050Y399015D01*
X196801Y394788D01*
X196801Y390212D01*
X195050Y385985D01*
X191815Y382750D01*
X187588Y380999D01*
X170012Y380999D01*
X165785Y382750D01*
X162550Y385985D01*
X160772Y390279D01*
X160710Y390379D01*
X160650Y390479D01*
X160645Y390483D01*
X160642Y390488D01*
X160552Y390563D01*
X160463Y390639D01*
X160457Y390641D01*
X160452Y390645D01*
X160344Y390687D01*
X160235Y390731D01*
X160227Y390732D01*
X160223Y390733D01*
X160205Y390734D01*
X160068Y390749D01*
X131082Y390749D01*
X131062Y390746D01*
X131043Y390748D01*
X130941Y390726D01*
X130839Y390710D01*
X130822Y390700D01*
X130802Y390696D01*
X130713Y390643D01*
X130622Y390594D01*
X130608Y390580D01*
X130591Y390570D01*
X130524Y390491D01*
X130452Y390416D01*
X130444Y390398D01*
X130431Y390383D01*
X130392Y390287D01*
X130349Y390193D01*
X130347Y390173D01*
X130339Y390155D01*
X130321Y389988D01*
X130321Y388672D01*
X123387Y381738D01*
X123375Y381722D01*
X123359Y381710D01*
X123303Y381622D01*
X123243Y381539D01*
X123237Y381520D01*
X123226Y381503D01*
X123201Y381402D01*
X123171Y381303D01*
X123171Y381284D01*
X123166Y381264D01*
X123174Y381161D01*
X123177Y381058D01*
X123184Y381039D01*
X123186Y381019D01*
X123226Y380924D01*
X123262Y380827D01*
X123274Y380811D01*
X123282Y380793D01*
X123387Y380662D01*
X130321Y373728D01*
X130321Y370512D01*
X130324Y370492D01*
X130322Y370473D01*
X130344Y370371D01*
X130360Y370269D01*
X130370Y370252D01*
X130374Y370232D01*
X130427Y370143D01*
X130476Y370052D01*
X130490Y370038D01*
X130500Y370021D01*
X130579Y369954D01*
X130654Y369882D01*
X130672Y369874D01*
X130687Y369861D01*
X130783Y369822D01*
X130877Y369779D01*
X130897Y369777D01*
X130915Y369769D01*
X131082Y369751D01*
X160441Y369751D01*
X160556Y369770D01*
X160672Y369787D01*
X160678Y369789D01*
X160684Y369790D01*
X160786Y369845D01*
X160891Y369898D01*
X160896Y369903D01*
X160901Y369906D01*
X160981Y369990D01*
X161063Y370074D01*
X161067Y370080D01*
X161071Y370084D01*
X161078Y370101D01*
X161144Y370221D01*
X162550Y373615D01*
X165785Y376850D01*
X170012Y378601D01*
X187588Y378601D01*
X191815Y376850D01*
X195050Y373615D01*
X196801Y369388D01*
X196801Y364812D01*
X195050Y360585D01*
X191815Y357350D01*
X187588Y355599D01*
X170012Y355599D01*
X165785Y357350D01*
X162550Y360585D01*
X160813Y364779D01*
X160751Y364879D01*
X160691Y364979D01*
X160687Y364983D01*
X160683Y364988D01*
X160594Y365063D01*
X160505Y365139D01*
X160499Y365141D01*
X160494Y365145D01*
X160386Y365187D01*
X160276Y365231D01*
X160269Y365232D01*
X160264Y365233D01*
X160246Y365234D01*
X160110Y365249D01*
X131082Y365249D01*
X131062Y365246D01*
X131043Y365248D01*
X130941Y365226D01*
X130839Y365210D01*
X130822Y365200D01*
X130802Y365196D01*
X130713Y365143D01*
X130622Y365094D01*
X130608Y365080D01*
X130591Y365070D01*
X130524Y364991D01*
X130452Y364916D01*
X130444Y364898D01*
X130431Y364883D01*
X130392Y364787D01*
X130349Y364693D01*
X130347Y364673D01*
X130339Y364655D01*
X130321Y364488D01*
X130321Y363272D01*
X123387Y356338D01*
X123375Y356322D01*
X123359Y356310D01*
X123303Y356222D01*
X123243Y356139D01*
X123237Y356120D01*
X123226Y356103D01*
X123201Y356002D01*
X123171Y355903D01*
X123171Y355884D01*
X123166Y355864D01*
X123174Y355761D01*
X123177Y355658D01*
X123184Y355639D01*
X123186Y355619D01*
X123226Y355524D01*
X123262Y355427D01*
X123274Y355411D01*
X123282Y355393D01*
X123387Y355262D01*
X130321Y348328D01*
X130321Y344262D01*
X130324Y344242D01*
X130322Y344223D01*
X130344Y344121D01*
X130360Y344019D01*
X130370Y344002D01*
X130374Y343982D01*
X130427Y343893D01*
X130476Y343802D01*
X130490Y343788D01*
X130500Y343771D01*
X130579Y343704D01*
X130654Y343632D01*
X130672Y343624D01*
X130687Y343611D01*
X130783Y343572D01*
X130877Y343529D01*
X130897Y343527D01*
X130915Y343519D01*
X131082Y343501D01*
X160089Y343501D01*
X160204Y343520D01*
X160320Y343537D01*
X160325Y343539D01*
X160332Y343540D01*
X160434Y343595D01*
X160539Y343648D01*
X160544Y343653D01*
X160549Y343656D01*
X160629Y343740D01*
X160711Y343824D01*
X160715Y343830D01*
X160718Y343834D01*
X160726Y343851D01*
X160792Y343971D01*
X162550Y348215D01*
X165785Y351450D01*
X170012Y353201D01*
X187588Y353201D01*
X191815Y351450D01*
X195050Y348215D01*
X196801Y343988D01*
X196801Y339412D01*
X195050Y335185D01*
X191815Y331950D01*
X187588Y330199D01*
X170012Y330199D01*
X165785Y331950D01*
X162550Y335185D01*
X161165Y338529D01*
X161104Y338629D01*
X161044Y338729D01*
X161039Y338733D01*
X161035Y338738D01*
X160946Y338813D01*
X160857Y338889D01*
X160851Y338891D01*
X160846Y338895D01*
X160738Y338937D01*
X160628Y338981D01*
X160621Y338982D01*
X160616Y338983D01*
X160598Y338984D01*
X160462Y338999D01*
X131082Y338999D01*
X131062Y338996D01*
X131043Y338998D01*
X130941Y338976D01*
X130839Y338960D01*
X130822Y338950D01*
X130802Y338946D01*
X130713Y338893D01*
X130622Y338844D01*
X130608Y338830D01*
X130591Y338820D01*
X130524Y338741D01*
X130452Y338666D01*
X130444Y338648D01*
X130431Y338633D01*
X130392Y338537D01*
X130349Y338443D01*
X130347Y338423D01*
X130339Y338405D01*
X130321Y338238D01*
X130321Y337872D01*
X123387Y330938D01*
X123375Y330922D01*
X123359Y330910D01*
X123303Y330822D01*
X123243Y330739D01*
X123237Y330720D01*
X123226Y330703D01*
X123201Y330602D01*
X123171Y330503D01*
X123171Y330484D01*
X123166Y330464D01*
X123174Y330361D01*
X123177Y330258D01*
X123184Y330239D01*
X123186Y330219D01*
X123226Y330124D01*
X123262Y330027D01*
X123274Y330011D01*
X123282Y329993D01*
X123387Y329862D01*
X130321Y322928D01*
X130321Y318762D01*
X130324Y318742D01*
X130322Y318723D01*
X130344Y318621D01*
X130360Y318519D01*
X130370Y318502D01*
X130374Y318482D01*
X130427Y318393D01*
X130476Y318302D01*
X130490Y318288D01*
X130500Y318271D01*
X130579Y318204D01*
X130654Y318132D01*
X130672Y318124D01*
X130687Y318111D01*
X130783Y318072D01*
X130877Y318029D01*
X130897Y318027D01*
X130915Y318019D01*
X131082Y318001D01*
X160048Y318001D01*
X160162Y318020D01*
X160278Y318037D01*
X160284Y318039D01*
X160290Y318040D01*
X160393Y318095D01*
X160498Y318148D01*
X160502Y318153D01*
X160508Y318156D01*
X160587Y318240D01*
X160670Y318324D01*
X160674Y318330D01*
X160677Y318334D01*
X160685Y318351D01*
X160751Y318471D01*
X162550Y322815D01*
X165785Y326050D01*
X170012Y327801D01*
X187588Y327801D01*
X191815Y326050D01*
X195050Y322815D01*
X196801Y318588D01*
X196801Y314012D01*
X195050Y309785D01*
X191815Y306550D01*
X187588Y304799D01*
X170012Y304799D01*
X165785Y306550D01*
X162550Y309785D01*
X161206Y313029D01*
X161145Y313128D01*
X161085Y313229D01*
X161080Y313233D01*
X161077Y313238D01*
X160987Y313313D01*
X160898Y313389D01*
X160892Y313391D01*
X160887Y313395D01*
X160779Y313437D01*
X160670Y313481D01*
X160662Y313482D01*
X160658Y313483D01*
X160639Y313484D01*
X160503Y313499D01*
X131082Y313499D01*
X131062Y313496D01*
X131043Y313498D01*
X130941Y313476D01*
X130839Y313460D01*
X130822Y313450D01*
X130802Y313446D01*
X130713Y313393D01*
X130622Y313344D01*
X130608Y313330D01*
X130591Y313320D01*
X130524Y313241D01*
X130452Y313166D01*
X130444Y313148D01*
X130431Y313133D01*
X130392Y313037D01*
X130349Y312943D01*
X130347Y312923D01*
X130339Y312905D01*
X130321Y312738D01*
X130321Y312472D01*
X123387Y305538D01*
X123375Y305522D01*
X123359Y305510D01*
X123303Y305422D01*
X123243Y305339D01*
X123237Y305320D01*
X123226Y305303D01*
X123201Y305202D01*
X123171Y305103D01*
X123171Y305084D01*
X123166Y305064D01*
X123174Y304961D01*
X123177Y304858D01*
X123184Y304839D01*
X123186Y304819D01*
X123226Y304724D01*
X123262Y304627D01*
X123274Y304611D01*
X123282Y304593D01*
X123387Y304462D01*
X130321Y297528D01*
X130321Y293262D01*
X130324Y293242D01*
X130322Y293223D01*
X130344Y293121D01*
X130360Y293019D01*
X130370Y293002D01*
X130374Y292982D01*
X130427Y292893D01*
X130476Y292802D01*
X130490Y292788D01*
X130500Y292771D01*
X130579Y292704D01*
X130654Y292632D01*
X130672Y292624D01*
X130687Y292611D01*
X130783Y292572D01*
X130877Y292529D01*
X130897Y292527D01*
X130915Y292519D01*
X131082Y292501D01*
X160038Y292501D01*
X160058Y292504D01*
X160077Y292502D01*
X160179Y292524D01*
X160281Y292540D01*
X160298Y292550D01*
X160318Y292554D01*
X160407Y292607D01*
X160498Y292656D01*
X160512Y292670D01*
X160529Y292680D01*
X160596Y292759D01*
X160668Y292834D01*
X160676Y292852D01*
X160689Y292867D01*
X160728Y292963D01*
X160771Y293057D01*
X160773Y293077D01*
X160781Y293095D01*
X160788Y293160D01*
X162550Y297415D01*
X165785Y300650D01*
X170012Y302401D01*
X187588Y302401D01*
X191815Y300650D01*
X195050Y297415D01*
X196801Y293188D01*
X196801Y288612D01*
X195050Y284385D01*
X191815Y281150D01*
X187588Y279399D01*
X170012Y279399D01*
X165785Y281150D01*
X162550Y284385D01*
X161248Y287529D01*
X161186Y287629D01*
X161126Y287729D01*
X161122Y287733D01*
X161118Y287738D01*
X161029Y287813D01*
X160939Y287889D01*
X160934Y287891D01*
X160929Y287895D01*
X160821Y287937D01*
X160711Y287981D01*
X160704Y287982D01*
X160699Y287983D01*
X160681Y287984D01*
X160545Y287999D01*
X131082Y287999D01*
X131062Y287996D01*
X131043Y287998D01*
X130941Y287976D01*
X130839Y287960D01*
X130822Y287950D01*
X130802Y287946D01*
X130713Y287893D01*
X130622Y287844D01*
X130608Y287830D01*
X130591Y287820D01*
X130524Y287741D01*
X130452Y287666D01*
X130444Y287648D01*
X130431Y287633D01*
X130392Y287537D01*
X130349Y287443D01*
X130347Y287423D01*
X130339Y287405D01*
X130321Y287238D01*
X130321Y287072D01*
X123387Y280138D01*
X123375Y280122D01*
X123359Y280110D01*
X123314Y280039D01*
X123300Y280024D01*
X123291Y280005D01*
X123243Y279939D01*
X123237Y279920D01*
X123226Y279903D01*
X123206Y279823D01*
X123196Y279801D01*
X123194Y279777D01*
X123171Y279703D01*
X123171Y279684D01*
X123166Y279664D01*
X123172Y279587D01*
X123169Y279556D01*
X123175Y279527D01*
X123177Y279458D01*
X123184Y279439D01*
X123186Y279419D01*
X123213Y279355D01*
X123221Y279316D01*
X123241Y279283D01*
X123262Y279227D01*
X123274Y279211D01*
X123282Y279193D01*
X123333Y279128D01*
X123347Y279105D01*
X123363Y279092D01*
X123387Y279062D01*
X130321Y272128D01*
X130321Y268512D01*
X130324Y268492D01*
X130322Y268473D01*
X130344Y268371D01*
X130360Y268269D01*
X130370Y268252D01*
X130374Y268232D01*
X130427Y268143D01*
X130476Y268052D01*
X130490Y268038D01*
X130500Y268021D01*
X130579Y267954D01*
X130654Y267882D01*
X130672Y267874D01*
X130687Y267861D01*
X130783Y267822D01*
X130877Y267779D01*
X130897Y267777D01*
X130915Y267769D01*
X131082Y267751D01*
X160275Y267751D01*
X160390Y267770D01*
X160506Y267787D01*
X160512Y267789D01*
X160518Y267790D01*
X160621Y267845D01*
X160726Y267898D01*
X160730Y267903D01*
X160735Y267906D01*
X160815Y267990D01*
X160898Y268074D01*
X160901Y268080D01*
X160905Y268084D01*
X160913Y268101D01*
X160979Y268221D01*
X162550Y272015D01*
X165785Y275250D01*
X170012Y277001D01*
X187588Y277001D01*
X191815Y275250D01*
X195050Y272015D01*
X196801Y267788D01*
X196801Y263212D01*
X195050Y258985D01*
X191815Y255750D01*
X187588Y253999D01*
X170012Y253999D01*
X165785Y255750D01*
X162550Y258985D01*
X160979Y262779D01*
X160917Y262879D01*
X160857Y262979D01*
X160852Y262983D01*
X160849Y262988D01*
X160759Y263063D01*
X160670Y263139D01*
X160664Y263141D01*
X160660Y263145D01*
X160551Y263187D01*
X160442Y263231D01*
X160434Y263232D01*
X160430Y263233D01*
X160412Y263234D01*
X160275Y263249D01*
X131082Y263249D01*
X131062Y263246D01*
X131043Y263248D01*
X130941Y263226D01*
X130839Y263210D01*
X130822Y263200D01*
X130802Y263196D01*
X130713Y263143D01*
X130622Y263094D01*
X130608Y263080D01*
X130591Y263070D01*
X130524Y262991D01*
X130452Y262916D01*
X130444Y262898D01*
X130431Y262883D01*
X130392Y262787D01*
X130349Y262693D01*
X130347Y262673D01*
X130339Y262655D01*
X130321Y262488D01*
X130321Y261672D01*
X123387Y254738D01*
X123375Y254722D01*
X123359Y254710D01*
X123303Y254622D01*
X123243Y254539D01*
X123237Y254520D01*
X123226Y254503D01*
X123201Y254402D01*
X123171Y254303D01*
X123171Y254284D01*
X123166Y254264D01*
X123174Y254161D01*
X123177Y254058D01*
X123184Y254039D01*
X123186Y254019D01*
X123226Y253924D01*
X123262Y253827D01*
X123274Y253811D01*
X123282Y253793D01*
X123387Y253662D01*
X130321Y246728D01*
X130321Y243762D01*
X130324Y243742D01*
X130322Y243723D01*
X130344Y243621D01*
X130360Y243519D01*
X130370Y243502D01*
X130374Y243482D01*
X130427Y243393D01*
X130476Y243302D01*
X130490Y243288D01*
X130500Y243271D01*
X130579Y243204D01*
X130654Y243132D01*
X130672Y243124D01*
X130687Y243111D01*
X130783Y243072D01*
X130877Y243029D01*
X130897Y243027D01*
X130915Y243019D01*
X131082Y243001D01*
X160545Y243001D01*
X160659Y243020D01*
X160776Y243037D01*
X160781Y243039D01*
X160787Y243040D01*
X160890Y243095D01*
X160995Y243148D01*
X160999Y243153D01*
X161005Y243156D01*
X161085Y243240D01*
X161167Y243324D01*
X161171Y243330D01*
X161174Y243334D01*
X161182Y243351D01*
X161248Y243471D01*
X162550Y246615D01*
X165785Y249850D01*
X170012Y251601D01*
X187588Y251601D01*
X191815Y249850D01*
X195050Y246615D01*
X196801Y242388D01*
X196801Y237812D01*
X195050Y233585D01*
X191815Y230350D01*
X187588Y228599D01*
X170012Y228599D01*
X165785Y230350D01*
X162550Y233585D01*
X160781Y237856D01*
X160776Y237879D01*
X160760Y237981D01*
X160750Y237998D01*
X160746Y238018D01*
X160693Y238107D01*
X160644Y238198D01*
X160630Y238212D01*
X160620Y238229D01*
X160541Y238296D01*
X160466Y238368D01*
X160448Y238376D01*
X160433Y238389D01*
X160337Y238428D01*
X160243Y238471D01*
X160223Y238473D01*
X160205Y238481D01*
X160038Y238499D01*
X131082Y238499D01*
X131062Y238496D01*
X131043Y238498D01*
X130941Y238476D01*
X130839Y238460D01*
X130822Y238450D01*
X130802Y238446D01*
X130713Y238393D01*
X130622Y238344D01*
X130608Y238330D01*
X130591Y238320D01*
X130524Y238241D01*
X130452Y238166D01*
X130444Y238148D01*
X130431Y238133D01*
X130392Y238037D01*
X130349Y237943D01*
X130347Y237923D01*
X130339Y237905D01*
X130321Y237738D01*
X130321Y236272D01*
X123387Y229338D01*
X123375Y229322D01*
X123359Y229310D01*
X123303Y229222D01*
X123243Y229139D01*
X123237Y229120D01*
X123226Y229103D01*
X123201Y229002D01*
X123171Y228903D01*
X123171Y228884D01*
X123166Y228864D01*
X123174Y228761D01*
X123177Y228658D01*
X123184Y228639D01*
X123186Y228619D01*
X123226Y228524D01*
X123262Y228427D01*
X123274Y228411D01*
X123282Y228393D01*
X123387Y228262D01*
X130321Y221328D01*
X130321Y218262D01*
X130324Y218242D01*
X130322Y218223D01*
X130344Y218121D01*
X130360Y218019D01*
X130370Y218002D01*
X130374Y217982D01*
X130427Y217893D01*
X130476Y217802D01*
X130490Y217788D01*
X130500Y217771D01*
X130579Y217704D01*
X130654Y217632D01*
X130672Y217624D01*
X130687Y217611D01*
X130783Y217572D01*
X130877Y217529D01*
X130897Y217527D01*
X130915Y217519D01*
X131082Y217501D01*
X160503Y217501D01*
X160618Y217520D01*
X160734Y217537D01*
X160740Y217539D01*
X160746Y217540D01*
X160849Y217595D01*
X160953Y217648D01*
X160958Y217653D01*
X160963Y217656D01*
X161043Y217740D01*
X161126Y217824D01*
X161129Y217830D01*
X161133Y217834D01*
X161140Y217851D01*
X161206Y217971D01*
X162550Y221215D01*
X165785Y224450D01*
X170012Y226201D01*
X187588Y226201D01*
X191815Y224450D01*
X195050Y221215D01*
X196801Y216988D01*
X196801Y212412D01*
X195050Y208185D01*
X191815Y204950D01*
X187588Y203199D01*
X170012Y203199D01*
X165785Y204950D01*
X162550Y208185D01*
X160751Y212529D01*
X160689Y212629D01*
X160629Y212729D01*
X160625Y212733D01*
X160621Y212738D01*
X160532Y212813D01*
X160442Y212889D01*
X160437Y212891D01*
X160432Y212895D01*
X160324Y212937D01*
X160214Y212981D01*
X160207Y212982D01*
X160202Y212983D01*
X160184Y212984D01*
X160048Y212999D01*
X131082Y212999D01*
X131062Y212996D01*
X131043Y212998D01*
X130941Y212976D01*
X130839Y212960D01*
X130822Y212950D01*
X130802Y212946D01*
X130713Y212893D01*
X130622Y212844D01*
X130608Y212830D01*
X130591Y212820D01*
X130524Y212741D01*
X130452Y212666D01*
X130444Y212648D01*
X130431Y212633D01*
X130392Y212537D01*
X130349Y212443D01*
X130347Y212423D01*
X130339Y212405D01*
X130321Y212238D01*
X130321Y210872D01*
X123387Y203938D01*
X123375Y203922D01*
X123359Y203910D01*
X123303Y203822D01*
X123243Y203739D01*
X123237Y203720D01*
X123226Y203703D01*
X123201Y203602D01*
X123171Y203503D01*
X123171Y203484D01*
X123166Y203464D01*
X123174Y203361D01*
X123177Y203258D01*
X123184Y203239D01*
X123186Y203219D01*
X123226Y203124D01*
X123262Y203027D01*
X123274Y203011D01*
X123282Y202993D01*
X123387Y202862D01*
X130321Y195928D01*
X130321Y192762D01*
X130324Y192742D01*
X130322Y192723D01*
X130344Y192621D01*
X130360Y192519D01*
X130370Y192502D01*
X130374Y192482D01*
X130427Y192393D01*
X130476Y192302D01*
X130490Y192288D01*
X130500Y192271D01*
X130579Y192204D01*
X130654Y192132D01*
X130672Y192124D01*
X130687Y192111D01*
X130783Y192072D01*
X130877Y192029D01*
X130897Y192027D01*
X130915Y192019D01*
X131082Y192001D01*
X160462Y192001D01*
X160577Y192020D01*
X160693Y192037D01*
X160698Y192039D01*
X160704Y192040D01*
X160807Y192095D01*
X160912Y192148D01*
X160916Y192153D01*
X160922Y192156D01*
X161002Y192240D01*
X161084Y192324D01*
X161088Y192330D01*
X161091Y192334D01*
X161099Y192351D01*
X161165Y192471D01*
X162550Y195815D01*
X165785Y199050D01*
X170012Y200801D01*
X187588Y200801D01*
X191815Y199050D01*
X195050Y195815D01*
X196801Y191588D01*
X196801Y187012D01*
X195050Y182785D01*
X191815Y179550D01*
X187588Y177799D01*
X170012Y177799D01*
X165785Y179550D01*
X162550Y182785D01*
X160792Y187029D01*
X160731Y187129D01*
X160671Y187229D01*
X160666Y187233D01*
X160663Y187238D01*
X160573Y187313D01*
X160484Y187389D01*
X160478Y187391D01*
X160473Y187395D01*
X160365Y187437D01*
X160256Y187481D01*
X160248Y187482D01*
X160244Y187483D01*
X160225Y187484D01*
X160089Y187499D01*
X131082Y187499D01*
X131062Y187496D01*
X131043Y187498D01*
X130941Y187476D01*
X130839Y187460D01*
X130822Y187450D01*
X130802Y187446D01*
X130713Y187393D01*
X130622Y187344D01*
X130608Y187330D01*
X130591Y187320D01*
X130524Y187241D01*
X130452Y187166D01*
X130444Y187148D01*
X130431Y187133D01*
X130392Y187037D01*
X130349Y186943D01*
X130347Y186923D01*
X130339Y186905D01*
X130321Y186738D01*
X130321Y185472D01*
X123387Y178538D01*
X123375Y178522D01*
X123359Y178510D01*
X123303Y178422D01*
X123243Y178339D01*
X123237Y178320D01*
X123226Y178303D01*
X123201Y178202D01*
X123171Y178103D01*
X123171Y178084D01*
X123166Y178064D01*
X123174Y177961D01*
X123177Y177858D01*
X123184Y177839D01*
X123186Y177819D01*
X123226Y177724D01*
X123262Y177627D01*
X123274Y177611D01*
X123282Y177593D01*
X123387Y177462D01*
X130321Y170528D01*
X130321Y166512D01*
X130324Y166492D01*
X130322Y166473D01*
X130344Y166371D01*
X130360Y166269D01*
X130370Y166252D01*
X130374Y166232D01*
X130427Y166143D01*
X130476Y166052D01*
X130490Y166038D01*
X130500Y166021D01*
X130579Y165954D01*
X130654Y165882D01*
X130672Y165874D01*
X130687Y165861D01*
X130783Y165822D01*
X130877Y165779D01*
X130897Y165777D01*
X130915Y165769D01*
X131082Y165751D01*
X160110Y165751D01*
X160224Y165770D01*
X160341Y165787D01*
X160346Y165789D01*
X160352Y165790D01*
X160455Y165845D01*
X160560Y165898D01*
X160564Y165903D01*
X160570Y165906D01*
X160650Y165990D01*
X160732Y166074D01*
X160736Y166080D01*
X160739Y166084D01*
X160747Y166101D01*
X160813Y166221D01*
X162550Y170415D01*
X165785Y173650D01*
X170012Y175401D01*
X187588Y175401D01*
X191815Y173650D01*
X195050Y170415D01*
X196801Y166188D01*
X196801Y161612D01*
X195050Y157385D01*
X191815Y154150D01*
X187588Y152399D01*
X170012Y152399D01*
X165785Y154150D01*
X162550Y157385D01*
X161144Y160779D01*
X161083Y160879D01*
X161023Y160979D01*
X161018Y160983D01*
X161015Y160988D01*
X160925Y161063D01*
X160836Y161139D01*
X160830Y161141D01*
X160825Y161145D01*
X160717Y161187D01*
X160608Y161231D01*
X160600Y161232D01*
X160596Y161233D01*
X160577Y161234D01*
X160441Y161249D01*
X131082Y161249D01*
X131062Y161246D01*
X131043Y161248D01*
X130941Y161226D01*
X130839Y161210D01*
X130822Y161200D01*
X130802Y161196D01*
X130713Y161143D01*
X130622Y161094D01*
X130608Y161080D01*
X130591Y161070D01*
X130524Y160991D01*
X130452Y160916D01*
X130444Y160898D01*
X130431Y160883D01*
X130392Y160787D01*
X130349Y160693D01*
X130347Y160673D01*
X130339Y160655D01*
X130321Y160488D01*
X130321Y160072D01*
X123387Y153138D01*
X123375Y153122D01*
X123359Y153110D01*
X123303Y153022D01*
X123243Y152939D01*
X123237Y152920D01*
X123226Y152903D01*
X123201Y152802D01*
X123171Y152703D01*
X123171Y152684D01*
X123166Y152664D01*
X123174Y152561D01*
X123177Y152458D01*
X123184Y152439D01*
X123186Y152419D01*
X123226Y152324D01*
X123262Y152227D01*
X123274Y152211D01*
X123282Y152193D01*
X123387Y152062D01*
X130321Y145128D01*
X130321Y141012D01*
X130324Y140992D01*
X130322Y140973D01*
X130344Y140871D01*
X130360Y140769D01*
X130370Y140752D01*
X130374Y140732D01*
X130427Y140643D01*
X130476Y140552D01*
X130490Y140538D01*
X130500Y140521D01*
X130579Y140454D01*
X130654Y140382D01*
X130672Y140374D01*
X130687Y140361D01*
X130783Y140322D01*
X130877Y140279D01*
X130897Y140277D01*
X130915Y140269D01*
X131082Y140251D01*
X160068Y140251D01*
X160183Y140270D01*
X160299Y140287D01*
X160305Y140289D01*
X160311Y140290D01*
X160414Y140345D01*
X160518Y140398D01*
X160523Y140403D01*
X160528Y140406D01*
X160608Y140490D01*
X160691Y140574D01*
X160694Y140580D01*
X160698Y140584D01*
X160706Y140601D01*
X160772Y140721D01*
X162550Y145015D01*
X165785Y148250D01*
X170012Y150001D01*
X187588Y150001D01*
X191815Y148250D01*
X195050Y145015D01*
X196801Y140788D01*
X196801Y136212D01*
X195050Y131985D01*
X191815Y128750D01*
X187588Y126999D01*
X170012Y126999D01*
X165785Y128750D01*
X162550Y131985D01*
X161186Y135279D01*
X161124Y135379D01*
X161064Y135479D01*
X161059Y135483D01*
X161056Y135488D01*
X160966Y135563D01*
X160877Y135639D01*
X160871Y135641D01*
X160867Y135645D01*
X160758Y135687D01*
X160649Y135731D01*
X160642Y135732D01*
X160637Y135733D01*
X160619Y135734D01*
X160482Y135749D01*
X131082Y135749D01*
X131062Y135746D01*
X131043Y135748D01*
X130941Y135726D01*
X130839Y135710D01*
X130822Y135700D01*
X130802Y135696D01*
X130713Y135643D01*
X130622Y135594D01*
X130608Y135580D01*
X130591Y135570D01*
X130524Y135491D01*
X130452Y135416D01*
X130444Y135398D01*
X130431Y135383D01*
X130392Y135287D01*
X130349Y135193D01*
X130347Y135173D01*
X130339Y135155D01*
X130321Y134988D01*
X130321Y134672D01*
X123387Y127738D01*
X123375Y127722D01*
X123359Y127710D01*
X123303Y127622D01*
X123243Y127539D01*
X123237Y127520D01*
X123226Y127503D01*
X123201Y127402D01*
X123171Y127303D01*
X123171Y127284D01*
X123166Y127264D01*
X123174Y127161D01*
X123177Y127058D01*
X123184Y127039D01*
X123186Y127019D01*
X123226Y126924D01*
X123262Y126827D01*
X123274Y126811D01*
X123282Y126793D01*
X123387Y126662D01*
X130321Y119728D01*
X130321Y117012D01*
X130324Y116992D01*
X130322Y116973D01*
X130344Y116871D01*
X130360Y116769D01*
X130370Y116752D01*
X130374Y116732D01*
X130427Y116643D01*
X130476Y116552D01*
X130490Y116538D01*
X130500Y116521D01*
X130579Y116454D01*
X130654Y116382D01*
X130672Y116374D01*
X130687Y116361D01*
X130783Y116322D01*
X130877Y116279D01*
X130897Y116277D01*
X130915Y116269D01*
X131082Y116251D01*
X160648Y116251D01*
X160763Y116270D01*
X160879Y116287D01*
X160885Y116289D01*
X160891Y116290D01*
X160994Y116345D01*
X161098Y116398D01*
X161103Y116403D01*
X161108Y116406D01*
X161188Y116490D01*
X161271Y116574D01*
X161274Y116580D01*
X161278Y116584D01*
X161285Y116601D01*
X161351Y116721D01*
X162550Y119615D01*
X165785Y122850D01*
X170012Y124601D01*
X187588Y124601D01*
X191815Y122850D01*
X195050Y119615D01*
X196801Y115388D01*
X196801Y110812D01*
X195050Y106585D01*
X191815Y103350D01*
X187588Y101599D01*
X170012Y101599D01*
G37*
%LPD*%
%LPC*%
G36*
X37072Y305079D02*
X37072Y305079D01*
X29679Y312472D01*
X29679Y322928D01*
X36613Y329862D01*
X36625Y329878D01*
X36641Y329890D01*
X36697Y329978D01*
X36757Y330061D01*
X36763Y330080D01*
X36774Y330097D01*
X36799Y330198D01*
X36829Y330297D01*
X36829Y330316D01*
X36834Y330336D01*
X36826Y330439D01*
X36823Y330542D01*
X36816Y330561D01*
X36814Y330581D01*
X36774Y330676D01*
X36738Y330773D01*
X36726Y330789D01*
X36718Y330807D01*
X36613Y330938D01*
X29679Y337872D01*
X29679Y348328D01*
X36613Y355262D01*
X36625Y355278D01*
X36641Y355290D01*
X36697Y355378D01*
X36757Y355461D01*
X36763Y355480D01*
X36774Y355497D01*
X36799Y355598D01*
X36829Y355697D01*
X36829Y355716D01*
X36834Y355736D01*
X36826Y355839D01*
X36823Y355942D01*
X36816Y355961D01*
X36814Y355981D01*
X36774Y356076D01*
X36738Y356173D01*
X36726Y356189D01*
X36718Y356207D01*
X36613Y356338D01*
X29679Y363272D01*
X29679Y373728D01*
X36613Y380662D01*
X36625Y380678D01*
X36641Y380690D01*
X36697Y380778D01*
X36757Y380861D01*
X36763Y380880D01*
X36774Y380897D01*
X36799Y380998D01*
X36829Y381097D01*
X36829Y381116D01*
X36834Y381136D01*
X36826Y381239D01*
X36823Y381342D01*
X36816Y381361D01*
X36814Y381381D01*
X36774Y381476D01*
X36738Y381573D01*
X36726Y381589D01*
X36718Y381607D01*
X36613Y381738D01*
X29679Y388672D01*
X29679Y399128D01*
X37072Y406521D01*
X47528Y406521D01*
X54921Y399128D01*
X54921Y388672D01*
X47987Y381738D01*
X47975Y381722D01*
X47959Y381710D01*
X47903Y381622D01*
X47843Y381539D01*
X47837Y381520D01*
X47826Y381503D01*
X47801Y381402D01*
X47771Y381303D01*
X47771Y381284D01*
X47766Y381264D01*
X47774Y381161D01*
X47777Y381058D01*
X47784Y381039D01*
X47786Y381019D01*
X47826Y380924D01*
X47862Y380827D01*
X47874Y380811D01*
X47882Y380793D01*
X47987Y380662D01*
X54921Y373728D01*
X54921Y363272D01*
X47987Y356338D01*
X47975Y356322D01*
X47959Y356310D01*
X47903Y356222D01*
X47843Y356139D01*
X47837Y356120D01*
X47826Y356103D01*
X47801Y356002D01*
X47771Y355903D01*
X47771Y355884D01*
X47766Y355864D01*
X47774Y355761D01*
X47777Y355658D01*
X47784Y355639D01*
X47786Y355619D01*
X47826Y355524D01*
X47862Y355427D01*
X47874Y355411D01*
X47882Y355393D01*
X47987Y355262D01*
X54921Y348328D01*
X54921Y337872D01*
X47987Y330938D01*
X47975Y330922D01*
X47959Y330910D01*
X47903Y330822D01*
X47843Y330739D01*
X47837Y330720D01*
X47826Y330703D01*
X47801Y330602D01*
X47771Y330503D01*
X47771Y330484D01*
X47766Y330464D01*
X47774Y330361D01*
X47777Y330258D01*
X47784Y330239D01*
X47786Y330219D01*
X47826Y330124D01*
X47862Y330027D01*
X47874Y330011D01*
X47882Y329993D01*
X47987Y329862D01*
X54921Y322928D01*
X54921Y312472D01*
X47528Y305079D01*
X37072Y305079D01*
G37*
%LPD*%
%LPC*%
G36*
X476519Y572499D02*
X476519Y572499D01*
X470087Y575164D01*
X465164Y580087D01*
X462499Y586519D01*
X462499Y593481D01*
X465164Y599913D01*
X470087Y604836D01*
X476519Y607501D01*
X483481Y607501D01*
X489913Y604836D01*
X494836Y599913D01*
X497501Y593481D01*
X497501Y586519D01*
X494836Y580087D01*
X489913Y575164D01*
X483481Y572499D01*
X476519Y572499D01*
G37*
%LPD*%
%LPC*%
G36*
X26519Y572499D02*
X26519Y572499D01*
X20087Y575164D01*
X15164Y580087D01*
X12499Y586519D01*
X12499Y593481D01*
X15164Y599913D01*
X20087Y604836D01*
X26519Y607501D01*
X33481Y607501D01*
X39913Y604836D01*
X44836Y599913D01*
X47501Y593481D01*
X47501Y586519D01*
X44836Y580087D01*
X39913Y575164D01*
X33481Y572499D01*
X26519Y572499D01*
G37*
%LPD*%
%LPC*%
G36*
X476519Y12499D02*
X476519Y12499D01*
X470087Y15164D01*
X465164Y20087D01*
X462499Y26519D01*
X462499Y33481D01*
X465164Y39913D01*
X470087Y44836D01*
X476519Y47501D01*
X483481Y47501D01*
X489913Y44836D01*
X494836Y39913D01*
X497501Y33481D01*
X497501Y26519D01*
X494836Y20087D01*
X489913Y15164D01*
X483481Y12499D01*
X476519Y12499D01*
G37*
%LPD*%
%LPC*%
G36*
X26519Y12499D02*
X26519Y12499D01*
X20087Y15164D01*
X15164Y20087D01*
X12499Y26519D01*
X12499Y33481D01*
X15164Y39913D01*
X20087Y44836D01*
X26519Y47501D01*
X33481Y47501D01*
X39913Y44836D01*
X44836Y39913D01*
X47501Y33481D01*
X47501Y26519D01*
X44836Y20087D01*
X39913Y15164D01*
X33481Y12499D01*
X26519Y12499D01*
G37*
%LPD*%
%LPC*%
G36*
X332723Y546423D02*
X332723Y546423D01*
X332723Y553901D01*
X338587Y553901D01*
X340325Y553555D01*
X341963Y552876D01*
X343438Y551891D01*
X344691Y550638D01*
X345676Y549163D01*
X346355Y547525D01*
X346574Y546423D01*
X332723Y546423D01*
G37*
%LPD*%
%LPC*%
G36*
X332723Y521023D02*
X332723Y521023D01*
X332723Y528501D01*
X338587Y528501D01*
X340325Y528155D01*
X341963Y527476D01*
X343438Y526491D01*
X344691Y525238D01*
X345676Y523763D01*
X346355Y522125D01*
X346574Y521023D01*
X332723Y521023D01*
G37*
%LPD*%
%LPC*%
G36*
X180323Y89223D02*
X180323Y89223D01*
X180323Y96701D01*
X186187Y96701D01*
X187925Y96355D01*
X189563Y95676D01*
X191038Y94691D01*
X192291Y93438D01*
X193276Y91963D01*
X193955Y90325D01*
X194174Y89223D01*
X180323Y89223D01*
G37*
%LPD*%
%LPC*%
G36*
X315826Y546423D02*
X315826Y546423D01*
X316045Y547525D01*
X316724Y549163D01*
X317709Y550638D01*
X318962Y551891D01*
X320437Y552876D01*
X322075Y553555D01*
X323813Y553901D01*
X329677Y553901D01*
X329677Y546423D01*
X315826Y546423D01*
G37*
%LPD*%
%LPC*%
G36*
X315826Y521023D02*
X315826Y521023D01*
X316045Y522125D01*
X316724Y523763D01*
X317709Y525238D01*
X318962Y526491D01*
X320437Y527476D01*
X322075Y528155D01*
X323813Y528501D01*
X329677Y528501D01*
X329677Y521023D01*
X315826Y521023D01*
G37*
%LPD*%
%LPC*%
G36*
X163426Y89223D02*
X163426Y89223D01*
X163645Y90325D01*
X164324Y91963D01*
X165309Y93438D01*
X166562Y94691D01*
X168037Y95676D01*
X169675Y96355D01*
X171413Y96701D01*
X177277Y96701D01*
X177277Y89223D01*
X163426Y89223D01*
G37*
%LPD*%
%LPC*%
G36*
X332723Y535899D02*
X332723Y535899D01*
X332723Y543377D01*
X346574Y543377D01*
X346355Y542275D01*
X345676Y540637D01*
X344691Y539162D01*
X343438Y537909D01*
X341963Y536924D01*
X340325Y536245D01*
X338587Y535899D01*
X332723Y535899D01*
G37*
%LPD*%
%LPC*%
G36*
X332723Y510499D02*
X332723Y510499D01*
X332723Y517977D01*
X346574Y517977D01*
X346355Y516875D01*
X345676Y515237D01*
X344691Y513762D01*
X343438Y512509D01*
X341963Y511524D01*
X340325Y510845D01*
X338587Y510499D01*
X332723Y510499D01*
G37*
%LPD*%
%LPC*%
G36*
X180323Y78699D02*
X180323Y78699D01*
X180323Y86177D01*
X194174Y86177D01*
X193955Y85075D01*
X193276Y83436D01*
X192291Y81962D01*
X191038Y80709D01*
X189563Y79724D01*
X187925Y79045D01*
X186187Y78699D01*
X180323Y78699D01*
G37*
%LPD*%
%LPC*%
G36*
X323813Y535899D02*
X323813Y535899D01*
X322075Y536245D01*
X320437Y536924D01*
X318962Y537909D01*
X317709Y539162D01*
X316724Y540637D01*
X316045Y542275D01*
X315826Y543377D01*
X329677Y543377D01*
X329677Y535899D01*
X323813Y535899D01*
G37*
%LPD*%
%LPC*%
G36*
X323813Y510499D02*
X323813Y510499D01*
X322075Y510845D01*
X320437Y511524D01*
X318962Y512509D01*
X317709Y513762D01*
X316724Y515237D01*
X316045Y516875D01*
X315826Y517977D01*
X329677Y517977D01*
X329677Y510499D01*
X323813Y510499D01*
G37*
%LPD*%
%LPC*%
G36*
X171413Y78699D02*
X171413Y78699D01*
X169675Y79045D01*
X168037Y79724D01*
X166562Y80709D01*
X165309Y81962D01*
X164324Y83436D01*
X163645Y85075D01*
X163426Y86177D01*
X177277Y86177D01*
X177277Y78699D01*
X171413Y78699D01*
G37*
%LPD*%
%LPC*%
G36*
X419223Y344623D02*
X419223Y344623D01*
X419223Y353221D01*
X421892Y353221D01*
X427821Y347292D01*
X427821Y344623D01*
X419223Y344623D01*
G37*
%LPD*%
%LPC*%
G36*
X419223Y319223D02*
X419223Y319223D01*
X419223Y327821D01*
X421892Y327821D01*
X427821Y321892D01*
X427821Y319223D01*
X419223Y319223D01*
G37*
%LPD*%
%LPC*%
G36*
X93823Y65223D02*
X93823Y65223D01*
X93823Y73821D01*
X96492Y73821D01*
X102421Y67892D01*
X102421Y65223D01*
X93823Y65223D01*
G37*
%LPD*%
%LPC*%
G36*
X419223Y65223D02*
X419223Y65223D01*
X419223Y73821D01*
X421892Y73821D01*
X427821Y67892D01*
X427821Y65223D01*
X419223Y65223D01*
G37*
%LPD*%
%LPC*%
G36*
X93823Y420823D02*
X93823Y420823D01*
X93823Y429421D01*
X96492Y429421D01*
X102421Y423492D01*
X102421Y420823D01*
X93823Y420823D01*
G37*
%LPD*%
%LPC*%
G36*
X419223Y217623D02*
X419223Y217623D01*
X419223Y226221D01*
X421892Y226221D01*
X427821Y220292D01*
X427821Y217623D01*
X419223Y217623D01*
G37*
%LPD*%
%LPC*%
G36*
X419223Y522423D02*
X419223Y522423D01*
X419223Y531021D01*
X421892Y531021D01*
X427821Y525092D01*
X427821Y522423D01*
X419223Y522423D01*
G37*
%LPD*%
%LPC*%
G36*
X419223Y243023D02*
X419223Y243023D01*
X419223Y251621D01*
X421892Y251621D01*
X427821Y245692D01*
X427821Y243023D01*
X419223Y243023D01*
G37*
%LPD*%
%LPC*%
G36*
X419223Y420823D02*
X419223Y420823D01*
X419223Y429421D01*
X421892Y429421D01*
X427821Y423492D01*
X427821Y420823D01*
X419223Y420823D01*
G37*
%LPD*%
%LPC*%
G36*
X93823Y522423D02*
X93823Y522423D01*
X93823Y531021D01*
X96492Y531021D01*
X102421Y525092D01*
X102421Y522423D01*
X93823Y522423D01*
G37*
%LPD*%
%LPC*%
G36*
X393823Y522423D02*
X393823Y522423D01*
X393823Y531021D01*
X396492Y531021D01*
X402421Y525092D01*
X402421Y522423D01*
X393823Y522423D01*
G37*
%LPD*%
%LPC*%
G36*
X393823Y547823D02*
X393823Y547823D01*
X393823Y556421D01*
X396492Y556421D01*
X402421Y550492D01*
X402421Y547823D01*
X393823Y547823D01*
G37*
%LPD*%
%LPC*%
G36*
X419223Y547823D02*
X419223Y547823D01*
X419223Y556421D01*
X421892Y556421D01*
X427821Y550492D01*
X427821Y547823D01*
X419223Y547823D01*
G37*
%LPD*%
%LPC*%
G36*
X93823Y192223D02*
X93823Y192223D01*
X93823Y200821D01*
X96492Y200821D01*
X102421Y194892D01*
X102421Y192223D01*
X93823Y192223D01*
G37*
%LPD*%
%LPC*%
G36*
X419223Y192223D02*
X419223Y192223D01*
X419223Y200821D01*
X421892Y200821D01*
X427821Y194892D01*
X427821Y192223D01*
X419223Y192223D01*
G37*
%LPD*%
%LPC*%
G36*
X93823Y547823D02*
X93823Y547823D01*
X93823Y556421D01*
X96492Y556421D01*
X102421Y550492D01*
X102421Y547823D01*
X93823Y547823D01*
G37*
%LPD*%
%LPC*%
G36*
X419223Y446223D02*
X419223Y446223D01*
X419223Y454821D01*
X421892Y454821D01*
X427821Y448892D01*
X427821Y446223D01*
X419223Y446223D01*
G37*
%LPD*%
%LPC*%
G36*
X93823Y90623D02*
X93823Y90623D01*
X93823Y99221D01*
X96492Y99221D01*
X102421Y93292D01*
X102421Y90623D01*
X93823Y90623D01*
G37*
%LPD*%
%LPC*%
G36*
X119223Y90623D02*
X119223Y90623D01*
X119223Y99221D01*
X121892Y99221D01*
X127821Y93292D01*
X127821Y90623D01*
X119223Y90623D01*
G37*
%LPD*%
%LPC*%
G36*
X93823Y217623D02*
X93823Y217623D01*
X93823Y226221D01*
X96492Y226221D01*
X102421Y220292D01*
X102421Y217623D01*
X93823Y217623D01*
G37*
%LPD*%
%LPC*%
G36*
X419223Y395423D02*
X419223Y395423D01*
X419223Y404021D01*
X421892Y404021D01*
X427821Y398092D01*
X427821Y395423D01*
X419223Y395423D01*
G37*
%LPD*%
%LPC*%
G36*
X93823Y268423D02*
X93823Y268423D01*
X93823Y277021D01*
X96492Y277021D01*
X102421Y271092D01*
X102421Y268423D01*
X93823Y268423D01*
G37*
%LPD*%
%LPC*%
G36*
X93823Y395423D02*
X93823Y395423D01*
X93823Y404021D01*
X96492Y404021D01*
X102421Y398092D01*
X102421Y395423D01*
X93823Y395423D01*
G37*
%LPD*%
%LPC*%
G36*
X93823Y319223D02*
X93823Y319223D01*
X93823Y327821D01*
X96492Y327821D01*
X102421Y321892D01*
X102421Y319223D01*
X93823Y319223D01*
G37*
%LPD*%
%LPC*%
G36*
X93823Y446223D02*
X93823Y446223D01*
X93823Y454821D01*
X96492Y454821D01*
X102421Y448892D01*
X102421Y446223D01*
X93823Y446223D01*
G37*
%LPD*%
%LPC*%
G36*
X93823Y497023D02*
X93823Y497023D01*
X93823Y505621D01*
X96492Y505621D01*
X102421Y499692D01*
X102421Y497023D01*
X93823Y497023D01*
G37*
%LPD*%
%LPC*%
G36*
X419223Y268423D02*
X419223Y268423D01*
X419223Y277021D01*
X421892Y277021D01*
X427821Y271092D01*
X427821Y268423D01*
X419223Y268423D01*
G37*
%LPD*%
%LPC*%
G36*
X419223Y497023D02*
X419223Y497023D01*
X419223Y505621D01*
X421892Y505621D01*
X427821Y499692D01*
X427821Y497023D01*
X419223Y497023D01*
G37*
%LPD*%
%LPC*%
G36*
X93823Y243023D02*
X93823Y243023D01*
X93823Y251621D01*
X96492Y251621D01*
X102421Y245692D01*
X102421Y243023D01*
X93823Y243023D01*
G37*
%LPD*%
%LPC*%
G36*
X419223Y90623D02*
X419223Y90623D01*
X419223Y99221D01*
X421892Y99221D01*
X427821Y93292D01*
X427821Y90623D01*
X419223Y90623D01*
G37*
%LPD*%
%LPC*%
G36*
X93823Y116023D02*
X93823Y116023D01*
X93823Y124621D01*
X96492Y124621D01*
X102421Y118692D01*
X102421Y116023D01*
X93823Y116023D01*
G37*
%LPD*%
%LPC*%
G36*
X419223Y116023D02*
X419223Y116023D01*
X419223Y124621D01*
X421892Y124621D01*
X427821Y118692D01*
X427821Y116023D01*
X419223Y116023D01*
G37*
%LPD*%
%LPC*%
G36*
X93823Y141423D02*
X93823Y141423D01*
X93823Y150021D01*
X96492Y150021D01*
X102421Y144092D01*
X102421Y141423D01*
X93823Y141423D01*
G37*
%LPD*%
%LPC*%
G36*
X419223Y141423D02*
X419223Y141423D01*
X419223Y150021D01*
X421892Y150021D01*
X427821Y144092D01*
X427821Y141423D01*
X419223Y141423D01*
G37*
%LPD*%
%LPC*%
G36*
X93823Y293823D02*
X93823Y293823D01*
X93823Y302421D01*
X96492Y302421D01*
X102421Y296492D01*
X102421Y293823D01*
X93823Y293823D01*
G37*
%LPD*%
%LPC*%
G36*
X419223Y471623D02*
X419223Y471623D01*
X419223Y480221D01*
X421892Y480221D01*
X427821Y474292D01*
X427821Y471623D01*
X419223Y471623D01*
G37*
%LPD*%
%LPC*%
G36*
X93823Y370023D02*
X93823Y370023D01*
X93823Y378621D01*
X96492Y378621D01*
X102421Y372692D01*
X102421Y370023D01*
X93823Y370023D01*
G37*
%LPD*%
%LPC*%
G36*
X93823Y471623D02*
X93823Y471623D01*
X93823Y480221D01*
X96492Y480221D01*
X102421Y474292D01*
X102421Y471623D01*
X93823Y471623D01*
G37*
%LPD*%
%LPC*%
G36*
X419223Y370023D02*
X419223Y370023D01*
X419223Y378621D01*
X421892Y378621D01*
X427821Y372692D01*
X427821Y370023D01*
X419223Y370023D01*
G37*
%LPD*%
%LPC*%
G36*
X419223Y293823D02*
X419223Y293823D01*
X419223Y302421D01*
X421892Y302421D01*
X427821Y296492D01*
X427821Y293823D01*
X419223Y293823D01*
G37*
%LPD*%
%LPC*%
G36*
X93823Y344623D02*
X93823Y344623D01*
X93823Y353221D01*
X96492Y353221D01*
X102421Y347292D01*
X102421Y344623D01*
X93823Y344623D01*
G37*
%LPD*%
%LPC*%
G36*
X93823Y166823D02*
X93823Y166823D01*
X93823Y175421D01*
X96492Y175421D01*
X102421Y169492D01*
X102421Y166823D01*
X93823Y166823D01*
G37*
%LPD*%
%LPC*%
G36*
X419223Y166823D02*
X419223Y166823D01*
X419223Y175421D01*
X421892Y175421D01*
X427821Y169492D01*
X427821Y166823D01*
X419223Y166823D01*
G37*
%LPD*%
%LPC*%
G36*
X82179Y547823D02*
X82179Y547823D01*
X82179Y550492D01*
X88108Y556421D01*
X90777Y556421D01*
X90777Y547823D01*
X82179Y547823D01*
G37*
%LPD*%
%LPC*%
G36*
X407579Y547823D02*
X407579Y547823D01*
X407579Y550492D01*
X413508Y556421D01*
X416177Y556421D01*
X416177Y547823D01*
X407579Y547823D01*
G37*
%LPD*%
%LPC*%
G36*
X382179Y547823D02*
X382179Y547823D01*
X382179Y550492D01*
X388108Y556421D01*
X390777Y556421D01*
X390777Y547823D01*
X382179Y547823D01*
G37*
%LPD*%
%LPC*%
G36*
X407579Y446223D02*
X407579Y446223D01*
X407579Y448892D01*
X413508Y454821D01*
X416177Y454821D01*
X416177Y446223D01*
X407579Y446223D01*
G37*
%LPD*%
%LPC*%
G36*
X407579Y65223D02*
X407579Y65223D01*
X407579Y67892D01*
X413508Y73821D01*
X416177Y73821D01*
X416177Y65223D01*
X407579Y65223D01*
G37*
%LPD*%
%LPC*%
G36*
X82179Y65223D02*
X82179Y65223D01*
X82179Y67892D01*
X88108Y73821D01*
X90777Y73821D01*
X90777Y65223D01*
X82179Y65223D01*
G37*
%LPD*%
%LPC*%
G36*
X407579Y90623D02*
X407579Y90623D01*
X407579Y93292D01*
X413508Y99221D01*
X416177Y99221D01*
X416177Y90623D01*
X407579Y90623D01*
G37*
%LPD*%
%LPC*%
G36*
X407579Y420823D02*
X407579Y420823D01*
X407579Y423492D01*
X413508Y429421D01*
X416177Y429421D01*
X416177Y420823D01*
X407579Y420823D01*
G37*
%LPD*%
%LPC*%
G36*
X82179Y420823D02*
X82179Y420823D01*
X82179Y423492D01*
X88108Y429421D01*
X90777Y429421D01*
X90777Y420823D01*
X82179Y420823D01*
G37*
%LPD*%
%LPC*%
G36*
X407579Y395423D02*
X407579Y395423D01*
X407579Y398092D01*
X413508Y404021D01*
X416177Y404021D01*
X416177Y395423D01*
X407579Y395423D01*
G37*
%LPD*%
%LPC*%
G36*
X82179Y395423D02*
X82179Y395423D01*
X82179Y398092D01*
X88108Y404021D01*
X90777Y404021D01*
X90777Y395423D01*
X82179Y395423D01*
G37*
%LPD*%
%LPC*%
G36*
X407579Y370023D02*
X407579Y370023D01*
X407579Y372692D01*
X413508Y378621D01*
X416177Y378621D01*
X416177Y370023D01*
X407579Y370023D01*
G37*
%LPD*%
%LPC*%
G36*
X82179Y370023D02*
X82179Y370023D01*
X82179Y372692D01*
X88108Y378621D01*
X90777Y378621D01*
X90777Y370023D01*
X82179Y370023D01*
G37*
%LPD*%
%LPC*%
G36*
X407579Y522423D02*
X407579Y522423D01*
X407579Y525092D01*
X413508Y531021D01*
X416177Y531021D01*
X416177Y522423D01*
X407579Y522423D01*
G37*
%LPD*%
%LPC*%
G36*
X82179Y522423D02*
X82179Y522423D01*
X82179Y525092D01*
X88108Y531021D01*
X90777Y531021D01*
X90777Y522423D01*
X82179Y522423D01*
G37*
%LPD*%
%LPC*%
G36*
X382179Y522423D02*
X382179Y522423D01*
X382179Y525092D01*
X388108Y531021D01*
X390777Y531021D01*
X390777Y522423D01*
X382179Y522423D01*
G37*
%LPD*%
%LPC*%
G36*
X407579Y344623D02*
X407579Y344623D01*
X407579Y347292D01*
X413508Y353221D01*
X416177Y353221D01*
X416177Y344623D01*
X407579Y344623D01*
G37*
%LPD*%
%LPC*%
G36*
X82179Y344623D02*
X82179Y344623D01*
X82179Y347292D01*
X88108Y353221D01*
X90777Y353221D01*
X90777Y344623D01*
X82179Y344623D01*
G37*
%LPD*%
%LPC*%
G36*
X82179Y319223D02*
X82179Y319223D01*
X82179Y321892D01*
X88108Y327821D01*
X90777Y327821D01*
X90777Y319223D01*
X82179Y319223D01*
G37*
%LPD*%
%LPC*%
G36*
X407579Y319223D02*
X407579Y319223D01*
X407579Y321892D01*
X413508Y327821D01*
X416177Y327821D01*
X416177Y319223D01*
X407579Y319223D01*
G37*
%LPD*%
%LPC*%
G36*
X407579Y293823D02*
X407579Y293823D01*
X407579Y296492D01*
X413508Y302421D01*
X416177Y302421D01*
X416177Y293823D01*
X407579Y293823D01*
G37*
%LPD*%
%LPC*%
G36*
X82179Y293823D02*
X82179Y293823D01*
X82179Y296492D01*
X88108Y302421D01*
X90777Y302421D01*
X90777Y293823D01*
X82179Y293823D01*
G37*
%LPD*%
%LPC*%
G36*
X407579Y268423D02*
X407579Y268423D01*
X407579Y271092D01*
X413508Y277021D01*
X416177Y277021D01*
X416177Y268423D01*
X407579Y268423D01*
G37*
%LPD*%
%LPC*%
G36*
X82179Y268423D02*
X82179Y268423D01*
X82179Y271092D01*
X88108Y277021D01*
X90777Y277021D01*
X90777Y268423D01*
X82179Y268423D01*
G37*
%LPD*%
%LPC*%
G36*
X407579Y243023D02*
X407579Y243023D01*
X407579Y245692D01*
X413508Y251621D01*
X416177Y251621D01*
X416177Y243023D01*
X407579Y243023D01*
G37*
%LPD*%
%LPC*%
G36*
X82179Y243023D02*
X82179Y243023D01*
X82179Y245692D01*
X88108Y251621D01*
X90777Y251621D01*
X90777Y243023D01*
X82179Y243023D01*
G37*
%LPD*%
%LPC*%
G36*
X82179Y497023D02*
X82179Y497023D01*
X82179Y499692D01*
X88108Y505621D01*
X90777Y505621D01*
X90777Y497023D01*
X82179Y497023D01*
G37*
%LPD*%
%LPC*%
G36*
X407579Y497023D02*
X407579Y497023D01*
X407579Y499692D01*
X413508Y505621D01*
X416177Y505621D01*
X416177Y497023D01*
X407579Y497023D01*
G37*
%LPD*%
%LPC*%
G36*
X82179Y217623D02*
X82179Y217623D01*
X82179Y220292D01*
X88108Y226221D01*
X90777Y226221D01*
X90777Y217623D01*
X82179Y217623D01*
G37*
%LPD*%
%LPC*%
G36*
X407579Y217623D02*
X407579Y217623D01*
X407579Y220292D01*
X413508Y226221D01*
X416177Y226221D01*
X416177Y217623D01*
X407579Y217623D01*
G37*
%LPD*%
%LPC*%
G36*
X407579Y192223D02*
X407579Y192223D01*
X407579Y194892D01*
X413508Y200821D01*
X416177Y200821D01*
X416177Y192223D01*
X407579Y192223D01*
G37*
%LPD*%
%LPC*%
G36*
X82179Y192223D02*
X82179Y192223D01*
X82179Y194892D01*
X88108Y200821D01*
X90777Y200821D01*
X90777Y192223D01*
X82179Y192223D01*
G37*
%LPD*%
%LPC*%
G36*
X407579Y166823D02*
X407579Y166823D01*
X407579Y169492D01*
X413508Y175421D01*
X416177Y175421D01*
X416177Y166823D01*
X407579Y166823D01*
G37*
%LPD*%
%LPC*%
G36*
X407579Y141423D02*
X407579Y141423D01*
X407579Y144092D01*
X413508Y150021D01*
X416177Y150021D01*
X416177Y141423D01*
X407579Y141423D01*
G37*
%LPD*%
%LPC*%
G36*
X407579Y471623D02*
X407579Y471623D01*
X407579Y474292D01*
X413508Y480221D01*
X416177Y480221D01*
X416177Y471623D01*
X407579Y471623D01*
G37*
%LPD*%
%LPC*%
G36*
X82179Y471623D02*
X82179Y471623D01*
X82179Y474292D01*
X88108Y480221D01*
X90777Y480221D01*
X90777Y471623D01*
X82179Y471623D01*
G37*
%LPD*%
%LPC*%
G36*
X82179Y141423D02*
X82179Y141423D01*
X82179Y144092D01*
X88108Y150021D01*
X90777Y150021D01*
X90777Y141423D01*
X82179Y141423D01*
G37*
%LPD*%
%LPC*%
G36*
X407579Y116023D02*
X407579Y116023D01*
X407579Y118692D01*
X413508Y124621D01*
X416177Y124621D01*
X416177Y116023D01*
X407579Y116023D01*
G37*
%LPD*%
%LPC*%
G36*
X82179Y116023D02*
X82179Y116023D01*
X82179Y118692D01*
X88108Y124621D01*
X90777Y124621D01*
X90777Y116023D01*
X82179Y116023D01*
G37*
%LPD*%
%LPC*%
G36*
X82179Y166823D02*
X82179Y166823D01*
X82179Y169492D01*
X88108Y175421D01*
X90777Y175421D01*
X90777Y166823D01*
X82179Y166823D01*
G37*
%LPD*%
%LPC*%
G36*
X107579Y90623D02*
X107579Y90623D01*
X107579Y93292D01*
X113508Y99221D01*
X116177Y99221D01*
X116177Y90623D01*
X107579Y90623D01*
G37*
%LPD*%
%LPC*%
G36*
X82179Y90623D02*
X82179Y90623D01*
X82179Y93292D01*
X88108Y99221D01*
X90777Y99221D01*
X90777Y90623D01*
X82179Y90623D01*
G37*
%LPD*%
%LPC*%
G36*
X82179Y446223D02*
X82179Y446223D01*
X82179Y448892D01*
X88108Y454821D01*
X90777Y454821D01*
X90777Y446223D01*
X82179Y446223D01*
G37*
%LPD*%
%LPC*%
G36*
X93823Y180579D02*
X93823Y180579D01*
X93823Y189177D01*
X102421Y189177D01*
X102421Y186508D01*
X96492Y180579D01*
X93823Y180579D01*
G37*
%LPD*%
%LPC*%
G36*
X419223Y104379D02*
X419223Y104379D01*
X419223Y112977D01*
X427821Y112977D01*
X427821Y110308D01*
X421892Y104379D01*
X419223Y104379D01*
G37*
%LPD*%
%LPC*%
G36*
X93823Y282179D02*
X93823Y282179D01*
X93823Y290777D01*
X102421Y290777D01*
X102421Y288108D01*
X96492Y282179D01*
X93823Y282179D01*
G37*
%LPD*%
%LPC*%
G36*
X419223Y231379D02*
X419223Y231379D01*
X419223Y239977D01*
X427821Y239977D01*
X427821Y237308D01*
X421892Y231379D01*
X419223Y231379D01*
G37*
%LPD*%
%LPC*%
G36*
X419223Y332979D02*
X419223Y332979D01*
X419223Y341577D01*
X427821Y341577D01*
X427821Y338908D01*
X421892Y332979D01*
X419223Y332979D01*
G37*
%LPD*%
%LPC*%
G36*
X393823Y536179D02*
X393823Y536179D01*
X393823Y544777D01*
X402421Y544777D01*
X402421Y542108D01*
X396492Y536179D01*
X393823Y536179D01*
G37*
%LPD*%
%LPC*%
G36*
X93823Y231379D02*
X93823Y231379D01*
X93823Y239977D01*
X102421Y239977D01*
X102421Y237308D01*
X96492Y231379D01*
X93823Y231379D01*
G37*
%LPD*%
%LPC*%
G36*
X419223Y358379D02*
X419223Y358379D01*
X419223Y366977D01*
X427821Y366977D01*
X427821Y364308D01*
X421892Y358379D01*
X419223Y358379D01*
G37*
%LPD*%
%LPC*%
G36*
X93823Y536179D02*
X93823Y536179D01*
X93823Y544777D01*
X102421Y544777D01*
X102421Y542108D01*
X96492Y536179D01*
X93823Y536179D01*
G37*
%LPD*%
%LPC*%
G36*
X419223Y536179D02*
X419223Y536179D01*
X419223Y544777D01*
X427821Y544777D01*
X427821Y542108D01*
X421892Y536179D01*
X419223Y536179D01*
G37*
%LPD*%
%LPC*%
G36*
X419223Y180579D02*
X419223Y180579D01*
X419223Y189177D01*
X427821Y189177D01*
X427821Y186508D01*
X421892Y180579D01*
X419223Y180579D01*
G37*
%LPD*%
%LPC*%
G36*
X419223Y383779D02*
X419223Y383779D01*
X419223Y392377D01*
X427821Y392377D01*
X427821Y389708D01*
X421892Y383779D01*
X419223Y383779D01*
G37*
%LPD*%
%LPC*%
G36*
X93823Y53579D02*
X93823Y53579D01*
X93823Y62177D01*
X102421Y62177D01*
X102421Y59508D01*
X96492Y53579D01*
X93823Y53579D01*
G37*
%LPD*%
%LPC*%
G36*
X419223Y53579D02*
X419223Y53579D01*
X419223Y62177D01*
X427821Y62177D01*
X427821Y59508D01*
X421892Y53579D01*
X419223Y53579D01*
G37*
%LPD*%
%LPC*%
G36*
X419223Y510779D02*
X419223Y510779D01*
X419223Y519377D01*
X427821Y519377D01*
X427821Y516708D01*
X421892Y510779D01*
X419223Y510779D01*
G37*
%LPD*%
%LPC*%
G36*
X93823Y510779D02*
X93823Y510779D01*
X93823Y519377D01*
X102421Y519377D01*
X102421Y516708D01*
X96492Y510779D01*
X93823Y510779D01*
G37*
%LPD*%
%LPC*%
G36*
X93823Y383779D02*
X93823Y383779D01*
X93823Y392377D01*
X102421Y392377D01*
X102421Y389708D01*
X96492Y383779D01*
X93823Y383779D01*
G37*
%LPD*%
%LPC*%
G36*
X393823Y510779D02*
X393823Y510779D01*
X393823Y519377D01*
X402421Y519377D01*
X402421Y516708D01*
X396492Y510779D01*
X393823Y510779D01*
G37*
%LPD*%
%LPC*%
G36*
X93823Y358379D02*
X93823Y358379D01*
X93823Y366977D01*
X102421Y366977D01*
X102421Y364308D01*
X96492Y358379D01*
X93823Y358379D01*
G37*
%LPD*%
%LPC*%
G36*
X93823Y129779D02*
X93823Y129779D01*
X93823Y138377D01*
X102421Y138377D01*
X102421Y135708D01*
X96492Y129779D01*
X93823Y129779D01*
G37*
%LPD*%
%LPC*%
G36*
X93823Y434579D02*
X93823Y434579D01*
X93823Y443177D01*
X102421Y443177D01*
X102421Y440508D01*
X96492Y434579D01*
X93823Y434579D01*
G37*
%LPD*%
%LPC*%
G36*
X93823Y78979D02*
X93823Y78979D01*
X93823Y87577D01*
X102421Y87577D01*
X102421Y84908D01*
X96492Y78979D01*
X93823Y78979D01*
G37*
%LPD*%
%LPC*%
G36*
X419223Y485379D02*
X419223Y485379D01*
X419223Y493977D01*
X427821Y493977D01*
X427821Y491308D01*
X421892Y485379D01*
X419223Y485379D01*
G37*
%LPD*%
%LPC*%
G36*
X419223Y129779D02*
X419223Y129779D01*
X419223Y138377D01*
X427821Y138377D01*
X427821Y135708D01*
X421892Y129779D01*
X419223Y129779D01*
G37*
%LPD*%
%LPC*%
G36*
X93823Y485379D02*
X93823Y485379D01*
X93823Y493977D01*
X102421Y493977D01*
X102421Y491308D01*
X96492Y485379D01*
X93823Y485379D01*
G37*
%LPD*%
%LPC*%
G36*
X419223Y282179D02*
X419223Y282179D01*
X419223Y290777D01*
X427821Y290777D01*
X427821Y288108D01*
X421892Y282179D01*
X419223Y282179D01*
G37*
%LPD*%
%LPC*%
G36*
X119223Y78979D02*
X119223Y78979D01*
X119223Y87577D01*
X127821Y87577D01*
X127821Y84908D01*
X121892Y78979D01*
X119223Y78979D01*
G37*
%LPD*%
%LPC*%
G36*
X419223Y78979D02*
X419223Y78979D01*
X419223Y87577D01*
X427821Y87577D01*
X427821Y84908D01*
X421892Y78979D01*
X419223Y78979D01*
G37*
%LPD*%
%LPC*%
G36*
X419223Y459979D02*
X419223Y459979D01*
X419223Y468577D01*
X427821Y468577D01*
X427821Y465908D01*
X421892Y459979D01*
X419223Y459979D01*
G37*
%LPD*%
%LPC*%
G36*
X93823Y155179D02*
X93823Y155179D01*
X93823Y163777D01*
X102421Y163777D01*
X102421Y161108D01*
X96492Y155179D01*
X93823Y155179D01*
G37*
%LPD*%
%LPC*%
G36*
X93823Y459979D02*
X93823Y459979D01*
X93823Y468577D01*
X102421Y468577D01*
X102421Y465908D01*
X96492Y459979D01*
X93823Y459979D01*
G37*
%LPD*%
%LPC*%
G36*
X93823Y205979D02*
X93823Y205979D01*
X93823Y214577D01*
X102421Y214577D01*
X102421Y211908D01*
X96492Y205979D01*
X93823Y205979D01*
G37*
%LPD*%
%LPC*%
G36*
X419223Y409179D02*
X419223Y409179D01*
X419223Y417777D01*
X427821Y417777D01*
X427821Y415108D01*
X421892Y409179D01*
X419223Y409179D01*
G37*
%LPD*%
%LPC*%
G36*
X93823Y409179D02*
X93823Y409179D01*
X93823Y417777D01*
X102421Y417777D01*
X102421Y415108D01*
X96492Y409179D01*
X93823Y409179D01*
G37*
%LPD*%
%LPC*%
G36*
X419223Y434579D02*
X419223Y434579D01*
X419223Y443177D01*
X427821Y443177D01*
X427821Y440508D01*
X421892Y434579D01*
X419223Y434579D01*
G37*
%LPD*%
%LPC*%
G36*
X419223Y307579D02*
X419223Y307579D01*
X419223Y316177D01*
X427821Y316177D01*
X427821Y313508D01*
X421892Y307579D01*
X419223Y307579D01*
G37*
%LPD*%
%LPC*%
G36*
X419223Y256779D02*
X419223Y256779D01*
X419223Y265377D01*
X427821Y265377D01*
X427821Y262708D01*
X421892Y256779D01*
X419223Y256779D01*
G37*
%LPD*%
%LPC*%
G36*
X419223Y205979D02*
X419223Y205979D01*
X419223Y214577D01*
X427821Y214577D01*
X427821Y211908D01*
X421892Y205979D01*
X419223Y205979D01*
G37*
%LPD*%
%LPC*%
G36*
X93823Y256779D02*
X93823Y256779D01*
X93823Y265377D01*
X102421Y265377D01*
X102421Y262708D01*
X96492Y256779D01*
X93823Y256779D01*
G37*
%LPD*%
%LPC*%
G36*
X419223Y155179D02*
X419223Y155179D01*
X419223Y163777D01*
X427821Y163777D01*
X427821Y161108D01*
X421892Y155179D01*
X419223Y155179D01*
G37*
%LPD*%
%LPC*%
G36*
X93823Y332979D02*
X93823Y332979D01*
X93823Y341577D01*
X102421Y341577D01*
X102421Y338908D01*
X96492Y332979D01*
X93823Y332979D01*
G37*
%LPD*%
%LPC*%
G36*
X93823Y307579D02*
X93823Y307579D01*
X93823Y316177D01*
X102421Y316177D01*
X102421Y313508D01*
X96492Y307579D01*
X93823Y307579D01*
G37*
%LPD*%
%LPC*%
G36*
X93823Y104379D02*
X93823Y104379D01*
X93823Y112977D01*
X102421Y112977D01*
X102421Y110308D01*
X96492Y104379D01*
X93823Y104379D01*
G37*
%LPD*%
%LPC*%
G36*
X413508Y510779D02*
X413508Y510779D01*
X407579Y516708D01*
X407579Y519377D01*
X416177Y519377D01*
X416177Y510779D01*
X413508Y510779D01*
G37*
%LPD*%
%LPC*%
G36*
X413508Y332979D02*
X413508Y332979D01*
X407579Y338908D01*
X407579Y341577D01*
X416177Y341577D01*
X416177Y332979D01*
X413508Y332979D01*
G37*
%LPD*%
%LPC*%
G36*
X413508Y307579D02*
X413508Y307579D01*
X407579Y313508D01*
X407579Y316177D01*
X416177Y316177D01*
X416177Y307579D01*
X413508Y307579D01*
G37*
%LPD*%
%LPC*%
G36*
X413508Y53579D02*
X413508Y53579D01*
X407579Y59508D01*
X407579Y62177D01*
X416177Y62177D01*
X416177Y53579D01*
X413508Y53579D01*
G37*
%LPD*%
%LPC*%
G36*
X388108Y536179D02*
X388108Y536179D01*
X382179Y542108D01*
X382179Y544777D01*
X390777Y544777D01*
X390777Y536179D01*
X388108Y536179D01*
G37*
%LPD*%
%LPC*%
G36*
X88108Y536179D02*
X88108Y536179D01*
X82179Y542108D01*
X82179Y544777D01*
X90777Y544777D01*
X90777Y536179D01*
X88108Y536179D01*
G37*
%LPD*%
%LPC*%
G36*
X413508Y536179D02*
X413508Y536179D01*
X407579Y542108D01*
X407579Y544777D01*
X416177Y544777D01*
X416177Y536179D01*
X413508Y536179D01*
G37*
%LPD*%
%LPC*%
G36*
X88108Y53579D02*
X88108Y53579D01*
X82179Y59508D01*
X82179Y62177D01*
X90777Y62177D01*
X90777Y53579D01*
X88108Y53579D01*
G37*
%LPD*%
%LPC*%
G36*
X413508Y434579D02*
X413508Y434579D01*
X407579Y440508D01*
X407579Y443177D01*
X416177Y443177D01*
X416177Y434579D01*
X413508Y434579D01*
G37*
%LPD*%
%LPC*%
G36*
X88108Y510779D02*
X88108Y510779D01*
X82179Y516708D01*
X82179Y519377D01*
X90777Y519377D01*
X90777Y510779D01*
X88108Y510779D01*
G37*
%LPD*%
%LPC*%
G36*
X388108Y510779D02*
X388108Y510779D01*
X382179Y516708D01*
X382179Y519377D01*
X390777Y519377D01*
X390777Y510779D01*
X388108Y510779D01*
G37*
%LPD*%
%LPC*%
G36*
X413508Y485379D02*
X413508Y485379D01*
X407579Y491308D01*
X407579Y493977D01*
X416177Y493977D01*
X416177Y485379D01*
X413508Y485379D01*
G37*
%LPD*%
%LPC*%
G36*
X88108Y485379D02*
X88108Y485379D01*
X82179Y491308D01*
X82179Y493977D01*
X90777Y493977D01*
X90777Y485379D01*
X88108Y485379D01*
G37*
%LPD*%
%LPC*%
G36*
X413508Y459979D02*
X413508Y459979D01*
X407579Y465908D01*
X407579Y468577D01*
X416177Y468577D01*
X416177Y459979D01*
X413508Y459979D01*
G37*
%LPD*%
%LPC*%
G36*
X88108Y459979D02*
X88108Y459979D01*
X82179Y465908D01*
X82179Y468577D01*
X90777Y468577D01*
X90777Y459979D01*
X88108Y459979D01*
G37*
%LPD*%
%LPC*%
G36*
X413508Y256779D02*
X413508Y256779D01*
X407579Y262708D01*
X407579Y265377D01*
X416177Y265377D01*
X416177Y256779D01*
X413508Y256779D01*
G37*
%LPD*%
%LPC*%
G36*
X88108Y256779D02*
X88108Y256779D01*
X82179Y262708D01*
X82179Y265377D01*
X90777Y265377D01*
X90777Y256779D01*
X88108Y256779D01*
G37*
%LPD*%
%LPC*%
G36*
X88108Y307579D02*
X88108Y307579D01*
X82179Y313508D01*
X82179Y316177D01*
X90777Y316177D01*
X90777Y307579D01*
X88108Y307579D01*
G37*
%LPD*%
%LPC*%
G36*
X413508Y231379D02*
X413508Y231379D01*
X407579Y237308D01*
X407579Y239977D01*
X416177Y239977D01*
X416177Y231379D01*
X413508Y231379D01*
G37*
%LPD*%
%LPC*%
G36*
X88108Y231379D02*
X88108Y231379D01*
X82179Y237308D01*
X82179Y239977D01*
X90777Y239977D01*
X90777Y231379D01*
X88108Y231379D01*
G37*
%LPD*%
%LPC*%
G36*
X413508Y205979D02*
X413508Y205979D01*
X407579Y211908D01*
X407579Y214577D01*
X416177Y214577D01*
X416177Y205979D01*
X413508Y205979D01*
G37*
%LPD*%
%LPC*%
G36*
X88108Y205979D02*
X88108Y205979D01*
X82179Y211908D01*
X82179Y214577D01*
X90777Y214577D01*
X90777Y205979D01*
X88108Y205979D01*
G37*
%LPD*%
%LPC*%
G36*
X88108Y358379D02*
X88108Y358379D01*
X82179Y364308D01*
X82179Y366977D01*
X90777Y366977D01*
X90777Y358379D01*
X88108Y358379D01*
G37*
%LPD*%
%LPC*%
G36*
X113508Y78979D02*
X113508Y78979D01*
X107579Y84908D01*
X107579Y87577D01*
X116177Y87577D01*
X116177Y78979D01*
X113508Y78979D01*
G37*
%LPD*%
%LPC*%
G36*
X413508Y180579D02*
X413508Y180579D01*
X407579Y186508D01*
X407579Y189177D01*
X416177Y189177D01*
X416177Y180579D01*
X413508Y180579D01*
G37*
%LPD*%
%LPC*%
G36*
X88108Y180579D02*
X88108Y180579D01*
X82179Y186508D01*
X82179Y189177D01*
X90777Y189177D01*
X90777Y180579D01*
X88108Y180579D01*
G37*
%LPD*%
%LPC*%
G36*
X413508Y358379D02*
X413508Y358379D01*
X407579Y364308D01*
X407579Y366977D01*
X416177Y366977D01*
X416177Y358379D01*
X413508Y358379D01*
G37*
%LPD*%
%LPC*%
G36*
X413508Y155179D02*
X413508Y155179D01*
X407579Y161108D01*
X407579Y163777D01*
X416177Y163777D01*
X416177Y155179D01*
X413508Y155179D01*
G37*
%LPD*%
%LPC*%
G36*
X88108Y155179D02*
X88108Y155179D01*
X82179Y161108D01*
X82179Y163777D01*
X90777Y163777D01*
X90777Y155179D01*
X88108Y155179D01*
G37*
%LPD*%
%LPC*%
G36*
X88108Y383779D02*
X88108Y383779D01*
X82179Y389708D01*
X82179Y392377D01*
X90777Y392377D01*
X90777Y383779D01*
X88108Y383779D01*
G37*
%LPD*%
%LPC*%
G36*
X88108Y332979D02*
X88108Y332979D01*
X82179Y338908D01*
X82179Y341577D01*
X90777Y341577D01*
X90777Y332979D01*
X88108Y332979D01*
G37*
%LPD*%
%LPC*%
G36*
X413508Y129779D02*
X413508Y129779D01*
X407579Y135708D01*
X407579Y138377D01*
X416177Y138377D01*
X416177Y129779D01*
X413508Y129779D01*
G37*
%LPD*%
%LPC*%
G36*
X88108Y129779D02*
X88108Y129779D01*
X82179Y135708D01*
X82179Y138377D01*
X90777Y138377D01*
X90777Y129779D01*
X88108Y129779D01*
G37*
%LPD*%
%LPC*%
G36*
X413508Y383779D02*
X413508Y383779D01*
X407579Y389708D01*
X407579Y392377D01*
X416177Y392377D01*
X416177Y383779D01*
X413508Y383779D01*
G37*
%LPD*%
%LPC*%
G36*
X413508Y282179D02*
X413508Y282179D01*
X407579Y288108D01*
X407579Y290777D01*
X416177Y290777D01*
X416177Y282179D01*
X413508Y282179D01*
G37*
%LPD*%
%LPC*%
G36*
X413508Y104379D02*
X413508Y104379D01*
X407579Y110308D01*
X407579Y112977D01*
X416177Y112977D01*
X416177Y104379D01*
X413508Y104379D01*
G37*
%LPD*%
%LPC*%
G36*
X88108Y104379D02*
X88108Y104379D01*
X82179Y110308D01*
X82179Y112977D01*
X90777Y112977D01*
X90777Y104379D01*
X88108Y104379D01*
G37*
%LPD*%
%LPC*%
G36*
X88108Y409179D02*
X88108Y409179D01*
X82179Y415108D01*
X82179Y417777D01*
X90777Y417777D01*
X90777Y409179D01*
X88108Y409179D01*
G37*
%LPD*%
%LPC*%
G36*
X88108Y282179D02*
X88108Y282179D01*
X82179Y288108D01*
X82179Y290777D01*
X90777Y290777D01*
X90777Y282179D01*
X88108Y282179D01*
G37*
%LPD*%
%LPC*%
G36*
X413508Y409179D02*
X413508Y409179D01*
X407579Y415108D01*
X407579Y417777D01*
X416177Y417777D01*
X416177Y409179D01*
X413508Y409179D01*
G37*
%LPD*%
%LPC*%
G36*
X413508Y78979D02*
X413508Y78979D01*
X407579Y84908D01*
X407579Y87577D01*
X416177Y87577D01*
X416177Y78979D01*
X413508Y78979D01*
G37*
%LPD*%
%LPC*%
G36*
X88108Y78979D02*
X88108Y78979D01*
X82179Y84908D01*
X82179Y87577D01*
X90777Y87577D01*
X90777Y78979D01*
X88108Y78979D01*
G37*
%LPD*%
%LPC*%
G36*
X88108Y434579D02*
X88108Y434579D01*
X82179Y440508D01*
X82179Y443177D01*
X90777Y443177D01*
X90777Y434579D01*
X88108Y434579D01*
G37*
%LPD*%
%LPC*%
G36*
X417699Y546299D02*
X417699Y546299D01*
X417699Y546301D01*
X417701Y546301D01*
X417701Y546299D01*
X417699Y546299D01*
G37*
%LPD*%
%LPC*%
G36*
X392299Y546299D02*
X392299Y546299D01*
X392299Y546301D01*
X392301Y546301D01*
X392301Y546299D01*
X392299Y546299D01*
G37*
%LPD*%
%LPC*%
G36*
X331199Y544899D02*
X331199Y544899D01*
X331199Y544901D01*
X331201Y544901D01*
X331201Y544899D01*
X331199Y544899D01*
G37*
%LPD*%
%LPC*%
G36*
X392299Y520899D02*
X392299Y520899D01*
X392299Y520901D01*
X392301Y520901D01*
X392301Y520899D01*
X392299Y520899D01*
G37*
%LPD*%
%LPC*%
G36*
X92299Y520899D02*
X92299Y520899D01*
X92299Y520901D01*
X92301Y520901D01*
X92301Y520899D01*
X92299Y520899D01*
G37*
%LPD*%
%LPC*%
G36*
X92299Y190699D02*
X92299Y190699D01*
X92299Y190701D01*
X92301Y190701D01*
X92301Y190699D01*
X92299Y190699D01*
G37*
%LPD*%
%LPC*%
G36*
X417699Y343099D02*
X417699Y343099D01*
X417699Y343101D01*
X417701Y343101D01*
X417701Y343099D01*
X417699Y343099D01*
G37*
%LPD*%
%LPC*%
G36*
X92299Y241499D02*
X92299Y241499D01*
X92299Y241501D01*
X92301Y241501D01*
X92301Y241499D01*
X92299Y241499D01*
G37*
%LPD*%
%LPC*%
G36*
X417699Y114499D02*
X417699Y114499D01*
X417699Y114501D01*
X417701Y114501D01*
X417701Y114499D01*
X417699Y114499D01*
G37*
%LPD*%
%LPC*%
G36*
X92299Y114499D02*
X92299Y114499D01*
X92299Y114501D01*
X92301Y114501D01*
X92301Y114499D01*
X92299Y114499D01*
G37*
%LPD*%
%LPC*%
G36*
X417699Y241499D02*
X417699Y241499D01*
X417699Y241501D01*
X417701Y241501D01*
X417701Y241499D01*
X417699Y241499D01*
G37*
%LPD*%
%LPC*%
G36*
X92299Y317699D02*
X92299Y317699D01*
X92299Y317701D01*
X92301Y317701D01*
X92301Y317699D01*
X92299Y317699D01*
G37*
%LPD*%
%LPC*%
G36*
X417699Y393899D02*
X417699Y393899D01*
X417699Y393901D01*
X417701Y393901D01*
X417701Y393899D01*
X417699Y393899D01*
G37*
%LPD*%
%LPC*%
G36*
X417699Y292299D02*
X417699Y292299D01*
X417699Y292301D01*
X417701Y292301D01*
X417701Y292299D01*
X417699Y292299D01*
G37*
%LPD*%
%LPC*%
G36*
X92299Y393899D02*
X92299Y393899D01*
X92299Y393901D01*
X92301Y393901D01*
X92301Y393899D01*
X92299Y393899D01*
G37*
%LPD*%
%LPC*%
G36*
X92299Y368499D02*
X92299Y368499D01*
X92299Y368501D01*
X92301Y368501D01*
X92301Y368499D01*
X92299Y368499D01*
G37*
%LPD*%
%LPC*%
G36*
X92299Y292299D02*
X92299Y292299D01*
X92299Y292301D01*
X92301Y292301D01*
X92301Y292299D01*
X92299Y292299D01*
G37*
%LPD*%
%LPC*%
G36*
X92299Y343099D02*
X92299Y343099D01*
X92299Y343101D01*
X92301Y343101D01*
X92301Y343099D01*
X92299Y343099D01*
G37*
%LPD*%
%LPC*%
G36*
X92299Y266899D02*
X92299Y266899D01*
X92299Y266901D01*
X92301Y266901D01*
X92301Y266899D01*
X92299Y266899D01*
G37*
%LPD*%
%LPC*%
G36*
X92299Y444699D02*
X92299Y444699D01*
X92299Y444701D01*
X92301Y444701D01*
X92301Y444699D01*
X92299Y444699D01*
G37*
%LPD*%
%LPC*%
G36*
X417699Y368499D02*
X417699Y368499D01*
X417699Y368501D01*
X417701Y368501D01*
X417701Y368499D01*
X417699Y368499D01*
G37*
%LPD*%
%LPC*%
G36*
X417699Y444699D02*
X417699Y444699D01*
X417699Y444701D01*
X417701Y444701D01*
X417701Y444699D01*
X417699Y444699D01*
G37*
%LPD*%
%LPC*%
G36*
X417699Y89099D02*
X417699Y89099D01*
X417699Y89101D01*
X417701Y89101D01*
X417701Y89099D01*
X417699Y89099D01*
G37*
%LPD*%
%LPC*%
G36*
X117699Y89099D02*
X117699Y89099D01*
X117699Y89101D01*
X117701Y89101D01*
X117701Y89099D01*
X117699Y89099D01*
G37*
%LPD*%
%LPC*%
G36*
X92299Y89099D02*
X92299Y89099D01*
X92299Y89101D01*
X92301Y89101D01*
X92301Y89099D01*
X92299Y89099D01*
G37*
%LPD*%
%LPC*%
G36*
X178799Y87699D02*
X178799Y87699D01*
X178799Y87701D01*
X178801Y87701D01*
X178801Y87699D01*
X178799Y87699D01*
G37*
%LPD*%
%LPC*%
G36*
X92299Y470099D02*
X92299Y470099D01*
X92299Y470101D01*
X92301Y470101D01*
X92301Y470099D01*
X92299Y470099D01*
G37*
%LPD*%
%LPC*%
G36*
X92299Y216099D02*
X92299Y216099D01*
X92299Y216101D01*
X92301Y216101D01*
X92301Y216099D01*
X92299Y216099D01*
G37*
%LPD*%
%LPC*%
G36*
X417699Y470099D02*
X417699Y470099D01*
X417699Y470101D01*
X417701Y470101D01*
X417701Y470099D01*
X417699Y470099D01*
G37*
%LPD*%
%LPC*%
G36*
X92299Y546299D02*
X92299Y546299D01*
X92299Y546301D01*
X92301Y546301D01*
X92301Y546299D01*
X92299Y546299D01*
G37*
%LPD*%
%LPC*%
G36*
X92299Y495499D02*
X92299Y495499D01*
X92299Y495501D01*
X92301Y495501D01*
X92301Y495499D01*
X92299Y495499D01*
G37*
%LPD*%
%LPC*%
G36*
X417699Y139899D02*
X417699Y139899D01*
X417699Y139901D01*
X417701Y139901D01*
X417701Y139899D01*
X417699Y139899D01*
G37*
%LPD*%
%LPC*%
G36*
X92299Y419299D02*
X92299Y419299D01*
X92299Y419301D01*
X92301Y419301D01*
X92301Y419299D01*
X92299Y419299D01*
G37*
%LPD*%
%LPC*%
G36*
X417699Y419299D02*
X417699Y419299D01*
X417699Y419301D01*
X417701Y419301D01*
X417701Y419299D01*
X417699Y419299D01*
G37*
%LPD*%
%LPC*%
G36*
X92299Y139899D02*
X92299Y139899D01*
X92299Y139901D01*
X92301Y139901D01*
X92301Y139899D01*
X92299Y139899D01*
G37*
%LPD*%
%LPC*%
G36*
X417699Y216099D02*
X417699Y216099D01*
X417699Y216101D01*
X417701Y216101D01*
X417701Y216099D01*
X417699Y216099D01*
G37*
%LPD*%
%LPC*%
G36*
X417699Y495499D02*
X417699Y495499D01*
X417699Y495501D01*
X417701Y495501D01*
X417701Y495499D01*
X417699Y495499D01*
G37*
%LPD*%
%LPC*%
G36*
X417699Y165299D02*
X417699Y165299D01*
X417699Y165301D01*
X417701Y165301D01*
X417701Y165299D01*
X417699Y165299D01*
G37*
%LPD*%
%LPC*%
G36*
X417699Y63699D02*
X417699Y63699D01*
X417699Y63701D01*
X417701Y63701D01*
X417701Y63699D01*
X417699Y63699D01*
G37*
%LPD*%
%LPC*%
G36*
X92299Y63699D02*
X92299Y63699D01*
X92299Y63701D01*
X92301Y63701D01*
X92301Y63699D01*
X92299Y63699D01*
G37*
%LPD*%
%LPC*%
G36*
X331199Y519499D02*
X331199Y519499D01*
X331199Y519501D01*
X331201Y519501D01*
X331201Y519499D01*
X331199Y519499D01*
G37*
%LPD*%
%LPC*%
G36*
X417699Y317699D02*
X417699Y317699D01*
X417699Y317701D01*
X417701Y317701D01*
X417701Y317699D01*
X417699Y317699D01*
G37*
%LPD*%
%LPC*%
G36*
X417699Y520899D02*
X417699Y520899D01*
X417699Y520901D01*
X417701Y520901D01*
X417701Y520899D01*
X417699Y520899D01*
G37*
%LPD*%
%LPC*%
G36*
X92299Y165299D02*
X92299Y165299D01*
X92299Y165301D01*
X92301Y165301D01*
X92301Y165299D01*
X92299Y165299D01*
G37*
%LPD*%
%LPC*%
G36*
X417699Y190699D02*
X417699Y190699D01*
X417699Y190701D01*
X417701Y190701D01*
X417701Y190699D01*
X417699Y190699D01*
G37*
%LPD*%
%LPC*%
G36*
X417699Y266899D02*
X417699Y266899D01*
X417699Y266901D01*
X417701Y266901D01*
X417701Y266899D01*
X417699Y266899D01*
G37*
%LPD*%
D10*
X172300Y544900D02*
X185300Y544900D01*
X185300Y519500D02*
X172300Y519500D01*
X172300Y494100D02*
X185300Y494100D01*
X185300Y468700D02*
X172300Y468700D01*
X172300Y443300D02*
X185300Y443300D01*
X185300Y417900D02*
X172300Y417900D01*
X172300Y392500D02*
X185300Y392500D01*
X185300Y367100D02*
X172300Y367100D01*
X172300Y341700D02*
X185300Y341700D01*
X185300Y316300D02*
X172300Y316300D01*
X172300Y290900D02*
X185300Y290900D01*
X185300Y265500D02*
X172300Y265500D01*
X172300Y240100D02*
X185300Y240100D01*
X185300Y214700D02*
X172300Y214700D01*
X172300Y189300D02*
X185300Y189300D01*
X185300Y163900D02*
X172300Y163900D01*
X172300Y138500D02*
X185300Y138500D01*
X185300Y113100D02*
X172300Y113100D01*
X172300Y87700D02*
X185300Y87700D01*
X185300Y62300D02*
X172300Y62300D01*
X324700Y544900D02*
X337700Y544900D01*
X337700Y519500D02*
X324700Y519500D01*
X324700Y494100D02*
X337700Y494100D01*
X337700Y468700D02*
X324700Y468700D01*
X324700Y443300D02*
X337700Y443300D01*
X337700Y417900D02*
X324700Y417900D01*
X324700Y392500D02*
X337700Y392500D01*
X337700Y367100D02*
X324700Y367100D01*
X324700Y341700D02*
X337700Y341700D01*
X337700Y316300D02*
X324700Y316300D01*
X324700Y290900D02*
X337700Y290900D01*
X337700Y265500D02*
X324700Y265500D01*
X324700Y240100D02*
X337700Y240100D01*
X337700Y214700D02*
X324700Y214700D01*
X324700Y189300D02*
X337700Y189300D01*
X337700Y163900D02*
X324700Y163900D01*
X324700Y138500D02*
X337700Y138500D01*
X337700Y113100D02*
X324700Y113100D01*
X324700Y87700D02*
X337700Y87700D01*
X337700Y62300D02*
X324700Y62300D01*
D11*
X92300Y546300D03*
X117700Y546300D03*
X92300Y520900D03*
X117700Y520900D03*
X92300Y495500D03*
X117700Y495500D03*
X92300Y470100D03*
X117700Y470100D03*
X92300Y444700D03*
X117700Y444700D03*
X92300Y419300D03*
X117700Y419300D03*
X92300Y393900D03*
X117700Y393900D03*
X92300Y368500D03*
X117700Y368500D03*
X92300Y343100D03*
X117700Y343100D03*
X92300Y317700D03*
X117700Y317700D03*
X92300Y292300D03*
X117700Y292300D03*
X92300Y266900D03*
X117700Y266900D03*
X92300Y241500D03*
X117700Y241500D03*
X92300Y216100D03*
X117700Y216100D03*
X92300Y190700D03*
X117700Y190700D03*
X92300Y165300D03*
X117700Y165300D03*
X92300Y139900D03*
X117700Y139900D03*
X92300Y114500D03*
X117700Y114500D03*
X92300Y89100D03*
X117700Y89100D03*
X92300Y63700D03*
X117700Y63700D03*
X392300Y546300D03*
X417700Y546300D03*
X392300Y520900D03*
X417700Y520900D03*
X392300Y495500D03*
X417700Y495500D03*
X392300Y470100D03*
X417700Y470100D03*
X392300Y444700D03*
X417700Y444700D03*
X392300Y419300D03*
X417700Y419300D03*
X392300Y393900D03*
X417700Y393900D03*
X392300Y368500D03*
X417700Y368500D03*
X392300Y343100D03*
X417700Y343100D03*
X392300Y317700D03*
X417700Y317700D03*
X392300Y292300D03*
X417700Y292300D03*
X392300Y266900D03*
X417700Y266900D03*
X392300Y241500D03*
X417700Y241500D03*
X392300Y216100D03*
X417700Y216100D03*
X392300Y190700D03*
X417700Y190700D03*
X392300Y165300D03*
X417700Y165300D03*
X392300Y139900D03*
X417700Y139900D03*
X392300Y114500D03*
X417700Y114500D03*
X392300Y89100D03*
X417700Y89100D03*
X392300Y63700D03*
X417700Y63700D03*
D12*
X467700Y165300D03*
X467700Y190700D03*
X467700Y216100D03*
X467700Y241500D03*
X467700Y266900D03*
X467700Y292300D03*
X467700Y317700D03*
X467700Y343100D03*
X42300Y317700D03*
X42300Y343100D03*
X42300Y368500D03*
X42300Y393900D03*
D13*
X118500Y113250D02*
X178500Y113250D01*
X118500Y113250D02*
X117750Y114000D01*
X178500Y113250D02*
X178800Y113100D01*
X117750Y114000D02*
X117700Y114500D01*
X42750Y318000D02*
X42750Y342750D01*
X42750Y318000D02*
X42300Y317700D01*
X42750Y342750D02*
X42300Y343100D01*
X42750Y345000D02*
X42750Y368250D01*
X42300Y368500D01*
X42750Y345000D02*
X42300Y343100D01*
X42750Y370500D02*
X42750Y393750D01*
X42300Y393900D01*
X42750Y370500D02*
X42300Y368500D01*
D14*
X119250Y544500D02*
X178500Y544500D01*
X119250Y544500D02*
X117750Y546000D01*
X178500Y544500D02*
X178800Y544900D01*
X117750Y546000D02*
X117700Y546300D01*
X119250Y519000D02*
X178500Y519000D01*
X119250Y519000D02*
X117750Y520500D01*
X178500Y519000D02*
X178800Y519500D01*
X117750Y520500D02*
X117700Y520900D01*
X119250Y493500D02*
X178500Y493500D01*
X119250Y493500D02*
X117750Y495000D01*
X178500Y493500D02*
X178800Y494100D01*
X117750Y495000D02*
X117700Y495500D01*
X119250Y468000D02*
X178500Y468000D01*
X119250Y468000D02*
X117750Y469500D01*
X178500Y468000D02*
X178800Y468700D01*
X117750Y469500D02*
X117700Y470100D01*
X117750Y444000D02*
X178500Y444000D01*
X178800Y443300D01*
X117750Y444000D02*
X117700Y444700D01*
X118500Y418500D02*
X178500Y418500D01*
X118500Y418500D02*
X117700Y419300D01*
X178500Y418500D02*
X178800Y417900D01*
X178500Y393000D02*
X118500Y393000D01*
X117750Y393750D01*
X178500Y393000D02*
X178800Y392500D01*
X117750Y393750D02*
X117700Y393900D01*
X118500Y367500D02*
X178500Y367500D01*
X118500Y367500D02*
X117750Y368250D01*
X178500Y367500D02*
X178800Y367100D01*
X117750Y368250D02*
X117700Y368500D01*
X119250Y341250D02*
X178500Y341250D01*
X119250Y341250D02*
X117750Y342750D01*
X178500Y341250D02*
X178800Y341700D01*
X117750Y342750D02*
X117700Y343100D01*
X119250Y315750D02*
X178500Y315750D01*
X119250Y315750D02*
X117750Y317250D01*
X178500Y315750D02*
X178800Y316300D01*
X117750Y317250D02*
X117700Y317700D01*
X119250Y290250D02*
X178500Y290250D01*
X119250Y290250D02*
X117750Y291750D01*
X178500Y290250D02*
X178800Y290900D01*
X117750Y291750D02*
X117700Y292300D01*
X117808Y265500D02*
X178800Y265500D01*
X117808Y265500D02*
X117700Y266900D01*
X118500Y240750D02*
X178500Y240750D01*
X118500Y240750D02*
X117750Y241500D01*
X178500Y240750D02*
X178800Y240100D01*
X117750Y241500D02*
X117700Y241500D01*
X118500Y215250D02*
X178500Y215250D01*
X118500Y215250D02*
X117750Y216000D01*
X178500Y215250D02*
X178800Y214700D01*
X117750Y216000D02*
X117700Y216100D01*
X118500Y189750D02*
X178500Y189750D01*
X118500Y189750D02*
X117750Y190500D01*
X178500Y189750D02*
X178800Y189300D01*
X117750Y190500D02*
X117700Y190700D01*
X119250Y163500D02*
X178500Y163500D01*
X119250Y163500D02*
X117750Y165000D01*
X178500Y163500D02*
X178800Y163900D01*
X117750Y165000D02*
X117700Y165300D01*
X119250Y138000D02*
X178500Y138000D01*
X119250Y138000D02*
X117750Y139500D01*
X178500Y138000D02*
X178800Y138500D01*
X117750Y139500D02*
X117700Y139900D01*
X331500Y468000D02*
X390750Y468000D01*
X392250Y469500D01*
X331500Y468000D02*
X331200Y468700D01*
X392250Y469500D02*
X392300Y470100D01*
X392250Y444000D02*
X331500Y444000D01*
X331200Y443300D01*
X392250Y444000D02*
X392300Y444700D01*
X391500Y418500D02*
X331500Y418500D01*
X391500Y418500D02*
X392300Y419300D01*
X331500Y418500D02*
X331200Y417900D01*
X331500Y393000D02*
X391500Y393000D01*
X392250Y393750D01*
X331500Y393000D02*
X331200Y392500D01*
X392250Y393750D02*
X392300Y393900D01*
X391500Y367500D02*
X331500Y367500D01*
X391500Y367500D02*
X392250Y368250D01*
X331500Y367500D02*
X331200Y367100D01*
X392250Y368250D02*
X392300Y368500D01*
X390750Y341250D02*
X331500Y341250D01*
X390750Y341250D02*
X392250Y342750D01*
X331500Y341250D02*
X331200Y341700D01*
X392250Y342750D02*
X392300Y343100D01*
X390750Y315750D02*
X331500Y315750D01*
X390750Y315750D02*
X392250Y317250D01*
X331500Y315750D02*
X331200Y316300D01*
X392250Y317250D02*
X392300Y317700D01*
X390750Y290250D02*
X331500Y290250D01*
X390750Y290250D02*
X392250Y291750D01*
X331500Y290250D02*
X331200Y290900D01*
X392250Y291750D02*
X392300Y292300D01*
X391500Y265500D02*
X331200Y265500D01*
X391500Y265500D02*
X392250Y266250D01*
X392300Y266900D01*
X391500Y240750D02*
X331500Y240750D01*
X391500Y240750D02*
X392250Y241500D01*
X331500Y240750D02*
X331200Y240100D01*
X392250Y241500D02*
X392300Y241500D01*
X391500Y215250D02*
X331500Y215250D01*
X391500Y215250D02*
X392250Y216000D01*
X331500Y215250D02*
X331200Y214700D01*
X392250Y216000D02*
X392300Y216100D01*
X391500Y189750D02*
X331500Y189750D01*
X391500Y189750D02*
X392250Y190500D01*
X331500Y189750D02*
X331200Y189300D01*
X392250Y190500D02*
X392300Y190700D01*
X390750Y163500D02*
X331500Y163500D01*
X390750Y163500D02*
X392250Y165000D01*
X331500Y163500D02*
X331200Y163900D01*
X392250Y165000D02*
X392300Y165300D01*
X390750Y138000D02*
X331500Y138000D01*
X390750Y138000D02*
X392250Y139500D01*
X331500Y138000D02*
X331200Y138500D01*
X392250Y139500D02*
X392300Y139900D01*
X390750Y112500D02*
X331500Y112500D01*
X390750Y112500D02*
X392250Y114000D01*
X331500Y112500D02*
X331200Y113100D01*
X392250Y114000D02*
X392300Y114500D01*
X390750Y87000D02*
X331500Y87000D01*
X390750Y87000D02*
X392250Y88500D01*
X331500Y87000D02*
X331200Y87700D01*
X392250Y88500D02*
X392300Y89100D01*
X392250Y63000D02*
X331500Y63000D01*
X331200Y62300D01*
X392250Y63000D02*
X392300Y63700D01*
D13*
X372500Y494250D02*
X331500Y494250D01*
X372500Y494250D02*
X391500Y494250D01*
X392250Y495000D01*
X331500Y494250D02*
X331200Y494100D01*
X392250Y495000D02*
X392300Y495500D01*
X178500Y62250D02*
X118500Y62250D01*
X117750Y63000D01*
X178500Y62250D02*
X178800Y62300D01*
X117750Y63000D02*
X117700Y63700D01*
X468000Y165750D02*
X468000Y190500D01*
X468000Y165750D02*
X467700Y165300D01*
X468000Y190500D02*
X467700Y190700D01*
X468000Y192750D02*
X468000Y216000D01*
X467700Y216100D01*
X468000Y192750D02*
X467700Y190700D01*
X468000Y217500D02*
X468000Y241500D01*
X467700Y241500D01*
X468000Y217500D02*
X467700Y216100D01*
X468000Y243000D02*
X468000Y266250D01*
X467700Y266900D01*
X468000Y243000D02*
X467700Y241500D01*
X468000Y268500D02*
X468000Y291750D01*
X467700Y292300D01*
X468000Y268500D02*
X467700Y266900D01*
X468000Y294000D02*
X468000Y317250D01*
X467700Y317700D01*
X468000Y294000D02*
X467700Y292300D01*
X468000Y319500D02*
X468000Y342750D01*
X467700Y343100D01*
X468000Y319500D02*
X467700Y317700D01*
X194250Y62250D02*
X180750Y62250D01*
X194250Y62250D02*
X210750Y45750D01*
X425750Y45750D01*
X466500Y86500D01*
X466500Y164250D01*
X180750Y62250D02*
X178800Y62300D01*
X466500Y164250D02*
X467700Y165300D01*
X372500Y494250D02*
X372500Y552250D01*
X383750Y563500D01*
X428750Y563500D01*
X466500Y525750D01*
X466500Y344250D01*
X467700Y343100D01*
M02*
