G04 EAGLE Gerber RS-274X export*
G75*
%MOMM*%
%FSLAX34Y34*%
%LPD*%
%IN*%
%IPPOS*%
%AMOC8*
5,1,8,0,0,1.08239X$1,22.5*%
G01*
%ADD10C,0.254000*%


D10*
X0Y0D02*
X510000Y0D01*
X510000Y620000D01*
X0Y620000D01*
X0Y0D01*
X45000Y589464D02*
X44924Y588396D01*
X44771Y587335D01*
X44543Y586288D01*
X44241Y585260D01*
X43867Y584256D01*
X43422Y583281D01*
X42908Y582341D01*
X42329Y581440D01*
X41687Y580582D01*
X40985Y579772D01*
X40228Y579015D01*
X39418Y578313D01*
X38560Y577671D01*
X37659Y577092D01*
X36719Y576578D01*
X35744Y576133D01*
X34740Y575759D01*
X33712Y575457D01*
X32665Y575229D01*
X31604Y575076D01*
X30536Y575000D01*
X29464Y575000D01*
X28396Y575076D01*
X27335Y575229D01*
X26288Y575457D01*
X25260Y575759D01*
X24256Y576133D01*
X23281Y576578D01*
X22341Y577092D01*
X21440Y577671D01*
X20582Y578313D01*
X19772Y579015D01*
X19015Y579772D01*
X18313Y580582D01*
X17671Y581440D01*
X17092Y582341D01*
X16578Y583281D01*
X16133Y584256D01*
X15759Y585260D01*
X15457Y586288D01*
X15229Y587335D01*
X15076Y588396D01*
X15000Y589464D01*
X15000Y590536D01*
X15076Y591604D01*
X15229Y592665D01*
X15457Y593712D01*
X15759Y594740D01*
X16133Y595744D01*
X16578Y596719D01*
X17092Y597659D01*
X17671Y598560D01*
X18313Y599418D01*
X19015Y600228D01*
X19772Y600985D01*
X20582Y601687D01*
X21440Y602329D01*
X22341Y602908D01*
X23281Y603422D01*
X24256Y603867D01*
X25260Y604241D01*
X26288Y604543D01*
X27335Y604771D01*
X28396Y604924D01*
X29464Y605000D01*
X30536Y605000D01*
X31604Y604924D01*
X32665Y604771D01*
X33712Y604543D01*
X34740Y604241D01*
X35744Y603867D01*
X36719Y603422D01*
X37659Y602908D01*
X38560Y602329D01*
X39418Y601687D01*
X40228Y600985D01*
X40985Y600228D01*
X41687Y599418D01*
X42329Y598560D01*
X42908Y597659D01*
X43422Y596719D01*
X43867Y595744D01*
X44241Y594740D01*
X44543Y593712D01*
X44771Y592665D01*
X44924Y591604D01*
X45000Y590536D01*
X45000Y589464D01*
X495000Y589464D02*
X494924Y588396D01*
X494771Y587335D01*
X494543Y586288D01*
X494241Y585260D01*
X493867Y584256D01*
X493422Y583281D01*
X492908Y582341D01*
X492329Y581440D01*
X491687Y580582D01*
X490985Y579772D01*
X490228Y579015D01*
X489418Y578313D01*
X488560Y577671D01*
X487659Y577092D01*
X486719Y576578D01*
X485744Y576133D01*
X484740Y575759D01*
X483712Y575457D01*
X482665Y575229D01*
X481604Y575076D01*
X480536Y575000D01*
X479464Y575000D01*
X478396Y575076D01*
X477335Y575229D01*
X476288Y575457D01*
X475260Y575759D01*
X474256Y576133D01*
X473281Y576578D01*
X472341Y577092D01*
X471440Y577671D01*
X470582Y578313D01*
X469772Y579015D01*
X469015Y579772D01*
X468313Y580582D01*
X467671Y581440D01*
X467092Y582341D01*
X466578Y583281D01*
X466133Y584256D01*
X465759Y585260D01*
X465457Y586288D01*
X465229Y587335D01*
X465076Y588396D01*
X465000Y589464D01*
X465000Y590536D01*
X465076Y591604D01*
X465229Y592665D01*
X465457Y593712D01*
X465759Y594740D01*
X466133Y595744D01*
X466578Y596719D01*
X467092Y597659D01*
X467671Y598560D01*
X468313Y599418D01*
X469015Y600228D01*
X469772Y600985D01*
X470582Y601687D01*
X471440Y602329D01*
X472341Y602908D01*
X473281Y603422D01*
X474256Y603867D01*
X475260Y604241D01*
X476288Y604543D01*
X477335Y604771D01*
X478396Y604924D01*
X479464Y605000D01*
X480536Y605000D01*
X481604Y604924D01*
X482665Y604771D01*
X483712Y604543D01*
X484740Y604241D01*
X485744Y603867D01*
X486719Y603422D01*
X487659Y602908D01*
X488560Y602329D01*
X489418Y601687D01*
X490228Y600985D01*
X490985Y600228D01*
X491687Y599418D01*
X492329Y598560D01*
X492908Y597659D01*
X493422Y596719D01*
X493867Y595744D01*
X494241Y594740D01*
X494543Y593712D01*
X494771Y592665D01*
X494924Y591604D01*
X495000Y590536D01*
X495000Y589464D01*
X495000Y29464D02*
X494924Y28396D01*
X494771Y27335D01*
X494543Y26288D01*
X494241Y25260D01*
X493867Y24256D01*
X493422Y23281D01*
X492908Y22341D01*
X492329Y21440D01*
X491687Y20582D01*
X490985Y19772D01*
X490228Y19015D01*
X489418Y18313D01*
X488560Y17671D01*
X487659Y17092D01*
X486719Y16578D01*
X485744Y16133D01*
X484740Y15759D01*
X483712Y15457D01*
X482665Y15229D01*
X481604Y15076D01*
X480536Y15000D01*
X479464Y15000D01*
X478396Y15076D01*
X477335Y15229D01*
X476288Y15457D01*
X475260Y15759D01*
X474256Y16133D01*
X473281Y16578D01*
X472341Y17092D01*
X471440Y17671D01*
X470582Y18313D01*
X469772Y19015D01*
X469015Y19772D01*
X468313Y20582D01*
X467671Y21440D01*
X467092Y22341D01*
X466578Y23281D01*
X466133Y24256D01*
X465759Y25260D01*
X465457Y26288D01*
X465229Y27335D01*
X465076Y28396D01*
X465000Y29464D01*
X465000Y30536D01*
X465076Y31604D01*
X465229Y32665D01*
X465457Y33712D01*
X465759Y34740D01*
X466133Y35744D01*
X466578Y36719D01*
X467092Y37659D01*
X467671Y38560D01*
X468313Y39418D01*
X469015Y40228D01*
X469772Y40985D01*
X470582Y41687D01*
X471440Y42329D01*
X472341Y42908D01*
X473281Y43422D01*
X474256Y43867D01*
X475260Y44241D01*
X476288Y44543D01*
X477335Y44771D01*
X478396Y44924D01*
X479464Y45000D01*
X480536Y45000D01*
X481604Y44924D01*
X482665Y44771D01*
X483712Y44543D01*
X484740Y44241D01*
X485744Y43867D01*
X486719Y43422D01*
X487659Y42908D01*
X488560Y42329D01*
X489418Y41687D01*
X490228Y40985D01*
X490985Y40228D01*
X491687Y39418D01*
X492329Y38560D01*
X492908Y37659D01*
X493422Y36719D01*
X493867Y35744D01*
X494241Y34740D01*
X494543Y33712D01*
X494771Y32665D01*
X494924Y31604D01*
X495000Y30536D01*
X495000Y29464D01*
X45000Y29464D02*
X44924Y28396D01*
X44771Y27335D01*
X44543Y26288D01*
X44241Y25260D01*
X43867Y24256D01*
X43422Y23281D01*
X42908Y22341D01*
X42329Y21440D01*
X41687Y20582D01*
X40985Y19772D01*
X40228Y19015D01*
X39418Y18313D01*
X38560Y17671D01*
X37659Y17092D01*
X36719Y16578D01*
X35744Y16133D01*
X34740Y15759D01*
X33712Y15457D01*
X32665Y15229D01*
X31604Y15076D01*
X30536Y15000D01*
X29464Y15000D01*
X28396Y15076D01*
X27335Y15229D01*
X26288Y15457D01*
X25260Y15759D01*
X24256Y16133D01*
X23281Y16578D01*
X22341Y17092D01*
X21440Y17671D01*
X20582Y18313D01*
X19772Y19015D01*
X19015Y19772D01*
X18313Y20582D01*
X17671Y21440D01*
X17092Y22341D01*
X16578Y23281D01*
X16133Y24256D01*
X15759Y25260D01*
X15457Y26288D01*
X15229Y27335D01*
X15076Y28396D01*
X15000Y29464D01*
X15000Y30536D01*
X15076Y31604D01*
X15229Y32665D01*
X15457Y33712D01*
X15759Y34740D01*
X16133Y35744D01*
X16578Y36719D01*
X17092Y37659D01*
X17671Y38560D01*
X18313Y39418D01*
X19015Y40228D01*
X19772Y40985D01*
X20582Y41687D01*
X21440Y42329D01*
X22341Y42908D01*
X23281Y43422D01*
X24256Y43867D01*
X25260Y44241D01*
X26288Y44543D01*
X27335Y44771D01*
X28396Y44924D01*
X29464Y45000D01*
X30536Y45000D01*
X31604Y44924D01*
X32665Y44771D01*
X33712Y44543D01*
X34740Y44241D01*
X35744Y43867D01*
X36719Y43422D01*
X37659Y42908D01*
X38560Y42329D01*
X39418Y41687D01*
X40228Y40985D01*
X40985Y40228D01*
X41687Y39418D01*
X42329Y38560D01*
X42908Y37659D01*
X43422Y36719D01*
X43867Y35744D01*
X44241Y34740D01*
X44543Y33712D01*
X44771Y32665D01*
X44924Y31604D01*
X45000Y30536D01*
X45000Y29464D01*
M02*
