G04 EAGLE Gerber RS-274X export*
G75*
%MOMM*%
%FSLAX34Y34*%
%LPD*%
%INSilkscreen Top*%
%IPPOS*%
%AMOC8*
5,1,8,0,0,1.08239X$1,22.5*%
G01*
%ADD10C,0.076200*%
%ADD11C,0.152400*%
%ADD12C,0.101600*%
%ADD13C,0.127000*%


D10*
X18464Y340381D02*
X18464Y346646D01*
X15332Y343514D02*
X21597Y343514D01*
X22119Y350657D02*
X22119Y353789D01*
X22117Y353878D01*
X22111Y353966D01*
X22102Y354054D01*
X22089Y354142D01*
X22072Y354229D01*
X22052Y354315D01*
X22027Y354400D01*
X22000Y354485D01*
X21968Y354568D01*
X21934Y354649D01*
X21895Y354729D01*
X21854Y354807D01*
X21809Y354884D01*
X21761Y354958D01*
X21710Y355031D01*
X21656Y355101D01*
X21598Y355168D01*
X21538Y355234D01*
X21476Y355296D01*
X21410Y355356D01*
X21343Y355414D01*
X21273Y355468D01*
X21200Y355519D01*
X21126Y355567D01*
X21049Y355612D01*
X20971Y355653D01*
X20891Y355692D01*
X20810Y355726D01*
X20727Y355758D01*
X20642Y355785D01*
X20557Y355810D01*
X20471Y355830D01*
X20384Y355847D01*
X20296Y355860D01*
X20208Y355869D01*
X20120Y355875D01*
X20031Y355877D01*
X20031Y355878D02*
X18986Y355878D01*
X18986Y355877D02*
X18897Y355875D01*
X18809Y355869D01*
X18721Y355860D01*
X18633Y355847D01*
X18546Y355830D01*
X18460Y355810D01*
X18375Y355785D01*
X18290Y355758D01*
X18207Y355726D01*
X18126Y355692D01*
X18046Y355653D01*
X17968Y355612D01*
X17891Y355567D01*
X17817Y355519D01*
X17744Y355468D01*
X17674Y355414D01*
X17607Y355356D01*
X17541Y355296D01*
X17479Y355234D01*
X17419Y355168D01*
X17361Y355101D01*
X17307Y355031D01*
X17256Y354958D01*
X17208Y354884D01*
X17163Y354807D01*
X17122Y354729D01*
X17083Y354649D01*
X17049Y354568D01*
X17017Y354485D01*
X16990Y354400D01*
X16965Y354315D01*
X16945Y354229D01*
X16928Y354142D01*
X16915Y354054D01*
X16906Y353966D01*
X16900Y353878D01*
X16898Y353789D01*
X16898Y350657D01*
X12721Y350657D01*
X12721Y355878D01*
X12721Y359279D02*
X22119Y362411D01*
X12721Y365544D01*
X444398Y534036D02*
X444398Y535602D01*
X449619Y535602D01*
X449619Y532469D01*
X449617Y532380D01*
X449611Y532292D01*
X449602Y532204D01*
X449589Y532116D01*
X449572Y532029D01*
X449552Y531943D01*
X449527Y531858D01*
X449500Y531773D01*
X449468Y531690D01*
X449434Y531609D01*
X449395Y531529D01*
X449354Y531451D01*
X449309Y531374D01*
X449261Y531300D01*
X449210Y531227D01*
X449156Y531157D01*
X449098Y531090D01*
X449038Y531024D01*
X448976Y530962D01*
X448910Y530902D01*
X448843Y530844D01*
X448773Y530790D01*
X448700Y530739D01*
X448626Y530691D01*
X448549Y530646D01*
X448471Y530605D01*
X448391Y530566D01*
X448310Y530532D01*
X448227Y530500D01*
X448142Y530473D01*
X448057Y530448D01*
X447971Y530428D01*
X447884Y530411D01*
X447796Y530398D01*
X447708Y530389D01*
X447620Y530383D01*
X447531Y530381D01*
X442309Y530381D01*
X442218Y530383D01*
X442127Y530389D01*
X442036Y530399D01*
X441946Y530413D01*
X441857Y530431D01*
X441768Y530452D01*
X441681Y530478D01*
X441595Y530507D01*
X441510Y530540D01*
X441426Y530577D01*
X441344Y530617D01*
X441265Y530661D01*
X441187Y530708D01*
X441111Y530759D01*
X441037Y530813D01*
X440966Y530870D01*
X440898Y530930D01*
X440832Y530993D01*
X440769Y531059D01*
X440709Y531127D01*
X440652Y531198D01*
X440598Y531272D01*
X440547Y531348D01*
X440500Y531425D01*
X440456Y531505D01*
X440416Y531587D01*
X440379Y531671D01*
X440346Y531755D01*
X440317Y531842D01*
X440291Y531929D01*
X440270Y532018D01*
X440252Y532107D01*
X440238Y532197D01*
X440228Y532288D01*
X440222Y532379D01*
X440220Y532470D01*
X440221Y532469D02*
X440221Y535602D01*
X440221Y540135D02*
X449619Y540135D01*
X449619Y545356D02*
X440221Y540135D01*
X440221Y545356D02*
X449619Y545356D01*
X449619Y549888D02*
X440221Y549888D01*
X440221Y552499D01*
X440223Y552599D01*
X440229Y552699D01*
X440238Y552798D01*
X440252Y552898D01*
X440269Y552996D01*
X440290Y553094D01*
X440314Y553191D01*
X440343Y553287D01*
X440375Y553382D01*
X440410Y553475D01*
X440449Y553567D01*
X440492Y553658D01*
X440538Y553746D01*
X440588Y553833D01*
X440640Y553918D01*
X440696Y554001D01*
X440755Y554082D01*
X440818Y554160D01*
X440883Y554236D01*
X440951Y554310D01*
X441021Y554380D01*
X441095Y554448D01*
X441171Y554513D01*
X441249Y554576D01*
X441330Y554635D01*
X441413Y554691D01*
X441498Y554743D01*
X441585Y554793D01*
X441673Y554839D01*
X441764Y554882D01*
X441856Y554921D01*
X441949Y554956D01*
X442044Y554988D01*
X442140Y555017D01*
X442237Y555041D01*
X442335Y555062D01*
X442433Y555079D01*
X442533Y555093D01*
X442632Y555102D01*
X442732Y555108D01*
X442832Y555110D01*
X442832Y555109D02*
X447008Y555109D01*
X447008Y555110D02*
X447108Y555108D01*
X447208Y555102D01*
X447307Y555093D01*
X447407Y555079D01*
X447505Y555062D01*
X447603Y555041D01*
X447700Y555017D01*
X447796Y554988D01*
X447891Y554956D01*
X447984Y554921D01*
X448076Y554882D01*
X448167Y554839D01*
X448255Y554793D01*
X448342Y554743D01*
X448427Y554691D01*
X448510Y554635D01*
X448591Y554576D01*
X448669Y554513D01*
X448745Y554448D01*
X448819Y554380D01*
X448889Y554310D01*
X448957Y554236D01*
X449022Y554160D01*
X449085Y554082D01*
X449144Y554001D01*
X449200Y553918D01*
X449252Y553833D01*
X449302Y553746D01*
X449348Y553658D01*
X449391Y553567D01*
X449430Y553475D01*
X449465Y553382D01*
X449497Y553287D01*
X449526Y553191D01*
X449550Y553094D01*
X449571Y552996D01*
X449588Y552898D01*
X449602Y552798D01*
X449611Y552699D01*
X449617Y552599D01*
X449619Y552499D01*
X449619Y549888D01*
X64558Y532612D02*
X64558Y531045D01*
X64558Y532612D02*
X69779Y532612D01*
X69779Y529479D01*
X69777Y529390D01*
X69771Y529302D01*
X69762Y529214D01*
X69749Y529126D01*
X69732Y529039D01*
X69712Y528953D01*
X69687Y528868D01*
X69660Y528783D01*
X69628Y528700D01*
X69594Y528619D01*
X69555Y528539D01*
X69514Y528461D01*
X69469Y528384D01*
X69421Y528310D01*
X69370Y528237D01*
X69316Y528167D01*
X69258Y528100D01*
X69198Y528034D01*
X69136Y527972D01*
X69070Y527912D01*
X69003Y527854D01*
X68933Y527800D01*
X68860Y527749D01*
X68786Y527701D01*
X68709Y527656D01*
X68631Y527615D01*
X68551Y527576D01*
X68470Y527542D01*
X68387Y527510D01*
X68302Y527483D01*
X68217Y527458D01*
X68131Y527438D01*
X68044Y527421D01*
X67956Y527408D01*
X67868Y527399D01*
X67780Y527393D01*
X67691Y527391D01*
X62469Y527391D01*
X62469Y527390D02*
X62378Y527392D01*
X62287Y527398D01*
X62196Y527408D01*
X62106Y527422D01*
X62017Y527440D01*
X61928Y527461D01*
X61841Y527487D01*
X61755Y527516D01*
X61670Y527549D01*
X61586Y527586D01*
X61504Y527626D01*
X61425Y527670D01*
X61347Y527717D01*
X61271Y527768D01*
X61197Y527822D01*
X61126Y527879D01*
X61058Y527939D01*
X60992Y528002D01*
X60929Y528068D01*
X60869Y528136D01*
X60812Y528207D01*
X60758Y528281D01*
X60707Y528357D01*
X60660Y528434D01*
X60616Y528514D01*
X60576Y528596D01*
X60539Y528680D01*
X60506Y528764D01*
X60477Y528851D01*
X60451Y528938D01*
X60430Y529027D01*
X60412Y529116D01*
X60398Y529206D01*
X60388Y529297D01*
X60382Y529388D01*
X60380Y529479D01*
X60381Y529479D02*
X60381Y532612D01*
X60381Y537144D02*
X69779Y537144D01*
X69779Y542365D02*
X60381Y537144D01*
X60381Y542365D02*
X69779Y542365D01*
X69779Y546898D02*
X60381Y546898D01*
X60381Y549508D01*
X60383Y549608D01*
X60389Y549708D01*
X60398Y549807D01*
X60412Y549907D01*
X60429Y550005D01*
X60450Y550103D01*
X60474Y550200D01*
X60503Y550296D01*
X60535Y550391D01*
X60570Y550484D01*
X60609Y550576D01*
X60652Y550667D01*
X60698Y550755D01*
X60748Y550842D01*
X60800Y550927D01*
X60856Y551010D01*
X60915Y551091D01*
X60978Y551169D01*
X61043Y551245D01*
X61111Y551319D01*
X61181Y551389D01*
X61255Y551457D01*
X61331Y551522D01*
X61409Y551585D01*
X61490Y551644D01*
X61573Y551700D01*
X61658Y551752D01*
X61745Y551802D01*
X61833Y551848D01*
X61924Y551891D01*
X62016Y551930D01*
X62109Y551965D01*
X62204Y551997D01*
X62300Y552026D01*
X62397Y552050D01*
X62495Y552071D01*
X62593Y552088D01*
X62693Y552102D01*
X62792Y552111D01*
X62892Y552117D01*
X62992Y552119D01*
X67168Y552119D01*
X67268Y552117D01*
X67368Y552111D01*
X67467Y552102D01*
X67567Y552088D01*
X67665Y552071D01*
X67763Y552050D01*
X67860Y552026D01*
X67956Y551997D01*
X68051Y551965D01*
X68144Y551930D01*
X68236Y551891D01*
X68327Y551848D01*
X68415Y551802D01*
X68502Y551752D01*
X68587Y551700D01*
X68670Y551644D01*
X68751Y551585D01*
X68829Y551522D01*
X68905Y551457D01*
X68979Y551389D01*
X69049Y551319D01*
X69117Y551245D01*
X69182Y551169D01*
X69245Y551091D01*
X69304Y551010D01*
X69360Y550927D01*
X69412Y550842D01*
X69462Y550755D01*
X69508Y550667D01*
X69551Y550576D01*
X69590Y550484D01*
X69625Y550391D01*
X69657Y550296D01*
X69686Y550200D01*
X69710Y550103D01*
X69731Y550005D01*
X69748Y549907D01*
X69762Y549807D01*
X69771Y549708D01*
X69777Y549608D01*
X69779Y549508D01*
X69779Y546898D01*
D11*
X75000Y555000D02*
X75000Y55000D01*
X435000Y55000D02*
X435000Y555000D01*
X80000Y560000D02*
X75000Y555000D01*
X430000Y560000D02*
X435000Y555000D01*
X75000Y55000D02*
X80000Y50000D01*
X430000Y50000D02*
X435000Y55000D01*
D10*
X493464Y232881D02*
X493464Y239146D01*
X490332Y236014D02*
X496597Y236014D01*
X497119Y243157D02*
X497119Y245767D01*
X497117Y245868D01*
X497111Y245969D01*
X497101Y246070D01*
X497088Y246170D01*
X497070Y246270D01*
X497049Y246369D01*
X497023Y246467D01*
X496994Y246564D01*
X496962Y246660D01*
X496925Y246754D01*
X496885Y246847D01*
X496841Y246939D01*
X496794Y247028D01*
X496743Y247116D01*
X496689Y247202D01*
X496632Y247285D01*
X496572Y247367D01*
X496508Y247445D01*
X496442Y247522D01*
X496372Y247595D01*
X496300Y247666D01*
X496225Y247734D01*
X496147Y247799D01*
X496067Y247861D01*
X495985Y247920D01*
X495900Y247976D01*
X495814Y248028D01*
X495725Y248077D01*
X495634Y248123D01*
X495542Y248164D01*
X495448Y248203D01*
X495353Y248237D01*
X495257Y248268D01*
X495159Y248295D01*
X495061Y248319D01*
X494961Y248338D01*
X494861Y248354D01*
X494761Y248366D01*
X494660Y248374D01*
X494559Y248378D01*
X494457Y248378D01*
X494356Y248374D01*
X494255Y248366D01*
X494155Y248354D01*
X494055Y248338D01*
X493955Y248319D01*
X493857Y248295D01*
X493759Y248268D01*
X493663Y248237D01*
X493568Y248203D01*
X493474Y248164D01*
X493382Y248123D01*
X493291Y248077D01*
X493203Y248028D01*
X493116Y247976D01*
X493031Y247920D01*
X492949Y247861D01*
X492869Y247799D01*
X492791Y247734D01*
X492716Y247666D01*
X492644Y247595D01*
X492574Y247522D01*
X492508Y247445D01*
X492444Y247367D01*
X492384Y247285D01*
X492327Y247202D01*
X492273Y247116D01*
X492222Y247028D01*
X492175Y246939D01*
X492131Y246847D01*
X492091Y246754D01*
X492054Y246660D01*
X492022Y246564D01*
X491993Y246467D01*
X491967Y246369D01*
X491946Y246270D01*
X491928Y246170D01*
X491915Y246070D01*
X491905Y245969D01*
X491899Y245868D01*
X491897Y245767D01*
X487721Y246289D02*
X487721Y243157D01*
X487721Y246289D02*
X487723Y246379D01*
X487729Y246468D01*
X487738Y246558D01*
X487752Y246647D01*
X487769Y246735D01*
X487790Y246822D01*
X487815Y246909D01*
X487844Y246994D01*
X487876Y247078D01*
X487911Y247160D01*
X487951Y247241D01*
X487993Y247320D01*
X488039Y247397D01*
X488089Y247472D01*
X488141Y247545D01*
X488197Y247616D01*
X488255Y247684D01*
X488317Y247749D01*
X488381Y247812D01*
X488448Y247872D01*
X488517Y247929D01*
X488589Y247983D01*
X488663Y248034D01*
X488739Y248082D01*
X488817Y248126D01*
X488897Y248167D01*
X488979Y248205D01*
X489062Y248239D01*
X489147Y248269D01*
X489233Y248296D01*
X489319Y248319D01*
X489407Y248338D01*
X489496Y248353D01*
X489585Y248365D01*
X489674Y248373D01*
X489764Y248377D01*
X489854Y248377D01*
X489944Y248373D01*
X490033Y248365D01*
X490122Y248353D01*
X490211Y248338D01*
X490299Y248319D01*
X490385Y248296D01*
X490471Y248269D01*
X490556Y248239D01*
X490639Y248205D01*
X490721Y248167D01*
X490801Y248126D01*
X490879Y248082D01*
X490955Y248034D01*
X491029Y247983D01*
X491101Y247929D01*
X491170Y247872D01*
X491237Y247812D01*
X491301Y247749D01*
X491363Y247684D01*
X491421Y247616D01*
X491477Y247545D01*
X491529Y247472D01*
X491579Y247397D01*
X491625Y247320D01*
X491667Y247241D01*
X491707Y247160D01*
X491742Y247078D01*
X491774Y246994D01*
X491803Y246909D01*
X491828Y246822D01*
X491849Y246735D01*
X491866Y246647D01*
X491880Y246558D01*
X491889Y246468D01*
X491895Y246379D01*
X491897Y246289D01*
X491898Y246289D02*
X491898Y244201D01*
X487721Y251779D02*
X497119Y254911D01*
X487721Y258044D01*
X497119Y261445D02*
X497119Y264055D01*
X497117Y264156D01*
X497111Y264257D01*
X497101Y264358D01*
X497088Y264458D01*
X497070Y264558D01*
X497049Y264657D01*
X497023Y264755D01*
X496994Y264852D01*
X496962Y264948D01*
X496925Y265042D01*
X496885Y265135D01*
X496841Y265227D01*
X496794Y265316D01*
X496743Y265404D01*
X496689Y265490D01*
X496632Y265573D01*
X496572Y265655D01*
X496508Y265733D01*
X496442Y265810D01*
X496372Y265883D01*
X496300Y265954D01*
X496225Y266022D01*
X496147Y266087D01*
X496067Y266149D01*
X495985Y266208D01*
X495900Y266264D01*
X495814Y266316D01*
X495725Y266365D01*
X495634Y266411D01*
X495542Y266452D01*
X495448Y266491D01*
X495353Y266525D01*
X495257Y266556D01*
X495159Y266583D01*
X495061Y266607D01*
X494961Y266626D01*
X494861Y266642D01*
X494761Y266654D01*
X494660Y266662D01*
X494559Y266666D01*
X494457Y266666D01*
X494356Y266662D01*
X494255Y266654D01*
X494155Y266642D01*
X494055Y266626D01*
X493955Y266607D01*
X493857Y266583D01*
X493759Y266556D01*
X493663Y266525D01*
X493568Y266491D01*
X493474Y266452D01*
X493382Y266411D01*
X493291Y266365D01*
X493203Y266316D01*
X493116Y266264D01*
X493031Y266208D01*
X492949Y266149D01*
X492869Y266087D01*
X492791Y266022D01*
X492716Y265954D01*
X492644Y265883D01*
X492574Y265810D01*
X492508Y265733D01*
X492444Y265655D01*
X492384Y265573D01*
X492327Y265490D01*
X492273Y265404D01*
X492222Y265316D01*
X492175Y265227D01*
X492131Y265135D01*
X492091Y265042D01*
X492054Y264948D01*
X492022Y264852D01*
X491993Y264755D01*
X491967Y264657D01*
X491946Y264558D01*
X491928Y264458D01*
X491915Y264358D01*
X491905Y264257D01*
X491899Y264156D01*
X491897Y264055D01*
X487721Y264577D02*
X487721Y261445D01*
X487721Y264577D02*
X487723Y264667D01*
X487729Y264756D01*
X487738Y264846D01*
X487752Y264935D01*
X487769Y265023D01*
X487790Y265110D01*
X487815Y265197D01*
X487844Y265282D01*
X487876Y265366D01*
X487911Y265448D01*
X487951Y265529D01*
X487993Y265608D01*
X488039Y265685D01*
X488089Y265760D01*
X488141Y265833D01*
X488197Y265904D01*
X488255Y265972D01*
X488317Y266037D01*
X488381Y266100D01*
X488448Y266160D01*
X488517Y266217D01*
X488589Y266271D01*
X488663Y266322D01*
X488739Y266370D01*
X488817Y266414D01*
X488897Y266455D01*
X488979Y266493D01*
X489062Y266527D01*
X489147Y266557D01*
X489233Y266584D01*
X489319Y266607D01*
X489407Y266626D01*
X489496Y266641D01*
X489585Y266653D01*
X489674Y266661D01*
X489764Y266665D01*
X489854Y266665D01*
X489944Y266661D01*
X490033Y266653D01*
X490122Y266641D01*
X490211Y266626D01*
X490299Y266607D01*
X490385Y266584D01*
X490471Y266557D01*
X490556Y266527D01*
X490639Y266493D01*
X490721Y266455D01*
X490801Y266414D01*
X490879Y266370D01*
X490955Y266322D01*
X491029Y266271D01*
X491101Y266217D01*
X491170Y266160D01*
X491237Y266100D01*
X491301Y266037D01*
X491363Y265972D01*
X491421Y265904D01*
X491477Y265833D01*
X491529Y265760D01*
X491579Y265685D01*
X491625Y265608D01*
X491667Y265529D01*
X491707Y265448D01*
X491742Y265366D01*
X491774Y265282D01*
X491803Y265197D01*
X491828Y265110D01*
X491849Y265023D01*
X491866Y264935D01*
X491880Y264846D01*
X491889Y264756D01*
X491895Y264667D01*
X491897Y264577D01*
X491898Y264577D02*
X491898Y262489D01*
D11*
X30000Y407500D02*
X25000Y402500D01*
X25000Y310000D02*
X30000Y305000D01*
X480000Y152500D02*
X485000Y157500D01*
X485000Y352500D02*
X480000Y357500D01*
X485000Y352500D02*
X485000Y157500D01*
X25000Y310000D02*
X25000Y402500D01*
D10*
X444398Y58102D02*
X444398Y56536D01*
X444398Y58102D02*
X449619Y58102D01*
X449619Y54969D01*
X449617Y54880D01*
X449611Y54792D01*
X449602Y54704D01*
X449589Y54616D01*
X449572Y54529D01*
X449552Y54443D01*
X449527Y54358D01*
X449500Y54273D01*
X449468Y54190D01*
X449434Y54109D01*
X449395Y54029D01*
X449354Y53951D01*
X449309Y53874D01*
X449261Y53800D01*
X449210Y53727D01*
X449156Y53657D01*
X449098Y53590D01*
X449038Y53524D01*
X448976Y53462D01*
X448910Y53402D01*
X448843Y53344D01*
X448773Y53290D01*
X448700Y53239D01*
X448626Y53191D01*
X448549Y53146D01*
X448471Y53105D01*
X448391Y53066D01*
X448310Y53032D01*
X448227Y53000D01*
X448142Y52973D01*
X448057Y52948D01*
X447971Y52928D01*
X447884Y52911D01*
X447796Y52898D01*
X447708Y52889D01*
X447620Y52883D01*
X447531Y52881D01*
X442309Y52881D01*
X442218Y52883D01*
X442127Y52889D01*
X442036Y52899D01*
X441946Y52913D01*
X441857Y52931D01*
X441768Y52952D01*
X441681Y52978D01*
X441595Y53007D01*
X441510Y53040D01*
X441426Y53077D01*
X441344Y53117D01*
X441265Y53161D01*
X441187Y53208D01*
X441111Y53259D01*
X441037Y53313D01*
X440966Y53370D01*
X440898Y53430D01*
X440832Y53493D01*
X440769Y53559D01*
X440709Y53627D01*
X440652Y53698D01*
X440598Y53772D01*
X440547Y53848D01*
X440500Y53925D01*
X440456Y54005D01*
X440416Y54087D01*
X440379Y54171D01*
X440346Y54255D01*
X440317Y54342D01*
X440291Y54429D01*
X440270Y54518D01*
X440252Y54607D01*
X440238Y54697D01*
X440228Y54788D01*
X440222Y54879D01*
X440220Y54970D01*
X440221Y54969D02*
X440221Y58102D01*
X440221Y62635D02*
X449619Y62635D01*
X449619Y67856D02*
X440221Y62635D01*
X440221Y67856D02*
X449619Y67856D01*
X449619Y72388D02*
X440221Y72388D01*
X440221Y74999D01*
X440223Y75099D01*
X440229Y75199D01*
X440238Y75298D01*
X440252Y75398D01*
X440269Y75496D01*
X440290Y75594D01*
X440314Y75691D01*
X440343Y75787D01*
X440375Y75882D01*
X440410Y75975D01*
X440449Y76067D01*
X440492Y76158D01*
X440538Y76246D01*
X440588Y76333D01*
X440640Y76418D01*
X440696Y76501D01*
X440755Y76582D01*
X440818Y76660D01*
X440883Y76736D01*
X440951Y76810D01*
X441021Y76880D01*
X441095Y76948D01*
X441171Y77013D01*
X441249Y77076D01*
X441330Y77135D01*
X441413Y77191D01*
X441498Y77243D01*
X441585Y77293D01*
X441673Y77339D01*
X441764Y77382D01*
X441856Y77421D01*
X441949Y77456D01*
X442044Y77488D01*
X442140Y77517D01*
X442237Y77541D01*
X442335Y77562D01*
X442433Y77579D01*
X442533Y77593D01*
X442632Y77602D01*
X442732Y77608D01*
X442832Y77610D01*
X442832Y77609D02*
X447008Y77609D01*
X447008Y77610D02*
X447108Y77608D01*
X447208Y77602D01*
X447307Y77593D01*
X447407Y77579D01*
X447505Y77562D01*
X447603Y77541D01*
X447700Y77517D01*
X447796Y77488D01*
X447891Y77456D01*
X447984Y77421D01*
X448076Y77382D01*
X448167Y77339D01*
X448255Y77293D01*
X448342Y77243D01*
X448427Y77191D01*
X448510Y77135D01*
X448591Y77076D01*
X448669Y77013D01*
X448745Y76948D01*
X448819Y76880D01*
X448889Y76810D01*
X448957Y76736D01*
X449022Y76660D01*
X449085Y76582D01*
X449144Y76501D01*
X449200Y76418D01*
X449252Y76333D01*
X449302Y76246D01*
X449348Y76158D01*
X449391Y76067D01*
X449430Y75975D01*
X449465Y75882D01*
X449497Y75787D01*
X449526Y75691D01*
X449550Y75594D01*
X449571Y75496D01*
X449588Y75398D01*
X449602Y75298D01*
X449611Y75199D01*
X449617Y75099D01*
X449619Y74999D01*
X449619Y72388D01*
X64558Y62612D02*
X64558Y61045D01*
X64558Y62612D02*
X69779Y62612D01*
X69779Y59479D01*
X69777Y59390D01*
X69771Y59302D01*
X69762Y59214D01*
X69749Y59126D01*
X69732Y59039D01*
X69712Y58953D01*
X69687Y58868D01*
X69660Y58783D01*
X69628Y58700D01*
X69594Y58619D01*
X69555Y58539D01*
X69514Y58461D01*
X69469Y58384D01*
X69421Y58310D01*
X69370Y58237D01*
X69316Y58167D01*
X69258Y58100D01*
X69198Y58034D01*
X69136Y57972D01*
X69070Y57912D01*
X69003Y57854D01*
X68933Y57800D01*
X68860Y57749D01*
X68786Y57701D01*
X68709Y57656D01*
X68631Y57615D01*
X68551Y57576D01*
X68470Y57542D01*
X68387Y57510D01*
X68302Y57483D01*
X68217Y57458D01*
X68131Y57438D01*
X68044Y57421D01*
X67956Y57408D01*
X67868Y57399D01*
X67780Y57393D01*
X67691Y57391D01*
X62469Y57391D01*
X62469Y57390D02*
X62378Y57392D01*
X62287Y57398D01*
X62196Y57408D01*
X62106Y57422D01*
X62017Y57440D01*
X61928Y57461D01*
X61841Y57487D01*
X61755Y57516D01*
X61670Y57549D01*
X61586Y57586D01*
X61504Y57626D01*
X61425Y57670D01*
X61347Y57717D01*
X61271Y57768D01*
X61197Y57822D01*
X61126Y57879D01*
X61058Y57939D01*
X60992Y58002D01*
X60929Y58068D01*
X60869Y58136D01*
X60812Y58207D01*
X60758Y58281D01*
X60707Y58357D01*
X60660Y58434D01*
X60616Y58514D01*
X60576Y58596D01*
X60539Y58680D01*
X60506Y58764D01*
X60477Y58851D01*
X60451Y58938D01*
X60430Y59027D01*
X60412Y59116D01*
X60398Y59206D01*
X60388Y59297D01*
X60382Y59388D01*
X60380Y59479D01*
X60381Y59479D02*
X60381Y62612D01*
X60381Y67144D02*
X69779Y67144D01*
X69779Y72365D02*
X60381Y67144D01*
X60381Y72365D02*
X69779Y72365D01*
X69779Y76898D02*
X60381Y76898D01*
X60381Y79508D01*
X60383Y79608D01*
X60389Y79708D01*
X60398Y79807D01*
X60412Y79907D01*
X60429Y80005D01*
X60450Y80103D01*
X60474Y80200D01*
X60503Y80296D01*
X60535Y80391D01*
X60570Y80484D01*
X60609Y80576D01*
X60652Y80667D01*
X60698Y80755D01*
X60748Y80842D01*
X60800Y80927D01*
X60856Y81010D01*
X60915Y81091D01*
X60978Y81169D01*
X61043Y81245D01*
X61111Y81319D01*
X61181Y81389D01*
X61255Y81457D01*
X61331Y81522D01*
X61409Y81585D01*
X61490Y81644D01*
X61573Y81700D01*
X61658Y81752D01*
X61745Y81802D01*
X61833Y81848D01*
X61924Y81891D01*
X62016Y81930D01*
X62109Y81965D01*
X62204Y81997D01*
X62300Y82026D01*
X62397Y82050D01*
X62495Y82071D01*
X62593Y82088D01*
X62693Y82102D01*
X62792Y82111D01*
X62892Y82117D01*
X62992Y82119D01*
X67168Y82119D01*
X67268Y82117D01*
X67368Y82111D01*
X67467Y82102D01*
X67567Y82088D01*
X67665Y82071D01*
X67763Y82050D01*
X67860Y82026D01*
X67956Y81997D01*
X68051Y81965D01*
X68144Y81930D01*
X68236Y81891D01*
X68327Y81848D01*
X68415Y81802D01*
X68502Y81752D01*
X68587Y81700D01*
X68670Y81644D01*
X68751Y81585D01*
X68829Y81522D01*
X68905Y81457D01*
X68979Y81389D01*
X69049Y81319D01*
X69117Y81245D01*
X69182Y81169D01*
X69245Y81091D01*
X69304Y81010D01*
X69360Y80927D01*
X69412Y80842D01*
X69462Y80755D01*
X69508Y80667D01*
X69551Y80576D01*
X69590Y80484D01*
X69625Y80391D01*
X69657Y80296D01*
X69686Y80200D01*
X69710Y80103D01*
X69731Y80005D01*
X69748Y79907D01*
X69762Y79807D01*
X69771Y79708D01*
X69777Y79608D01*
X69779Y79508D01*
X69779Y76898D01*
D12*
X219306Y27192D02*
X219306Y15508D01*
X218008Y15508D02*
X220604Y15508D01*
X220604Y27192D02*
X218008Y27192D01*
X225699Y23297D02*
X225699Y15508D01*
X225699Y23297D02*
X231541Y23297D01*
X231628Y23295D01*
X231716Y23289D01*
X231802Y23279D01*
X231889Y23266D01*
X231974Y23248D01*
X232059Y23227D01*
X232143Y23202D01*
X232225Y23173D01*
X232306Y23140D01*
X232386Y23104D01*
X232464Y23065D01*
X232540Y23021D01*
X232614Y22975D01*
X232685Y22925D01*
X232755Y22872D01*
X232822Y22816D01*
X232886Y22757D01*
X232948Y22695D01*
X233007Y22631D01*
X233063Y22564D01*
X233116Y22494D01*
X233166Y22423D01*
X233212Y22349D01*
X233256Y22273D01*
X233295Y22195D01*
X233331Y22115D01*
X233364Y22034D01*
X233393Y21952D01*
X233418Y21868D01*
X233439Y21783D01*
X233457Y21698D01*
X233470Y21611D01*
X233480Y21525D01*
X233486Y21437D01*
X233488Y21350D01*
X233488Y15508D01*
X229593Y15508D02*
X229593Y23297D01*
X239248Y23297D02*
X239248Y11613D01*
X239248Y23297D02*
X242493Y23297D01*
X242580Y23295D01*
X242668Y23289D01*
X242754Y23279D01*
X242841Y23266D01*
X242926Y23248D01*
X243011Y23227D01*
X243095Y23202D01*
X243177Y23173D01*
X243258Y23140D01*
X243338Y23104D01*
X243416Y23065D01*
X243492Y23021D01*
X243566Y22975D01*
X243637Y22925D01*
X243707Y22872D01*
X243774Y22816D01*
X243838Y22757D01*
X243900Y22696D01*
X243959Y22631D01*
X244015Y22564D01*
X244068Y22494D01*
X244118Y22423D01*
X244164Y22349D01*
X244208Y22273D01*
X244247Y22195D01*
X244283Y22115D01*
X244316Y22034D01*
X244345Y21952D01*
X244370Y21868D01*
X244391Y21783D01*
X244409Y21698D01*
X244422Y21611D01*
X244432Y21525D01*
X244438Y21437D01*
X244440Y21350D01*
X244441Y21350D02*
X244441Y17455D01*
X244440Y17455D02*
X244438Y17368D01*
X244432Y17280D01*
X244422Y17194D01*
X244409Y17107D01*
X244391Y17022D01*
X244370Y16937D01*
X244345Y16853D01*
X244316Y16771D01*
X244283Y16690D01*
X244247Y16610D01*
X244208Y16532D01*
X244164Y16456D01*
X244118Y16382D01*
X244068Y16311D01*
X244015Y16241D01*
X243959Y16174D01*
X243900Y16110D01*
X243838Y16048D01*
X243774Y15989D01*
X243707Y15933D01*
X243637Y15880D01*
X243566Y15830D01*
X243492Y15784D01*
X243416Y15740D01*
X243338Y15701D01*
X243258Y15665D01*
X243177Y15632D01*
X243095Y15603D01*
X243011Y15578D01*
X242926Y15557D01*
X242841Y15539D01*
X242754Y15526D01*
X242668Y15516D01*
X242580Y15510D01*
X242493Y15508D01*
X239248Y15508D01*
X251308Y20052D02*
X254229Y20052D01*
X251308Y20052D02*
X251214Y20050D01*
X251120Y20044D01*
X251027Y20035D01*
X250934Y20021D01*
X250842Y20004D01*
X250750Y19982D01*
X250660Y19958D01*
X250570Y19929D01*
X250482Y19897D01*
X250395Y19861D01*
X250310Y19821D01*
X250227Y19778D01*
X250145Y19732D01*
X250065Y19682D01*
X249988Y19629D01*
X249913Y19573D01*
X249840Y19514D01*
X249769Y19452D01*
X249701Y19387D01*
X249636Y19319D01*
X249574Y19248D01*
X249515Y19175D01*
X249459Y19100D01*
X249406Y19023D01*
X249356Y18943D01*
X249310Y18861D01*
X249267Y18778D01*
X249227Y18693D01*
X249191Y18606D01*
X249159Y18518D01*
X249130Y18428D01*
X249106Y18338D01*
X249084Y18246D01*
X249067Y18154D01*
X249053Y18061D01*
X249044Y17968D01*
X249038Y17874D01*
X249036Y17780D01*
X249038Y17686D01*
X249044Y17592D01*
X249053Y17499D01*
X249067Y17406D01*
X249084Y17314D01*
X249106Y17222D01*
X249130Y17132D01*
X249159Y17042D01*
X249191Y16954D01*
X249227Y16867D01*
X249267Y16782D01*
X249310Y16699D01*
X249356Y16617D01*
X249406Y16537D01*
X249459Y16460D01*
X249515Y16385D01*
X249574Y16312D01*
X249636Y16241D01*
X249701Y16173D01*
X249769Y16108D01*
X249840Y16046D01*
X249913Y15987D01*
X249988Y15931D01*
X250065Y15878D01*
X250145Y15828D01*
X250227Y15782D01*
X250310Y15739D01*
X250395Y15699D01*
X250482Y15663D01*
X250570Y15631D01*
X250660Y15602D01*
X250750Y15578D01*
X250842Y15556D01*
X250934Y15539D01*
X251027Y15525D01*
X251120Y15516D01*
X251214Y15510D01*
X251308Y15508D01*
X254229Y15508D01*
X254229Y21350D01*
X254228Y21350D02*
X254226Y21437D01*
X254220Y21525D01*
X254210Y21611D01*
X254197Y21698D01*
X254179Y21783D01*
X254158Y21868D01*
X254133Y21952D01*
X254104Y22034D01*
X254071Y22115D01*
X254035Y22195D01*
X253996Y22273D01*
X253952Y22349D01*
X253906Y22423D01*
X253856Y22494D01*
X253803Y22564D01*
X253747Y22631D01*
X253688Y22695D01*
X253626Y22757D01*
X253562Y22816D01*
X253495Y22872D01*
X253425Y22925D01*
X253354Y22975D01*
X253280Y23021D01*
X253204Y23065D01*
X253126Y23104D01*
X253046Y23140D01*
X252965Y23173D01*
X252883Y23202D01*
X252799Y23227D01*
X252714Y23248D01*
X252629Y23266D01*
X252542Y23279D01*
X252456Y23289D01*
X252368Y23295D01*
X252281Y23297D01*
X249685Y23297D01*
X261342Y15508D02*
X263939Y15508D01*
X261342Y15508D02*
X261255Y15510D01*
X261167Y15516D01*
X261081Y15526D01*
X260994Y15539D01*
X260909Y15557D01*
X260824Y15578D01*
X260740Y15603D01*
X260658Y15632D01*
X260577Y15665D01*
X260497Y15701D01*
X260419Y15740D01*
X260343Y15784D01*
X260269Y15830D01*
X260198Y15880D01*
X260128Y15933D01*
X260061Y15989D01*
X259997Y16048D01*
X259935Y16110D01*
X259876Y16174D01*
X259820Y16241D01*
X259767Y16311D01*
X259717Y16382D01*
X259671Y16456D01*
X259627Y16532D01*
X259588Y16610D01*
X259552Y16690D01*
X259519Y16771D01*
X259490Y16853D01*
X259465Y16937D01*
X259444Y17022D01*
X259426Y17107D01*
X259413Y17194D01*
X259403Y17280D01*
X259397Y17368D01*
X259395Y17455D01*
X259395Y21350D01*
X259397Y21437D01*
X259403Y21525D01*
X259413Y21611D01*
X259426Y21698D01*
X259444Y21783D01*
X259465Y21868D01*
X259490Y21952D01*
X259519Y22034D01*
X259552Y22115D01*
X259588Y22195D01*
X259627Y22273D01*
X259671Y22349D01*
X259717Y22423D01*
X259767Y22494D01*
X259820Y22564D01*
X259876Y22631D01*
X259935Y22695D01*
X259997Y22757D01*
X260061Y22816D01*
X260128Y22872D01*
X260198Y22925D01*
X260269Y22975D01*
X260343Y23021D01*
X260419Y23065D01*
X260497Y23104D01*
X260577Y23140D01*
X260658Y23173D01*
X260740Y23202D01*
X260824Y23227D01*
X260909Y23248D01*
X260994Y23266D01*
X261081Y23279D01*
X261167Y23289D01*
X261255Y23295D01*
X261342Y23297D01*
X263939Y23297D01*
X267177Y23297D02*
X271072Y23297D01*
X268476Y27192D02*
X268476Y17455D01*
X268478Y17368D01*
X268484Y17280D01*
X268494Y17194D01*
X268507Y17107D01*
X268525Y17022D01*
X268546Y16937D01*
X268571Y16853D01*
X268600Y16771D01*
X268633Y16690D01*
X268669Y16610D01*
X268708Y16532D01*
X268752Y16456D01*
X268798Y16382D01*
X268848Y16311D01*
X268901Y16241D01*
X268957Y16174D01*
X269016Y16110D01*
X269078Y16048D01*
X269142Y15989D01*
X269209Y15933D01*
X269279Y15880D01*
X269350Y15830D01*
X269424Y15784D01*
X269500Y15740D01*
X269578Y15701D01*
X269658Y15665D01*
X269739Y15632D01*
X269821Y15603D01*
X269905Y15578D01*
X269990Y15557D01*
X270075Y15539D01*
X270162Y15526D01*
X270248Y15516D01*
X270336Y15510D01*
X270423Y15508D01*
X271072Y15508D01*
X275496Y18754D02*
X275498Y18867D01*
X275504Y18980D01*
X275514Y19093D01*
X275528Y19206D01*
X275545Y19318D01*
X275567Y19429D01*
X275592Y19539D01*
X275622Y19649D01*
X275655Y19757D01*
X275692Y19864D01*
X275732Y19970D01*
X275777Y20074D01*
X275825Y20177D01*
X275876Y20278D01*
X275931Y20377D01*
X275989Y20474D01*
X276051Y20569D01*
X276116Y20662D01*
X276184Y20752D01*
X276255Y20840D01*
X276330Y20926D01*
X276407Y21009D01*
X276487Y21089D01*
X276570Y21166D01*
X276656Y21241D01*
X276744Y21312D01*
X276834Y21380D01*
X276927Y21445D01*
X277022Y21507D01*
X277119Y21565D01*
X277218Y21620D01*
X277319Y21671D01*
X277422Y21719D01*
X277526Y21764D01*
X277632Y21804D01*
X277739Y21841D01*
X277847Y21874D01*
X277957Y21904D01*
X278067Y21929D01*
X278178Y21951D01*
X278290Y21968D01*
X278403Y21982D01*
X278516Y21992D01*
X278629Y21998D01*
X278742Y22000D01*
X278855Y21998D01*
X278968Y21992D01*
X279081Y21982D01*
X279194Y21968D01*
X279306Y21951D01*
X279417Y21929D01*
X279527Y21904D01*
X279637Y21874D01*
X279745Y21841D01*
X279852Y21804D01*
X279958Y21764D01*
X280062Y21719D01*
X280165Y21671D01*
X280266Y21620D01*
X280365Y21565D01*
X280462Y21507D01*
X280557Y21445D01*
X280650Y21380D01*
X280740Y21312D01*
X280828Y21241D01*
X280914Y21166D01*
X280997Y21089D01*
X281077Y21009D01*
X281154Y20926D01*
X281229Y20840D01*
X281300Y20752D01*
X281368Y20662D01*
X281433Y20569D01*
X281495Y20474D01*
X281553Y20377D01*
X281608Y20278D01*
X281659Y20177D01*
X281707Y20074D01*
X281752Y19970D01*
X281792Y19864D01*
X281829Y19757D01*
X281862Y19649D01*
X281892Y19539D01*
X281917Y19429D01*
X281939Y19318D01*
X281956Y19206D01*
X281970Y19093D01*
X281980Y18980D01*
X281986Y18867D01*
X281988Y18754D01*
X281986Y18641D01*
X281980Y18528D01*
X281970Y18415D01*
X281956Y18302D01*
X281939Y18190D01*
X281917Y18079D01*
X281892Y17969D01*
X281862Y17859D01*
X281829Y17751D01*
X281792Y17644D01*
X281752Y17538D01*
X281707Y17434D01*
X281659Y17331D01*
X281608Y17230D01*
X281553Y17131D01*
X281495Y17034D01*
X281433Y16939D01*
X281368Y16846D01*
X281300Y16756D01*
X281229Y16668D01*
X281154Y16582D01*
X281077Y16499D01*
X280997Y16419D01*
X280914Y16342D01*
X280828Y16267D01*
X280740Y16196D01*
X280650Y16128D01*
X280557Y16063D01*
X280462Y16001D01*
X280365Y15943D01*
X280266Y15888D01*
X280165Y15837D01*
X280062Y15789D01*
X279958Y15744D01*
X279852Y15704D01*
X279745Y15667D01*
X279637Y15634D01*
X279527Y15604D01*
X279417Y15579D01*
X279306Y15557D01*
X279194Y15540D01*
X279081Y15526D01*
X278968Y15516D01*
X278855Y15510D01*
X278742Y15508D01*
X278629Y15510D01*
X278516Y15516D01*
X278403Y15526D01*
X278290Y15540D01*
X278178Y15557D01*
X278067Y15579D01*
X277957Y15604D01*
X277847Y15634D01*
X277739Y15667D01*
X277632Y15704D01*
X277526Y15744D01*
X277422Y15789D01*
X277319Y15837D01*
X277218Y15888D01*
X277119Y15943D01*
X277022Y16001D01*
X276927Y16063D01*
X276834Y16128D01*
X276744Y16196D01*
X276656Y16267D01*
X276570Y16342D01*
X276487Y16419D01*
X276407Y16499D01*
X276330Y16582D01*
X276255Y16668D01*
X276184Y16756D01*
X276116Y16846D01*
X276051Y16939D01*
X275989Y17034D01*
X275931Y17131D01*
X275876Y17230D01*
X275825Y17331D01*
X275777Y17434D01*
X275732Y17538D01*
X275692Y17644D01*
X275655Y17751D01*
X275622Y17859D01*
X275592Y17969D01*
X275567Y18079D01*
X275545Y18190D01*
X275528Y18302D01*
X275514Y18415D01*
X275504Y18528D01*
X275498Y18641D01*
X275496Y18754D01*
X276146Y24596D02*
X276148Y24697D01*
X276154Y24797D01*
X276164Y24897D01*
X276177Y24997D01*
X276195Y25096D01*
X276216Y25195D01*
X276241Y25292D01*
X276270Y25389D01*
X276303Y25484D01*
X276339Y25578D01*
X276379Y25670D01*
X276422Y25761D01*
X276469Y25850D01*
X276519Y25937D01*
X276573Y26023D01*
X276630Y26106D01*
X276690Y26186D01*
X276753Y26265D01*
X276820Y26341D01*
X276889Y26414D01*
X276961Y26484D01*
X277035Y26552D01*
X277112Y26617D01*
X277192Y26678D01*
X277274Y26737D01*
X277358Y26792D01*
X277444Y26844D01*
X277532Y26893D01*
X277622Y26938D01*
X277714Y26980D01*
X277807Y27018D01*
X277902Y27052D01*
X277997Y27083D01*
X278094Y27110D01*
X278192Y27133D01*
X278291Y27153D01*
X278391Y27168D01*
X278491Y27180D01*
X278591Y27188D01*
X278692Y27192D01*
X278792Y27192D01*
X278893Y27188D01*
X278993Y27180D01*
X279093Y27168D01*
X279193Y27153D01*
X279292Y27133D01*
X279390Y27110D01*
X279487Y27083D01*
X279582Y27052D01*
X279677Y27018D01*
X279770Y26980D01*
X279862Y26938D01*
X279952Y26893D01*
X280040Y26844D01*
X280126Y26792D01*
X280210Y26737D01*
X280292Y26678D01*
X280372Y26617D01*
X280449Y26552D01*
X280523Y26484D01*
X280595Y26414D01*
X280664Y26341D01*
X280731Y26265D01*
X280794Y26186D01*
X280854Y26106D01*
X280911Y26023D01*
X280965Y25937D01*
X281015Y25850D01*
X281062Y25761D01*
X281105Y25670D01*
X281145Y25578D01*
X281181Y25484D01*
X281214Y25389D01*
X281243Y25292D01*
X281268Y25195D01*
X281289Y25096D01*
X281307Y24997D01*
X281320Y24897D01*
X281330Y24797D01*
X281336Y24697D01*
X281338Y24596D01*
X281336Y24495D01*
X281330Y24395D01*
X281320Y24295D01*
X281307Y24195D01*
X281289Y24096D01*
X281268Y23997D01*
X281243Y23900D01*
X281214Y23803D01*
X281181Y23708D01*
X281145Y23614D01*
X281105Y23522D01*
X281062Y23431D01*
X281015Y23342D01*
X280965Y23255D01*
X280911Y23169D01*
X280854Y23086D01*
X280794Y23006D01*
X280731Y22927D01*
X280664Y22851D01*
X280595Y22778D01*
X280523Y22708D01*
X280449Y22640D01*
X280372Y22575D01*
X280292Y22514D01*
X280210Y22455D01*
X280126Y22400D01*
X280040Y22348D01*
X279952Y22299D01*
X279862Y22254D01*
X279770Y22212D01*
X279677Y22174D01*
X279582Y22140D01*
X279487Y22109D01*
X279390Y22082D01*
X279292Y22059D01*
X279193Y22039D01*
X279093Y22024D01*
X278993Y22012D01*
X278893Y22004D01*
X278792Y22000D01*
X278692Y22000D01*
X278591Y22004D01*
X278491Y22012D01*
X278391Y22024D01*
X278291Y22039D01*
X278192Y22059D01*
X278094Y22082D01*
X277997Y22109D01*
X277902Y22140D01*
X277807Y22174D01*
X277714Y22212D01*
X277622Y22254D01*
X277532Y22299D01*
X277444Y22348D01*
X277358Y22400D01*
X277274Y22455D01*
X277192Y22514D01*
X277112Y22575D01*
X277035Y22640D01*
X276961Y22708D01*
X276889Y22778D01*
X276820Y22851D01*
X276753Y22927D01*
X276690Y23006D01*
X276630Y23086D01*
X276573Y23169D01*
X276519Y23255D01*
X276469Y23342D01*
X276422Y23431D01*
X276379Y23522D01*
X276339Y23614D01*
X276303Y23708D01*
X276270Y23803D01*
X276241Y23900D01*
X276216Y23997D01*
X276195Y24096D01*
X276177Y24195D01*
X276164Y24295D01*
X276154Y24395D01*
X276148Y24495D01*
X276146Y24596D01*
X286927Y18104D02*
X289523Y27192D01*
X286927Y18104D02*
X293418Y18104D01*
X291470Y15508D02*
X291470Y20701D01*
D13*
X229600Y570300D02*
X216900Y570300D01*
X280400Y570300D02*
X293100Y570300D01*
X216900Y570300D02*
X216900Y525850D01*
X223250Y525850D01*
X229600Y519500D01*
X280400Y519500D01*
X286750Y525850D01*
X293100Y525850D01*
X293100Y570300D01*
X210550Y309950D02*
X204200Y303600D01*
X210550Y309950D02*
X216900Y316300D01*
X223250Y322650D01*
X229600Y329000D01*
X235950Y335350D01*
X242300Y341700D01*
X248650Y348050D01*
X255000Y354400D01*
X261350Y348050D01*
X267700Y341700D01*
X274050Y335350D01*
X280400Y329000D01*
X286750Y322650D01*
X293100Y316300D01*
X299450Y309950D01*
X305800Y303600D01*
X299450Y297250D01*
X293100Y290900D01*
X286750Y284550D01*
X280400Y278200D01*
X274050Y271850D01*
X267700Y265500D01*
X261350Y259150D01*
X255000Y252800D01*
X248650Y259150D01*
X242300Y265500D01*
X235950Y271850D01*
X229600Y278200D01*
X223250Y284550D01*
X216900Y290900D01*
X210550Y297250D01*
X204200Y303600D01*
D12*
X238503Y285418D02*
X238574Y285348D01*
X238642Y285276D01*
X238707Y285201D01*
X238770Y285124D01*
X238829Y285044D01*
X238886Y284962D01*
X238939Y284878D01*
X238989Y284792D01*
X239035Y284704D01*
X239078Y284615D01*
X239118Y284524D01*
X239154Y284431D01*
X239187Y284337D01*
X239216Y284242D01*
X239241Y284146D01*
X239263Y284049D01*
X239281Y283951D01*
X239295Y283852D01*
X239306Y283753D01*
X239312Y283654D01*
X239315Y283555D01*
X239314Y283455D01*
X239309Y283356D01*
X239300Y283257D01*
X239288Y283158D01*
X239272Y283060D01*
X239252Y282963D01*
X239228Y282866D01*
X239201Y282771D01*
X239170Y282676D01*
X239135Y282583D01*
X239097Y282491D01*
X239055Y282401D01*
X239010Y282312D01*
X238962Y282225D01*
X238910Y282140D01*
X238855Y282057D01*
X238797Y281976D01*
X238736Y281898D01*
X238672Y281822D01*
X238605Y281748D01*
X238606Y281747D02*
X238506Y281644D01*
X238403Y281543D01*
X238297Y281445D01*
X238188Y281349D01*
X238077Y281257D01*
X237964Y281168D01*
X237848Y281081D01*
X237731Y280998D01*
X237611Y280917D01*
X237489Y280840D01*
X237365Y280766D01*
X237239Y280696D01*
X237111Y280629D01*
X236981Y280565D01*
X236850Y280504D01*
X236718Y280448D01*
X236583Y280394D01*
X236448Y280344D01*
X236311Y280298D01*
X236173Y280255D01*
X236034Y280216D01*
X235894Y280181D01*
X235754Y280149D01*
X235612Y280121D01*
X235470Y280097D01*
X235327Y280077D01*
X235183Y280060D01*
X235039Y280047D01*
X234895Y280038D01*
X234751Y280033D01*
X229550Y285398D02*
X229479Y285468D01*
X229411Y285540D01*
X229346Y285615D01*
X229283Y285692D01*
X229224Y285772D01*
X229167Y285854D01*
X229114Y285938D01*
X229064Y286024D01*
X229018Y286112D01*
X228975Y286201D01*
X228935Y286292D01*
X228899Y286385D01*
X228866Y286479D01*
X228837Y286574D01*
X228812Y286670D01*
X228790Y286767D01*
X228772Y286865D01*
X228758Y286964D01*
X228747Y287063D01*
X228741Y287162D01*
X228738Y287261D01*
X228739Y287361D01*
X228744Y287460D01*
X228753Y287559D01*
X228765Y287658D01*
X228781Y287756D01*
X228801Y287853D01*
X228825Y287950D01*
X228852Y288046D01*
X228883Y288140D01*
X228918Y288233D01*
X228956Y288325D01*
X228998Y288415D01*
X229043Y288504D01*
X229091Y288591D01*
X229143Y288676D01*
X229198Y288759D01*
X229256Y288840D01*
X229317Y288918D01*
X229381Y288994D01*
X229448Y289068D01*
X229448Y289069D02*
X229543Y289166D01*
X229641Y289261D01*
X229741Y289353D01*
X229844Y289443D01*
X229949Y289529D01*
X230057Y289613D01*
X230167Y289693D01*
X230279Y289770D01*
X230393Y289845D01*
X230509Y289915D01*
X230627Y289983D01*
X230748Y290047D01*
X230869Y290108D01*
X230993Y290166D01*
X231118Y290220D01*
X231244Y290270D01*
X231372Y290317D01*
X231501Y290360D01*
X231632Y290400D01*
X231763Y290436D01*
X231895Y290468D01*
X232028Y290497D01*
X232162Y290522D01*
X232093Y284780D02*
X231995Y284754D01*
X231896Y284732D01*
X231796Y284713D01*
X231696Y284698D01*
X231595Y284687D01*
X231494Y284680D01*
X231393Y284677D01*
X231291Y284678D01*
X231190Y284683D01*
X231089Y284691D01*
X230988Y284704D01*
X230888Y284720D01*
X230789Y284740D01*
X230690Y284764D01*
X230593Y284792D01*
X230496Y284823D01*
X230401Y284858D01*
X230308Y284897D01*
X230215Y284939D01*
X230125Y284985D01*
X230036Y285034D01*
X229950Y285087D01*
X229865Y285143D01*
X229783Y285202D01*
X229703Y285264D01*
X229625Y285330D01*
X229550Y285398D01*
X235961Y286036D02*
X236059Y286062D01*
X236158Y286084D01*
X236258Y286103D01*
X236358Y286118D01*
X236459Y286129D01*
X236560Y286136D01*
X236661Y286139D01*
X236763Y286138D01*
X236864Y286133D01*
X236965Y286125D01*
X237066Y286112D01*
X237166Y286096D01*
X237265Y286076D01*
X237364Y286052D01*
X237461Y286024D01*
X237558Y285993D01*
X237653Y285958D01*
X237746Y285919D01*
X237839Y285877D01*
X237929Y285831D01*
X238018Y285782D01*
X238104Y285729D01*
X238189Y285673D01*
X238271Y285614D01*
X238351Y285552D01*
X238429Y285486D01*
X238504Y285418D01*
X235961Y286036D02*
X232093Y284780D01*
X236739Y296778D02*
X245228Y288750D01*
X234509Y294420D02*
X238969Y299137D01*
X242178Y302530D02*
X250667Y294502D01*
X249570Y300900D02*
X242178Y302530D01*
X249570Y300900D02*
X247530Y308190D01*
X256019Y300162D01*
X259752Y304109D02*
X261982Y306467D01*
X262059Y306550D01*
X262132Y306637D01*
X262203Y306725D01*
X262270Y306817D01*
X262334Y306910D01*
X262395Y307006D01*
X262452Y307104D01*
X262506Y307203D01*
X262556Y307305D01*
X262603Y307408D01*
X262646Y307513D01*
X262686Y307619D01*
X262721Y307726D01*
X262753Y307835D01*
X262782Y307945D01*
X262806Y308055D01*
X262826Y308167D01*
X262843Y308279D01*
X262856Y308392D01*
X262864Y308504D01*
X262869Y308618D01*
X262870Y308731D01*
X262867Y308844D01*
X262860Y308957D01*
X262848Y309070D01*
X262834Y309182D01*
X262815Y309294D01*
X262792Y309405D01*
X262765Y309515D01*
X262735Y309624D01*
X262700Y309732D01*
X262662Y309839D01*
X262621Y309944D01*
X262575Y310048D01*
X262526Y310150D01*
X262474Y310251D01*
X262418Y310349D01*
X262359Y310446D01*
X262296Y310540D01*
X262230Y310632D01*
X262161Y310722D01*
X262089Y310809D01*
X262013Y310894D01*
X261935Y310976D01*
X261854Y311055D01*
X261771Y311132D01*
X261684Y311205D01*
X261596Y311276D01*
X261504Y311343D01*
X261411Y311407D01*
X261315Y311468D01*
X261217Y311525D01*
X261118Y311579D01*
X261016Y311629D01*
X260913Y311676D01*
X260808Y311719D01*
X260702Y311759D01*
X260595Y311794D01*
X260486Y311826D01*
X260376Y311855D01*
X260266Y311879D01*
X260154Y311899D01*
X260042Y311916D01*
X259929Y311929D01*
X259817Y311937D01*
X259703Y311942D01*
X259590Y311943D01*
X259477Y311940D01*
X259364Y311933D01*
X259251Y311921D01*
X259139Y311907D01*
X259027Y311888D01*
X258916Y311865D01*
X258806Y311838D01*
X258697Y311808D01*
X258589Y311773D01*
X258482Y311735D01*
X258377Y311694D01*
X258273Y311648D01*
X258171Y311599D01*
X258070Y311547D01*
X257972Y311491D01*
X257875Y311432D01*
X257781Y311369D01*
X257689Y311303D01*
X257599Y311234D01*
X257512Y311162D01*
X257427Y311086D01*
X257345Y311008D01*
X257266Y310927D01*
X253938Y314967D02*
X251263Y312137D01*
X253939Y314967D02*
X254009Y315038D01*
X254083Y315107D01*
X254159Y315174D01*
X254237Y315237D01*
X254318Y315297D01*
X254401Y315354D01*
X254486Y315407D01*
X254573Y315457D01*
X254663Y315504D01*
X254753Y315548D01*
X254846Y315587D01*
X254940Y315623D01*
X255035Y315656D01*
X255132Y315685D01*
X255229Y315710D01*
X255328Y315731D01*
X255427Y315748D01*
X255527Y315762D01*
X255627Y315771D01*
X255727Y315777D01*
X255828Y315779D01*
X255929Y315777D01*
X256029Y315771D01*
X256129Y315761D01*
X256229Y315747D01*
X256328Y315730D01*
X256427Y315708D01*
X256524Y315683D01*
X256621Y315654D01*
X256716Y315621D01*
X256810Y315585D01*
X256902Y315545D01*
X256993Y315502D01*
X257082Y315454D01*
X257169Y315404D01*
X257254Y315350D01*
X257337Y315293D01*
X257418Y315233D01*
X257496Y315170D01*
X257572Y315103D01*
X257645Y315034D01*
X257715Y314962D01*
X257783Y314888D01*
X257848Y314810D01*
X257909Y314731D01*
X257968Y314649D01*
X258023Y314565D01*
X258075Y314478D01*
X258123Y314390D01*
X258168Y314300D01*
X258210Y314208D01*
X258248Y314115D01*
X258282Y314021D01*
X258313Y313925D01*
X258340Y313828D01*
X258363Y313730D01*
X258382Y313631D01*
X258398Y313531D01*
X258409Y313431D01*
X258417Y313331D01*
X258421Y313230D01*
X258420Y313130D01*
X258416Y313029D01*
X258409Y312929D01*
X258397Y312829D01*
X258381Y312729D01*
X258362Y312630D01*
X258338Y312532D01*
X258311Y312436D01*
X258280Y312340D01*
X258246Y312245D01*
X258207Y312152D01*
X258166Y312060D01*
X258120Y311970D01*
X258072Y311882D01*
X258020Y311796D01*
X257964Y311712D01*
X257905Y311630D01*
X257844Y311551D01*
X257779Y311474D01*
X257711Y311399D01*
X257712Y311399D02*
X255928Y309512D01*
X261569Y323036D02*
X261643Y323112D01*
X261721Y323186D01*
X261801Y323256D01*
X261884Y323324D01*
X261969Y323388D01*
X262056Y323449D01*
X262145Y323508D01*
X262237Y323562D01*
X262330Y323614D01*
X262426Y323662D01*
X262523Y323706D01*
X262621Y323747D01*
X262721Y323784D01*
X262822Y323818D01*
X262925Y323848D01*
X263028Y323874D01*
X263133Y323896D01*
X263238Y323915D01*
X263344Y323929D01*
X263450Y323940D01*
X263556Y323947D01*
X263663Y323950D01*
X263769Y323949D01*
X263876Y323944D01*
X263982Y323935D01*
X264088Y323923D01*
X264194Y323906D01*
X264299Y323886D01*
X264402Y323862D01*
X264505Y323834D01*
X264607Y323803D01*
X264708Y323767D01*
X264807Y323728D01*
X264905Y323686D01*
X265001Y323640D01*
X265096Y323590D01*
X265189Y323537D01*
X265279Y323481D01*
X265368Y323421D01*
X265454Y323358D01*
X265538Y323292D01*
X265619Y323223D01*
X265698Y323151D01*
X261568Y323036D02*
X261486Y322946D01*
X261408Y322855D01*
X261332Y322760D01*
X261259Y322663D01*
X261190Y322564D01*
X261123Y322463D01*
X261060Y322360D01*
X261001Y322255D01*
X260944Y322147D01*
X260892Y322039D01*
X260842Y321928D01*
X260797Y321816D01*
X260755Y321702D01*
X260716Y321588D01*
X260682Y321472D01*
X260651Y321355D01*
X260624Y321237D01*
X260601Y321118D01*
X260581Y320999D01*
X260566Y320878D01*
X260554Y320758D01*
X260546Y320637D01*
X260542Y320516D01*
X260543Y320395D01*
X260546Y320274D01*
X260554Y320154D01*
X260566Y320033D01*
X260582Y319913D01*
X260601Y319794D01*
X260624Y319675D01*
X260652Y319557D01*
X260682Y319440D01*
X260717Y319324D01*
X260755Y319209D01*
X260798Y319096D01*
X260843Y318984D01*
X260893Y318873D01*
X260945Y318764D01*
X261002Y318657D01*
X266679Y320882D02*
X266677Y320993D01*
X266670Y321103D01*
X266660Y321213D01*
X266646Y321322D01*
X266629Y321431D01*
X266607Y321540D01*
X266581Y321647D01*
X266552Y321754D01*
X266519Y321859D01*
X266483Y321963D01*
X266442Y322066D01*
X266399Y322167D01*
X266351Y322267D01*
X266300Y322365D01*
X266246Y322461D01*
X266188Y322556D01*
X266127Y322648D01*
X266063Y322738D01*
X265996Y322825D01*
X265926Y322910D01*
X265852Y322993D01*
X265776Y323073D01*
X265697Y323150D01*
X266680Y320883D02*
X267605Y312414D01*
X272065Y317130D01*
D13*
X299450Y297250D02*
X305800Y290900D01*
X299450Y284550D02*
X293100Y290900D01*
X286750Y284550D02*
X293100Y278200D01*
X286750Y271850D02*
X280400Y278200D01*
X274050Y271850D02*
X280400Y265500D01*
X274050Y259150D02*
X267700Y265500D01*
X261350Y259150D02*
X267700Y252800D01*
X248650Y259150D02*
X242300Y252800D01*
X235950Y259150D02*
X242300Y265500D01*
X235950Y271850D02*
X229600Y265500D01*
X223250Y271850D02*
X229600Y278200D01*
X223250Y284550D02*
X216900Y278200D01*
X210550Y284550D02*
X216900Y290900D01*
X216900Y316300D02*
X210550Y322650D01*
X216900Y329000D02*
X223250Y322650D01*
X229600Y329000D02*
X223250Y335350D01*
X229600Y341700D02*
X235950Y335350D01*
X242300Y341700D02*
X235950Y348050D01*
X242300Y354400D02*
X248650Y348050D01*
X261350Y348050D02*
X267700Y354400D01*
X274050Y348050D02*
X267700Y341700D01*
X274050Y335350D02*
X280400Y341700D01*
X286750Y335350D02*
X280400Y329000D01*
X286750Y322650D02*
X293100Y329000D01*
X299450Y322650D02*
X293100Y316300D01*
X293100Y570300D02*
X343900Y570300D01*
X344207Y570296D01*
X344514Y570285D01*
X344820Y570267D01*
X345126Y570241D01*
X345431Y570207D01*
X345735Y570167D01*
X346038Y570119D01*
X346340Y570063D01*
X346640Y570001D01*
X346939Y569931D01*
X347236Y569854D01*
X347532Y569770D01*
X347825Y569678D01*
X348115Y569580D01*
X348403Y569475D01*
X348689Y569362D01*
X348972Y569243D01*
X349252Y569117D01*
X349529Y568985D01*
X349802Y568845D01*
X350072Y568699D01*
X350338Y568547D01*
X350601Y568388D01*
X350860Y568223D01*
X351114Y568052D01*
X351365Y567875D01*
X351611Y567691D01*
X351853Y567502D01*
X352089Y567307D01*
X352322Y567106D01*
X352549Y566900D01*
X352771Y566688D01*
X352988Y566471D01*
X353200Y566249D01*
X353406Y566022D01*
X353607Y565789D01*
X353802Y565553D01*
X353991Y565311D01*
X354175Y565065D01*
X354352Y564814D01*
X354523Y564560D01*
X354688Y564301D01*
X354847Y564038D01*
X354999Y563772D01*
X355145Y563502D01*
X355285Y563229D01*
X355417Y562952D01*
X355543Y562672D01*
X355662Y562389D01*
X355775Y562103D01*
X355880Y561815D01*
X355978Y561525D01*
X356070Y561232D01*
X356154Y560936D01*
X356231Y560639D01*
X356301Y560340D01*
X356363Y560040D01*
X356419Y559738D01*
X356467Y559435D01*
X356507Y559131D01*
X356541Y558826D01*
X356567Y558520D01*
X356585Y558214D01*
X356596Y557907D01*
X356600Y557600D01*
X356600Y62300D01*
X356596Y61993D01*
X356585Y61686D01*
X356567Y61380D01*
X356541Y61074D01*
X356507Y60769D01*
X356467Y60465D01*
X356419Y60162D01*
X356363Y59860D01*
X356301Y59560D01*
X356231Y59261D01*
X356154Y58964D01*
X356070Y58668D01*
X355978Y58375D01*
X355880Y58085D01*
X355775Y57797D01*
X355662Y57511D01*
X355543Y57228D01*
X355417Y56948D01*
X355285Y56671D01*
X355145Y56398D01*
X354999Y56128D01*
X354847Y55862D01*
X354688Y55599D01*
X354523Y55340D01*
X354352Y55086D01*
X354175Y54835D01*
X353991Y54589D01*
X353802Y54347D01*
X353607Y54111D01*
X353406Y53878D01*
X353200Y53651D01*
X352988Y53429D01*
X352771Y53212D01*
X352549Y53000D01*
X352322Y52794D01*
X352089Y52593D01*
X351853Y52398D01*
X351611Y52209D01*
X351365Y52025D01*
X351114Y51848D01*
X350860Y51677D01*
X350601Y51512D01*
X350338Y51353D01*
X350072Y51201D01*
X349802Y51055D01*
X349529Y50915D01*
X349252Y50783D01*
X348972Y50657D01*
X348689Y50538D01*
X348403Y50425D01*
X348115Y50320D01*
X347825Y50222D01*
X347532Y50130D01*
X347236Y50046D01*
X346939Y49969D01*
X346640Y49899D01*
X346340Y49837D01*
X346038Y49781D01*
X345735Y49733D01*
X345431Y49693D01*
X345126Y49659D01*
X344820Y49633D01*
X344514Y49615D01*
X344207Y49604D01*
X343900Y49600D01*
X166100Y49600D01*
X165793Y49604D01*
X165486Y49615D01*
X165180Y49633D01*
X164874Y49659D01*
X164569Y49693D01*
X164265Y49733D01*
X163962Y49781D01*
X163660Y49837D01*
X163360Y49899D01*
X163061Y49969D01*
X162764Y50046D01*
X162468Y50130D01*
X162175Y50222D01*
X161885Y50320D01*
X161597Y50425D01*
X161311Y50538D01*
X161028Y50657D01*
X160748Y50783D01*
X160471Y50915D01*
X160198Y51055D01*
X159928Y51201D01*
X159662Y51353D01*
X159399Y51512D01*
X159140Y51677D01*
X158886Y51848D01*
X158635Y52025D01*
X158389Y52209D01*
X158147Y52398D01*
X157911Y52593D01*
X157678Y52794D01*
X157451Y53000D01*
X157229Y53212D01*
X157012Y53429D01*
X156800Y53651D01*
X156594Y53878D01*
X156393Y54111D01*
X156198Y54347D01*
X156009Y54589D01*
X155825Y54835D01*
X155648Y55086D01*
X155477Y55340D01*
X155312Y55599D01*
X155153Y55862D01*
X155001Y56128D01*
X154855Y56398D01*
X154715Y56671D01*
X154583Y56948D01*
X154457Y57228D01*
X154338Y57511D01*
X154225Y57797D01*
X154120Y58085D01*
X154022Y58375D01*
X153930Y58668D01*
X153846Y58964D01*
X153769Y59261D01*
X153699Y59560D01*
X153637Y59860D01*
X153581Y60162D01*
X153533Y60465D01*
X153493Y60769D01*
X153459Y61074D01*
X153433Y61380D01*
X153415Y61686D01*
X153404Y61993D01*
X153400Y62300D01*
X153400Y557600D01*
X153404Y557907D01*
X153415Y558214D01*
X153433Y558520D01*
X153459Y558826D01*
X153493Y559131D01*
X153533Y559435D01*
X153581Y559738D01*
X153637Y560040D01*
X153699Y560340D01*
X153769Y560639D01*
X153846Y560936D01*
X153930Y561232D01*
X154022Y561525D01*
X154120Y561815D01*
X154225Y562103D01*
X154338Y562389D01*
X154457Y562672D01*
X154583Y562952D01*
X154715Y563229D01*
X154855Y563502D01*
X155001Y563772D01*
X155153Y564038D01*
X155312Y564301D01*
X155477Y564560D01*
X155648Y564814D01*
X155825Y565065D01*
X156009Y565311D01*
X156198Y565553D01*
X156393Y565789D01*
X156594Y566022D01*
X156800Y566249D01*
X157012Y566471D01*
X157229Y566688D01*
X157451Y566900D01*
X157678Y567106D01*
X157911Y567307D01*
X158147Y567502D01*
X158389Y567691D01*
X158635Y567875D01*
X158886Y568052D01*
X159140Y568223D01*
X159399Y568388D01*
X159662Y568547D01*
X159928Y568699D01*
X160198Y568845D01*
X160471Y568985D01*
X160748Y569117D01*
X161028Y569243D01*
X161311Y569362D01*
X161597Y569475D01*
X161885Y569580D01*
X162175Y569678D01*
X162468Y569770D01*
X162764Y569854D01*
X163061Y569931D01*
X163360Y570001D01*
X163660Y570063D01*
X163962Y570119D01*
X164265Y570167D01*
X164569Y570207D01*
X164874Y570241D01*
X165180Y570267D01*
X165486Y570285D01*
X165793Y570296D01*
X166100Y570300D01*
X216900Y570300D01*
X217055Y570149D01*
X217214Y570001D01*
X217377Y569857D01*
X217543Y569717D01*
X217712Y569581D01*
X217884Y569449D01*
X218060Y569322D01*
X218238Y569199D01*
X218420Y569080D01*
X218604Y568965D01*
X218791Y568855D01*
X218981Y568750D01*
X219173Y568649D01*
X219368Y568553D01*
X219564Y568461D01*
X219763Y568374D01*
X219964Y568293D01*
X220167Y568216D01*
X220372Y568144D01*
X220578Y568077D01*
X220786Y568015D01*
X220996Y567958D01*
X221206Y567906D01*
X221418Y567859D01*
X221631Y567817D01*
X221845Y567781D01*
X222060Y567749D01*
X222275Y567723D01*
X222491Y567702D01*
X222708Y567686D01*
X222925Y567676D01*
X223141Y567671D01*
X223359Y567671D01*
X223575Y567676D01*
X223792Y567686D01*
X224009Y567702D01*
X224225Y567723D01*
X224440Y567749D01*
X224655Y567781D01*
X224869Y567817D01*
X225082Y567859D01*
X225294Y567906D01*
X225504Y567958D01*
X225714Y568015D01*
X225922Y568077D01*
X226128Y568144D01*
X226333Y568216D01*
X226536Y568293D01*
X226737Y568374D01*
X226936Y568461D01*
X227132Y568553D01*
X227327Y568649D01*
X227519Y568750D01*
X227709Y568855D01*
X227896Y568965D01*
X228080Y569080D01*
X228262Y569199D01*
X228440Y569322D01*
X228616Y569449D01*
X228788Y569581D01*
X228957Y569717D01*
X229123Y569857D01*
X229286Y570001D01*
X229445Y570149D01*
X229600Y570300D01*
X280400Y570300D01*
X280555Y570149D01*
X280714Y570001D01*
X280877Y569857D01*
X281043Y569717D01*
X281212Y569581D01*
X281384Y569449D01*
X281560Y569322D01*
X281738Y569199D01*
X281920Y569080D01*
X282104Y568965D01*
X282291Y568855D01*
X282481Y568750D01*
X282673Y568649D01*
X282868Y568553D01*
X283064Y568461D01*
X283263Y568374D01*
X283464Y568293D01*
X283667Y568216D01*
X283872Y568144D01*
X284078Y568077D01*
X284286Y568015D01*
X284496Y567958D01*
X284706Y567906D01*
X284918Y567859D01*
X285131Y567817D01*
X285345Y567781D01*
X285560Y567749D01*
X285775Y567723D01*
X285991Y567702D01*
X286208Y567686D01*
X286425Y567676D01*
X286641Y567671D01*
X286859Y567671D01*
X287075Y567676D01*
X287292Y567686D01*
X287509Y567702D01*
X287725Y567723D01*
X287940Y567749D01*
X288155Y567781D01*
X288369Y567817D01*
X288582Y567859D01*
X288794Y567906D01*
X289004Y567958D01*
X289214Y568015D01*
X289422Y568077D01*
X289628Y568144D01*
X289833Y568216D01*
X290036Y568293D01*
X290237Y568374D01*
X290436Y568461D01*
X290632Y568553D01*
X290827Y568649D01*
X291019Y568750D01*
X291209Y568855D01*
X291396Y568965D01*
X291580Y569080D01*
X291762Y569199D01*
X291940Y569322D01*
X292116Y569449D01*
X292288Y569581D01*
X292457Y569717D01*
X292623Y569857D01*
X292786Y570001D01*
X292945Y570149D01*
X293100Y570300D01*
X229600Y544900D02*
X229600Y532200D01*
X242300Y532200D01*
X242300Y544900D01*
X267700Y544900D02*
X267700Y532200D01*
X280400Y532200D01*
X280400Y544900D01*
X242300Y544900D02*
X229600Y544900D01*
X267700Y544900D02*
X280400Y544900D01*
X210550Y297250D02*
X204200Y290900D01*
X210550Y309950D02*
X204200Y316300D01*
X299450Y309950D02*
X305800Y316300D01*
X210550Y303600D02*
X210552Y303759D01*
X210558Y303918D01*
X210568Y304076D01*
X210582Y304235D01*
X210600Y304393D01*
X210621Y304550D01*
X210647Y304707D01*
X210677Y304863D01*
X210710Y305019D01*
X210748Y305173D01*
X210789Y305327D01*
X210834Y305479D01*
X210883Y305630D01*
X210936Y305780D01*
X210992Y305929D01*
X211053Y306076D01*
X211116Y306221D01*
X211184Y306365D01*
X211255Y306508D01*
X211329Y306648D01*
X211407Y306786D01*
X211489Y306923D01*
X211574Y307057D01*
X211662Y307190D01*
X211753Y307320D01*
X211848Y307447D01*
X211946Y307572D01*
X212047Y307695D01*
X212151Y307815D01*
X212258Y307933D01*
X212368Y308048D01*
X212481Y308160D01*
X212596Y308269D01*
X212714Y308375D01*
X212835Y308479D01*
X212959Y308579D01*
X213084Y308676D01*
X213213Y308770D01*
X213343Y308860D01*
X213476Y308948D01*
X213611Y309032D01*
X213748Y309112D01*
X213887Y309190D01*
X214028Y309263D01*
X214170Y309333D01*
X214315Y309400D01*
X214461Y309463D01*
X214608Y309522D01*
X214757Y309578D01*
X214908Y309629D01*
X215059Y309677D01*
X215212Y309721D01*
X215366Y309762D01*
X215520Y309798D01*
X215676Y309831D01*
X215832Y309860D01*
X215989Y309884D01*
X216147Y309905D01*
X216305Y309922D01*
X216463Y309935D01*
X216622Y309944D01*
X216781Y309949D01*
X216940Y309950D01*
X217099Y309947D01*
X217257Y309940D01*
X217416Y309929D01*
X217574Y309914D01*
X217732Y309895D01*
X217889Y309872D01*
X218046Y309846D01*
X218202Y309815D01*
X218357Y309781D01*
X218511Y309742D01*
X218665Y309700D01*
X218817Y309654D01*
X218968Y309604D01*
X219117Y309550D01*
X219266Y309493D01*
X219412Y309432D01*
X219558Y309367D01*
X219701Y309299D01*
X219843Y309227D01*
X219983Y309151D01*
X220121Y309073D01*
X220257Y308990D01*
X220391Y308905D01*
X220522Y308816D01*
X220652Y308723D01*
X220779Y308628D01*
X220903Y308529D01*
X221026Y308427D01*
X221145Y308323D01*
X221262Y308215D01*
X221376Y308104D01*
X221487Y307991D01*
X221596Y307875D01*
X221701Y307756D01*
X221804Y307634D01*
X221903Y307510D01*
X222000Y307384D01*
X222093Y307255D01*
X222183Y307124D01*
X222269Y306990D01*
X222352Y306855D01*
X222432Y306717D01*
X222508Y306578D01*
X222581Y306437D01*
X222650Y306294D01*
X222716Y306149D01*
X222778Y306002D01*
X222836Y305855D01*
X222891Y305705D01*
X222942Y305555D01*
X222989Y305403D01*
X223032Y305250D01*
X223071Y305096D01*
X223107Y304941D01*
X223138Y304785D01*
X223166Y304629D01*
X223190Y304472D01*
X223210Y304314D01*
X223226Y304156D01*
X223238Y303997D01*
X223246Y303838D01*
X223250Y303679D01*
X223250Y303521D01*
X223246Y303362D01*
X223238Y303203D01*
X223226Y303044D01*
X223210Y302886D01*
X223190Y302728D01*
X223166Y302571D01*
X223138Y302415D01*
X223107Y302259D01*
X223071Y302104D01*
X223032Y301950D01*
X222989Y301797D01*
X222942Y301645D01*
X222891Y301495D01*
X222836Y301345D01*
X222778Y301198D01*
X222716Y301051D01*
X222650Y300906D01*
X222581Y300763D01*
X222508Y300622D01*
X222432Y300483D01*
X222352Y300345D01*
X222269Y300210D01*
X222183Y300076D01*
X222093Y299945D01*
X222000Y299816D01*
X221903Y299690D01*
X221804Y299566D01*
X221701Y299444D01*
X221596Y299325D01*
X221487Y299209D01*
X221376Y299096D01*
X221262Y298985D01*
X221145Y298877D01*
X221026Y298773D01*
X220903Y298671D01*
X220779Y298572D01*
X220652Y298477D01*
X220522Y298384D01*
X220391Y298295D01*
X220257Y298210D01*
X220121Y298127D01*
X219983Y298049D01*
X219843Y297973D01*
X219701Y297901D01*
X219558Y297833D01*
X219412Y297768D01*
X219266Y297707D01*
X219117Y297650D01*
X218968Y297596D01*
X218817Y297546D01*
X218665Y297500D01*
X218511Y297458D01*
X218357Y297419D01*
X218202Y297385D01*
X218046Y297354D01*
X217889Y297328D01*
X217732Y297305D01*
X217574Y297286D01*
X217416Y297271D01*
X217257Y297260D01*
X217099Y297253D01*
X216940Y297250D01*
X216781Y297251D01*
X216622Y297256D01*
X216463Y297265D01*
X216305Y297278D01*
X216147Y297295D01*
X215989Y297316D01*
X215832Y297340D01*
X215676Y297369D01*
X215520Y297402D01*
X215366Y297438D01*
X215212Y297479D01*
X215059Y297523D01*
X214908Y297571D01*
X214757Y297622D01*
X214608Y297678D01*
X214461Y297737D01*
X214315Y297800D01*
X214170Y297867D01*
X214028Y297937D01*
X213887Y298010D01*
X213748Y298088D01*
X213611Y298168D01*
X213476Y298252D01*
X213343Y298340D01*
X213213Y298430D01*
X213084Y298524D01*
X212959Y298621D01*
X212835Y298721D01*
X212714Y298825D01*
X212596Y298931D01*
X212481Y299040D01*
X212368Y299152D01*
X212258Y299267D01*
X212151Y299385D01*
X212047Y299505D01*
X211946Y299628D01*
X211848Y299753D01*
X211753Y299880D01*
X211662Y300010D01*
X211574Y300143D01*
X211489Y300277D01*
X211407Y300414D01*
X211329Y300552D01*
X211255Y300692D01*
X211184Y300835D01*
X211116Y300979D01*
X211053Y301124D01*
X210992Y301271D01*
X210936Y301420D01*
X210883Y301570D01*
X210834Y301721D01*
X210789Y301873D01*
X210748Y302027D01*
X210710Y302181D01*
X210677Y302337D01*
X210647Y302493D01*
X210621Y302650D01*
X210600Y302807D01*
X210582Y302965D01*
X210568Y303124D01*
X210558Y303282D01*
X210552Y303441D01*
X210550Y303600D01*
X210550Y176600D02*
X210556Y176140D01*
X210572Y175680D01*
X210600Y175220D01*
X210639Y174761D01*
X210689Y174304D01*
X210750Y173847D01*
X210822Y173393D01*
X210905Y172940D01*
X210999Y172489D01*
X211104Y172041D01*
X211219Y171595D01*
X211345Y171153D01*
X211482Y170713D01*
X211630Y170277D01*
X211788Y169845D01*
X211956Y169416D01*
X212135Y168992D01*
X212324Y168572D01*
X212523Y168157D01*
X212732Y167747D01*
X212951Y167342D01*
X213179Y166942D01*
X213418Y166548D01*
X213665Y166160D01*
X213922Y165778D01*
X214188Y165403D01*
X214463Y165034D01*
X214747Y164671D01*
X215040Y164316D01*
X215341Y163968D01*
X215650Y163627D01*
X215968Y163293D01*
X216293Y162968D01*
X216627Y162650D01*
X216968Y162341D01*
X217316Y162040D01*
X217671Y161747D01*
X218034Y161463D01*
X218403Y161188D01*
X218778Y160922D01*
X219160Y160665D01*
X219548Y160418D01*
X219942Y160179D01*
X220342Y159951D01*
X220747Y159732D01*
X221157Y159523D01*
X221572Y159324D01*
X221992Y159135D01*
X222416Y158956D01*
X222845Y158788D01*
X223277Y158630D01*
X223713Y158482D01*
X224153Y158345D01*
X224595Y158219D01*
X225041Y158104D01*
X225489Y157999D01*
X225940Y157905D01*
X226393Y157822D01*
X226847Y157750D01*
X227304Y157689D01*
X227761Y157639D01*
X228220Y157600D01*
X228680Y157572D01*
X229140Y157556D01*
X229600Y157550D01*
X280400Y157550D01*
X280860Y157556D01*
X281320Y157572D01*
X281780Y157600D01*
X282239Y157639D01*
X282696Y157689D01*
X283153Y157750D01*
X283607Y157822D01*
X284060Y157905D01*
X284511Y157999D01*
X284959Y158104D01*
X285405Y158219D01*
X285847Y158345D01*
X286287Y158482D01*
X286723Y158630D01*
X287155Y158788D01*
X287584Y158956D01*
X288008Y159135D01*
X288428Y159324D01*
X288843Y159523D01*
X289253Y159732D01*
X289658Y159951D01*
X290058Y160179D01*
X290452Y160418D01*
X290840Y160665D01*
X291222Y160922D01*
X291597Y161188D01*
X291966Y161463D01*
X292329Y161747D01*
X292684Y162040D01*
X293032Y162341D01*
X293373Y162650D01*
X293707Y162968D01*
X294032Y163293D01*
X294350Y163627D01*
X294659Y163968D01*
X294960Y164316D01*
X295253Y164671D01*
X295537Y165034D01*
X295812Y165403D01*
X296078Y165778D01*
X296335Y166160D01*
X296582Y166548D01*
X296821Y166942D01*
X297049Y167342D01*
X297268Y167747D01*
X297477Y168157D01*
X297676Y168572D01*
X297865Y168992D01*
X298044Y169416D01*
X298212Y169845D01*
X298370Y170277D01*
X298518Y170713D01*
X298655Y171153D01*
X298781Y171595D01*
X298896Y172041D01*
X299001Y172489D01*
X299095Y172940D01*
X299178Y173393D01*
X299250Y173847D01*
X299311Y174304D01*
X299361Y174761D01*
X299400Y175220D01*
X299428Y175680D01*
X299444Y176140D01*
X299450Y176600D01*
X299444Y177060D01*
X299428Y177520D01*
X299400Y177980D01*
X299361Y178439D01*
X299311Y178896D01*
X299250Y179353D01*
X299178Y179807D01*
X299095Y180260D01*
X299001Y180711D01*
X298896Y181159D01*
X298781Y181605D01*
X298655Y182047D01*
X298518Y182487D01*
X298370Y182923D01*
X298212Y183355D01*
X298044Y183784D01*
X297865Y184208D01*
X297676Y184628D01*
X297477Y185043D01*
X297268Y185453D01*
X297049Y185858D01*
X296821Y186258D01*
X296582Y186652D01*
X296335Y187040D01*
X296078Y187422D01*
X295812Y187797D01*
X295537Y188166D01*
X295253Y188529D01*
X294960Y188884D01*
X294659Y189232D01*
X294350Y189573D01*
X294032Y189907D01*
X293707Y190232D01*
X293373Y190550D01*
X293032Y190859D01*
X292684Y191160D01*
X292329Y191453D01*
X291966Y191737D01*
X291597Y192012D01*
X291222Y192278D01*
X290840Y192535D01*
X290452Y192782D01*
X290058Y193021D01*
X289658Y193249D01*
X289253Y193468D01*
X288843Y193677D01*
X288428Y193876D01*
X288008Y194065D01*
X287584Y194244D01*
X287155Y194412D01*
X286723Y194570D01*
X286287Y194718D01*
X285847Y194855D01*
X285405Y194981D01*
X284959Y195096D01*
X284511Y195201D01*
X284060Y195295D01*
X283607Y195378D01*
X283153Y195450D01*
X282696Y195511D01*
X282239Y195561D01*
X281780Y195600D01*
X281320Y195628D01*
X280860Y195644D01*
X280400Y195650D01*
X229600Y195650D01*
X229140Y195644D01*
X228680Y195628D01*
X228220Y195600D01*
X227761Y195561D01*
X227304Y195511D01*
X226847Y195450D01*
X226393Y195378D01*
X225940Y195295D01*
X225489Y195201D01*
X225041Y195096D01*
X224595Y194981D01*
X224153Y194855D01*
X223713Y194718D01*
X223277Y194570D01*
X222845Y194412D01*
X222416Y194244D01*
X221992Y194065D01*
X221572Y193876D01*
X221157Y193677D01*
X220747Y193468D01*
X220342Y193249D01*
X219942Y193021D01*
X219548Y192782D01*
X219160Y192535D01*
X218778Y192278D01*
X218403Y192012D01*
X218034Y191737D01*
X217671Y191453D01*
X217316Y191160D01*
X216968Y190859D01*
X216627Y190550D01*
X216293Y190232D01*
X215968Y189907D01*
X215650Y189573D01*
X215341Y189232D01*
X215040Y188884D01*
X214747Y188529D01*
X214463Y188166D01*
X214188Y187797D01*
X213922Y187422D01*
X213665Y187040D01*
X213418Y186652D01*
X213179Y186258D01*
X212951Y185858D01*
X212732Y185453D01*
X212523Y185043D01*
X212324Y184628D01*
X212135Y184208D01*
X211956Y183784D01*
X211788Y183355D01*
X211630Y182923D01*
X211482Y182487D01*
X211345Y182047D01*
X211219Y181605D01*
X211104Y181159D01*
X210999Y180711D01*
X210905Y180260D01*
X210822Y179807D01*
X210750Y179353D01*
X210689Y178896D01*
X210639Y178439D01*
X210600Y177980D01*
X210572Y177520D01*
X210556Y177060D01*
X210550Y176600D01*
X267700Y481400D02*
X280400Y481400D01*
X280400Y443300D01*
X267700Y443300D01*
X267700Y456000D01*
X267700Y468700D01*
X267700Y481400D01*
X280400Y481400D02*
X293100Y481400D01*
X293100Y468700D01*
X293100Y456000D01*
X293100Y443300D01*
X280400Y443300D01*
X223250Y456000D02*
X223252Y456159D01*
X223258Y456318D01*
X223268Y456476D01*
X223282Y456635D01*
X223300Y456793D01*
X223321Y456950D01*
X223347Y457107D01*
X223377Y457263D01*
X223410Y457419D01*
X223448Y457573D01*
X223489Y457727D01*
X223534Y457879D01*
X223583Y458030D01*
X223636Y458180D01*
X223692Y458329D01*
X223753Y458476D01*
X223816Y458621D01*
X223884Y458765D01*
X223955Y458908D01*
X224029Y459048D01*
X224107Y459186D01*
X224189Y459323D01*
X224274Y459457D01*
X224362Y459590D01*
X224453Y459720D01*
X224548Y459847D01*
X224646Y459972D01*
X224747Y460095D01*
X224851Y460215D01*
X224958Y460333D01*
X225068Y460448D01*
X225181Y460560D01*
X225296Y460669D01*
X225414Y460775D01*
X225535Y460879D01*
X225659Y460979D01*
X225784Y461076D01*
X225913Y461170D01*
X226043Y461260D01*
X226176Y461348D01*
X226311Y461432D01*
X226448Y461512D01*
X226587Y461590D01*
X226728Y461663D01*
X226870Y461733D01*
X227015Y461800D01*
X227161Y461863D01*
X227308Y461922D01*
X227457Y461978D01*
X227608Y462029D01*
X227759Y462077D01*
X227912Y462121D01*
X228066Y462162D01*
X228220Y462198D01*
X228376Y462231D01*
X228532Y462260D01*
X228689Y462284D01*
X228847Y462305D01*
X229005Y462322D01*
X229163Y462335D01*
X229322Y462344D01*
X229481Y462349D01*
X229640Y462350D01*
X229799Y462347D01*
X229957Y462340D01*
X230116Y462329D01*
X230274Y462314D01*
X230432Y462295D01*
X230589Y462272D01*
X230746Y462246D01*
X230902Y462215D01*
X231057Y462181D01*
X231211Y462142D01*
X231365Y462100D01*
X231517Y462054D01*
X231668Y462004D01*
X231817Y461950D01*
X231966Y461893D01*
X232112Y461832D01*
X232258Y461767D01*
X232401Y461699D01*
X232543Y461627D01*
X232683Y461551D01*
X232821Y461473D01*
X232957Y461390D01*
X233091Y461305D01*
X233222Y461216D01*
X233352Y461123D01*
X233479Y461028D01*
X233603Y460929D01*
X233726Y460827D01*
X233845Y460723D01*
X233962Y460615D01*
X234076Y460504D01*
X234187Y460391D01*
X234296Y460275D01*
X234401Y460156D01*
X234504Y460034D01*
X234603Y459910D01*
X234700Y459784D01*
X234793Y459655D01*
X234883Y459524D01*
X234969Y459390D01*
X235052Y459255D01*
X235132Y459117D01*
X235208Y458978D01*
X235281Y458837D01*
X235350Y458694D01*
X235416Y458549D01*
X235478Y458402D01*
X235536Y458255D01*
X235591Y458105D01*
X235642Y457955D01*
X235689Y457803D01*
X235732Y457650D01*
X235771Y457496D01*
X235807Y457341D01*
X235838Y457185D01*
X235866Y457029D01*
X235890Y456872D01*
X235910Y456714D01*
X235926Y456556D01*
X235938Y456397D01*
X235946Y456238D01*
X235950Y456079D01*
X235950Y455921D01*
X235946Y455762D01*
X235938Y455603D01*
X235926Y455444D01*
X235910Y455286D01*
X235890Y455128D01*
X235866Y454971D01*
X235838Y454815D01*
X235807Y454659D01*
X235771Y454504D01*
X235732Y454350D01*
X235689Y454197D01*
X235642Y454045D01*
X235591Y453895D01*
X235536Y453745D01*
X235478Y453598D01*
X235416Y453451D01*
X235350Y453306D01*
X235281Y453163D01*
X235208Y453022D01*
X235132Y452883D01*
X235052Y452745D01*
X234969Y452610D01*
X234883Y452476D01*
X234793Y452345D01*
X234700Y452216D01*
X234603Y452090D01*
X234504Y451966D01*
X234401Y451844D01*
X234296Y451725D01*
X234187Y451609D01*
X234076Y451496D01*
X233962Y451385D01*
X233845Y451277D01*
X233726Y451173D01*
X233603Y451071D01*
X233479Y450972D01*
X233352Y450877D01*
X233222Y450784D01*
X233091Y450695D01*
X232957Y450610D01*
X232821Y450527D01*
X232683Y450449D01*
X232543Y450373D01*
X232401Y450301D01*
X232258Y450233D01*
X232112Y450168D01*
X231966Y450107D01*
X231817Y450050D01*
X231668Y449996D01*
X231517Y449946D01*
X231365Y449900D01*
X231211Y449858D01*
X231057Y449819D01*
X230902Y449785D01*
X230746Y449754D01*
X230589Y449728D01*
X230432Y449705D01*
X230274Y449686D01*
X230116Y449671D01*
X229957Y449660D01*
X229799Y449653D01*
X229640Y449650D01*
X229481Y449651D01*
X229322Y449656D01*
X229163Y449665D01*
X229005Y449678D01*
X228847Y449695D01*
X228689Y449716D01*
X228532Y449740D01*
X228376Y449769D01*
X228220Y449802D01*
X228066Y449838D01*
X227912Y449879D01*
X227759Y449923D01*
X227608Y449971D01*
X227457Y450022D01*
X227308Y450078D01*
X227161Y450137D01*
X227015Y450200D01*
X226870Y450267D01*
X226728Y450337D01*
X226587Y450410D01*
X226448Y450488D01*
X226311Y450568D01*
X226176Y450652D01*
X226043Y450740D01*
X225913Y450830D01*
X225784Y450924D01*
X225659Y451021D01*
X225535Y451121D01*
X225414Y451225D01*
X225296Y451331D01*
X225181Y451440D01*
X225068Y451552D01*
X224958Y451667D01*
X224851Y451785D01*
X224747Y451905D01*
X224646Y452028D01*
X224548Y452153D01*
X224453Y452280D01*
X224362Y452410D01*
X224274Y452543D01*
X224189Y452677D01*
X224107Y452814D01*
X224029Y452952D01*
X223955Y453092D01*
X223884Y453235D01*
X223816Y453379D01*
X223753Y453524D01*
X223692Y453671D01*
X223636Y453820D01*
X223583Y453970D01*
X223534Y454121D01*
X223489Y454273D01*
X223448Y454427D01*
X223410Y454581D01*
X223377Y454737D01*
X223347Y454893D01*
X223321Y455050D01*
X223300Y455207D01*
X223282Y455365D01*
X223268Y455524D01*
X223258Y455682D01*
X223252Y455841D01*
X223250Y456000D01*
X223250Y468700D02*
X216900Y468700D01*
X223250Y468700D02*
X235950Y468700D01*
X242300Y468700D01*
X242300Y443300D01*
X235950Y443300D01*
X223250Y443300D01*
X216900Y443300D01*
X216900Y468700D01*
X235950Y443300D02*
X235950Y436950D01*
X223250Y436950D02*
X223250Y443300D01*
X223250Y468700D02*
X223250Y475050D01*
X235950Y475050D02*
X235950Y468700D01*
X267700Y468700D02*
X293100Y468700D01*
X293100Y456000D02*
X267700Y456000D01*
D11*
X85950Y559000D02*
X79600Y552650D01*
X79600Y539950D01*
X85950Y533600D01*
X79600Y527250D01*
X79600Y514550D01*
X85950Y508200D01*
X79600Y501850D01*
X79600Y489150D01*
X85950Y482800D01*
X79600Y476450D01*
X79600Y463750D01*
X85950Y457400D01*
X79600Y451050D01*
X79600Y438350D01*
X85950Y432000D01*
X79600Y425650D01*
X79600Y412950D01*
X85950Y406600D01*
X85950Y559000D02*
X124050Y559000D01*
X130400Y552650D01*
X130400Y539950D01*
X124050Y533600D01*
X130400Y527250D01*
X130400Y514550D01*
X124050Y508200D01*
X130400Y501850D01*
X130400Y489150D01*
X124050Y482800D01*
X130400Y476450D01*
X130400Y463750D01*
X124050Y457400D01*
X130400Y451050D01*
X130400Y438350D01*
X124050Y432000D01*
X130400Y425650D01*
X130400Y412950D01*
X124050Y406600D01*
X130400Y400250D01*
X130400Y387550D01*
X124050Y381200D01*
X130400Y374850D01*
X130400Y362150D01*
X124050Y355800D01*
X130400Y349450D01*
X130400Y336750D01*
X124050Y330400D01*
X130400Y324050D01*
X130400Y311350D01*
X124050Y305000D01*
X130400Y298650D01*
X130400Y285950D01*
X124050Y279600D01*
X130400Y273250D01*
X130400Y260550D01*
X124050Y254200D01*
X130400Y247850D01*
X130400Y235150D01*
X124050Y228800D01*
X130400Y222450D01*
X130400Y209750D01*
X124050Y203400D01*
X130400Y197050D01*
X130400Y184350D01*
X124050Y178000D01*
X130400Y171650D01*
X130400Y158950D01*
X124050Y152600D01*
X130400Y146250D01*
X130400Y133550D01*
X124050Y127200D01*
X130400Y120850D01*
X130400Y108150D01*
X124050Y101800D01*
X130400Y95450D01*
X130400Y82750D01*
X124050Y76400D01*
X85950Y76400D02*
X79600Y82750D01*
X79600Y95450D01*
X85950Y101800D01*
X79600Y108150D01*
X79600Y120850D01*
X85950Y127200D01*
X79600Y133550D01*
X79600Y146250D01*
X85950Y152600D01*
X79600Y158950D01*
X79600Y171650D01*
X85950Y178000D01*
X79600Y184350D01*
X79600Y197050D01*
X85950Y203400D01*
X79600Y209750D01*
X79600Y222450D01*
X85950Y228800D01*
X79600Y235150D01*
X79600Y247850D01*
X85950Y254200D01*
X79600Y260550D01*
X79600Y273250D01*
X85950Y279600D01*
X79600Y285950D01*
X79600Y298650D01*
X85950Y305000D01*
X79600Y311350D01*
X79600Y324050D01*
X85950Y330400D01*
X79600Y336750D01*
X79600Y349450D01*
X85950Y355800D01*
X79600Y362150D01*
X79600Y374850D01*
X85950Y381200D01*
X79600Y387550D01*
X79600Y400250D01*
X85950Y406600D01*
X85950Y533600D02*
X124050Y533600D01*
X124050Y508200D02*
X85950Y508200D01*
X85950Y482800D02*
X124050Y482800D01*
X124050Y457400D02*
X85950Y457400D01*
X85950Y432000D02*
X124050Y432000D01*
X124050Y406600D02*
X85950Y406600D01*
X85950Y381200D02*
X124050Y381200D01*
X124050Y355800D02*
X85950Y355800D01*
X85950Y330400D02*
X124050Y330400D01*
X124050Y305000D02*
X85950Y305000D01*
X85950Y279600D02*
X124050Y279600D01*
X124050Y254200D02*
X85950Y254200D01*
X85950Y228800D02*
X124050Y228800D01*
X124050Y203400D02*
X85950Y203400D01*
X85950Y178000D02*
X124050Y178000D01*
X124050Y152600D02*
X85950Y152600D01*
X85950Y127200D02*
X124050Y127200D01*
X124050Y101800D02*
X85950Y101800D01*
X85950Y76400D02*
X124050Y76400D01*
X130400Y70050D01*
X130400Y57350D01*
X124050Y51000D01*
X85950Y51000D02*
X79600Y57350D01*
X79600Y70050D01*
X85950Y76400D01*
X85950Y51000D02*
X124050Y51000D01*
X379600Y552650D02*
X385950Y559000D01*
X379600Y552650D02*
X379600Y539950D01*
X385950Y533600D01*
X379600Y527250D01*
X379600Y514550D01*
X385950Y508200D01*
X379600Y501850D01*
X379600Y489150D01*
X385950Y482800D01*
X379600Y476450D01*
X379600Y463750D01*
X385950Y457400D01*
X379600Y451050D01*
X379600Y438350D01*
X385950Y432000D01*
X379600Y425650D01*
X379600Y412950D01*
X385950Y406600D01*
X385950Y559000D02*
X424050Y559000D01*
X430400Y552650D01*
X430400Y539950D01*
X424050Y533600D01*
X430400Y527250D01*
X430400Y514550D01*
X424050Y508200D01*
X430400Y501850D01*
X430400Y489150D01*
X424050Y482800D01*
X430400Y476450D01*
X430400Y463750D01*
X424050Y457400D01*
X430400Y451050D01*
X430400Y438350D01*
X424050Y432000D01*
X430400Y425650D01*
X430400Y412950D01*
X424050Y406600D01*
X430400Y400250D01*
X430400Y387550D01*
X424050Y381200D01*
X430400Y374850D01*
X430400Y362150D01*
X424050Y355800D01*
X430400Y349450D01*
X430400Y336750D01*
X424050Y330400D01*
X430400Y324050D01*
X430400Y311350D01*
X424050Y305000D01*
X430400Y298650D01*
X430400Y285950D01*
X424050Y279600D01*
X430400Y273250D01*
X430400Y260550D01*
X424050Y254200D01*
X430400Y247850D01*
X430400Y235150D01*
X424050Y228800D01*
X430400Y222450D01*
X430400Y209750D01*
X424050Y203400D01*
X430400Y197050D01*
X430400Y184350D01*
X424050Y178000D01*
X430400Y171650D01*
X430400Y158950D01*
X424050Y152600D01*
X430400Y146250D01*
X430400Y133550D01*
X424050Y127200D01*
X430400Y120850D01*
X430400Y108150D01*
X424050Y101800D01*
X430400Y95450D01*
X430400Y82750D01*
X424050Y76400D01*
X385950Y76400D02*
X379600Y82750D01*
X379600Y95450D01*
X385950Y101800D01*
X379600Y108150D01*
X379600Y120850D01*
X385950Y127200D01*
X379600Y133550D01*
X379600Y146250D01*
X385950Y152600D01*
X379600Y158950D01*
X379600Y171650D01*
X385950Y178000D01*
X379600Y184350D01*
X379600Y197050D01*
X385950Y203400D01*
X379600Y209750D01*
X379600Y222450D01*
X385950Y228800D01*
X379600Y235150D01*
X379600Y247850D01*
X385950Y254200D01*
X379600Y260550D01*
X379600Y273250D01*
X385950Y279600D01*
X379600Y285950D01*
X379600Y298650D01*
X385950Y305000D01*
X379600Y311350D01*
X379600Y324050D01*
X385950Y330400D01*
X379600Y336750D01*
X379600Y349450D01*
X385950Y355800D01*
X379600Y362150D01*
X379600Y374850D01*
X385950Y381200D01*
X379600Y387550D01*
X379600Y400250D01*
X385950Y406600D01*
X385950Y533600D02*
X424050Y533600D01*
X424050Y508200D02*
X385950Y508200D01*
X385950Y482800D02*
X424050Y482800D01*
X424050Y457400D02*
X385950Y457400D01*
X385950Y432000D02*
X424050Y432000D01*
X424050Y406600D02*
X385950Y406600D01*
X385950Y381200D02*
X424050Y381200D01*
X424050Y355800D02*
X385950Y355800D01*
X385950Y330400D02*
X424050Y330400D01*
X424050Y305000D02*
X385950Y305000D01*
X385950Y279600D02*
X424050Y279600D01*
X424050Y254200D02*
X385950Y254200D01*
X385950Y228800D02*
X424050Y228800D01*
X424050Y203400D02*
X385950Y203400D01*
X385950Y178000D02*
X424050Y178000D01*
X424050Y152600D02*
X385950Y152600D01*
X385950Y127200D02*
X424050Y127200D01*
X424050Y101800D02*
X385950Y101800D01*
X385950Y76400D02*
X424050Y76400D01*
X430400Y70050D01*
X430400Y57350D01*
X424050Y51000D01*
X385950Y51000D02*
X379600Y57350D01*
X379600Y70050D01*
X385950Y76400D01*
X385950Y51000D02*
X424050Y51000D01*
X474050Y152600D02*
X480400Y158950D01*
X480400Y171650D02*
X474050Y178000D01*
X480400Y184350D01*
X480400Y197050D02*
X474050Y203400D01*
X480400Y209750D01*
X480400Y222450D02*
X474050Y228800D01*
X480400Y235150D01*
X480400Y247850D02*
X474050Y254200D01*
X480400Y260550D01*
X480400Y273250D02*
X474050Y279600D01*
X480400Y285950D01*
X480400Y298650D02*
X474050Y305000D01*
X474050Y152600D02*
X461350Y152600D01*
X455000Y158950D01*
X455000Y171650D01*
X461350Y178000D01*
X455000Y184350D01*
X455000Y197050D01*
X461350Y203400D01*
X455000Y209750D01*
X455000Y222450D01*
X461350Y228800D01*
X455000Y235150D01*
X455000Y247850D01*
X461350Y254200D01*
X455000Y260550D01*
X455000Y273250D01*
X461350Y279600D01*
X455000Y285950D01*
X455000Y298650D01*
X461350Y305000D01*
X455000Y311350D01*
X455000Y324050D01*
X461350Y330400D01*
X474050Y330400D02*
X480400Y324050D01*
X480400Y311350D02*
X474050Y305000D01*
X474050Y178000D02*
X461350Y178000D01*
X461350Y203400D02*
X474050Y203400D01*
X474050Y228800D02*
X461350Y228800D01*
X461350Y254200D02*
X474050Y254200D01*
X474050Y279600D02*
X461350Y279600D01*
X461350Y305000D02*
X474050Y305000D01*
X474050Y330400D02*
X461350Y330400D01*
X480400Y324050D02*
X480400Y311350D01*
X480400Y298650D02*
X480400Y285950D01*
X480400Y273250D02*
X480400Y260550D01*
X480400Y247850D02*
X480400Y235150D01*
X480400Y222450D02*
X480400Y209750D01*
X480400Y197050D02*
X480400Y184350D01*
X480400Y171650D02*
X480400Y158950D01*
X461350Y330400D02*
X455000Y336750D01*
X455000Y349450D01*
X461350Y355800D01*
X474050Y355800D02*
X480400Y349450D01*
X480400Y336750D02*
X474050Y330400D01*
X474050Y355800D02*
X461350Y355800D01*
X480400Y349450D02*
X480400Y336750D01*
X55000Y311350D02*
X48650Y305000D01*
X55000Y324050D02*
X48650Y330400D01*
X55000Y336750D01*
X55000Y349450D02*
X48650Y355800D01*
X55000Y362150D01*
X55000Y374850D02*
X48650Y381200D01*
X48650Y305000D02*
X35950Y305000D01*
X29600Y311350D01*
X29600Y324050D01*
X35950Y330400D01*
X29600Y336750D01*
X29600Y349450D01*
X35950Y355800D01*
X29600Y362150D01*
X29600Y374850D01*
X35950Y381200D01*
X35950Y330400D02*
X48650Y330400D01*
X48650Y355800D02*
X35950Y355800D01*
X35950Y381200D02*
X48650Y381200D01*
X55000Y374850D02*
X55000Y362150D01*
X55000Y349450D02*
X55000Y336750D01*
X55000Y324050D02*
X55000Y311350D01*
X48650Y381200D02*
X55000Y387550D01*
X55000Y400250D02*
X48650Y406600D01*
X29600Y387550D02*
X35950Y381200D01*
X29600Y387550D02*
X29600Y400250D01*
X35950Y406600D01*
X48650Y406600D01*
X55000Y400250D02*
X55000Y387550D01*
M02*
