G04 EAGLE Gerber RS-274X export*
G75*
%MOMM*%
%FSLAX34Y34*%
%LPD*%
%INSilkscreen Bottom*%
%IPPOS*%
%AMOC8*
5,1,8,0,0,1.08239X$1,22.5*%
G01*
%ADD10C,0.101600*%


D10*
X290694Y27192D02*
X290694Y15508D01*
X291992Y15508D02*
X289396Y15508D01*
X289396Y27192D02*
X291992Y27192D01*
X284301Y23297D02*
X284301Y15508D01*
X284301Y23297D02*
X278459Y23297D01*
X278372Y23295D01*
X278284Y23289D01*
X278198Y23279D01*
X278111Y23266D01*
X278026Y23248D01*
X277941Y23227D01*
X277857Y23202D01*
X277775Y23173D01*
X277694Y23140D01*
X277614Y23104D01*
X277536Y23065D01*
X277460Y23021D01*
X277386Y22975D01*
X277315Y22925D01*
X277245Y22872D01*
X277178Y22816D01*
X277114Y22757D01*
X277052Y22695D01*
X276993Y22631D01*
X276937Y22564D01*
X276884Y22494D01*
X276834Y22423D01*
X276788Y22349D01*
X276744Y22273D01*
X276705Y22195D01*
X276669Y22115D01*
X276636Y22034D01*
X276607Y21952D01*
X276582Y21868D01*
X276561Y21783D01*
X276543Y21698D01*
X276530Y21611D01*
X276520Y21525D01*
X276514Y21437D01*
X276512Y21350D01*
X276512Y15508D01*
X280407Y15508D02*
X280407Y23297D01*
X270752Y23297D02*
X270752Y11613D01*
X270752Y23297D02*
X267507Y23297D01*
X267420Y23295D01*
X267332Y23289D01*
X267246Y23279D01*
X267159Y23266D01*
X267074Y23248D01*
X266989Y23227D01*
X266905Y23202D01*
X266823Y23173D01*
X266742Y23140D01*
X266662Y23104D01*
X266584Y23065D01*
X266508Y23021D01*
X266434Y22975D01*
X266363Y22925D01*
X266293Y22872D01*
X266226Y22816D01*
X266162Y22757D01*
X266100Y22696D01*
X266041Y22631D01*
X265985Y22564D01*
X265932Y22494D01*
X265882Y22423D01*
X265836Y22349D01*
X265793Y22273D01*
X265753Y22195D01*
X265717Y22115D01*
X265684Y22034D01*
X265655Y21952D01*
X265630Y21868D01*
X265609Y21783D01*
X265591Y21698D01*
X265578Y21611D01*
X265568Y21525D01*
X265562Y21437D01*
X265560Y21350D01*
X265559Y21350D02*
X265559Y17455D01*
X265560Y17455D02*
X265562Y17368D01*
X265568Y17280D01*
X265578Y17194D01*
X265591Y17107D01*
X265609Y17022D01*
X265630Y16937D01*
X265655Y16853D01*
X265684Y16771D01*
X265717Y16690D01*
X265753Y16610D01*
X265792Y16532D01*
X265836Y16456D01*
X265882Y16382D01*
X265932Y16311D01*
X265985Y16241D01*
X266041Y16174D01*
X266100Y16109D01*
X266162Y16048D01*
X266226Y15989D01*
X266293Y15933D01*
X266363Y15880D01*
X266434Y15830D01*
X266508Y15784D01*
X266584Y15740D01*
X266662Y15701D01*
X266742Y15665D01*
X266823Y15632D01*
X266905Y15603D01*
X266989Y15578D01*
X267074Y15557D01*
X267159Y15539D01*
X267246Y15526D01*
X267333Y15516D01*
X267420Y15510D01*
X267507Y15508D01*
X270752Y15508D01*
X258692Y20052D02*
X255771Y20052D01*
X258692Y20052D02*
X258786Y20050D01*
X258880Y20044D01*
X258973Y20035D01*
X259066Y20021D01*
X259158Y20004D01*
X259250Y19982D01*
X259340Y19958D01*
X259430Y19929D01*
X259518Y19897D01*
X259605Y19861D01*
X259690Y19821D01*
X259773Y19778D01*
X259855Y19732D01*
X259935Y19682D01*
X260012Y19629D01*
X260087Y19573D01*
X260160Y19514D01*
X260231Y19452D01*
X260299Y19387D01*
X260364Y19319D01*
X260426Y19248D01*
X260485Y19175D01*
X260541Y19100D01*
X260594Y19023D01*
X260644Y18943D01*
X260690Y18861D01*
X260733Y18778D01*
X260773Y18693D01*
X260809Y18606D01*
X260841Y18518D01*
X260870Y18428D01*
X260894Y18338D01*
X260916Y18246D01*
X260933Y18154D01*
X260947Y18061D01*
X260956Y17968D01*
X260962Y17874D01*
X260964Y17780D01*
X260962Y17686D01*
X260956Y17592D01*
X260947Y17499D01*
X260933Y17406D01*
X260916Y17314D01*
X260894Y17222D01*
X260870Y17132D01*
X260841Y17042D01*
X260809Y16954D01*
X260773Y16867D01*
X260733Y16782D01*
X260690Y16699D01*
X260644Y16617D01*
X260594Y16537D01*
X260541Y16460D01*
X260485Y16385D01*
X260426Y16312D01*
X260364Y16241D01*
X260299Y16173D01*
X260231Y16108D01*
X260160Y16046D01*
X260087Y15987D01*
X260012Y15931D01*
X259935Y15878D01*
X259855Y15828D01*
X259773Y15782D01*
X259690Y15739D01*
X259605Y15699D01*
X259518Y15663D01*
X259430Y15631D01*
X259340Y15602D01*
X259250Y15578D01*
X259158Y15556D01*
X259066Y15539D01*
X258973Y15525D01*
X258880Y15516D01*
X258786Y15510D01*
X258692Y15508D01*
X255771Y15508D01*
X255771Y21350D01*
X255772Y21350D02*
X255774Y21437D01*
X255780Y21525D01*
X255790Y21611D01*
X255803Y21698D01*
X255821Y21783D01*
X255842Y21868D01*
X255867Y21952D01*
X255896Y22034D01*
X255929Y22115D01*
X255965Y22195D01*
X256004Y22273D01*
X256048Y22349D01*
X256094Y22423D01*
X256144Y22494D01*
X256197Y22564D01*
X256253Y22631D01*
X256312Y22696D01*
X256374Y22757D01*
X256438Y22816D01*
X256505Y22872D01*
X256575Y22925D01*
X256646Y22975D01*
X256720Y23021D01*
X256796Y23065D01*
X256874Y23104D01*
X256954Y23140D01*
X257035Y23173D01*
X257117Y23202D01*
X257201Y23227D01*
X257286Y23248D01*
X257371Y23266D01*
X257458Y23279D01*
X257545Y23289D01*
X257632Y23295D01*
X257719Y23297D01*
X260315Y23297D01*
X248658Y15508D02*
X246061Y15508D01*
X248658Y15508D02*
X248745Y15510D01*
X248833Y15516D01*
X248919Y15526D01*
X249006Y15539D01*
X249091Y15557D01*
X249176Y15578D01*
X249260Y15603D01*
X249342Y15632D01*
X249423Y15665D01*
X249503Y15701D01*
X249581Y15740D01*
X249657Y15784D01*
X249731Y15830D01*
X249802Y15880D01*
X249872Y15933D01*
X249939Y15989D01*
X250003Y16048D01*
X250065Y16110D01*
X250124Y16174D01*
X250180Y16241D01*
X250233Y16311D01*
X250283Y16382D01*
X250329Y16456D01*
X250373Y16532D01*
X250412Y16610D01*
X250448Y16690D01*
X250481Y16771D01*
X250510Y16853D01*
X250535Y16937D01*
X250556Y17022D01*
X250574Y17107D01*
X250587Y17194D01*
X250597Y17280D01*
X250603Y17368D01*
X250605Y17455D01*
X250605Y21350D01*
X250603Y21437D01*
X250597Y21525D01*
X250587Y21611D01*
X250574Y21698D01*
X250556Y21783D01*
X250535Y21868D01*
X250510Y21952D01*
X250481Y22034D01*
X250448Y22115D01*
X250412Y22195D01*
X250373Y22273D01*
X250329Y22349D01*
X250283Y22423D01*
X250233Y22494D01*
X250180Y22564D01*
X250124Y22631D01*
X250065Y22695D01*
X250003Y22757D01*
X249939Y22816D01*
X249872Y22872D01*
X249802Y22925D01*
X249731Y22975D01*
X249657Y23021D01*
X249581Y23065D01*
X249503Y23104D01*
X249423Y23140D01*
X249342Y23173D01*
X249260Y23202D01*
X249176Y23227D01*
X249091Y23248D01*
X249006Y23266D01*
X248919Y23279D01*
X248833Y23289D01*
X248745Y23295D01*
X248658Y23297D01*
X246061Y23297D01*
X242823Y23297D02*
X238928Y23297D01*
X241524Y27192D02*
X241524Y17455D01*
X241522Y17368D01*
X241516Y17280D01*
X241506Y17194D01*
X241493Y17107D01*
X241475Y17022D01*
X241454Y16937D01*
X241429Y16853D01*
X241400Y16771D01*
X241367Y16690D01*
X241331Y16610D01*
X241292Y16532D01*
X241248Y16456D01*
X241202Y16382D01*
X241152Y16311D01*
X241099Y16241D01*
X241043Y16174D01*
X240984Y16110D01*
X240922Y16048D01*
X240858Y15989D01*
X240791Y15933D01*
X240721Y15880D01*
X240650Y15830D01*
X240576Y15784D01*
X240500Y15740D01*
X240422Y15701D01*
X240342Y15665D01*
X240261Y15632D01*
X240179Y15603D01*
X240095Y15578D01*
X240010Y15557D01*
X239925Y15539D01*
X239838Y15526D01*
X239752Y15516D01*
X239664Y15510D01*
X239577Y15508D01*
X238928Y15508D01*
X234504Y18754D02*
X234502Y18867D01*
X234496Y18980D01*
X234486Y19093D01*
X234472Y19206D01*
X234455Y19318D01*
X234433Y19429D01*
X234408Y19539D01*
X234378Y19649D01*
X234345Y19757D01*
X234308Y19864D01*
X234268Y19970D01*
X234223Y20074D01*
X234175Y20177D01*
X234124Y20278D01*
X234069Y20377D01*
X234011Y20474D01*
X233949Y20569D01*
X233884Y20662D01*
X233816Y20752D01*
X233745Y20840D01*
X233670Y20926D01*
X233593Y21009D01*
X233513Y21089D01*
X233430Y21166D01*
X233344Y21241D01*
X233256Y21312D01*
X233166Y21380D01*
X233073Y21445D01*
X232978Y21507D01*
X232881Y21565D01*
X232782Y21620D01*
X232681Y21671D01*
X232578Y21719D01*
X232474Y21764D01*
X232368Y21804D01*
X232261Y21841D01*
X232153Y21874D01*
X232043Y21904D01*
X231933Y21929D01*
X231822Y21951D01*
X231710Y21968D01*
X231597Y21982D01*
X231484Y21992D01*
X231371Y21998D01*
X231258Y22000D01*
X231145Y21998D01*
X231032Y21992D01*
X230919Y21982D01*
X230806Y21968D01*
X230694Y21951D01*
X230583Y21929D01*
X230473Y21904D01*
X230363Y21874D01*
X230255Y21841D01*
X230148Y21804D01*
X230042Y21764D01*
X229938Y21719D01*
X229835Y21671D01*
X229734Y21620D01*
X229635Y21565D01*
X229538Y21507D01*
X229443Y21445D01*
X229350Y21380D01*
X229260Y21312D01*
X229172Y21241D01*
X229086Y21166D01*
X229003Y21089D01*
X228923Y21009D01*
X228846Y20926D01*
X228771Y20840D01*
X228700Y20752D01*
X228632Y20662D01*
X228567Y20569D01*
X228505Y20474D01*
X228447Y20377D01*
X228392Y20278D01*
X228341Y20177D01*
X228293Y20074D01*
X228248Y19970D01*
X228208Y19864D01*
X228171Y19757D01*
X228138Y19649D01*
X228108Y19539D01*
X228083Y19429D01*
X228061Y19318D01*
X228044Y19206D01*
X228030Y19093D01*
X228020Y18980D01*
X228014Y18867D01*
X228012Y18754D01*
X228014Y18641D01*
X228020Y18528D01*
X228030Y18415D01*
X228044Y18302D01*
X228061Y18190D01*
X228083Y18079D01*
X228108Y17969D01*
X228138Y17859D01*
X228171Y17751D01*
X228208Y17644D01*
X228248Y17538D01*
X228293Y17434D01*
X228341Y17331D01*
X228392Y17230D01*
X228447Y17131D01*
X228505Y17034D01*
X228567Y16939D01*
X228632Y16846D01*
X228700Y16756D01*
X228771Y16668D01*
X228846Y16582D01*
X228923Y16499D01*
X229003Y16419D01*
X229086Y16342D01*
X229172Y16267D01*
X229260Y16196D01*
X229350Y16128D01*
X229443Y16063D01*
X229538Y16001D01*
X229635Y15943D01*
X229734Y15888D01*
X229835Y15837D01*
X229938Y15789D01*
X230042Y15744D01*
X230148Y15704D01*
X230255Y15667D01*
X230363Y15634D01*
X230473Y15604D01*
X230583Y15579D01*
X230694Y15557D01*
X230806Y15540D01*
X230919Y15526D01*
X231032Y15516D01*
X231145Y15510D01*
X231258Y15508D01*
X231371Y15510D01*
X231484Y15516D01*
X231597Y15526D01*
X231710Y15540D01*
X231822Y15557D01*
X231933Y15579D01*
X232043Y15604D01*
X232153Y15634D01*
X232261Y15667D01*
X232368Y15704D01*
X232474Y15744D01*
X232578Y15789D01*
X232681Y15837D01*
X232782Y15888D01*
X232881Y15943D01*
X232978Y16001D01*
X233073Y16063D01*
X233166Y16128D01*
X233256Y16196D01*
X233344Y16267D01*
X233430Y16342D01*
X233513Y16419D01*
X233593Y16499D01*
X233670Y16582D01*
X233745Y16668D01*
X233816Y16756D01*
X233884Y16846D01*
X233949Y16939D01*
X234011Y17034D01*
X234069Y17131D01*
X234124Y17230D01*
X234175Y17331D01*
X234223Y17434D01*
X234268Y17538D01*
X234308Y17644D01*
X234345Y17751D01*
X234378Y17859D01*
X234408Y17969D01*
X234433Y18079D01*
X234455Y18190D01*
X234472Y18302D01*
X234486Y18415D01*
X234496Y18528D01*
X234502Y18641D01*
X234504Y18754D01*
X233854Y24596D02*
X233852Y24697D01*
X233846Y24797D01*
X233836Y24897D01*
X233823Y24997D01*
X233805Y25096D01*
X233784Y25195D01*
X233759Y25292D01*
X233730Y25389D01*
X233697Y25484D01*
X233661Y25578D01*
X233621Y25670D01*
X233578Y25761D01*
X233531Y25850D01*
X233481Y25937D01*
X233427Y26023D01*
X233370Y26106D01*
X233310Y26186D01*
X233247Y26265D01*
X233180Y26341D01*
X233111Y26414D01*
X233039Y26484D01*
X232965Y26552D01*
X232888Y26617D01*
X232808Y26678D01*
X232726Y26737D01*
X232642Y26792D01*
X232556Y26844D01*
X232468Y26893D01*
X232378Y26938D01*
X232286Y26980D01*
X232193Y27018D01*
X232098Y27052D01*
X232003Y27083D01*
X231906Y27110D01*
X231808Y27133D01*
X231709Y27153D01*
X231609Y27168D01*
X231509Y27180D01*
X231409Y27188D01*
X231308Y27192D01*
X231208Y27192D01*
X231107Y27188D01*
X231007Y27180D01*
X230907Y27168D01*
X230807Y27153D01*
X230708Y27133D01*
X230610Y27110D01*
X230513Y27083D01*
X230418Y27052D01*
X230323Y27018D01*
X230230Y26980D01*
X230138Y26938D01*
X230048Y26893D01*
X229960Y26844D01*
X229874Y26792D01*
X229790Y26737D01*
X229708Y26678D01*
X229628Y26617D01*
X229551Y26552D01*
X229477Y26484D01*
X229405Y26414D01*
X229336Y26341D01*
X229269Y26265D01*
X229206Y26186D01*
X229146Y26106D01*
X229089Y26023D01*
X229035Y25937D01*
X228985Y25850D01*
X228938Y25761D01*
X228895Y25670D01*
X228855Y25578D01*
X228819Y25484D01*
X228786Y25389D01*
X228757Y25292D01*
X228732Y25195D01*
X228711Y25096D01*
X228693Y24997D01*
X228680Y24897D01*
X228670Y24797D01*
X228664Y24697D01*
X228662Y24596D01*
X228664Y24495D01*
X228670Y24395D01*
X228680Y24295D01*
X228693Y24195D01*
X228711Y24096D01*
X228732Y23997D01*
X228757Y23900D01*
X228786Y23803D01*
X228819Y23708D01*
X228855Y23614D01*
X228895Y23522D01*
X228938Y23431D01*
X228985Y23342D01*
X229035Y23255D01*
X229089Y23169D01*
X229146Y23086D01*
X229206Y23006D01*
X229269Y22927D01*
X229336Y22851D01*
X229405Y22778D01*
X229477Y22708D01*
X229551Y22640D01*
X229628Y22575D01*
X229708Y22514D01*
X229790Y22455D01*
X229874Y22400D01*
X229960Y22348D01*
X230048Y22299D01*
X230138Y22254D01*
X230230Y22212D01*
X230323Y22174D01*
X230418Y22140D01*
X230513Y22109D01*
X230610Y22082D01*
X230708Y22059D01*
X230807Y22039D01*
X230907Y22024D01*
X231007Y22012D01*
X231107Y22004D01*
X231208Y22000D01*
X231308Y22000D01*
X231409Y22004D01*
X231509Y22012D01*
X231609Y22024D01*
X231709Y22039D01*
X231808Y22059D01*
X231906Y22082D01*
X232003Y22109D01*
X232098Y22140D01*
X232193Y22174D01*
X232286Y22212D01*
X232378Y22254D01*
X232468Y22299D01*
X232556Y22348D01*
X232642Y22400D01*
X232726Y22455D01*
X232808Y22514D01*
X232888Y22575D01*
X232965Y22640D01*
X233039Y22708D01*
X233111Y22778D01*
X233180Y22851D01*
X233247Y22927D01*
X233310Y23006D01*
X233370Y23086D01*
X233427Y23169D01*
X233481Y23255D01*
X233531Y23342D01*
X233578Y23431D01*
X233621Y23522D01*
X233661Y23614D01*
X233697Y23708D01*
X233730Y23803D01*
X233759Y23900D01*
X233784Y23997D01*
X233805Y24096D01*
X233823Y24195D01*
X233836Y24295D01*
X233846Y24395D01*
X233852Y24495D01*
X233854Y24596D01*
X223074Y18104D02*
X220477Y27192D01*
X223074Y18104D02*
X216582Y18104D01*
X218530Y15508D02*
X218530Y20701D01*
M02*
