M48
;GenerationSoftware,Autodesk,EAGLE,9.6.0*%
;CreationDate,2020-03-22T09:07:53Z*%
FMAT,2
ICI,OFF
METRIC,TZ,000.000
T3C0.800
T2C1.016
T1C3.000
%
G90
M71
T1
X3000Y59000
X48000Y59000
X48000Y3000
X3000Y3000
T2
X39230Y39390
X41770Y39390
X39230Y36850
X41770Y36850
X39230Y34310
X41770Y34310
X39230Y31770
X41770Y31770
X39230Y29230
X41770Y29230
X39230Y26690
X41770Y26690
X39230Y24150
X9230Y24150
X41770Y24150
X39230Y21610
X41770Y21610
X39230Y19070
X41770Y19070
X39230Y16530
X41770Y16530
X39230Y13990
X41770Y13990
X41770Y11450
X39230Y8910
X41770Y8910
X39230Y6370
X41770Y6370
X46770Y16530
X46770Y19070
X46770Y21610
X46770Y24150
X46770Y26690
X46770Y29230
X46770Y31770
X46770Y34310
X4230Y31770
X4230Y34310
X4230Y36850
X4230Y39390
X9230Y54630
X11770Y54630
X9230Y52090
X11770Y52090
X9230Y49550
X11770Y49550
X9230Y47010
X11770Y47010
X9230Y44470
X11770Y44470
X9230Y41930
X11770Y41930
X9230Y39390
X11770Y39390
X9230Y36850
X11770Y36850
X9230Y34310
X11770Y34310
X9230Y31770
X11770Y31770
X9230Y29230
X11770Y29230
X9230Y26690
X11770Y26690
X39230Y11450
X11770Y24150
X9230Y21610
X11770Y21610
X9230Y19070
X11770Y19070
X9230Y16530
X11770Y16530
X9230Y13990
X11770Y13990
X9230Y11450
X11770Y11450
X9230Y8910
X11770Y8910
X9230Y6370
X11770Y6370
X39230Y54630
X41770Y54630
X39230Y52090
X41770Y52090
X39230Y49550
X41770Y49550
X39230Y47010
X41770Y47010
X39230Y44470
X41770Y44470
X39230Y41930
X41770Y41930
T3
X17880Y54490
X17880Y51950
X17880Y49410
X17880Y46870
X17880Y44330
X17880Y41790
X17880Y39250
X17880Y36710
X17880Y34170
X17880Y31630
X17880Y29090
X17880Y26550
X17880Y24010
X17880Y18930
X17880Y16390
X17880Y13850
X17880Y11310
X17880Y8770
X17880Y6230
X33120Y54490
X33120Y51950
X33120Y49410
X33120Y46870
X33120Y44330
X33120Y41790
X33120Y39250
X33120Y36710
X33120Y34170
X33120Y31630
X33120Y29090
X33120Y26550
X33120Y24010
X33120Y21470
X33120Y18930
X33120Y16390
X33120Y13850
X33120Y11310
X33120Y8770
X33120Y6230
X17880Y21470
M30