G04 EAGLE Gerber RS-274X export*
G75*
%MOMM*%
%FSLAX34Y34*%
%LPD*%
%IN*%
%IPPOS*%
%AMOC8*
5,1,8,0,0,1.08239X$1,22.5*%
G01*
%ADD10C,0.254000*%


D10*
X0Y0D02*
X699100Y0D01*
X699100Y299600D01*
X0Y299600D01*
X0Y0D01*
X45000Y269464D02*
X44924Y268396D01*
X44771Y267335D01*
X44543Y266288D01*
X44241Y265260D01*
X43867Y264256D01*
X43422Y263281D01*
X42908Y262341D01*
X42329Y261440D01*
X41687Y260582D01*
X40985Y259772D01*
X40228Y259015D01*
X39418Y258313D01*
X38560Y257671D01*
X37659Y257092D01*
X36719Y256578D01*
X35744Y256133D01*
X34740Y255759D01*
X33712Y255457D01*
X32665Y255229D01*
X31604Y255076D01*
X30536Y255000D01*
X29464Y255000D01*
X28396Y255076D01*
X27335Y255229D01*
X26288Y255457D01*
X25260Y255759D01*
X24256Y256133D01*
X23281Y256578D01*
X22341Y257092D01*
X21440Y257671D01*
X20582Y258313D01*
X19772Y259015D01*
X19015Y259772D01*
X18313Y260582D01*
X17671Y261440D01*
X17092Y262341D01*
X16578Y263281D01*
X16133Y264256D01*
X15759Y265260D01*
X15457Y266288D01*
X15229Y267335D01*
X15076Y268396D01*
X15000Y269464D01*
X15000Y270536D01*
X15076Y271604D01*
X15229Y272665D01*
X15457Y273712D01*
X15759Y274740D01*
X16133Y275744D01*
X16578Y276719D01*
X17092Y277659D01*
X17671Y278560D01*
X18313Y279418D01*
X19015Y280228D01*
X19772Y280985D01*
X20582Y281687D01*
X21440Y282329D01*
X22341Y282908D01*
X23281Y283422D01*
X24256Y283867D01*
X25260Y284241D01*
X26288Y284543D01*
X27335Y284771D01*
X28396Y284924D01*
X29464Y285000D01*
X30536Y285000D01*
X31604Y284924D01*
X32665Y284771D01*
X33712Y284543D01*
X34740Y284241D01*
X35744Y283867D01*
X36719Y283422D01*
X37659Y282908D01*
X38560Y282329D01*
X39418Y281687D01*
X40228Y280985D01*
X40985Y280228D01*
X41687Y279418D01*
X42329Y278560D01*
X42908Y277659D01*
X43422Y276719D01*
X43867Y275744D01*
X44241Y274740D01*
X44543Y273712D01*
X44771Y272665D01*
X44924Y271604D01*
X45000Y270536D01*
X45000Y269464D01*
X45000Y29464D02*
X44924Y28396D01*
X44771Y27335D01*
X44543Y26288D01*
X44241Y25260D01*
X43867Y24256D01*
X43422Y23281D01*
X42908Y22341D01*
X42329Y21440D01*
X41687Y20582D01*
X40985Y19772D01*
X40228Y19015D01*
X39418Y18313D01*
X38560Y17671D01*
X37659Y17092D01*
X36719Y16578D01*
X35744Y16133D01*
X34740Y15759D01*
X33712Y15457D01*
X32665Y15229D01*
X31604Y15076D01*
X30536Y15000D01*
X29464Y15000D01*
X28396Y15076D01*
X27335Y15229D01*
X26288Y15457D01*
X25260Y15759D01*
X24256Y16133D01*
X23281Y16578D01*
X22341Y17092D01*
X21440Y17671D01*
X20582Y18313D01*
X19772Y19015D01*
X19015Y19772D01*
X18313Y20582D01*
X17671Y21440D01*
X17092Y22341D01*
X16578Y23281D01*
X16133Y24256D01*
X15759Y25260D01*
X15457Y26288D01*
X15229Y27335D01*
X15076Y28396D01*
X15000Y29464D01*
X15000Y30536D01*
X15076Y31604D01*
X15229Y32665D01*
X15457Y33712D01*
X15759Y34740D01*
X16133Y35744D01*
X16578Y36719D01*
X17092Y37659D01*
X17671Y38560D01*
X18313Y39418D01*
X19015Y40228D01*
X19772Y40985D01*
X20582Y41687D01*
X21440Y42329D01*
X22341Y42908D01*
X23281Y43422D01*
X24256Y43867D01*
X25260Y44241D01*
X26288Y44543D01*
X27335Y44771D01*
X28396Y44924D01*
X29464Y45000D01*
X30536Y45000D01*
X31604Y44924D01*
X32665Y44771D01*
X33712Y44543D01*
X34740Y44241D01*
X35744Y43867D01*
X36719Y43422D01*
X37659Y42908D01*
X38560Y42329D01*
X39418Y41687D01*
X40228Y40985D01*
X40985Y40228D01*
X41687Y39418D01*
X42329Y38560D01*
X42908Y37659D01*
X43422Y36719D01*
X43867Y35744D01*
X44241Y34740D01*
X44543Y33712D01*
X44771Y32665D01*
X44924Y31604D01*
X45000Y30536D01*
X45000Y29464D01*
X685000Y269464D02*
X684924Y268396D01*
X684771Y267335D01*
X684543Y266288D01*
X684241Y265260D01*
X683867Y264256D01*
X683422Y263281D01*
X682908Y262341D01*
X682329Y261440D01*
X681687Y260582D01*
X680985Y259772D01*
X680228Y259015D01*
X679418Y258313D01*
X678560Y257671D01*
X677659Y257092D01*
X676719Y256578D01*
X675744Y256133D01*
X674740Y255759D01*
X673712Y255457D01*
X672665Y255229D01*
X671604Y255076D01*
X670536Y255000D01*
X669464Y255000D01*
X668396Y255076D01*
X667335Y255229D01*
X666288Y255457D01*
X665260Y255759D01*
X664256Y256133D01*
X663281Y256578D01*
X662341Y257092D01*
X661440Y257671D01*
X660582Y258313D01*
X659772Y259015D01*
X659015Y259772D01*
X658313Y260582D01*
X657671Y261440D01*
X657092Y262341D01*
X656578Y263281D01*
X656133Y264256D01*
X655759Y265260D01*
X655457Y266288D01*
X655229Y267335D01*
X655076Y268396D01*
X655000Y269464D01*
X655000Y270536D01*
X655076Y271604D01*
X655229Y272665D01*
X655457Y273712D01*
X655759Y274740D01*
X656133Y275744D01*
X656578Y276719D01*
X657092Y277659D01*
X657671Y278560D01*
X658313Y279418D01*
X659015Y280228D01*
X659772Y280985D01*
X660582Y281687D01*
X661440Y282329D01*
X662341Y282908D01*
X663281Y283422D01*
X664256Y283867D01*
X665260Y284241D01*
X666288Y284543D01*
X667335Y284771D01*
X668396Y284924D01*
X669464Y285000D01*
X670536Y285000D01*
X671604Y284924D01*
X672665Y284771D01*
X673712Y284543D01*
X674740Y284241D01*
X675744Y283867D01*
X676719Y283422D01*
X677659Y282908D01*
X678560Y282329D01*
X679418Y281687D01*
X680228Y280985D01*
X680985Y280228D01*
X681687Y279418D01*
X682329Y278560D01*
X682908Y277659D01*
X683422Y276719D01*
X683867Y275744D01*
X684241Y274740D01*
X684543Y273712D01*
X684771Y272665D01*
X684924Y271604D01*
X685000Y270536D01*
X685000Y269464D01*
X685000Y29464D02*
X684924Y28396D01*
X684771Y27335D01*
X684543Y26288D01*
X684241Y25260D01*
X683867Y24256D01*
X683422Y23281D01*
X682908Y22341D01*
X682329Y21440D01*
X681687Y20582D01*
X680985Y19772D01*
X680228Y19015D01*
X679418Y18313D01*
X678560Y17671D01*
X677659Y17092D01*
X676719Y16578D01*
X675744Y16133D01*
X674740Y15759D01*
X673712Y15457D01*
X672665Y15229D01*
X671604Y15076D01*
X670536Y15000D01*
X669464Y15000D01*
X668396Y15076D01*
X667335Y15229D01*
X666288Y15457D01*
X665260Y15759D01*
X664256Y16133D01*
X663281Y16578D01*
X662341Y17092D01*
X661440Y17671D01*
X660582Y18313D01*
X659772Y19015D01*
X659015Y19772D01*
X658313Y20582D01*
X657671Y21440D01*
X657092Y22341D01*
X656578Y23281D01*
X656133Y24256D01*
X655759Y25260D01*
X655457Y26288D01*
X655229Y27335D01*
X655076Y28396D01*
X655000Y29464D01*
X655000Y30536D01*
X655076Y31604D01*
X655229Y32665D01*
X655457Y33712D01*
X655759Y34740D01*
X656133Y35744D01*
X656578Y36719D01*
X657092Y37659D01*
X657671Y38560D01*
X658313Y39418D01*
X659015Y40228D01*
X659772Y40985D01*
X660582Y41687D01*
X661440Y42329D01*
X662341Y42908D01*
X663281Y43422D01*
X664256Y43867D01*
X665260Y44241D01*
X666288Y44543D01*
X667335Y44771D01*
X668396Y44924D01*
X669464Y45000D01*
X670536Y45000D01*
X671604Y44924D01*
X672665Y44771D01*
X673712Y44543D01*
X674740Y44241D01*
X675744Y43867D01*
X676719Y43422D01*
X677659Y42908D01*
X678560Y42329D01*
X679418Y41687D01*
X680228Y40985D01*
X680985Y40228D01*
X681687Y39418D01*
X682329Y38560D01*
X682908Y37659D01*
X683422Y36719D01*
X683867Y35744D01*
X684241Y34740D01*
X684543Y33712D01*
X684771Y32665D01*
X684924Y31604D01*
X685000Y30536D01*
X685000Y29464D01*
M02*
