G04 EAGLE Gerber RS-274X export*
G75*
%MOMM*%
%FSLAX34Y34*%
%LPD*%
%INSilkscreen Bottom*%
%IPPOS*%
%AMOC8*
5,1,8,0,0,1.08239X$1,22.5*%
G01*
%ADD10C,0.076200*%


D10*
X378575Y209779D02*
X378575Y200381D01*
X379619Y200381D02*
X377531Y200381D01*
X377531Y209779D02*
X379619Y209779D01*
X373478Y206646D02*
X373478Y200381D01*
X373478Y206646D02*
X368779Y206646D01*
X368702Y206644D01*
X368626Y206638D01*
X368549Y206629D01*
X368473Y206616D01*
X368398Y206599D01*
X368324Y206579D01*
X368251Y206554D01*
X368180Y206527D01*
X368109Y206496D01*
X368041Y206461D01*
X367974Y206423D01*
X367909Y206382D01*
X367846Y206338D01*
X367786Y206291D01*
X367727Y206240D01*
X367672Y206187D01*
X367619Y206132D01*
X367568Y206073D01*
X367521Y206013D01*
X367477Y205950D01*
X367436Y205885D01*
X367398Y205818D01*
X367363Y205750D01*
X367332Y205679D01*
X367305Y205608D01*
X367280Y205535D01*
X367260Y205461D01*
X367243Y205386D01*
X367230Y205310D01*
X367221Y205233D01*
X367215Y205157D01*
X367213Y205080D01*
X367213Y200381D01*
X370345Y200381D02*
X370345Y206646D01*
X362634Y206646D02*
X362634Y197248D01*
X362634Y206646D02*
X360024Y206646D01*
X359947Y206644D01*
X359871Y206638D01*
X359794Y206629D01*
X359718Y206616D01*
X359644Y206599D01*
X359569Y206579D01*
X359496Y206554D01*
X359425Y206527D01*
X359354Y206496D01*
X359286Y206461D01*
X359219Y206423D01*
X359154Y206382D01*
X359091Y206338D01*
X359031Y206291D01*
X358972Y206240D01*
X358917Y206187D01*
X358864Y206132D01*
X358813Y206073D01*
X358766Y206013D01*
X358722Y205950D01*
X358681Y205885D01*
X358643Y205818D01*
X358608Y205750D01*
X358577Y205679D01*
X358550Y205608D01*
X358525Y205535D01*
X358505Y205461D01*
X358488Y205386D01*
X358475Y205310D01*
X358466Y205234D01*
X358460Y205157D01*
X358458Y205080D01*
X358458Y201947D01*
X358460Y201870D01*
X358466Y201794D01*
X358475Y201717D01*
X358488Y201641D01*
X358505Y201566D01*
X358525Y201492D01*
X358550Y201419D01*
X358577Y201348D01*
X358608Y201277D01*
X358643Y201209D01*
X358681Y201142D01*
X358722Y201077D01*
X358766Y201014D01*
X358813Y200954D01*
X358864Y200895D01*
X358917Y200840D01*
X358972Y200787D01*
X359031Y200736D01*
X359091Y200689D01*
X359154Y200645D01*
X359219Y200604D01*
X359286Y200566D01*
X359354Y200531D01*
X359425Y200500D01*
X359496Y200473D01*
X359569Y200448D01*
X359644Y200428D01*
X359719Y200411D01*
X359794Y200398D01*
X359871Y200389D01*
X359947Y200383D01*
X360024Y200381D01*
X362634Y200381D01*
X352974Y204036D02*
X350624Y204036D01*
X352974Y204035D02*
X353058Y204033D01*
X353143Y204027D01*
X353226Y204017D01*
X353310Y204004D01*
X353392Y203986D01*
X353474Y203965D01*
X353555Y203940D01*
X353634Y203912D01*
X353712Y203879D01*
X353788Y203843D01*
X353863Y203804D01*
X353936Y203761D01*
X354007Y203715D01*
X354075Y203666D01*
X354141Y203614D01*
X354205Y203558D01*
X354266Y203500D01*
X354324Y203439D01*
X354380Y203375D01*
X354432Y203309D01*
X354481Y203241D01*
X354527Y203170D01*
X354570Y203097D01*
X354609Y203022D01*
X354645Y202946D01*
X354678Y202868D01*
X354706Y202789D01*
X354731Y202708D01*
X354752Y202626D01*
X354770Y202544D01*
X354783Y202460D01*
X354793Y202377D01*
X354799Y202292D01*
X354801Y202208D01*
X354799Y202124D01*
X354793Y202039D01*
X354783Y201956D01*
X354770Y201872D01*
X354752Y201790D01*
X354731Y201708D01*
X354706Y201627D01*
X354678Y201548D01*
X354645Y201470D01*
X354609Y201394D01*
X354570Y201319D01*
X354527Y201246D01*
X354481Y201175D01*
X354432Y201107D01*
X354380Y201041D01*
X354324Y200977D01*
X354266Y200916D01*
X354205Y200858D01*
X354141Y200802D01*
X354075Y200750D01*
X354007Y200701D01*
X353936Y200655D01*
X353863Y200612D01*
X353788Y200573D01*
X353712Y200537D01*
X353634Y200504D01*
X353555Y200476D01*
X353474Y200451D01*
X353392Y200430D01*
X353310Y200412D01*
X353226Y200399D01*
X353143Y200389D01*
X353058Y200383D01*
X352974Y200381D01*
X350624Y200381D01*
X350624Y205080D01*
X350626Y205157D01*
X350632Y205233D01*
X350641Y205310D01*
X350654Y205386D01*
X350671Y205461D01*
X350691Y205535D01*
X350716Y205608D01*
X350743Y205679D01*
X350774Y205750D01*
X350809Y205818D01*
X350847Y205885D01*
X350888Y205950D01*
X350932Y206013D01*
X350979Y206073D01*
X351030Y206132D01*
X351083Y206187D01*
X351138Y206240D01*
X351197Y206291D01*
X351257Y206338D01*
X351320Y206382D01*
X351385Y206423D01*
X351452Y206461D01*
X351520Y206496D01*
X351591Y206527D01*
X351662Y206554D01*
X351735Y206579D01*
X351810Y206599D01*
X351885Y206616D01*
X351960Y206629D01*
X352037Y206638D01*
X352113Y206644D01*
X352190Y206646D01*
X352191Y206646D02*
X354279Y206646D01*
X344949Y200381D02*
X342861Y200381D01*
X344949Y200381D02*
X345026Y200383D01*
X345102Y200389D01*
X345179Y200398D01*
X345255Y200411D01*
X345330Y200428D01*
X345404Y200448D01*
X345477Y200473D01*
X345548Y200500D01*
X345619Y200531D01*
X345687Y200566D01*
X345754Y200604D01*
X345819Y200645D01*
X345882Y200689D01*
X345942Y200736D01*
X346001Y200787D01*
X346056Y200840D01*
X346109Y200895D01*
X346160Y200954D01*
X346207Y201014D01*
X346251Y201077D01*
X346292Y201142D01*
X346330Y201209D01*
X346365Y201277D01*
X346396Y201348D01*
X346423Y201419D01*
X346448Y201492D01*
X346468Y201566D01*
X346485Y201641D01*
X346498Y201717D01*
X346507Y201794D01*
X346513Y201870D01*
X346515Y201947D01*
X346516Y201947D02*
X346516Y205080D01*
X346515Y205080D02*
X346513Y205157D01*
X346507Y205233D01*
X346498Y205310D01*
X346485Y205386D01*
X346468Y205461D01*
X346448Y205535D01*
X346423Y205608D01*
X346396Y205679D01*
X346365Y205750D01*
X346330Y205818D01*
X346292Y205885D01*
X346251Y205950D01*
X346207Y206013D01*
X346160Y206073D01*
X346109Y206132D01*
X346056Y206187D01*
X346001Y206240D01*
X345942Y206291D01*
X345882Y206338D01*
X345819Y206382D01*
X345754Y206423D01*
X345687Y206461D01*
X345619Y206496D01*
X345548Y206527D01*
X345477Y206554D01*
X345404Y206579D01*
X345330Y206599D01*
X345255Y206616D01*
X345179Y206629D01*
X345102Y206638D01*
X345026Y206644D01*
X344949Y206646D01*
X342861Y206646D01*
X340284Y206646D02*
X337152Y206646D01*
X339240Y209779D02*
X339240Y201947D01*
X339238Y201870D01*
X339232Y201794D01*
X339223Y201717D01*
X339210Y201641D01*
X339193Y201566D01*
X339173Y201492D01*
X339148Y201419D01*
X339121Y201348D01*
X339090Y201277D01*
X339055Y201209D01*
X339017Y201142D01*
X338976Y201077D01*
X338932Y201014D01*
X338885Y200954D01*
X338834Y200895D01*
X338781Y200840D01*
X338726Y200787D01*
X338667Y200736D01*
X338607Y200689D01*
X338544Y200645D01*
X338479Y200604D01*
X338412Y200566D01*
X338344Y200531D01*
X338273Y200500D01*
X338202Y200473D01*
X338129Y200448D01*
X338055Y200428D01*
X337980Y200411D01*
X337904Y200398D01*
X337827Y200389D01*
X337751Y200383D01*
X337674Y200381D01*
X337152Y200381D01*
X333637Y202992D02*
X333635Y203093D01*
X333629Y203194D01*
X333619Y203295D01*
X333606Y203395D01*
X333588Y203495D01*
X333567Y203594D01*
X333541Y203692D01*
X333512Y203789D01*
X333480Y203885D01*
X333443Y203979D01*
X333403Y204072D01*
X333359Y204164D01*
X333312Y204253D01*
X333261Y204341D01*
X333207Y204427D01*
X333150Y204510D01*
X333090Y204592D01*
X333026Y204670D01*
X332960Y204747D01*
X332890Y204820D01*
X332818Y204891D01*
X332743Y204959D01*
X332665Y205024D01*
X332585Y205086D01*
X332503Y205145D01*
X332418Y205201D01*
X332332Y205253D01*
X332243Y205302D01*
X332152Y205348D01*
X332060Y205389D01*
X331966Y205428D01*
X331871Y205462D01*
X331775Y205493D01*
X331677Y205520D01*
X331579Y205544D01*
X331479Y205563D01*
X331379Y205579D01*
X331279Y205591D01*
X331178Y205599D01*
X331077Y205603D01*
X330975Y205603D01*
X330874Y205599D01*
X330773Y205591D01*
X330673Y205579D01*
X330573Y205563D01*
X330473Y205544D01*
X330375Y205520D01*
X330277Y205493D01*
X330181Y205462D01*
X330086Y205428D01*
X329992Y205389D01*
X329900Y205348D01*
X329809Y205302D01*
X329721Y205253D01*
X329634Y205201D01*
X329549Y205145D01*
X329467Y205086D01*
X329387Y205024D01*
X329309Y204959D01*
X329234Y204891D01*
X329162Y204820D01*
X329092Y204747D01*
X329026Y204670D01*
X328962Y204592D01*
X328902Y204510D01*
X328845Y204427D01*
X328791Y204341D01*
X328740Y204253D01*
X328693Y204164D01*
X328649Y204072D01*
X328609Y203979D01*
X328572Y203885D01*
X328540Y203789D01*
X328511Y203692D01*
X328485Y203594D01*
X328464Y203495D01*
X328446Y203395D01*
X328433Y203295D01*
X328423Y203194D01*
X328417Y203093D01*
X328415Y202992D01*
X328417Y202891D01*
X328423Y202790D01*
X328433Y202689D01*
X328446Y202589D01*
X328464Y202489D01*
X328485Y202390D01*
X328511Y202292D01*
X328540Y202195D01*
X328572Y202099D01*
X328609Y202005D01*
X328649Y201912D01*
X328693Y201820D01*
X328740Y201731D01*
X328791Y201643D01*
X328845Y201557D01*
X328902Y201474D01*
X328962Y201392D01*
X329026Y201314D01*
X329092Y201237D01*
X329162Y201164D01*
X329234Y201093D01*
X329309Y201025D01*
X329387Y200960D01*
X329467Y200898D01*
X329549Y200839D01*
X329634Y200783D01*
X329721Y200731D01*
X329809Y200682D01*
X329900Y200636D01*
X329992Y200595D01*
X330086Y200556D01*
X330181Y200522D01*
X330277Y200491D01*
X330375Y200464D01*
X330473Y200440D01*
X330573Y200421D01*
X330673Y200405D01*
X330773Y200393D01*
X330874Y200385D01*
X330975Y200381D01*
X331077Y200381D01*
X331178Y200385D01*
X331279Y200393D01*
X331379Y200405D01*
X331479Y200421D01*
X331579Y200440D01*
X331677Y200464D01*
X331775Y200491D01*
X331871Y200522D01*
X331966Y200556D01*
X332060Y200595D01*
X332152Y200636D01*
X332243Y200682D01*
X332331Y200731D01*
X332418Y200783D01*
X332503Y200839D01*
X332585Y200898D01*
X332665Y200960D01*
X332743Y201025D01*
X332818Y201093D01*
X332890Y201164D01*
X332960Y201237D01*
X333026Y201314D01*
X333090Y201392D01*
X333150Y201474D01*
X333207Y201557D01*
X333261Y201643D01*
X333312Y201731D01*
X333359Y201820D01*
X333403Y201912D01*
X333443Y202005D01*
X333480Y202099D01*
X333512Y202195D01*
X333541Y202292D01*
X333567Y202390D01*
X333588Y202489D01*
X333606Y202589D01*
X333619Y202689D01*
X333629Y202790D01*
X333635Y202891D01*
X333637Y202992D01*
X333114Y207691D02*
X333112Y207781D01*
X333106Y207870D01*
X333097Y207960D01*
X333083Y208049D01*
X333066Y208137D01*
X333045Y208224D01*
X333020Y208311D01*
X332991Y208396D01*
X332959Y208480D01*
X332924Y208562D01*
X332884Y208643D01*
X332842Y208722D01*
X332796Y208799D01*
X332746Y208874D01*
X332694Y208947D01*
X332638Y209018D01*
X332580Y209086D01*
X332518Y209151D01*
X332454Y209214D01*
X332387Y209274D01*
X332318Y209331D01*
X332246Y209385D01*
X332172Y209436D01*
X332096Y209484D01*
X332018Y209528D01*
X331938Y209569D01*
X331856Y209607D01*
X331773Y209641D01*
X331688Y209671D01*
X331602Y209698D01*
X331516Y209721D01*
X331428Y209740D01*
X331339Y209755D01*
X331250Y209767D01*
X331161Y209775D01*
X331071Y209779D01*
X330981Y209779D01*
X330891Y209775D01*
X330802Y209767D01*
X330713Y209755D01*
X330624Y209740D01*
X330536Y209721D01*
X330450Y209698D01*
X330364Y209671D01*
X330279Y209641D01*
X330196Y209607D01*
X330114Y209569D01*
X330034Y209528D01*
X329956Y209484D01*
X329880Y209436D01*
X329806Y209385D01*
X329734Y209331D01*
X329665Y209274D01*
X329598Y209214D01*
X329534Y209151D01*
X329472Y209086D01*
X329414Y209018D01*
X329358Y208947D01*
X329306Y208874D01*
X329256Y208799D01*
X329210Y208722D01*
X329168Y208643D01*
X329128Y208562D01*
X329093Y208480D01*
X329061Y208396D01*
X329032Y208311D01*
X329007Y208224D01*
X328986Y208137D01*
X328969Y208049D01*
X328955Y207960D01*
X328946Y207870D01*
X328940Y207781D01*
X328938Y207691D01*
X328940Y207601D01*
X328946Y207512D01*
X328955Y207422D01*
X328969Y207333D01*
X328986Y207245D01*
X329007Y207158D01*
X329032Y207071D01*
X329061Y206986D01*
X329093Y206902D01*
X329128Y206820D01*
X329168Y206739D01*
X329210Y206660D01*
X329256Y206583D01*
X329306Y206508D01*
X329358Y206435D01*
X329414Y206364D01*
X329472Y206296D01*
X329534Y206231D01*
X329598Y206168D01*
X329665Y206108D01*
X329734Y206051D01*
X329806Y205997D01*
X329880Y205946D01*
X329956Y205898D01*
X330034Y205854D01*
X330114Y205813D01*
X330196Y205775D01*
X330279Y205741D01*
X330364Y205711D01*
X330450Y205684D01*
X330536Y205661D01*
X330624Y205642D01*
X330713Y205627D01*
X330802Y205615D01*
X330891Y205607D01*
X330981Y205603D01*
X331071Y205603D01*
X331161Y205607D01*
X331250Y205615D01*
X331339Y205627D01*
X331428Y205642D01*
X331516Y205661D01*
X331602Y205684D01*
X331688Y205711D01*
X331773Y205741D01*
X331856Y205775D01*
X331938Y205813D01*
X332018Y205854D01*
X332096Y205898D01*
X332172Y205946D01*
X332246Y205997D01*
X332318Y206051D01*
X332387Y206108D01*
X332454Y206168D01*
X332518Y206231D01*
X332580Y206296D01*
X332638Y206364D01*
X332694Y206435D01*
X332746Y206508D01*
X332796Y206583D01*
X332842Y206660D01*
X332884Y206739D01*
X332924Y206820D01*
X332959Y206902D01*
X332991Y206986D01*
X333020Y207071D01*
X333045Y207158D01*
X333066Y207245D01*
X333083Y207333D01*
X333097Y207422D01*
X333106Y207512D01*
X333112Y207601D01*
X333114Y207691D01*
X324493Y202469D02*
X322404Y209779D01*
X324493Y202469D02*
X319272Y202469D01*
X320838Y204558D02*
X320838Y200381D01*
M02*
