G04 EAGLE Gerber RS-274X export*
G75*
%MOMM*%
%FSLAX34Y34*%
%LPD*%
%INBottom Copper*%
%IPPOS*%
%AMOC8*
5,1,8,0,0,1.08239X$1,22.5*%
G01*
%ADD10C,1.524000*%
%ADD11C,3.000000*%

G36*
X187164Y2512D02*
X187164Y2512D01*
X187235Y2514D01*
X187284Y2532D01*
X187336Y2540D01*
X187399Y2574D01*
X187466Y2599D01*
X187507Y2631D01*
X187553Y2656D01*
X187603Y2708D01*
X187659Y2752D01*
X187687Y2796D01*
X187723Y2834D01*
X187753Y2899D01*
X187792Y2959D01*
X187804Y3010D01*
X187826Y3057D01*
X187834Y3128D01*
X187852Y3198D01*
X187848Y3250D01*
X187853Y3301D01*
X187838Y3372D01*
X187832Y3443D01*
X187812Y3491D01*
X187801Y3542D01*
X187764Y3603D01*
X187736Y3669D01*
X187691Y3725D01*
X187675Y3753D01*
X187657Y3768D01*
X187631Y3800D01*
X186201Y5231D01*
X184279Y9870D01*
X184279Y30130D01*
X186201Y34769D01*
X189751Y38319D01*
X194390Y40241D01*
X199410Y40241D01*
X204049Y38319D01*
X207599Y34769D01*
X208897Y31637D01*
X208935Y31576D01*
X208964Y31511D01*
X208999Y31472D01*
X209026Y31428D01*
X209082Y31382D01*
X209130Y31329D01*
X209176Y31304D01*
X209216Y31271D01*
X209283Y31245D01*
X209346Y31211D01*
X209397Y31202D01*
X209445Y31183D01*
X209517Y31180D01*
X209588Y31167D01*
X209639Y31175D01*
X209691Y31172D01*
X209760Y31192D01*
X209831Y31203D01*
X209877Y31227D01*
X209927Y31241D01*
X209986Y31282D01*
X210050Y31314D01*
X210087Y31352D01*
X210129Y31381D01*
X210172Y31439D01*
X210222Y31490D01*
X210257Y31553D01*
X210276Y31579D01*
X210283Y31601D01*
X210303Y31637D01*
X211601Y34769D01*
X215151Y38319D01*
X219790Y40241D01*
X224810Y40241D01*
X229449Y38319D01*
X232999Y34769D01*
X234297Y31637D01*
X234335Y31576D01*
X234364Y31511D01*
X234399Y31472D01*
X234426Y31428D01*
X234482Y31382D01*
X234530Y31329D01*
X234576Y31304D01*
X234616Y31271D01*
X234683Y31245D01*
X234746Y31211D01*
X234797Y31202D01*
X234845Y31183D01*
X234917Y31180D01*
X234988Y31167D01*
X235039Y31175D01*
X235091Y31172D01*
X235160Y31192D01*
X235231Y31203D01*
X235277Y31227D01*
X235327Y31241D01*
X235386Y31282D01*
X235450Y31314D01*
X235487Y31352D01*
X235529Y31381D01*
X235572Y31439D01*
X235622Y31490D01*
X235657Y31553D01*
X235676Y31579D01*
X235683Y31601D01*
X235703Y31637D01*
X237001Y34769D01*
X240551Y38319D01*
X245190Y40241D01*
X250210Y40241D01*
X254849Y38319D01*
X258399Y34769D01*
X259697Y31637D01*
X259735Y31576D01*
X259764Y31511D01*
X259799Y31472D01*
X259826Y31428D01*
X259882Y31382D01*
X259930Y31329D01*
X259976Y31304D01*
X260016Y31271D01*
X260083Y31245D01*
X260146Y31211D01*
X260197Y31202D01*
X260245Y31183D01*
X260317Y31180D01*
X260388Y31167D01*
X260439Y31175D01*
X260491Y31172D01*
X260560Y31192D01*
X260631Y31203D01*
X260677Y31227D01*
X260727Y31241D01*
X260786Y31282D01*
X260850Y31314D01*
X260887Y31352D01*
X260929Y31381D01*
X260972Y31439D01*
X261022Y31490D01*
X261057Y31553D01*
X261076Y31579D01*
X261083Y31601D01*
X261103Y31637D01*
X262401Y34769D01*
X265951Y38319D01*
X270590Y40241D01*
X275610Y40241D01*
X280249Y38319D01*
X283799Y34769D01*
X285721Y30130D01*
X285721Y9870D01*
X283799Y5231D01*
X282369Y3800D01*
X282327Y3742D01*
X282277Y3690D01*
X282256Y3643D01*
X282225Y3601D01*
X282204Y3532D01*
X282174Y3467D01*
X282168Y3415D01*
X282153Y3365D01*
X282155Y3294D01*
X282147Y3223D01*
X282158Y3172D01*
X282159Y3120D01*
X282184Y3052D01*
X282199Y2982D01*
X282226Y2937D01*
X282244Y2889D01*
X282288Y2833D01*
X282325Y2771D01*
X282365Y2737D01*
X282397Y2697D01*
X282458Y2658D01*
X282512Y2611D01*
X282560Y2592D01*
X282604Y2564D01*
X282674Y2546D01*
X282740Y2519D01*
X282812Y2511D01*
X282843Y2503D01*
X282866Y2505D01*
X282907Y2501D01*
X717093Y2501D01*
X717164Y2512D01*
X717235Y2514D01*
X717284Y2532D01*
X717336Y2540D01*
X717399Y2574D01*
X717466Y2599D01*
X717507Y2631D01*
X717553Y2656D01*
X717603Y2708D01*
X717659Y2752D01*
X717687Y2796D01*
X717723Y2834D01*
X717753Y2899D01*
X717792Y2959D01*
X717804Y3010D01*
X717826Y3057D01*
X717834Y3128D01*
X717852Y3198D01*
X717848Y3250D01*
X717853Y3301D01*
X717838Y3372D01*
X717832Y3443D01*
X717812Y3491D01*
X717801Y3542D01*
X717764Y3603D01*
X717736Y3669D01*
X717691Y3725D01*
X717675Y3753D01*
X717657Y3768D01*
X717631Y3800D01*
X716201Y5231D01*
X714279Y9870D01*
X714279Y30130D01*
X716201Y34769D01*
X719751Y38319D01*
X724390Y40241D01*
X729410Y40241D01*
X734049Y38319D01*
X737599Y34769D01*
X738897Y31637D01*
X738935Y31576D01*
X738964Y31511D01*
X738999Y31472D01*
X739026Y31428D01*
X739082Y31382D01*
X739130Y31329D01*
X739176Y31304D01*
X739216Y31271D01*
X739283Y31245D01*
X739346Y31211D01*
X739397Y31202D01*
X739445Y31183D01*
X739517Y31180D01*
X739588Y31167D01*
X739639Y31175D01*
X739691Y31172D01*
X739760Y31192D01*
X739831Y31203D01*
X739877Y31227D01*
X739927Y31241D01*
X739986Y31282D01*
X740050Y31314D01*
X740087Y31352D01*
X740129Y31381D01*
X740172Y31439D01*
X740222Y31490D01*
X740257Y31553D01*
X740276Y31579D01*
X740283Y31601D01*
X740303Y31637D01*
X741601Y34769D01*
X745151Y38319D01*
X749790Y40241D01*
X754810Y40241D01*
X759449Y38319D01*
X762999Y34769D01*
X764297Y31637D01*
X764335Y31576D01*
X764364Y31511D01*
X764399Y31472D01*
X764426Y31428D01*
X764482Y31382D01*
X764530Y31329D01*
X764576Y31304D01*
X764616Y31271D01*
X764683Y31245D01*
X764746Y31211D01*
X764797Y31202D01*
X764845Y31183D01*
X764917Y31180D01*
X764988Y31167D01*
X765039Y31175D01*
X765091Y31172D01*
X765160Y31192D01*
X765231Y31203D01*
X765277Y31227D01*
X765327Y31241D01*
X765386Y31282D01*
X765450Y31314D01*
X765487Y31352D01*
X765529Y31381D01*
X765572Y31439D01*
X765622Y31490D01*
X765657Y31553D01*
X765676Y31579D01*
X765683Y31601D01*
X765703Y31637D01*
X767001Y34769D01*
X770551Y38319D01*
X775190Y40241D01*
X780210Y40241D01*
X784849Y38319D01*
X788399Y34769D01*
X789697Y31637D01*
X789735Y31576D01*
X789764Y31511D01*
X789799Y31472D01*
X789826Y31428D01*
X789882Y31382D01*
X789930Y31329D01*
X789976Y31304D01*
X790016Y31271D01*
X790083Y31245D01*
X790146Y31211D01*
X790197Y31202D01*
X790245Y31183D01*
X790317Y31180D01*
X790388Y31167D01*
X790439Y31175D01*
X790491Y31172D01*
X790560Y31192D01*
X790631Y31203D01*
X790677Y31227D01*
X790727Y31241D01*
X790786Y31282D01*
X790850Y31314D01*
X790887Y31352D01*
X790929Y31381D01*
X790972Y31439D01*
X791022Y31490D01*
X791057Y31553D01*
X791076Y31579D01*
X791083Y31601D01*
X791103Y31637D01*
X792401Y34769D01*
X795951Y38319D01*
X800590Y40241D01*
X805610Y40241D01*
X810249Y38319D01*
X813799Y34769D01*
X815721Y30130D01*
X815721Y9870D01*
X813799Y5231D01*
X812369Y3800D01*
X812327Y3742D01*
X812277Y3690D01*
X812256Y3643D01*
X812225Y3601D01*
X812204Y3532D01*
X812174Y3467D01*
X812168Y3415D01*
X812153Y3365D01*
X812155Y3294D01*
X812147Y3223D01*
X812158Y3172D01*
X812159Y3120D01*
X812184Y3052D01*
X812199Y2982D01*
X812226Y2937D01*
X812244Y2889D01*
X812288Y2833D01*
X812325Y2771D01*
X812365Y2737D01*
X812397Y2697D01*
X812458Y2658D01*
X812512Y2611D01*
X812560Y2592D01*
X812604Y2564D01*
X812674Y2546D01*
X812740Y2519D01*
X812812Y2511D01*
X812843Y2503D01*
X812866Y2505D01*
X812907Y2501D01*
X996738Y2501D01*
X996758Y2504D01*
X996777Y2502D01*
X996879Y2524D01*
X996981Y2540D01*
X996998Y2550D01*
X997018Y2554D01*
X997107Y2607D01*
X997198Y2656D01*
X997212Y2670D01*
X997229Y2680D01*
X997296Y2759D01*
X997368Y2834D01*
X997376Y2852D01*
X997389Y2867D01*
X997428Y2963D01*
X997471Y3057D01*
X997473Y3077D01*
X997481Y3095D01*
X997499Y3262D01*
X997499Y141738D01*
X997496Y141758D01*
X997498Y141777D01*
X997476Y141879D01*
X997460Y141981D01*
X997450Y141998D01*
X997446Y142018D01*
X997393Y142107D01*
X997344Y142198D01*
X997330Y142212D01*
X997320Y142229D01*
X997241Y142296D01*
X997166Y142368D01*
X997148Y142376D01*
X997133Y142389D01*
X997037Y142428D01*
X996943Y142471D01*
X996923Y142473D01*
X996905Y142481D01*
X996738Y142499D01*
X518664Y142499D01*
X518656Y142498D01*
X518648Y142499D01*
X518534Y142478D01*
X518421Y142460D01*
X518414Y142456D01*
X518406Y142454D01*
X518305Y142398D01*
X518204Y142344D01*
X518198Y142339D01*
X518191Y142335D01*
X518113Y142250D01*
X518034Y142166D01*
X518031Y142159D01*
X518025Y142153D01*
X517979Y142047D01*
X517931Y141943D01*
X517930Y141935D01*
X517926Y141928D01*
X517916Y141813D01*
X517903Y141699D01*
X517905Y141691D01*
X517904Y141683D01*
X517931Y141570D01*
X517956Y141458D01*
X517960Y141451D01*
X517962Y141444D01*
X518023Y141345D01*
X518082Y141247D01*
X518088Y141242D01*
X518092Y141235D01*
X518216Y141122D01*
X519293Y140340D01*
X520420Y139213D01*
X521356Y137924D01*
X522079Y136505D01*
X522572Y134990D01*
X522821Y133417D01*
X522821Y126523D01*
X513462Y126523D01*
X513442Y126520D01*
X513423Y126522D01*
X513321Y126500D01*
X513219Y126483D01*
X513202Y126474D01*
X513182Y126470D01*
X513093Y126417D01*
X513002Y126368D01*
X512988Y126354D01*
X512971Y126344D01*
X512904Y126265D01*
X512833Y126190D01*
X512824Y126172D01*
X512811Y126157D01*
X512773Y126061D01*
X512729Y125967D01*
X512727Y125947D01*
X512719Y125929D01*
X512701Y125762D01*
X512701Y124999D01*
X512699Y124999D01*
X512699Y125762D01*
X512696Y125782D01*
X512698Y125801D01*
X512676Y125903D01*
X512659Y126005D01*
X512650Y126022D01*
X512646Y126042D01*
X512593Y126131D01*
X512544Y126222D01*
X512530Y126236D01*
X512520Y126253D01*
X512441Y126320D01*
X512366Y126391D01*
X512348Y126400D01*
X512333Y126413D01*
X512237Y126452D01*
X512143Y126495D01*
X512123Y126497D01*
X512105Y126505D01*
X511938Y126523D01*
X502579Y126523D01*
X502579Y133417D01*
X502828Y134990D01*
X503321Y136505D01*
X504044Y137924D01*
X504980Y139213D01*
X506107Y140340D01*
X507184Y141122D01*
X507189Y141128D01*
X507196Y141132D01*
X507275Y141215D01*
X507357Y141297D01*
X507360Y141304D01*
X507366Y141310D01*
X507414Y141414D01*
X507465Y141518D01*
X507466Y141526D01*
X507469Y141533D01*
X507482Y141647D01*
X507497Y141762D01*
X507496Y141770D01*
X507497Y141777D01*
X507472Y141890D01*
X507450Y142003D01*
X507446Y142010D01*
X507444Y142018D01*
X507385Y142117D01*
X507328Y142217D01*
X507322Y142222D01*
X507318Y142229D01*
X507230Y142304D01*
X507145Y142381D01*
X507137Y142384D01*
X507131Y142389D01*
X507024Y142432D01*
X506918Y142477D01*
X506911Y142478D01*
X506903Y142481D01*
X506736Y142499D01*
X493264Y142499D01*
X493256Y142498D01*
X493248Y142499D01*
X493134Y142478D01*
X493021Y142460D01*
X493014Y142456D01*
X493006Y142454D01*
X492905Y142398D01*
X492804Y142344D01*
X492798Y142339D01*
X492791Y142335D01*
X492713Y142250D01*
X492634Y142166D01*
X492631Y142159D01*
X492625Y142153D01*
X492579Y142047D01*
X492531Y141943D01*
X492530Y141935D01*
X492526Y141928D01*
X492516Y141813D01*
X492503Y141699D01*
X492505Y141691D01*
X492504Y141683D01*
X492531Y141570D01*
X492556Y141458D01*
X492560Y141451D01*
X492562Y141444D01*
X492623Y141345D01*
X492682Y141247D01*
X492688Y141242D01*
X492692Y141235D01*
X492816Y141122D01*
X493893Y140340D01*
X495020Y139213D01*
X495956Y137924D01*
X496679Y136505D01*
X497172Y134990D01*
X497421Y133417D01*
X497421Y126523D01*
X488062Y126523D01*
X488042Y126520D01*
X488023Y126522D01*
X487921Y126500D01*
X487819Y126483D01*
X487802Y126474D01*
X487782Y126470D01*
X487693Y126417D01*
X487602Y126368D01*
X487588Y126354D01*
X487571Y126344D01*
X487504Y126265D01*
X487433Y126190D01*
X487424Y126172D01*
X487411Y126157D01*
X487373Y126061D01*
X487329Y125967D01*
X487327Y125947D01*
X487319Y125929D01*
X487301Y125762D01*
X487301Y124999D01*
X487299Y124999D01*
X487299Y125762D01*
X487296Y125782D01*
X487298Y125801D01*
X487276Y125903D01*
X487259Y126005D01*
X487250Y126022D01*
X487246Y126042D01*
X487193Y126131D01*
X487144Y126222D01*
X487130Y126236D01*
X487120Y126253D01*
X487041Y126320D01*
X486966Y126391D01*
X486948Y126400D01*
X486933Y126413D01*
X486837Y126452D01*
X486743Y126495D01*
X486723Y126497D01*
X486705Y126505D01*
X486538Y126523D01*
X477179Y126523D01*
X477179Y133417D01*
X477428Y134990D01*
X477921Y136505D01*
X478644Y137924D01*
X479580Y139213D01*
X480707Y140340D01*
X481784Y141122D01*
X481789Y141128D01*
X481796Y141132D01*
X481875Y141215D01*
X481957Y141297D01*
X481960Y141304D01*
X481966Y141310D01*
X482014Y141414D01*
X482065Y141518D01*
X482066Y141526D01*
X482069Y141533D01*
X482082Y141647D01*
X482097Y141762D01*
X482096Y141770D01*
X482097Y141777D01*
X482072Y141890D01*
X482050Y142003D01*
X482046Y142010D01*
X482044Y142018D01*
X481985Y142117D01*
X481928Y142217D01*
X481922Y142222D01*
X481918Y142229D01*
X481830Y142304D01*
X481745Y142381D01*
X481737Y142384D01*
X481731Y142389D01*
X481624Y142432D01*
X481518Y142477D01*
X481511Y142478D01*
X481503Y142481D01*
X481336Y142499D01*
X3262Y142499D01*
X3242Y142496D01*
X3223Y142498D01*
X3121Y142476D01*
X3019Y142460D01*
X3002Y142450D01*
X2982Y142446D01*
X2893Y142393D01*
X2802Y142344D01*
X2788Y142330D01*
X2771Y142320D01*
X2704Y142241D01*
X2632Y142166D01*
X2624Y142148D01*
X2611Y142133D01*
X2572Y142037D01*
X2529Y141943D01*
X2527Y141923D01*
X2519Y141905D01*
X2501Y141738D01*
X2501Y3262D01*
X2504Y3242D01*
X2502Y3223D01*
X2524Y3121D01*
X2540Y3019D01*
X2550Y3002D01*
X2554Y2982D01*
X2607Y2893D01*
X2656Y2802D01*
X2670Y2788D01*
X2680Y2771D01*
X2759Y2704D01*
X2834Y2632D01*
X2852Y2624D01*
X2867Y2611D01*
X2963Y2572D01*
X3057Y2529D01*
X3077Y2527D01*
X3095Y2519D01*
X3262Y2501D01*
X187093Y2501D01*
X187164Y2512D01*
G37*
%LPC*%
G36*
X878522Y99489D02*
X878522Y99489D01*
X871170Y102534D01*
X865544Y108160D01*
X862499Y115512D01*
X862499Y123468D01*
X865544Y130820D01*
X871170Y136446D01*
X878522Y139491D01*
X916478Y139491D01*
X923830Y136446D01*
X929456Y130820D01*
X932501Y123468D01*
X932501Y115512D01*
X929456Y108160D01*
X923830Y102534D01*
X916478Y99489D01*
X878522Y99489D01*
G37*
%LPD*%
%LPC*%
G36*
X613522Y99489D02*
X613522Y99489D01*
X606170Y102534D01*
X600544Y108160D01*
X597499Y115512D01*
X597499Y123468D01*
X600544Y130820D01*
X606170Y136446D01*
X613522Y139491D01*
X651478Y139491D01*
X658830Y136446D01*
X664456Y130820D01*
X667501Y123468D01*
X667501Y115512D01*
X664456Y108160D01*
X658830Y102534D01*
X651478Y99489D01*
X613522Y99489D01*
G37*
%LPD*%
%LPC*%
G36*
X348522Y99489D02*
X348522Y99489D01*
X341170Y102534D01*
X335544Y108160D01*
X332499Y115512D01*
X332499Y123468D01*
X335544Y130820D01*
X341170Y136446D01*
X348522Y139491D01*
X386478Y139491D01*
X393830Y136446D01*
X399456Y130820D01*
X402501Y123468D01*
X402501Y115512D01*
X399456Y108160D01*
X393830Y102534D01*
X386478Y99489D01*
X348522Y99489D01*
G37*
%LPD*%
%LPC*%
G36*
X83522Y99489D02*
X83522Y99489D01*
X76170Y102534D01*
X70544Y108160D01*
X67499Y115512D01*
X67499Y123468D01*
X70544Y130820D01*
X76170Y136446D01*
X83522Y139491D01*
X121478Y139491D01*
X128830Y136446D01*
X134456Y130820D01*
X137501Y123468D01*
X137501Y115512D01*
X134456Y108160D01*
X128830Y102534D01*
X121478Y99489D01*
X83522Y99489D01*
G37*
%LPD*%
%LPC*%
G36*
X348522Y5509D02*
X348522Y5509D01*
X341170Y8554D01*
X335544Y14180D01*
X332499Y21532D01*
X332499Y29488D01*
X335544Y36840D01*
X341170Y42466D01*
X348522Y45511D01*
X386478Y45511D01*
X393830Y42466D01*
X399456Y36840D01*
X402501Y29488D01*
X402501Y21532D01*
X399456Y14180D01*
X393830Y8554D01*
X386478Y5509D01*
X348522Y5509D01*
G37*
%LPD*%
%LPC*%
G36*
X83522Y5509D02*
X83522Y5509D01*
X76170Y8554D01*
X70544Y14180D01*
X67499Y21532D01*
X67499Y29488D01*
X70544Y36840D01*
X76170Y42466D01*
X83522Y45511D01*
X121478Y45511D01*
X128830Y42466D01*
X134456Y36840D01*
X137501Y29488D01*
X137501Y21532D01*
X134456Y14180D01*
X128830Y8554D01*
X121478Y5509D01*
X83522Y5509D01*
G37*
%LPD*%
%LPC*%
G36*
X878522Y5509D02*
X878522Y5509D01*
X871170Y8554D01*
X865544Y14180D01*
X862499Y21532D01*
X862499Y29488D01*
X865544Y36840D01*
X871170Y42466D01*
X878522Y45511D01*
X916478Y45511D01*
X923830Y42466D01*
X929456Y36840D01*
X932501Y29488D01*
X932501Y21532D01*
X929456Y14180D01*
X923830Y8554D01*
X916478Y5509D01*
X878522Y5509D01*
G37*
%LPD*%
%LPC*%
G36*
X613522Y5509D02*
X613522Y5509D01*
X606170Y8554D01*
X600544Y14180D01*
X597499Y21532D01*
X597499Y29488D01*
X600544Y36840D01*
X606170Y42466D01*
X613522Y45511D01*
X651478Y45511D01*
X658830Y42466D01*
X664456Y36840D01*
X667501Y29488D01*
X667501Y21532D01*
X664456Y14180D01*
X658830Y8554D01*
X651478Y5509D01*
X613522Y5509D01*
G37*
%LPD*%
%LPC*%
G36*
X966519Y97499D02*
X966519Y97499D01*
X960087Y100164D01*
X955164Y105087D01*
X952499Y111519D01*
X952499Y118481D01*
X955164Y124913D01*
X960087Y129836D01*
X966519Y132501D01*
X973481Y132501D01*
X979913Y129836D01*
X984836Y124913D01*
X987501Y118481D01*
X987501Y111519D01*
X984836Y105087D01*
X979913Y100164D01*
X973481Y97499D01*
X966519Y97499D01*
G37*
%LPD*%
%LPC*%
G36*
X26519Y97499D02*
X26519Y97499D01*
X20087Y100164D01*
X15164Y105087D01*
X12499Y111519D01*
X12499Y118481D01*
X15164Y124913D01*
X20087Y129836D01*
X26519Y132501D01*
X33481Y132501D01*
X39913Y129836D01*
X44836Y124913D01*
X47501Y118481D01*
X47501Y111519D01*
X44836Y105087D01*
X39913Y100164D01*
X33481Y97499D01*
X26519Y97499D01*
G37*
%LPD*%
%LPC*%
G36*
X966519Y12499D02*
X966519Y12499D01*
X960087Y15164D01*
X955164Y20087D01*
X952499Y26519D01*
X952499Y33481D01*
X955164Y39913D01*
X960087Y44836D01*
X966519Y47501D01*
X973481Y47501D01*
X979913Y44836D01*
X984836Y39913D01*
X987501Y33481D01*
X987501Y26519D01*
X984836Y20087D01*
X979913Y15164D01*
X973481Y12499D01*
X966519Y12499D01*
G37*
%LPD*%
%LPC*%
G36*
X26519Y12499D02*
X26519Y12499D01*
X20087Y15164D01*
X15164Y20087D01*
X12499Y26519D01*
X12499Y33481D01*
X15164Y39913D01*
X20087Y44836D01*
X26519Y47501D01*
X33481Y47501D01*
X39913Y44836D01*
X44836Y39913D01*
X47501Y33481D01*
X47501Y26519D01*
X44836Y20087D01*
X39913Y15164D01*
X33481Y12499D01*
X26519Y12499D01*
G37*
%LPD*%
%LPC*%
G36*
X104023Y74023D02*
X104023Y74023D01*
X104023Y90001D01*
X118647Y90001D01*
X120922Y89701D01*
X123137Y89108D01*
X125257Y88230D01*
X127244Y87083D01*
X129064Y85686D01*
X130686Y84064D01*
X132083Y82244D01*
X133230Y80257D01*
X134108Y78137D01*
X134701Y75922D01*
X134951Y74023D01*
X104023Y74023D01*
G37*
%LPD*%
%LPC*%
G36*
X369023Y74023D02*
X369023Y74023D01*
X369023Y90001D01*
X383647Y90001D01*
X385922Y89701D01*
X388137Y89108D01*
X390257Y88230D01*
X392244Y87083D01*
X394064Y85686D01*
X395686Y84064D01*
X397083Y82244D01*
X398230Y80257D01*
X399108Y78137D01*
X399701Y75922D01*
X399951Y74023D01*
X369023Y74023D01*
G37*
%LPD*%
%LPC*%
G36*
X634023Y74023D02*
X634023Y74023D01*
X634023Y90001D01*
X648647Y90001D01*
X650922Y89701D01*
X653137Y89108D01*
X655257Y88230D01*
X657244Y87083D01*
X659064Y85686D01*
X660686Y84064D01*
X662083Y82244D01*
X663230Y80257D01*
X664108Y78137D01*
X664701Y75922D01*
X664951Y74023D01*
X634023Y74023D01*
G37*
%LPD*%
%LPC*%
G36*
X899023Y74023D02*
X899023Y74023D01*
X899023Y90001D01*
X913647Y90001D01*
X915922Y89701D01*
X918137Y89108D01*
X920257Y88230D01*
X922244Y87083D01*
X924064Y85686D01*
X925686Y84064D01*
X927083Y82244D01*
X928230Y80257D01*
X929108Y78137D01*
X929701Y75922D01*
X929951Y74023D01*
X899023Y74023D01*
G37*
%LPD*%
%LPC*%
G36*
X865049Y74023D02*
X865049Y74023D01*
X865299Y75922D01*
X865892Y78137D01*
X866770Y80257D01*
X867917Y82244D01*
X869314Y84064D01*
X870936Y85686D01*
X872756Y87083D01*
X874743Y88230D01*
X876863Y89108D01*
X879078Y89701D01*
X881353Y90001D01*
X895977Y90001D01*
X895977Y74023D01*
X865049Y74023D01*
G37*
%LPD*%
%LPC*%
G36*
X600049Y74023D02*
X600049Y74023D01*
X600299Y75922D01*
X600892Y78137D01*
X601770Y80257D01*
X602917Y82244D01*
X604314Y84064D01*
X605936Y85686D01*
X607756Y87083D01*
X609743Y88230D01*
X611863Y89108D01*
X614078Y89701D01*
X616353Y90001D01*
X630977Y90001D01*
X630977Y74023D01*
X600049Y74023D01*
G37*
%LPD*%
%LPC*%
G36*
X335049Y74023D02*
X335049Y74023D01*
X335299Y75922D01*
X335892Y78137D01*
X336770Y80257D01*
X337917Y82244D01*
X339314Y84064D01*
X340936Y85686D01*
X342756Y87083D01*
X344743Y88230D01*
X346863Y89108D01*
X349078Y89701D01*
X351353Y90001D01*
X365977Y90001D01*
X365977Y74023D01*
X335049Y74023D01*
G37*
%LPD*%
%LPC*%
G36*
X70049Y74023D02*
X70049Y74023D01*
X70299Y75922D01*
X70892Y78137D01*
X71770Y80257D01*
X72917Y82244D01*
X74314Y84064D01*
X75936Y85686D01*
X77756Y87083D01*
X79743Y88230D01*
X81863Y89108D01*
X84078Y89701D01*
X86353Y90001D01*
X100977Y90001D01*
X100977Y74023D01*
X70049Y74023D01*
G37*
%LPD*%
%LPC*%
G36*
X104023Y54999D02*
X104023Y54999D01*
X104023Y70977D01*
X134951Y70977D01*
X134701Y69078D01*
X134108Y66863D01*
X133230Y64743D01*
X132083Y62756D01*
X130686Y60936D01*
X129064Y59314D01*
X127244Y57917D01*
X125257Y56770D01*
X123137Y55892D01*
X120922Y55299D01*
X118647Y54999D01*
X104023Y54999D01*
G37*
%LPD*%
%LPC*%
G36*
X899023Y54999D02*
X899023Y54999D01*
X899023Y70977D01*
X929951Y70977D01*
X929701Y69078D01*
X929108Y66863D01*
X928230Y64743D01*
X927083Y62756D01*
X925686Y60936D01*
X924064Y59314D01*
X922244Y57917D01*
X920257Y56770D01*
X918137Y55892D01*
X915922Y55299D01*
X913647Y54999D01*
X899023Y54999D01*
G37*
%LPD*%
%LPC*%
G36*
X634023Y54999D02*
X634023Y54999D01*
X634023Y70977D01*
X664951Y70977D01*
X664701Y69078D01*
X664108Y66863D01*
X663230Y64743D01*
X662083Y62756D01*
X660686Y60936D01*
X659064Y59314D01*
X657244Y57917D01*
X655257Y56770D01*
X653137Y55892D01*
X650922Y55299D01*
X648647Y54999D01*
X634023Y54999D01*
G37*
%LPD*%
%LPC*%
G36*
X369023Y54999D02*
X369023Y54999D01*
X369023Y70977D01*
X399951Y70977D01*
X399701Y69078D01*
X399108Y66863D01*
X398230Y64743D01*
X397083Y62756D01*
X395686Y60936D01*
X394064Y59314D01*
X392244Y57917D01*
X390257Y56770D01*
X388137Y55892D01*
X385922Y55299D01*
X383647Y54999D01*
X369023Y54999D01*
G37*
%LPD*%
%LPC*%
G36*
X351353Y54999D02*
X351353Y54999D01*
X349078Y55299D01*
X346863Y55892D01*
X344743Y56770D01*
X342756Y57917D01*
X340936Y59314D01*
X339314Y60936D01*
X337917Y62756D01*
X336770Y64743D01*
X335892Y66863D01*
X335299Y69078D01*
X335049Y70977D01*
X365977Y70977D01*
X365977Y54999D01*
X351353Y54999D01*
G37*
%LPD*%
%LPC*%
G36*
X881353Y54999D02*
X881353Y54999D01*
X879078Y55299D01*
X876863Y55892D01*
X874743Y56770D01*
X872756Y57917D01*
X870936Y59314D01*
X869314Y60936D01*
X867917Y62756D01*
X866770Y64743D01*
X865892Y66863D01*
X865299Y69078D01*
X865049Y70977D01*
X895977Y70977D01*
X895977Y54999D01*
X881353Y54999D01*
G37*
%LPD*%
%LPC*%
G36*
X616353Y54999D02*
X616353Y54999D01*
X614078Y55299D01*
X611863Y55892D01*
X609743Y56770D01*
X607756Y57917D01*
X605936Y59314D01*
X604314Y60936D01*
X602917Y62756D01*
X601770Y64743D01*
X600892Y66863D01*
X600299Y69078D01*
X600049Y70977D01*
X630977Y70977D01*
X630977Y54999D01*
X616353Y54999D01*
G37*
%LPD*%
%LPC*%
G36*
X86353Y54999D02*
X86353Y54999D01*
X84078Y55299D01*
X81863Y55892D01*
X79743Y56770D01*
X77756Y57917D01*
X75936Y59314D01*
X74314Y60936D01*
X72917Y62756D01*
X71770Y64743D01*
X70892Y66863D01*
X70299Y69078D01*
X70049Y70977D01*
X100977Y70977D01*
X100977Y54999D01*
X86353Y54999D01*
G37*
%LPD*%
%LPC*%
G36*
X514223Y123477D02*
X514223Y123477D01*
X522821Y123477D01*
X522821Y116583D01*
X522572Y115010D01*
X522079Y113495D01*
X521356Y112076D01*
X520420Y110787D01*
X519293Y109660D01*
X518004Y108724D01*
X516585Y108001D01*
X515070Y107508D01*
X514223Y107374D01*
X514223Y123477D01*
G37*
%LPD*%
%LPC*%
G36*
X488823Y123477D02*
X488823Y123477D01*
X497421Y123477D01*
X497421Y116583D01*
X497172Y115010D01*
X496679Y113495D01*
X495956Y112076D01*
X495020Y110787D01*
X493893Y109660D01*
X492604Y108724D01*
X491185Y108001D01*
X489670Y107508D01*
X488823Y107374D01*
X488823Y123477D01*
G37*
%LPD*%
%LPC*%
G36*
X510330Y107508D02*
X510330Y107508D01*
X508815Y108001D01*
X507396Y108724D01*
X506107Y109660D01*
X504980Y110787D01*
X504044Y112076D01*
X503321Y113495D01*
X502828Y115010D01*
X502579Y116583D01*
X502579Y123477D01*
X511177Y123477D01*
X511177Y107374D01*
X510330Y107508D01*
G37*
%LPD*%
%LPC*%
G36*
X484930Y107508D02*
X484930Y107508D01*
X483415Y108001D01*
X481996Y108724D01*
X480707Y109660D01*
X479580Y110787D01*
X478644Y112076D01*
X477921Y113495D01*
X477428Y115010D01*
X477179Y116583D01*
X477179Y123477D01*
X485777Y123477D01*
X485777Y107374D01*
X484930Y107508D01*
G37*
%LPD*%
%LPC*%
G36*
X102499Y72499D02*
X102499Y72499D01*
X102499Y72501D01*
X102501Y72501D01*
X102501Y72499D01*
X102499Y72499D01*
G37*
%LPD*%
%LPC*%
G36*
X897499Y72499D02*
X897499Y72499D01*
X897499Y72501D01*
X897501Y72501D01*
X897501Y72499D01*
X897499Y72499D01*
G37*
%LPD*%
%LPC*%
G36*
X632499Y72499D02*
X632499Y72499D01*
X632499Y72501D01*
X632501Y72501D01*
X632501Y72499D01*
X632499Y72499D01*
G37*
%LPD*%
%LPC*%
G36*
X367499Y72499D02*
X367499Y72499D01*
X367499Y72501D01*
X367501Y72501D01*
X367501Y72499D01*
X367499Y72499D01*
G37*
%LPD*%
D10*
X196900Y12380D02*
X196900Y27620D01*
X222300Y27620D02*
X222300Y12380D01*
X247700Y12380D02*
X247700Y27620D01*
X273100Y27620D02*
X273100Y12380D01*
X726900Y12380D02*
X726900Y27620D01*
X752300Y27620D02*
X752300Y12380D01*
X777700Y12380D02*
X777700Y27620D01*
X803100Y27620D02*
X803100Y12380D01*
X487300Y117380D02*
X487300Y132620D01*
X512700Y132620D02*
X512700Y117380D01*
D11*
X117500Y119490D02*
X87500Y119490D01*
X87500Y72500D02*
X117500Y72500D01*
X117500Y25510D02*
X87500Y25510D01*
X352500Y25510D02*
X382500Y25510D01*
X382500Y72500D02*
X352500Y72500D01*
X352500Y119490D02*
X382500Y119490D01*
X617500Y119490D02*
X647500Y119490D01*
X647500Y72500D02*
X617500Y72500D01*
X617500Y25510D02*
X647500Y25510D01*
X882500Y25510D02*
X912500Y25510D01*
X912500Y72500D02*
X882500Y72500D01*
X882500Y119490D02*
X912500Y119490D01*
M02*
