G04 EAGLE Gerber RS-274X export*
G75*
%MOMM*%
%FSLAX34Y34*%
%LPD*%
%INTop Copper*%
%IPPOS*%
%AMOC8*
5,1,8,0,0,1.08239X$1,22.5*%
G01*
%ADD10C,1.524000*%
%ADD11C,3.000000*%
%ADD12C,0.250000*%

G36*
X187164Y2512D02*
X187164Y2512D01*
X187235Y2514D01*
X187284Y2532D01*
X187336Y2540D01*
X187399Y2574D01*
X187466Y2599D01*
X187507Y2631D01*
X187553Y2656D01*
X187603Y2708D01*
X187659Y2752D01*
X187687Y2796D01*
X187723Y2834D01*
X187753Y2899D01*
X187792Y2959D01*
X187804Y3010D01*
X187826Y3057D01*
X187834Y3128D01*
X187852Y3198D01*
X187848Y3250D01*
X187853Y3301D01*
X187838Y3372D01*
X187832Y3443D01*
X187812Y3491D01*
X187801Y3542D01*
X187764Y3603D01*
X187736Y3669D01*
X187691Y3725D01*
X187675Y3753D01*
X187657Y3768D01*
X187631Y3800D01*
X186201Y5231D01*
X184279Y9870D01*
X184279Y17113D01*
X184276Y17133D01*
X184278Y17152D01*
X184256Y17254D01*
X184240Y17356D01*
X184230Y17373D01*
X184226Y17393D01*
X184173Y17482D01*
X184124Y17573D01*
X184110Y17587D01*
X184100Y17604D01*
X184021Y17671D01*
X183946Y17743D01*
X183928Y17751D01*
X183913Y17764D01*
X183817Y17803D01*
X183723Y17846D01*
X183703Y17848D01*
X183685Y17856D01*
X183518Y17874D01*
X143443Y17874D01*
X138800Y22517D01*
X138742Y22559D01*
X138690Y22608D01*
X138643Y22630D01*
X138601Y22660D01*
X138532Y22681D01*
X138467Y22712D01*
X138415Y22717D01*
X138365Y22733D01*
X138294Y22731D01*
X138223Y22739D01*
X138172Y22728D01*
X138120Y22726D01*
X138052Y22702D01*
X137982Y22686D01*
X137937Y22660D01*
X137889Y22642D01*
X137833Y22597D01*
X137771Y22560D01*
X137737Y22521D01*
X137697Y22488D01*
X137658Y22428D01*
X137611Y22373D01*
X137592Y22325D01*
X137564Y22281D01*
X137546Y22212D01*
X137519Y22145D01*
X137511Y22074D01*
X137503Y22043D01*
X137505Y22019D01*
X137501Y21978D01*
X137501Y21532D01*
X134456Y14180D01*
X128830Y8554D01*
X121478Y5509D01*
X83522Y5509D01*
X76170Y8554D01*
X70544Y14180D01*
X67499Y21532D01*
X67499Y29488D01*
X70544Y36840D01*
X76170Y42466D01*
X83522Y45511D01*
X121478Y45511D01*
X128830Y42466D01*
X134456Y36840D01*
X137501Y29488D01*
X137501Y28387D01*
X137504Y28367D01*
X137502Y28348D01*
X137524Y28246D01*
X137540Y28144D01*
X137550Y28127D01*
X137554Y28107D01*
X137607Y28018D01*
X137656Y27927D01*
X137670Y27913D01*
X137680Y27896D01*
X137759Y27829D01*
X137834Y27757D01*
X137852Y27749D01*
X137867Y27736D01*
X137963Y27697D01*
X138057Y27654D01*
X138077Y27652D01*
X138095Y27644D01*
X138262Y27626D01*
X140057Y27626D01*
X145084Y22599D01*
X145158Y22546D01*
X145228Y22486D01*
X145258Y22474D01*
X145284Y22455D01*
X145371Y22428D01*
X145456Y22394D01*
X145497Y22390D01*
X145519Y22383D01*
X145551Y22384D01*
X145623Y22376D01*
X183518Y22376D01*
X183538Y22379D01*
X183557Y22377D01*
X183659Y22399D01*
X183761Y22415D01*
X183778Y22425D01*
X183798Y22429D01*
X183887Y22482D01*
X183978Y22531D01*
X183992Y22545D01*
X184009Y22555D01*
X184076Y22634D01*
X184148Y22709D01*
X184156Y22727D01*
X184169Y22742D01*
X184208Y22838D01*
X184251Y22932D01*
X184253Y22952D01*
X184261Y22970D01*
X184279Y23137D01*
X184279Y30130D01*
X186201Y34769D01*
X189751Y38319D01*
X194390Y40241D01*
X199410Y40241D01*
X204049Y38319D01*
X207599Y34769D01*
X208897Y31637D01*
X208935Y31576D01*
X208964Y31511D01*
X208999Y31472D01*
X209026Y31428D01*
X209082Y31382D01*
X209130Y31329D01*
X209176Y31304D01*
X209216Y31271D01*
X209283Y31245D01*
X209346Y31211D01*
X209397Y31202D01*
X209445Y31183D01*
X209517Y31180D01*
X209588Y31167D01*
X209639Y31175D01*
X209691Y31172D01*
X209760Y31192D01*
X209831Y31203D01*
X209877Y31227D01*
X209927Y31241D01*
X209986Y31282D01*
X210050Y31314D01*
X210087Y31352D01*
X210129Y31381D01*
X210172Y31439D01*
X210222Y31490D01*
X210257Y31553D01*
X210276Y31579D01*
X210283Y31601D01*
X210303Y31637D01*
X211354Y34173D01*
X211381Y34287D01*
X211409Y34401D01*
X211409Y34407D01*
X211410Y34413D01*
X211401Y34504D01*
X211402Y34513D01*
X211399Y34526D01*
X211399Y34530D01*
X211390Y34646D01*
X211388Y34651D01*
X211387Y34658D01*
X211355Y34729D01*
X211350Y34753D01*
X211330Y34786D01*
X211294Y34872D01*
X211289Y34878D01*
X211287Y34883D01*
X211274Y34896D01*
X211236Y34945D01*
X211224Y34964D01*
X211212Y34975D01*
X211189Y35003D01*
X136309Y109883D01*
X136271Y109910D01*
X136240Y109944D01*
X136172Y109981D01*
X136109Y110027D01*
X136065Y110040D01*
X136025Y110062D01*
X135948Y110076D01*
X135874Y110099D01*
X135828Y110098D01*
X135783Y110106D01*
X135706Y110095D01*
X135628Y110093D01*
X135585Y110077D01*
X135539Y110070D01*
X135470Y110035D01*
X135397Y110008D01*
X135361Y109980D01*
X135320Y109959D01*
X135266Y109903D01*
X135205Y109855D01*
X135180Y109816D01*
X135148Y109783D01*
X135082Y109663D01*
X135072Y109648D01*
X135071Y109643D01*
X135067Y109636D01*
X134456Y108160D01*
X128830Y102534D01*
X121478Y99489D01*
X83522Y99489D01*
X76170Y102534D01*
X70544Y108160D01*
X67499Y115512D01*
X67499Y123468D01*
X70544Y130820D01*
X76170Y136446D01*
X83522Y139491D01*
X121478Y139491D01*
X128830Y136446D01*
X134456Y130820D01*
X137501Y123468D01*
X137501Y115373D01*
X137515Y115283D01*
X137523Y115192D01*
X137535Y115162D01*
X137540Y115130D01*
X137583Y115049D01*
X137619Y114965D01*
X137645Y114933D01*
X137656Y114912D01*
X137679Y114890D01*
X137724Y114834D01*
X214157Y38401D01*
X214173Y38390D01*
X214185Y38374D01*
X214273Y38318D01*
X214356Y38258D01*
X214375Y38252D01*
X214392Y38241D01*
X214493Y38216D01*
X214591Y38186D01*
X214612Y38186D01*
X214631Y38181D01*
X214734Y38189D01*
X214837Y38192D01*
X214856Y38199D01*
X214876Y38200D01*
X214971Y38241D01*
X215068Y38276D01*
X215084Y38289D01*
X215103Y38297D01*
X215109Y38302D01*
X219790Y40241D01*
X224810Y40241D01*
X229449Y38319D01*
X232999Y34769D01*
X234297Y31637D01*
X234335Y31576D01*
X234364Y31511D01*
X234399Y31472D01*
X234426Y31428D01*
X234482Y31382D01*
X234530Y31329D01*
X234576Y31304D01*
X234616Y31271D01*
X234683Y31245D01*
X234746Y31211D01*
X234797Y31202D01*
X234845Y31183D01*
X234917Y31180D01*
X234988Y31167D01*
X235039Y31175D01*
X235091Y31172D01*
X235160Y31192D01*
X235231Y31203D01*
X235277Y31227D01*
X235327Y31241D01*
X235386Y31282D01*
X235450Y31314D01*
X235487Y31352D01*
X235529Y31381D01*
X235572Y31439D01*
X235622Y31490D01*
X235657Y31553D01*
X235676Y31579D01*
X235683Y31601D01*
X235703Y31637D01*
X237001Y34769D01*
X240551Y38319D01*
X245190Y40241D01*
X250210Y40241D01*
X254936Y38283D01*
X255049Y38257D01*
X255163Y38228D01*
X255169Y38229D01*
X255175Y38227D01*
X255292Y38238D01*
X255408Y38247D01*
X255414Y38250D01*
X255420Y38250D01*
X255528Y38298D01*
X255634Y38344D01*
X255640Y38348D01*
X255645Y38350D01*
X255659Y38363D01*
X255765Y38448D01*
X332276Y114959D01*
X332329Y115033D01*
X332389Y115103D01*
X332401Y115133D01*
X332420Y115159D01*
X332447Y115246D01*
X332481Y115331D01*
X332485Y115372D01*
X332492Y115394D01*
X332491Y115426D01*
X332499Y115498D01*
X332499Y123468D01*
X335544Y130820D01*
X341170Y136446D01*
X348522Y139491D01*
X386478Y139491D01*
X393830Y136446D01*
X399456Y130820D01*
X402501Y123468D01*
X402501Y115512D01*
X399456Y108160D01*
X393830Y102534D01*
X386478Y99489D01*
X348522Y99489D01*
X341170Y102534D01*
X335544Y108160D01*
X334896Y109725D01*
X334872Y109764D01*
X334856Y109807D01*
X334808Y109868D01*
X334767Y109934D01*
X334731Y109963D01*
X334703Y109999D01*
X334637Y110041D01*
X334577Y110091D01*
X334534Y110107D01*
X334496Y110132D01*
X334420Y110151D01*
X334348Y110179D01*
X334302Y110181D01*
X334257Y110192D01*
X334180Y110186D01*
X334102Y110189D01*
X334058Y110176D01*
X334012Y110173D01*
X333940Y110142D01*
X333866Y110121D01*
X333828Y110094D01*
X333786Y110076D01*
X333679Y109991D01*
X333664Y109980D01*
X333661Y109976D01*
X333655Y109972D01*
X258774Y35091D01*
X258707Y34997D01*
X258637Y34903D01*
X258635Y34897D01*
X258631Y34892D01*
X258597Y34781D01*
X258560Y34669D01*
X258560Y34663D01*
X258559Y34657D01*
X258562Y34540D01*
X258563Y34423D01*
X258565Y34416D01*
X258565Y34411D01*
X258571Y34393D01*
X258609Y34262D01*
X259697Y31637D01*
X259735Y31576D01*
X259764Y31511D01*
X259799Y31472D01*
X259826Y31428D01*
X259882Y31382D01*
X259930Y31329D01*
X259976Y31304D01*
X260016Y31271D01*
X260083Y31245D01*
X260146Y31211D01*
X260197Y31202D01*
X260245Y31183D01*
X260317Y31180D01*
X260388Y31167D01*
X260439Y31175D01*
X260491Y31172D01*
X260560Y31192D01*
X260631Y31203D01*
X260677Y31227D01*
X260727Y31241D01*
X260786Y31282D01*
X260850Y31314D01*
X260887Y31352D01*
X260929Y31381D01*
X260972Y31439D01*
X261022Y31490D01*
X261057Y31553D01*
X261076Y31579D01*
X261083Y31601D01*
X261103Y31637D01*
X262401Y34769D01*
X265951Y38319D01*
X270590Y40241D01*
X275610Y40241D01*
X280249Y38319D01*
X283799Y34769D01*
X285721Y30130D01*
X285721Y23137D01*
X285724Y23117D01*
X285722Y23098D01*
X285744Y22996D01*
X285760Y22894D01*
X285770Y22877D01*
X285774Y22857D01*
X285827Y22768D01*
X285876Y22677D01*
X285890Y22663D01*
X285900Y22646D01*
X285979Y22579D01*
X286054Y22507D01*
X286072Y22499D01*
X286087Y22486D01*
X286183Y22447D01*
X286277Y22404D01*
X286297Y22402D01*
X286315Y22394D01*
X286482Y22376D01*
X324252Y22376D01*
X324342Y22390D01*
X324433Y22398D01*
X324463Y22410D01*
X324495Y22415D01*
X324576Y22458D01*
X324660Y22494D01*
X324692Y22520D01*
X324713Y22531D01*
X324735Y22554D01*
X324791Y22599D01*
X330693Y28501D01*
X331738Y28501D01*
X331758Y28504D01*
X331777Y28502D01*
X331879Y28524D01*
X331981Y28540D01*
X331998Y28550D01*
X332018Y28554D01*
X332107Y28607D01*
X332198Y28656D01*
X332212Y28670D01*
X332229Y28680D01*
X332296Y28759D01*
X332368Y28834D01*
X332376Y28852D01*
X332389Y28867D01*
X332428Y28963D01*
X332471Y29057D01*
X332473Y29077D01*
X332481Y29095D01*
X332499Y29262D01*
X332499Y29488D01*
X335544Y36840D01*
X341170Y42466D01*
X348522Y45511D01*
X386478Y45511D01*
X393830Y42466D01*
X399456Y36840D01*
X402501Y29488D01*
X402501Y21532D01*
X399456Y14180D01*
X393830Y8554D01*
X386478Y5509D01*
X348522Y5509D01*
X341170Y8554D01*
X335544Y14180D01*
X332499Y21532D01*
X332499Y22103D01*
X332488Y22174D01*
X332486Y22246D01*
X332468Y22295D01*
X332460Y22346D01*
X332426Y22410D01*
X332401Y22477D01*
X332369Y22518D01*
X332344Y22564D01*
X332292Y22613D01*
X332248Y22669D01*
X332204Y22697D01*
X332166Y22733D01*
X332101Y22763D01*
X332041Y22802D01*
X331990Y22815D01*
X331943Y22837D01*
X331872Y22844D01*
X331802Y22862D01*
X331750Y22858D01*
X331699Y22864D01*
X331628Y22848D01*
X331557Y22843D01*
X331509Y22823D01*
X331458Y22811D01*
X331397Y22775D01*
X331331Y22747D01*
X331275Y22702D01*
X331247Y22685D01*
X331232Y22667D01*
X331200Y22642D01*
X326432Y17874D01*
X286482Y17874D01*
X286462Y17871D01*
X286443Y17873D01*
X286341Y17851D01*
X286239Y17835D01*
X286222Y17825D01*
X286202Y17821D01*
X286113Y17768D01*
X286022Y17719D01*
X286008Y17705D01*
X285991Y17695D01*
X285924Y17616D01*
X285852Y17541D01*
X285844Y17523D01*
X285831Y17508D01*
X285792Y17412D01*
X285749Y17318D01*
X285747Y17298D01*
X285739Y17280D01*
X285721Y17113D01*
X285721Y9870D01*
X283799Y5231D01*
X282369Y3800D01*
X282327Y3742D01*
X282277Y3690D01*
X282256Y3643D01*
X282225Y3601D01*
X282204Y3532D01*
X282174Y3467D01*
X282168Y3415D01*
X282153Y3365D01*
X282155Y3294D01*
X282147Y3223D01*
X282158Y3172D01*
X282159Y3120D01*
X282184Y3052D01*
X282199Y2982D01*
X282226Y2937D01*
X282244Y2889D01*
X282288Y2833D01*
X282325Y2771D01*
X282365Y2737D01*
X282397Y2697D01*
X282458Y2658D01*
X282512Y2611D01*
X282560Y2592D01*
X282604Y2564D01*
X282674Y2546D01*
X282740Y2519D01*
X282812Y2511D01*
X282843Y2503D01*
X282866Y2505D01*
X282907Y2501D01*
X717093Y2501D01*
X717164Y2512D01*
X717235Y2514D01*
X717284Y2532D01*
X717336Y2540D01*
X717399Y2574D01*
X717466Y2599D01*
X717507Y2631D01*
X717553Y2656D01*
X717603Y2708D01*
X717659Y2752D01*
X717687Y2796D01*
X717723Y2834D01*
X717753Y2899D01*
X717792Y2959D01*
X717804Y3010D01*
X717826Y3057D01*
X717834Y3128D01*
X717852Y3198D01*
X717848Y3250D01*
X717853Y3301D01*
X717838Y3372D01*
X717832Y3443D01*
X717812Y3491D01*
X717801Y3542D01*
X717764Y3603D01*
X717736Y3669D01*
X717691Y3725D01*
X717675Y3753D01*
X717657Y3768D01*
X717631Y3800D01*
X716201Y5231D01*
X714279Y9870D01*
X714279Y17113D01*
X714276Y17133D01*
X714278Y17152D01*
X714256Y17254D01*
X714240Y17356D01*
X714230Y17373D01*
X714226Y17393D01*
X714173Y17482D01*
X714124Y17573D01*
X714110Y17587D01*
X714100Y17604D01*
X714021Y17671D01*
X713946Y17743D01*
X713928Y17751D01*
X713913Y17764D01*
X713817Y17803D01*
X713723Y17846D01*
X713703Y17848D01*
X713685Y17856D01*
X713518Y17874D01*
X673693Y17874D01*
X668800Y22767D01*
X668742Y22809D01*
X668690Y22858D01*
X668643Y22880D01*
X668601Y22910D01*
X668532Y22931D01*
X668467Y22962D01*
X668415Y22967D01*
X668365Y22983D01*
X668294Y22981D01*
X668223Y22989D01*
X668172Y22978D01*
X668120Y22976D01*
X668052Y22952D01*
X667982Y22936D01*
X667937Y22910D01*
X667889Y22892D01*
X667833Y22847D01*
X667771Y22810D01*
X667737Y22771D01*
X667697Y22738D01*
X667658Y22678D01*
X667611Y22623D01*
X667592Y22575D01*
X667564Y22531D01*
X667546Y22462D01*
X667519Y22395D01*
X667511Y22324D01*
X667503Y22293D01*
X667505Y22269D01*
X667501Y22228D01*
X667501Y21532D01*
X664456Y14180D01*
X658830Y8554D01*
X651478Y5509D01*
X613522Y5509D01*
X606170Y8554D01*
X600544Y14180D01*
X597499Y21532D01*
X597499Y29488D01*
X600544Y36840D01*
X606170Y42466D01*
X613522Y45511D01*
X651478Y45511D01*
X658830Y42466D01*
X664456Y36840D01*
X667501Y29488D01*
X667501Y29262D01*
X667504Y29242D01*
X667502Y29223D01*
X667524Y29121D01*
X667540Y29019D01*
X667550Y29002D01*
X667554Y28982D01*
X667607Y28893D01*
X667656Y28802D01*
X667670Y28788D01*
X667680Y28771D01*
X667759Y28704D01*
X667834Y28632D01*
X667852Y28624D01*
X667867Y28611D01*
X667963Y28572D01*
X668057Y28529D01*
X668077Y28527D01*
X668095Y28519D01*
X668262Y28501D01*
X669432Y28501D01*
X675334Y22599D01*
X675408Y22546D01*
X675478Y22486D01*
X675508Y22474D01*
X675534Y22455D01*
X675621Y22428D01*
X675706Y22394D01*
X675747Y22390D01*
X675769Y22383D01*
X675801Y22384D01*
X675873Y22376D01*
X713518Y22376D01*
X713538Y22379D01*
X713557Y22377D01*
X713659Y22399D01*
X713761Y22415D01*
X713778Y22425D01*
X713798Y22429D01*
X713887Y22482D01*
X713978Y22531D01*
X713992Y22545D01*
X714009Y22555D01*
X714076Y22634D01*
X714148Y22709D01*
X714156Y22727D01*
X714169Y22742D01*
X714208Y22838D01*
X714251Y22932D01*
X714253Y22952D01*
X714261Y22970D01*
X714279Y23137D01*
X714279Y30130D01*
X716201Y34769D01*
X719751Y38319D01*
X724390Y40241D01*
X729410Y40241D01*
X734049Y38319D01*
X737599Y34769D01*
X738897Y31637D01*
X738935Y31576D01*
X738964Y31511D01*
X738999Y31472D01*
X739026Y31428D01*
X739082Y31382D01*
X739130Y31329D01*
X739176Y31304D01*
X739216Y31271D01*
X739283Y31245D01*
X739346Y31211D01*
X739397Y31202D01*
X739445Y31183D01*
X739517Y31180D01*
X739588Y31167D01*
X739639Y31175D01*
X739691Y31172D01*
X739760Y31192D01*
X739831Y31203D01*
X739877Y31227D01*
X739927Y31241D01*
X739986Y31282D01*
X740050Y31314D01*
X740087Y31352D01*
X740129Y31381D01*
X740172Y31439D01*
X740222Y31490D01*
X740257Y31553D01*
X740276Y31579D01*
X740283Y31601D01*
X740303Y31637D01*
X741427Y34350D01*
X741454Y34464D01*
X741482Y34577D01*
X741482Y34584D01*
X741483Y34590D01*
X741472Y34706D01*
X741463Y34823D01*
X741461Y34828D01*
X741460Y34835D01*
X741412Y34942D01*
X741367Y35049D01*
X741362Y35055D01*
X741360Y35059D01*
X741348Y35073D01*
X741262Y35180D01*
X666382Y110060D01*
X666345Y110087D01*
X666314Y110121D01*
X666245Y110158D01*
X666182Y110204D01*
X666138Y110217D01*
X666098Y110239D01*
X666021Y110253D01*
X665947Y110276D01*
X665901Y110275D01*
X665856Y110283D01*
X665779Y110272D01*
X665701Y110270D01*
X665658Y110254D01*
X665613Y110247D01*
X665543Y110212D01*
X665470Y110185D01*
X665434Y110156D01*
X665393Y110136D01*
X665339Y110080D01*
X665278Y110031D01*
X665253Y109993D01*
X665221Y109960D01*
X665155Y109840D01*
X665145Y109825D01*
X665144Y109820D01*
X665140Y109813D01*
X664456Y108160D01*
X658830Y102534D01*
X651478Y99489D01*
X613522Y99489D01*
X606170Y102534D01*
X600544Y108160D01*
X597499Y115512D01*
X597499Y123468D01*
X600544Y130820D01*
X606170Y136446D01*
X613522Y139491D01*
X651478Y139491D01*
X658830Y136446D01*
X664456Y130820D01*
X667501Y123468D01*
X667501Y115623D01*
X667515Y115533D01*
X667523Y115442D01*
X667535Y115412D01*
X667540Y115380D01*
X667583Y115299D01*
X667619Y115215D01*
X667645Y115183D01*
X667656Y115162D01*
X667679Y115140D01*
X667724Y115084D01*
X744323Y38485D01*
X744415Y38419D01*
X744449Y38390D01*
X744460Y38385D01*
X744512Y38347D01*
X744518Y38345D01*
X744523Y38342D01*
X744634Y38307D01*
X744745Y38271D01*
X744752Y38271D01*
X744758Y38269D01*
X744875Y38272D01*
X744991Y38273D01*
X744999Y38275D01*
X745004Y38276D01*
X745021Y38282D01*
X745153Y38320D01*
X749790Y40241D01*
X754810Y40241D01*
X759449Y38319D01*
X762999Y34769D01*
X764297Y31637D01*
X764335Y31576D01*
X764364Y31511D01*
X764399Y31472D01*
X764426Y31428D01*
X764482Y31382D01*
X764530Y31329D01*
X764576Y31304D01*
X764616Y31271D01*
X764683Y31245D01*
X764746Y31211D01*
X764797Y31202D01*
X764845Y31183D01*
X764917Y31180D01*
X764988Y31167D01*
X765039Y31175D01*
X765091Y31172D01*
X765160Y31192D01*
X765231Y31203D01*
X765277Y31227D01*
X765327Y31241D01*
X765386Y31282D01*
X765450Y31314D01*
X765487Y31352D01*
X765529Y31381D01*
X765572Y31439D01*
X765622Y31490D01*
X765657Y31553D01*
X765676Y31579D01*
X765683Y31601D01*
X765703Y31637D01*
X767001Y34769D01*
X770551Y38319D01*
X775190Y40241D01*
X780210Y40241D01*
X784724Y38371D01*
X784837Y38345D01*
X784951Y38316D01*
X784957Y38317D01*
X784963Y38315D01*
X785080Y38326D01*
X785196Y38335D01*
X785202Y38338D01*
X785208Y38338D01*
X785316Y38386D01*
X785422Y38431D01*
X785428Y38436D01*
X785433Y38438D01*
X785447Y38451D01*
X785553Y38536D01*
X862276Y115259D01*
X862329Y115333D01*
X862389Y115403D01*
X862401Y115433D01*
X862420Y115459D01*
X862447Y115546D01*
X862481Y115631D01*
X862485Y115672D01*
X862492Y115694D01*
X862491Y115726D01*
X862499Y115798D01*
X862499Y123468D01*
X865544Y130820D01*
X871170Y136446D01*
X878522Y139491D01*
X916478Y139491D01*
X923830Y136446D01*
X929456Y130820D01*
X932501Y123468D01*
X932501Y115512D01*
X929456Y108160D01*
X923830Y102534D01*
X916478Y99489D01*
X878522Y99489D01*
X871170Y102534D01*
X865544Y108160D01*
X864808Y109937D01*
X864784Y109976D01*
X864768Y110019D01*
X864720Y110080D01*
X864679Y110146D01*
X864643Y110175D01*
X864615Y110211D01*
X864549Y110253D01*
X864489Y110303D01*
X864446Y110319D01*
X864408Y110344D01*
X864332Y110363D01*
X864260Y110391D01*
X864214Y110393D01*
X864169Y110404D01*
X864092Y110398D01*
X864014Y110401D01*
X863970Y110389D01*
X863924Y110385D01*
X863853Y110355D01*
X863778Y110333D01*
X863740Y110307D01*
X863698Y110289D01*
X863591Y110203D01*
X863576Y110193D01*
X863573Y110188D01*
X863567Y110184D01*
X788687Y35304D01*
X788619Y35210D01*
X788549Y35115D01*
X788547Y35109D01*
X788543Y35104D01*
X788509Y34993D01*
X788472Y34881D01*
X788473Y34875D01*
X788471Y34869D01*
X788474Y34752D01*
X788475Y34635D01*
X788477Y34628D01*
X788477Y34623D01*
X788483Y34605D01*
X788522Y34474D01*
X789697Y31637D01*
X789734Y31576D01*
X789764Y31511D01*
X789799Y31472D01*
X789826Y31428D01*
X789881Y31382D01*
X789930Y31329D01*
X789976Y31304D01*
X790016Y31271D01*
X790083Y31245D01*
X790146Y31211D01*
X790197Y31202D01*
X790245Y31183D01*
X790317Y31180D01*
X790388Y31167D01*
X790439Y31175D01*
X790491Y31172D01*
X790560Y31192D01*
X790631Y31203D01*
X790677Y31227D01*
X790727Y31241D01*
X790786Y31282D01*
X790850Y31314D01*
X790887Y31352D01*
X790929Y31381D01*
X790972Y31439D01*
X791022Y31490D01*
X791057Y31553D01*
X791076Y31579D01*
X791083Y31601D01*
X791103Y31637D01*
X792401Y34769D01*
X795951Y38319D01*
X800590Y40241D01*
X805610Y40241D01*
X810249Y38319D01*
X813799Y34769D01*
X815721Y30130D01*
X815721Y23137D01*
X815724Y23117D01*
X815722Y23098D01*
X815744Y22996D01*
X815760Y22894D01*
X815770Y22877D01*
X815774Y22857D01*
X815827Y22768D01*
X815876Y22677D01*
X815890Y22663D01*
X815900Y22646D01*
X815979Y22579D01*
X816054Y22507D01*
X816072Y22499D01*
X816087Y22486D01*
X816183Y22447D01*
X816277Y22404D01*
X816297Y22402D01*
X816315Y22394D01*
X816482Y22376D01*
X854502Y22376D01*
X854592Y22390D01*
X854683Y22398D01*
X854713Y22410D01*
X854745Y22415D01*
X854826Y22458D01*
X854910Y22494D01*
X854942Y22520D01*
X854963Y22531D01*
X854985Y22554D01*
X855041Y22599D01*
X860068Y27626D01*
X861738Y27626D01*
X861758Y27629D01*
X861777Y27627D01*
X861879Y27649D01*
X861981Y27665D01*
X861998Y27675D01*
X862018Y27679D01*
X862107Y27732D01*
X862198Y27781D01*
X862212Y27795D01*
X862229Y27805D01*
X862296Y27884D01*
X862368Y27959D01*
X862376Y27977D01*
X862389Y27992D01*
X862428Y28088D01*
X862471Y28182D01*
X862473Y28202D01*
X862481Y28220D01*
X862499Y28387D01*
X862499Y29488D01*
X865544Y36840D01*
X871170Y42466D01*
X878522Y45511D01*
X916478Y45511D01*
X923830Y42466D01*
X929456Y36840D01*
X932501Y29488D01*
X932501Y21532D01*
X929456Y14180D01*
X923830Y8554D01*
X916478Y5509D01*
X878522Y5509D01*
X871170Y8554D01*
X865544Y14180D01*
X862499Y21532D01*
X862499Y21853D01*
X862488Y21924D01*
X862486Y21996D01*
X862468Y22045D01*
X862460Y22096D01*
X862426Y22160D01*
X862401Y22227D01*
X862369Y22268D01*
X862344Y22314D01*
X862292Y22363D01*
X862248Y22419D01*
X862204Y22447D01*
X862166Y22483D01*
X862101Y22513D01*
X862041Y22552D01*
X861990Y22565D01*
X861943Y22587D01*
X861872Y22594D01*
X861802Y22612D01*
X861750Y22608D01*
X861699Y22614D01*
X861628Y22598D01*
X861557Y22593D01*
X861509Y22573D01*
X861458Y22561D01*
X861397Y22525D01*
X861331Y22497D01*
X861275Y22452D01*
X861247Y22435D01*
X861232Y22417D01*
X861200Y22392D01*
X856682Y17874D01*
X816482Y17874D01*
X816462Y17871D01*
X816443Y17873D01*
X816341Y17851D01*
X816239Y17835D01*
X816222Y17825D01*
X816202Y17821D01*
X816113Y17768D01*
X816022Y17719D01*
X816008Y17705D01*
X815991Y17695D01*
X815924Y17616D01*
X815852Y17541D01*
X815844Y17523D01*
X815831Y17508D01*
X815792Y17412D01*
X815749Y17318D01*
X815747Y17298D01*
X815739Y17280D01*
X815721Y17113D01*
X815721Y9870D01*
X813799Y5231D01*
X812369Y3800D01*
X812327Y3742D01*
X812277Y3690D01*
X812256Y3643D01*
X812225Y3601D01*
X812204Y3532D01*
X812174Y3467D01*
X812168Y3415D01*
X812153Y3365D01*
X812155Y3294D01*
X812147Y3223D01*
X812158Y3172D01*
X812159Y3120D01*
X812184Y3052D01*
X812199Y2982D01*
X812226Y2937D01*
X812244Y2889D01*
X812288Y2833D01*
X812325Y2771D01*
X812365Y2737D01*
X812397Y2697D01*
X812458Y2658D01*
X812512Y2611D01*
X812560Y2592D01*
X812604Y2564D01*
X812674Y2546D01*
X812740Y2519D01*
X812812Y2511D01*
X812843Y2503D01*
X812866Y2505D01*
X812907Y2501D01*
X996738Y2501D01*
X996758Y2504D01*
X996777Y2502D01*
X996879Y2524D01*
X996981Y2540D01*
X996998Y2550D01*
X997018Y2554D01*
X997107Y2607D01*
X997198Y2656D01*
X997212Y2670D01*
X997229Y2680D01*
X997296Y2759D01*
X997368Y2834D01*
X997376Y2852D01*
X997389Y2867D01*
X997428Y2963D01*
X997471Y3057D01*
X997473Y3077D01*
X997481Y3095D01*
X997499Y3262D01*
X997499Y141738D01*
X997496Y141758D01*
X997498Y141777D01*
X997476Y141879D01*
X997460Y141981D01*
X997450Y141998D01*
X997446Y142018D01*
X997393Y142107D01*
X997344Y142198D01*
X997330Y142212D01*
X997320Y142229D01*
X997241Y142296D01*
X997166Y142368D01*
X997148Y142376D01*
X997133Y142389D01*
X997037Y142428D01*
X996943Y142471D01*
X996923Y142473D01*
X996905Y142481D01*
X996738Y142499D01*
X518664Y142499D01*
X518656Y142498D01*
X518648Y142499D01*
X518534Y142478D01*
X518421Y142460D01*
X518414Y142456D01*
X518406Y142454D01*
X518305Y142398D01*
X518204Y142344D01*
X518198Y142339D01*
X518191Y142335D01*
X518113Y142250D01*
X518034Y142166D01*
X518031Y142159D01*
X518025Y142153D01*
X517979Y142047D01*
X517931Y141943D01*
X517930Y141935D01*
X517926Y141928D01*
X517916Y141813D01*
X517903Y141699D01*
X517905Y141691D01*
X517904Y141683D01*
X517931Y141570D01*
X517956Y141458D01*
X517960Y141451D01*
X517962Y141444D01*
X518023Y141345D01*
X518082Y141247D01*
X518088Y141242D01*
X518092Y141235D01*
X518216Y141122D01*
X519293Y140340D01*
X520420Y139213D01*
X521356Y137924D01*
X522079Y136505D01*
X522572Y134990D01*
X522821Y133417D01*
X522821Y126523D01*
X513462Y126523D01*
X513442Y126520D01*
X513423Y126522D01*
X513321Y126500D01*
X513219Y126483D01*
X513202Y126474D01*
X513182Y126470D01*
X513093Y126417D01*
X513002Y126368D01*
X512988Y126354D01*
X512971Y126344D01*
X512904Y126265D01*
X512833Y126190D01*
X512824Y126172D01*
X512811Y126157D01*
X512773Y126061D01*
X512729Y125967D01*
X512727Y125947D01*
X512719Y125929D01*
X512701Y125762D01*
X512701Y124999D01*
X512699Y124999D01*
X512699Y125762D01*
X512696Y125782D01*
X512698Y125801D01*
X512676Y125903D01*
X512659Y126005D01*
X512650Y126022D01*
X512646Y126042D01*
X512593Y126131D01*
X512544Y126222D01*
X512530Y126236D01*
X512520Y126253D01*
X512441Y126320D01*
X512366Y126391D01*
X512348Y126400D01*
X512333Y126413D01*
X512237Y126452D01*
X512143Y126495D01*
X512123Y126497D01*
X512105Y126505D01*
X511938Y126523D01*
X502579Y126523D01*
X502579Y133417D01*
X502828Y134990D01*
X503321Y136505D01*
X504044Y137924D01*
X504980Y139213D01*
X506107Y140340D01*
X507184Y141122D01*
X507189Y141128D01*
X507196Y141132D01*
X507275Y141215D01*
X507357Y141297D01*
X507360Y141304D01*
X507366Y141310D01*
X507414Y141414D01*
X507465Y141518D01*
X507466Y141526D01*
X507469Y141533D01*
X507482Y141647D01*
X507497Y141762D01*
X507496Y141770D01*
X507497Y141777D01*
X507472Y141890D01*
X507450Y142003D01*
X507446Y142010D01*
X507444Y142018D01*
X507385Y142117D01*
X507328Y142217D01*
X507322Y142222D01*
X507318Y142229D01*
X507230Y142304D01*
X507145Y142381D01*
X507137Y142384D01*
X507131Y142389D01*
X507024Y142432D01*
X506918Y142477D01*
X506911Y142478D01*
X506903Y142481D01*
X506736Y142499D01*
X493264Y142499D01*
X493256Y142498D01*
X493248Y142499D01*
X493134Y142478D01*
X493021Y142460D01*
X493014Y142456D01*
X493006Y142454D01*
X492905Y142398D01*
X492804Y142344D01*
X492798Y142339D01*
X492791Y142335D01*
X492713Y142250D01*
X492634Y142166D01*
X492631Y142159D01*
X492625Y142153D01*
X492579Y142047D01*
X492531Y141943D01*
X492530Y141935D01*
X492526Y141928D01*
X492516Y141813D01*
X492503Y141699D01*
X492505Y141691D01*
X492504Y141683D01*
X492531Y141570D01*
X492556Y141458D01*
X492560Y141451D01*
X492562Y141444D01*
X492623Y141345D01*
X492682Y141247D01*
X492688Y141242D01*
X492692Y141235D01*
X492816Y141122D01*
X493893Y140340D01*
X495020Y139213D01*
X495956Y137924D01*
X496679Y136505D01*
X497172Y134990D01*
X497421Y133417D01*
X497421Y126523D01*
X488062Y126523D01*
X488042Y126520D01*
X488023Y126522D01*
X487921Y126500D01*
X487819Y126483D01*
X487802Y126474D01*
X487782Y126470D01*
X487693Y126417D01*
X487602Y126368D01*
X487588Y126354D01*
X487571Y126344D01*
X487504Y126265D01*
X487433Y126190D01*
X487424Y126172D01*
X487411Y126157D01*
X487373Y126061D01*
X487329Y125967D01*
X487327Y125947D01*
X487319Y125929D01*
X487301Y125762D01*
X487301Y124999D01*
X487299Y124999D01*
X487299Y125762D01*
X487296Y125782D01*
X487298Y125801D01*
X487276Y125903D01*
X487259Y126005D01*
X487250Y126022D01*
X487246Y126042D01*
X487193Y126131D01*
X487144Y126222D01*
X487130Y126236D01*
X487120Y126253D01*
X487041Y126320D01*
X486966Y126391D01*
X486948Y126400D01*
X486933Y126413D01*
X486837Y126452D01*
X486743Y126495D01*
X486723Y126497D01*
X486705Y126505D01*
X486538Y126523D01*
X477179Y126523D01*
X477179Y133417D01*
X477428Y134990D01*
X477921Y136505D01*
X478644Y137924D01*
X479580Y139213D01*
X480707Y140340D01*
X481784Y141122D01*
X481789Y141128D01*
X481796Y141132D01*
X481875Y141215D01*
X481957Y141297D01*
X481960Y141304D01*
X481966Y141310D01*
X482014Y141414D01*
X482065Y141518D01*
X482066Y141526D01*
X482069Y141533D01*
X482082Y141647D01*
X482097Y141762D01*
X482096Y141770D01*
X482097Y141777D01*
X482072Y141890D01*
X482050Y142003D01*
X482046Y142010D01*
X482044Y142018D01*
X481985Y142117D01*
X481928Y142217D01*
X481922Y142222D01*
X481918Y142229D01*
X481830Y142304D01*
X481745Y142381D01*
X481737Y142384D01*
X481731Y142389D01*
X481624Y142432D01*
X481518Y142477D01*
X481511Y142478D01*
X481503Y142481D01*
X481336Y142499D01*
X3262Y142499D01*
X3242Y142496D01*
X3223Y142498D01*
X3121Y142476D01*
X3019Y142460D01*
X3002Y142450D01*
X2982Y142446D01*
X2893Y142393D01*
X2802Y142344D01*
X2788Y142330D01*
X2771Y142320D01*
X2704Y142241D01*
X2632Y142166D01*
X2624Y142148D01*
X2611Y142133D01*
X2572Y142037D01*
X2529Y141943D01*
X2527Y141923D01*
X2519Y141905D01*
X2501Y141738D01*
X2501Y3262D01*
X2504Y3242D01*
X2502Y3223D01*
X2524Y3121D01*
X2540Y3019D01*
X2550Y3002D01*
X2554Y2982D01*
X2607Y2893D01*
X2656Y2802D01*
X2670Y2788D01*
X2680Y2771D01*
X2759Y2704D01*
X2834Y2632D01*
X2852Y2624D01*
X2867Y2611D01*
X2963Y2572D01*
X3057Y2529D01*
X3077Y2527D01*
X3095Y2519D01*
X3262Y2501D01*
X187093Y2501D01*
X187164Y2512D01*
G37*
%LPC*%
G36*
X966519Y97499D02*
X966519Y97499D01*
X960087Y100164D01*
X955164Y105087D01*
X952499Y111519D01*
X952499Y118481D01*
X955164Y124913D01*
X960087Y129836D01*
X966519Y132501D01*
X973481Y132501D01*
X979913Y129836D01*
X984836Y124913D01*
X987501Y118481D01*
X987501Y111519D01*
X984836Y105087D01*
X979913Y100164D01*
X973481Y97499D01*
X966519Y97499D01*
G37*
%LPD*%
%LPC*%
G36*
X26519Y97499D02*
X26519Y97499D01*
X20087Y100164D01*
X15164Y105087D01*
X12499Y111519D01*
X12499Y118481D01*
X15164Y124913D01*
X20087Y129836D01*
X26519Y132501D01*
X33481Y132501D01*
X39913Y129836D01*
X44836Y124913D01*
X47501Y118481D01*
X47501Y111519D01*
X44836Y105087D01*
X39913Y100164D01*
X33481Y97499D01*
X26519Y97499D01*
G37*
%LPD*%
%LPC*%
G36*
X26519Y12499D02*
X26519Y12499D01*
X20087Y15164D01*
X15164Y20087D01*
X12499Y26519D01*
X12499Y33481D01*
X15164Y39913D01*
X20087Y44836D01*
X26519Y47501D01*
X33481Y47501D01*
X39913Y44836D01*
X44836Y39913D01*
X47501Y33481D01*
X47501Y26519D01*
X44836Y20087D01*
X39913Y15164D01*
X33481Y12499D01*
X26519Y12499D01*
G37*
%LPD*%
%LPC*%
G36*
X966519Y12499D02*
X966519Y12499D01*
X960087Y15164D01*
X955164Y20087D01*
X952499Y26519D01*
X952499Y33481D01*
X955164Y39913D01*
X960087Y44836D01*
X966519Y47501D01*
X973481Y47501D01*
X979913Y44836D01*
X984836Y39913D01*
X987501Y33481D01*
X987501Y26519D01*
X984836Y20087D01*
X979913Y15164D01*
X973481Y12499D01*
X966519Y12499D01*
G37*
%LPD*%
%LPC*%
G36*
X899023Y74023D02*
X899023Y74023D01*
X899023Y90001D01*
X913647Y90001D01*
X915922Y89701D01*
X918137Y89108D01*
X920257Y88230D01*
X922244Y87083D01*
X924064Y85686D01*
X925686Y84064D01*
X927083Y82244D01*
X928230Y80257D01*
X929108Y78137D01*
X929701Y75922D01*
X929951Y74023D01*
X899023Y74023D01*
G37*
%LPD*%
%LPC*%
G36*
X634023Y74023D02*
X634023Y74023D01*
X634023Y90001D01*
X648647Y90001D01*
X650922Y89701D01*
X653137Y89108D01*
X655257Y88230D01*
X657244Y87083D01*
X659064Y85686D01*
X660686Y84064D01*
X662083Y82244D01*
X663230Y80257D01*
X664108Y78137D01*
X664701Y75922D01*
X664951Y74023D01*
X634023Y74023D01*
G37*
%LPD*%
%LPC*%
G36*
X369023Y74023D02*
X369023Y74023D01*
X369023Y90001D01*
X383647Y90001D01*
X385922Y89701D01*
X388137Y89108D01*
X390257Y88230D01*
X392244Y87083D01*
X394064Y85686D01*
X395686Y84064D01*
X397083Y82244D01*
X398230Y80257D01*
X399108Y78137D01*
X399701Y75922D01*
X399951Y74023D01*
X369023Y74023D01*
G37*
%LPD*%
%LPC*%
G36*
X104023Y74023D02*
X104023Y74023D01*
X104023Y90001D01*
X118647Y90001D01*
X120922Y89701D01*
X123137Y89108D01*
X125257Y88230D01*
X127244Y87083D01*
X129064Y85686D01*
X130686Y84064D01*
X132083Y82244D01*
X133230Y80257D01*
X134108Y78137D01*
X134701Y75922D01*
X134951Y74023D01*
X104023Y74023D01*
G37*
%LPD*%
%LPC*%
G36*
X335049Y74023D02*
X335049Y74023D01*
X335299Y75922D01*
X335892Y78137D01*
X336770Y80257D01*
X337917Y82244D01*
X339314Y84064D01*
X340936Y85686D01*
X342756Y87083D01*
X344743Y88230D01*
X346863Y89108D01*
X349078Y89701D01*
X351353Y90001D01*
X365977Y90001D01*
X365977Y74023D01*
X335049Y74023D01*
G37*
%LPD*%
%LPC*%
G36*
X600049Y74023D02*
X600049Y74023D01*
X600299Y75922D01*
X600892Y78137D01*
X601770Y80257D01*
X602917Y82244D01*
X604314Y84064D01*
X605936Y85686D01*
X607756Y87083D01*
X609743Y88230D01*
X611863Y89108D01*
X614078Y89701D01*
X616353Y90001D01*
X630977Y90001D01*
X630977Y74023D01*
X600049Y74023D01*
G37*
%LPD*%
%LPC*%
G36*
X865049Y74023D02*
X865049Y74023D01*
X865299Y75922D01*
X865892Y78137D01*
X866770Y80257D01*
X867917Y82244D01*
X869314Y84064D01*
X870936Y85686D01*
X872756Y87083D01*
X874743Y88230D01*
X876863Y89108D01*
X879078Y89701D01*
X881353Y90001D01*
X895977Y90001D01*
X895977Y74023D01*
X865049Y74023D01*
G37*
%LPD*%
%LPC*%
G36*
X70049Y74023D02*
X70049Y74023D01*
X70299Y75922D01*
X70892Y78137D01*
X71770Y80257D01*
X72917Y82244D01*
X74314Y84064D01*
X75936Y85686D01*
X77756Y87083D01*
X79743Y88230D01*
X81863Y89108D01*
X84078Y89701D01*
X86353Y90001D01*
X100977Y90001D01*
X100977Y74023D01*
X70049Y74023D01*
G37*
%LPD*%
%LPC*%
G36*
X369023Y54999D02*
X369023Y54999D01*
X369023Y70977D01*
X399951Y70977D01*
X399701Y69078D01*
X399108Y66863D01*
X398230Y64743D01*
X397083Y62756D01*
X395686Y60936D01*
X394064Y59314D01*
X392244Y57917D01*
X390257Y56770D01*
X388137Y55892D01*
X385922Y55299D01*
X383647Y54999D01*
X369023Y54999D01*
G37*
%LPD*%
%LPC*%
G36*
X899023Y54999D02*
X899023Y54999D01*
X899023Y70977D01*
X929951Y70977D01*
X929701Y69078D01*
X929108Y66863D01*
X928230Y64743D01*
X927083Y62756D01*
X925686Y60936D01*
X924064Y59314D01*
X922244Y57917D01*
X920257Y56770D01*
X918137Y55892D01*
X915922Y55299D01*
X913647Y54999D01*
X899023Y54999D01*
G37*
%LPD*%
%LPC*%
G36*
X634023Y54999D02*
X634023Y54999D01*
X634023Y70977D01*
X664951Y70977D01*
X664701Y69078D01*
X664108Y66863D01*
X663230Y64743D01*
X662083Y62756D01*
X660686Y60936D01*
X659064Y59314D01*
X657244Y57917D01*
X655257Y56770D01*
X653137Y55892D01*
X650922Y55299D01*
X648647Y54999D01*
X634023Y54999D01*
G37*
%LPD*%
%LPC*%
G36*
X104023Y54999D02*
X104023Y54999D01*
X104023Y70977D01*
X134951Y70977D01*
X134701Y69078D01*
X134108Y66863D01*
X133230Y64743D01*
X132083Y62756D01*
X130686Y60936D01*
X129064Y59314D01*
X127244Y57917D01*
X125257Y56770D01*
X123137Y55892D01*
X120922Y55299D01*
X118647Y54999D01*
X104023Y54999D01*
G37*
%LPD*%
%LPC*%
G36*
X351353Y54999D02*
X351353Y54999D01*
X349078Y55299D01*
X346863Y55892D01*
X344743Y56770D01*
X342756Y57917D01*
X340936Y59314D01*
X339314Y60936D01*
X337917Y62756D01*
X336770Y64743D01*
X335892Y66863D01*
X335299Y69078D01*
X335049Y70977D01*
X365977Y70977D01*
X365977Y54999D01*
X351353Y54999D01*
G37*
%LPD*%
%LPC*%
G36*
X881353Y54999D02*
X881353Y54999D01*
X879078Y55299D01*
X876863Y55892D01*
X874743Y56770D01*
X872756Y57917D01*
X870936Y59314D01*
X869314Y60936D01*
X867917Y62756D01*
X866770Y64743D01*
X865892Y66863D01*
X865299Y69078D01*
X865049Y70977D01*
X895977Y70977D01*
X895977Y54999D01*
X881353Y54999D01*
G37*
%LPD*%
%LPC*%
G36*
X616353Y54999D02*
X616353Y54999D01*
X614078Y55299D01*
X611863Y55892D01*
X609743Y56770D01*
X607756Y57917D01*
X605936Y59314D01*
X604314Y60936D01*
X602917Y62756D01*
X601770Y64743D01*
X600892Y66863D01*
X600299Y69078D01*
X600049Y70977D01*
X630977Y70977D01*
X630977Y54999D01*
X616353Y54999D01*
G37*
%LPD*%
%LPC*%
G36*
X86353Y54999D02*
X86353Y54999D01*
X84078Y55299D01*
X81863Y55892D01*
X79743Y56770D01*
X77756Y57917D01*
X75936Y59314D01*
X74314Y60936D01*
X72917Y62756D01*
X71770Y64743D01*
X70892Y66863D01*
X70299Y69078D01*
X70049Y70977D01*
X100977Y70977D01*
X100977Y54999D01*
X86353Y54999D01*
G37*
%LPD*%
%LPC*%
G36*
X514223Y123477D02*
X514223Y123477D01*
X522821Y123477D01*
X522821Y116583D01*
X522572Y115010D01*
X522079Y113495D01*
X521356Y112076D01*
X520420Y110787D01*
X519293Y109660D01*
X518004Y108724D01*
X516585Y108001D01*
X515070Y107508D01*
X514223Y107374D01*
X514223Y123477D01*
G37*
%LPD*%
%LPC*%
G36*
X488823Y123477D02*
X488823Y123477D01*
X497421Y123477D01*
X497421Y116583D01*
X497172Y115010D01*
X496679Y113495D01*
X495956Y112076D01*
X495020Y110787D01*
X493893Y109660D01*
X492604Y108724D01*
X491185Y108001D01*
X489670Y107508D01*
X488823Y107374D01*
X488823Y123477D01*
G37*
%LPD*%
%LPC*%
G36*
X510330Y107508D02*
X510330Y107508D01*
X508815Y108001D01*
X507396Y108724D01*
X506107Y109660D01*
X504980Y110787D01*
X504044Y112076D01*
X503321Y113495D01*
X502828Y115010D01*
X502579Y116583D01*
X502579Y123477D01*
X511177Y123477D01*
X511177Y107374D01*
X510330Y107508D01*
G37*
%LPD*%
%LPC*%
G36*
X484930Y107508D02*
X484930Y107508D01*
X483415Y108001D01*
X481996Y108724D01*
X480707Y109660D01*
X479580Y110787D01*
X478644Y112076D01*
X477921Y113495D01*
X477428Y115010D01*
X477179Y116583D01*
X477179Y123477D01*
X485777Y123477D01*
X485777Y107374D01*
X484930Y107508D01*
G37*
%LPD*%
%LPC*%
G36*
X632499Y72499D02*
X632499Y72499D01*
X632499Y72501D01*
X632501Y72501D01*
X632501Y72499D01*
X632499Y72499D01*
G37*
%LPD*%
%LPC*%
G36*
X367499Y72499D02*
X367499Y72499D01*
X367499Y72501D01*
X367501Y72501D01*
X367501Y72499D01*
X367499Y72499D01*
G37*
%LPD*%
%LPC*%
G36*
X897499Y72499D02*
X897499Y72499D01*
X897499Y72501D01*
X897501Y72501D01*
X897501Y72499D01*
X897499Y72499D01*
G37*
%LPD*%
%LPC*%
G36*
X102499Y72499D02*
X102499Y72499D01*
X102499Y72501D01*
X102501Y72501D01*
X102501Y72499D01*
X102499Y72499D01*
G37*
%LPD*%
D10*
X196900Y12380D02*
X196900Y27620D01*
X222300Y27620D02*
X222300Y12380D01*
X247700Y12380D02*
X247700Y27620D01*
X273100Y27620D02*
X273100Y12380D01*
X726900Y12380D02*
X726900Y27620D01*
X752300Y27620D02*
X752300Y12380D01*
X777700Y12380D02*
X777700Y27620D01*
X803100Y27620D02*
X803100Y12380D01*
X487300Y117380D02*
X487300Y132620D01*
X512700Y132620D02*
X512700Y117380D01*
D11*
X117500Y119490D02*
X87500Y119490D01*
X87500Y72500D02*
X117500Y72500D01*
X117500Y25510D02*
X87500Y25510D01*
X352500Y25510D02*
X382500Y25510D01*
X382500Y72500D02*
X352500Y72500D01*
X352500Y119490D02*
X382500Y119490D01*
X617500Y119490D02*
X647500Y119490D01*
X647500Y72500D02*
X617500Y72500D01*
X617500Y25510D02*
X647500Y25510D01*
X882500Y25510D02*
X912500Y25510D01*
X912500Y72500D02*
X882500Y72500D01*
X882500Y119490D02*
X912500Y119490D01*
D12*
X196875Y20125D02*
X144375Y20125D01*
X139125Y25375D01*
X103250Y25375D01*
X196875Y20125D02*
X196900Y20000D01*
X103250Y25375D02*
X102500Y25510D01*
X222250Y27125D02*
X222250Y20125D01*
X222250Y27125D02*
X130375Y119000D01*
X103250Y119000D01*
X222250Y20125D02*
X222300Y20000D01*
X103250Y119000D02*
X102500Y119490D01*
X248500Y28000D02*
X248500Y20125D01*
X248500Y28000D02*
X339500Y119000D01*
X367500Y119000D01*
X248500Y20125D02*
X247700Y20000D01*
X367500Y119000D02*
X367500Y119490D01*
X325500Y20125D02*
X273875Y20125D01*
X325500Y20125D02*
X331625Y26250D01*
X367500Y26250D01*
X273875Y20125D02*
X273100Y20000D01*
X367500Y25510D02*
X367500Y26250D01*
X674625Y20125D02*
X726250Y20125D01*
X674625Y20125D02*
X668500Y26250D01*
X632625Y26250D01*
X726250Y20125D02*
X726900Y20000D01*
X632625Y26250D02*
X632500Y25510D01*
X751625Y28000D02*
X751625Y20125D01*
X751625Y28000D02*
X660625Y119000D01*
X632625Y119000D01*
X751625Y20125D02*
X752300Y20000D01*
X632625Y119000D02*
X632500Y119490D01*
X869690Y119490D02*
X897500Y119490D01*
X869690Y119490D02*
X777700Y27500D01*
X777700Y20000D01*
X803250Y20125D02*
X855750Y20125D01*
X861000Y25375D01*
X896875Y25375D01*
X803250Y20125D02*
X803100Y20000D01*
X896875Y25375D02*
X897500Y25510D01*
M02*
