G04 EAGLE Gerber RS-274X export*
G75*
%MOMM*%
%FSLAX34Y34*%
%LPD*%
%IN*%
%IPPOS*%
%AMOC8*
5,1,8,0,0,1.08239X$1,22.5*%
G01*
%ADD10C,0.254000*%


D10*
X0Y0D02*
X1000000Y0D01*
X1000000Y145000D01*
X0Y145000D01*
X0Y0D01*
X45000Y114464D02*
X44924Y113396D01*
X44771Y112335D01*
X44543Y111288D01*
X44241Y110260D01*
X43867Y109256D01*
X43422Y108281D01*
X42908Y107341D01*
X42329Y106440D01*
X41687Y105582D01*
X40985Y104772D01*
X40228Y104015D01*
X39418Y103313D01*
X38560Y102671D01*
X37659Y102092D01*
X36719Y101578D01*
X35744Y101133D01*
X34740Y100759D01*
X33712Y100457D01*
X32665Y100229D01*
X31604Y100076D01*
X30536Y100000D01*
X29464Y100000D01*
X28396Y100076D01*
X27335Y100229D01*
X26288Y100457D01*
X25260Y100759D01*
X24256Y101133D01*
X23281Y101578D01*
X22341Y102092D01*
X21440Y102671D01*
X20582Y103313D01*
X19772Y104015D01*
X19015Y104772D01*
X18313Y105582D01*
X17671Y106440D01*
X17092Y107341D01*
X16578Y108281D01*
X16133Y109256D01*
X15759Y110260D01*
X15457Y111288D01*
X15229Y112335D01*
X15076Y113396D01*
X15000Y114464D01*
X15000Y115536D01*
X15076Y116604D01*
X15229Y117665D01*
X15457Y118712D01*
X15759Y119740D01*
X16133Y120744D01*
X16578Y121719D01*
X17092Y122659D01*
X17671Y123560D01*
X18313Y124418D01*
X19015Y125228D01*
X19772Y125985D01*
X20582Y126687D01*
X21440Y127329D01*
X22341Y127908D01*
X23281Y128422D01*
X24256Y128867D01*
X25260Y129241D01*
X26288Y129543D01*
X27335Y129771D01*
X28396Y129924D01*
X29464Y130000D01*
X30536Y130000D01*
X31604Y129924D01*
X32665Y129771D01*
X33712Y129543D01*
X34740Y129241D01*
X35744Y128867D01*
X36719Y128422D01*
X37659Y127908D01*
X38560Y127329D01*
X39418Y126687D01*
X40228Y125985D01*
X40985Y125228D01*
X41687Y124418D01*
X42329Y123560D01*
X42908Y122659D01*
X43422Y121719D01*
X43867Y120744D01*
X44241Y119740D01*
X44543Y118712D01*
X44771Y117665D01*
X44924Y116604D01*
X45000Y115536D01*
X45000Y114464D01*
X45000Y29464D02*
X44924Y28396D01*
X44771Y27335D01*
X44543Y26288D01*
X44241Y25260D01*
X43867Y24256D01*
X43422Y23281D01*
X42908Y22341D01*
X42329Y21440D01*
X41687Y20582D01*
X40985Y19772D01*
X40228Y19015D01*
X39418Y18313D01*
X38560Y17671D01*
X37659Y17092D01*
X36719Y16578D01*
X35744Y16133D01*
X34740Y15759D01*
X33712Y15457D01*
X32665Y15229D01*
X31604Y15076D01*
X30536Y15000D01*
X29464Y15000D01*
X28396Y15076D01*
X27335Y15229D01*
X26288Y15457D01*
X25260Y15759D01*
X24256Y16133D01*
X23281Y16578D01*
X22341Y17092D01*
X21440Y17671D01*
X20582Y18313D01*
X19772Y19015D01*
X19015Y19772D01*
X18313Y20582D01*
X17671Y21440D01*
X17092Y22341D01*
X16578Y23281D01*
X16133Y24256D01*
X15759Y25260D01*
X15457Y26288D01*
X15229Y27335D01*
X15076Y28396D01*
X15000Y29464D01*
X15000Y30536D01*
X15076Y31604D01*
X15229Y32665D01*
X15457Y33712D01*
X15759Y34740D01*
X16133Y35744D01*
X16578Y36719D01*
X17092Y37659D01*
X17671Y38560D01*
X18313Y39418D01*
X19015Y40228D01*
X19772Y40985D01*
X20582Y41687D01*
X21440Y42329D01*
X22341Y42908D01*
X23281Y43422D01*
X24256Y43867D01*
X25260Y44241D01*
X26288Y44543D01*
X27335Y44771D01*
X28396Y44924D01*
X29464Y45000D01*
X30536Y45000D01*
X31604Y44924D01*
X32665Y44771D01*
X33712Y44543D01*
X34740Y44241D01*
X35744Y43867D01*
X36719Y43422D01*
X37659Y42908D01*
X38560Y42329D01*
X39418Y41687D01*
X40228Y40985D01*
X40985Y40228D01*
X41687Y39418D01*
X42329Y38560D01*
X42908Y37659D01*
X43422Y36719D01*
X43867Y35744D01*
X44241Y34740D01*
X44543Y33712D01*
X44771Y32665D01*
X44924Y31604D01*
X45000Y30536D01*
X45000Y29464D01*
X985000Y114464D02*
X984924Y113396D01*
X984771Y112335D01*
X984543Y111288D01*
X984241Y110260D01*
X983867Y109256D01*
X983422Y108281D01*
X982908Y107341D01*
X982329Y106440D01*
X981687Y105582D01*
X980985Y104772D01*
X980228Y104015D01*
X979418Y103313D01*
X978560Y102671D01*
X977659Y102092D01*
X976719Y101578D01*
X975744Y101133D01*
X974740Y100759D01*
X973712Y100457D01*
X972665Y100229D01*
X971604Y100076D01*
X970536Y100000D01*
X969464Y100000D01*
X968396Y100076D01*
X967335Y100229D01*
X966288Y100457D01*
X965260Y100759D01*
X964256Y101133D01*
X963281Y101578D01*
X962341Y102092D01*
X961440Y102671D01*
X960582Y103313D01*
X959772Y104015D01*
X959015Y104772D01*
X958313Y105582D01*
X957671Y106440D01*
X957092Y107341D01*
X956578Y108281D01*
X956133Y109256D01*
X955759Y110260D01*
X955457Y111288D01*
X955229Y112335D01*
X955076Y113396D01*
X955000Y114464D01*
X955000Y115536D01*
X955076Y116604D01*
X955229Y117665D01*
X955457Y118712D01*
X955759Y119740D01*
X956133Y120744D01*
X956578Y121719D01*
X957092Y122659D01*
X957671Y123560D01*
X958313Y124418D01*
X959015Y125228D01*
X959772Y125985D01*
X960582Y126687D01*
X961440Y127329D01*
X962341Y127908D01*
X963281Y128422D01*
X964256Y128867D01*
X965260Y129241D01*
X966288Y129543D01*
X967335Y129771D01*
X968396Y129924D01*
X969464Y130000D01*
X970536Y130000D01*
X971604Y129924D01*
X972665Y129771D01*
X973712Y129543D01*
X974740Y129241D01*
X975744Y128867D01*
X976719Y128422D01*
X977659Y127908D01*
X978560Y127329D01*
X979418Y126687D01*
X980228Y125985D01*
X980985Y125228D01*
X981687Y124418D01*
X982329Y123560D01*
X982908Y122659D01*
X983422Y121719D01*
X983867Y120744D01*
X984241Y119740D01*
X984543Y118712D01*
X984771Y117665D01*
X984924Y116604D01*
X985000Y115536D01*
X985000Y114464D01*
X985000Y29464D02*
X984924Y28396D01*
X984771Y27335D01*
X984543Y26288D01*
X984241Y25260D01*
X983867Y24256D01*
X983422Y23281D01*
X982908Y22341D01*
X982329Y21440D01*
X981687Y20582D01*
X980985Y19772D01*
X980228Y19015D01*
X979418Y18313D01*
X978560Y17671D01*
X977659Y17092D01*
X976719Y16578D01*
X975744Y16133D01*
X974740Y15759D01*
X973712Y15457D01*
X972665Y15229D01*
X971604Y15076D01*
X970536Y15000D01*
X969464Y15000D01*
X968396Y15076D01*
X967335Y15229D01*
X966288Y15457D01*
X965260Y15759D01*
X964256Y16133D01*
X963281Y16578D01*
X962341Y17092D01*
X961440Y17671D01*
X960582Y18313D01*
X959772Y19015D01*
X959015Y19772D01*
X958313Y20582D01*
X957671Y21440D01*
X957092Y22341D01*
X956578Y23281D01*
X956133Y24256D01*
X955759Y25260D01*
X955457Y26288D01*
X955229Y27335D01*
X955076Y28396D01*
X955000Y29464D01*
X955000Y30536D01*
X955076Y31604D01*
X955229Y32665D01*
X955457Y33712D01*
X955759Y34740D01*
X956133Y35744D01*
X956578Y36719D01*
X957092Y37659D01*
X957671Y38560D01*
X958313Y39418D01*
X959015Y40228D01*
X959772Y40985D01*
X960582Y41687D01*
X961440Y42329D01*
X962341Y42908D01*
X963281Y43422D01*
X964256Y43867D01*
X965260Y44241D01*
X966288Y44543D01*
X967335Y44771D01*
X968396Y44924D01*
X969464Y45000D01*
X970536Y45000D01*
X971604Y44924D01*
X972665Y44771D01*
X973712Y44543D01*
X974740Y44241D01*
X975744Y43867D01*
X976719Y43422D01*
X977659Y42908D01*
X978560Y42329D01*
X979418Y41687D01*
X980228Y40985D01*
X980985Y40228D01*
X981687Y39418D01*
X982329Y38560D01*
X982908Y37659D01*
X983422Y36719D01*
X983867Y35744D01*
X984241Y34740D01*
X984543Y33712D01*
X984771Y32665D01*
X984924Y31604D01*
X985000Y30536D01*
X985000Y29464D01*
M02*
