M48
;GenerationSoftware,Autodesk,EAGLE,9.6.1*%
;CreationDate,2020-04-28T17:38:36Z*%
FMAT,2
ICI,OFF
METRIC,TZ,000.000
T4C0.250
T3C1.016
T2C1.118
T1C3.000
%
G90
M71
T1
X3000Y3000
X67000Y3000
X67000Y27000
X3000Y27000
T2
X32580Y16750
X22420Y12000
X32580Y12000
X22420Y7000
X32580Y7000
X22420Y2250
X32580Y2250
X47580Y16750
X37420Y2250
X7420Y16750
X17580Y16750
X47580Y12000
X37420Y12000
X47580Y7000
X37420Y7000
X47580Y2250
X37420Y16750
X62580Y16750
X52420Y16750
X62580Y12000
X52420Y12000
X62580Y7000
X52420Y7000
X62580Y2250
X52420Y2250
X7420Y12000
X17580Y12000
X7420Y7000
X17580Y7000
X7420Y2250
X17580Y2250
X22420Y16750
T3
X9900Y25520
X62640Y25520
X31190Y22980
X33730Y22980
X33730Y25520
X36270Y22980
X25140Y25520
X36270Y25520
X38810Y22980
X7360Y22980
X7360Y25520
X9900Y22980
X38810Y25520
X12440Y22980
X12440Y25520
X14980Y22980
X14980Y25520
X17520Y22980
X17520Y25520
X20060Y22980
X20060Y25520
X22600Y22980
X22600Y25520
X25140Y22980
X31190Y25520
X44860Y22980
X44860Y25520
X47400Y22980
X47400Y25520
X49940Y22980
X49940Y25520
X52480Y22980
X52480Y25520
X55020Y22980
X55020Y25520
X57560Y22980
X57560Y25520
X60100Y22980
X60100Y25520
X62640Y22980
T4
X28000Y26950
X32025Y27300
X42000Y26950
X10675Y27125
X12775Y29225
X31150Y28525
X45150Y27125
X18900Y27825
X23800Y28175
M30