M48
;GenerationSoftware,Autodesk,EAGLE,9.6.0*%
;CreationDate,2020-03-22T09:14:30Z*%
FMAT,2
ICI,OFF
METRIC,TZ,000.000
T4C1.016
T3C1.194
T2C1.803
T1C3.000
%
G90
M71
T1
X23500Y11500
X76500Y3000
X76500Y11500
X23500Y3000
T2
X36750Y2754
X36750Y11746
X63250Y2754
X63250Y11746
X89750Y2754
X89750Y11746
X10250Y2754
X10250Y11746
T3
X30502Y4761
X42998Y4761
X30502Y9739
X42998Y9739
X57002Y4761
X69498Y4761
X57002Y9739
X69498Y9739
X83502Y4761
X95998Y4761
X83502Y9739
X95998Y9739
X4002Y4761
X16498Y4761
X4002Y9739
X16498Y9739
T4
X51270Y12690
X48730Y12690
X46190Y1810
X48730Y1810
X51270Y1810
X53810Y1810
M30